<svg width="24" height="24" viewBox="0 0 24 24" fill="none" xmlns="http://www.w3.org/2000/svg"><path opacity=".4" fill-rule="evenodd" clip-rule="evenodd" d="M12 4c.5523 0 1 .44772 1 1v14c0 .5523-.4477 1-1 1s-1-.4477-1-1V5c0-.55228.4477-1 1-1z" fill="#000"/><path fill-rule="evenodd" clip-rule="evenodd" d="M11.2929 4.29289c.3905-.39052 1.0237-.39052 1.4142 0l7 7.00001c.3905.3905.3905 1.0237 0 1.4142-.3905.3905-1.0237.3905-1.4142 0L12 6.41421 5.70711 12.7071c-.39053.3905-1.02369.3905-1.41422 0-.39052-.3905-.39052-1.0237 0-1.4142l7.00001-7.00001z" fill="#000"/></svg>