<svg width="24" height="24" viewBox="0 0 24 24" fill="none" xmlns="http://www.w3.org/2000/svg"><path opacity=".4" fill-rule="evenodd" clip-rule="evenodd" d="M9.7587 2h4.4826c.805-.00001 1.4693-.00002 2.0105.04419.5621.04593 1.0788.14449 1.5642.39178.7526.3835 1.3645.99542 1.748 1.74807.2473.48533.3459 1.00204.3918 1.56413C20 6.28938 20 6.95374 20 7.75873V21c0 .3565-.1898.686-.4981.8649-.3083.1789-.6885.1802-.998.0033L12 18.1518l-6.50386 3.7164c-.3095.1769-.68975.1756-.99807-.0033C4.18976 21.686 4 21.3565 4 21V7.7587c-.00001-.80497-.00002-1.46933.04419-2.01053.04593-.56209.14449-1.0788.39178-1.56413.3835-.75265.99542-1.36457 1.74807-1.74807.48533-.24729 1.00204-.34585 1.56413-.39178.5412-.04421 1.20556-.0442 2.01053-.04419zM7.91104 4.03755c-.43842.03582-.66262.10075-.81902.18044a1.999964 1.999964 0 00-.87403.87403c-.07969.1564-.14462.3806-.18044.81902C6.00078 6.36113 6 6.94342 6 7.8v11.4768l5.5039-3.145c.3074-.1757.6848-.1757.9922 0L18 19.2768V7.8c0-.85658-.0008-1.43887-.0376-1.88896-.0358-.43842-.1007-.66262-.1804-.81902-.1917-.37632-.4977-.68229-.874-.87403-.1564-.07969-.3806-.14462-.819-.18044C15.6389 4.00078 15.0566 4 14.2 4H9.8c-.85658 0-1.43887.00078-1.88896.03755z" fill="#000"/><path fill-rule="evenodd" clip-rule="evenodd" d="M12 6c.5523 0 1 .44772 1 1v2h2c.5523 0 1 .44772 1 1 0 .5523-.4477 1-1 1h-2v2c0 .5523-.4477 1-1 1s-1-.4477-1-1v-2H9c-.55228 0-1-.4477-1-1 0-.55228.44772-1 1-1h2V7c0-.55228.4477-1 1-1z" fill="#000"/></svg>