<svg width="24" height="24" viewBox="0 0 24 24" fill="none" xmlns="http://www.w3.org/2000/svg"><path opacity=".4" fill-rule="evenodd" clip-rule="evenodd" d="M12 13c.5523 0 1 .4477 1 1v4c0 .5523-.4477 1-1 1s-1-.4477-1-1v-4c0-.5523.4477-1 1-1zM2 20c0-.5523.44772-1 1-1h7c.5523 0 1 .4477 1 1s-.4477 1-1 1H3c-.55228 0-1-.4477-1-1zm11 0c0-.5523.4477-1 1-1h7c.5523 0 1 .4477 1 1s-.4477 1-1 1h-7c-.5523 0-1-.4477-1-1z" fill="#000"/><path fill-rule="evenodd" clip-rule="evenodd" d="M4 4.99994v.00033c.00001.00124.00018.00558.00305.01502.0034.01115.01178.03316.03202.06614.04245.06914.12901.1731.29117.30089.33018.26021.86992.53828 1.62603.79032C7.45402 6.67322 9.59229 7 12 7c2.4077 0 4.546-.32678 6.0477-.82736.7561-.25204 1.2959-.53011 1.6261-.79032.1621-.12779.2487-.23175.2911-.30089.0203-.03298.0286-.05499.032-.06614.003-.00958.0031-.0139.0031-.01507V5c0-.00073.0001-.00494-.0031-.01529-.0034-.01115-.0117-.03316-.032-.06614-.0424-.06914-.129-.1731-.2911-.30089-.3302-.26021-.87-.53828-1.6261-.79032C16.546 3.32678 14.4077 3 12 3c-2.40771 0-4.54598.32678-6.04773.82736-.75611.25204-1.29585.53011-1.62603.79032-.16216.12779-.24872.23175-.29117.30089-.02024.03298-.02862.05499-.03202.06614C3.99998 4.99479 4 4.99905 4 4.99994zM20 7.5266c-.4012.20517-.8467.38569-1.3198.5434C16.9246 8.6552 14.5629 9 12 9c-2.56285 0-4.92459-.3448-6.68019-.93C4.84666 7.91229 4.40123 7.73177 4 7.5266V11c0 .0019.00008.007.0034.018.00355.0118.01204.0341.03218.0671.04214.0692.1279.1729.28861.3002.3274.2594.86369.537 1.61748.7887C7.43891 12.6738 9.57676 13 12 13c2.4232 0 4.5611-.3262 6.0583-.826.7538-.2517 1.2901-.5293 1.6175-.7887.1607-.1273.2465-.231.2886-.3002.0202-.033.0286-.0553.0322-.0671.0033-.011.0034-.0161.0034-.018V7.5266zM22 5v6c0 .8494-.5132 1.502-1.0821 1.9528-.5788.4587-1.355.8274-2.2262 1.1182C16.9389 14.6562 14.5768 15 12 15c-2.57676 0-4.93891-.3438-6.69167-.929-.87121-.2908-1.64742-.6595-2.22627-1.1182C2.51319 12.502 2 11.8494 2 11V5c0-.85195.51889-1.50441 1.08829-1.95315.58067-.45762 1.35895-.826 2.23152-1.11685C7.07541 1.3448 9.43715 1 12 1c2.5629 0 4.9246.3448 6.6802.93.8726.29085 1.6508.65923 2.2315 1.11685C21.4811 3.49559 22 4.14805 22 5zM12 19c-.5523 0-1 .4477-1 1s.4477 1 1 1 1-.4477 1-1-.4477-1-1-1zm-3 1c0-1.6569 1.3431-3 3-3s3 1.3431 3 3-1.3431 3-3 3-3-1.3431-3-3z" fill="#000"/></svg>