<svg width="24" height="24" viewBox="0 0 24 24" fill="none" xmlns="http://www.w3.org/2000/svg"><path opacity=".4" fill-rule="evenodd" clip-rule="evenodd" d="M10.09 4.05463c-.12062-.04161-.2773-.05466-1.06771-.05466H5.2c-.57655 0-.94883.00078-1.23216.02393-.27167.02219-.37238.05987-.42183.08506a1.000034 1.000034 0 00-.43701.43702c-.0252.04944-.06288.15016-.08507.42183C3.00078 5.25114 3 5.62342 3 6.19997v.8c0 .55229-.44771 1-1 1-.55228 0-1-.44771-1-1v-.83854c-.000017-.52715-.000033-.98191.03057-1.35649.0323-.39534.10362-.78856.29641-1.16694.28762-.56449.74656-1.02343 1.31105-1.31105.37838-.19279.7716-.26411 1.16694-.29641.37458-.0306.82934-.03059 1.35649-.03057h3.86083c.04181 0 .08326-.00005.12437-.00011.59356-.00078 1.11554-.00147 1.59544.16408a3.00003 3.00003 0 011.121.69278c.3627.35524.5955.82244.8603 1.35368.0183.03679.0368.07389.0555.11128l1.1155 2.23108c.247.49398.0468 1.09465-.4472 1.34164-.494.24699-1.0946.04676-1.3416-.44721L10.99 5.2161c-.3534-.70695-.4352-.84126-.5263-.93055-.1059-.10371-.2336-.18259-.3737-.23092z" fill="#000"/><path fill-rule="evenodd" clip-rule="evenodd" d="M19.089 8.03755C18.6389 8.00078 18.0566 8 17.2 8H3v8.2c0 .8566.00078 1.4389.03755 1.889.03582.4384.10075.6626.18044.819.19174.3763.49771.6823.87403.874.1564.0797.3806.1446.81902.1804C5.36113 19.9992 5.94342 20 6.8 20h10.4c.8566 0 1.4389-.0008 1.889-.0376.4384-.0358.6626-.1007.819-.1804.3763-.1917.6823-.4977.874-.874.0797-.1564.1446-.3806.1804-.819.0368-.4501.0376-1.0324.0376-1.889v-4.4c0-.8566-.0008-1.4389-.0376-1.88896-.0358-.43842-.1007-.66262-.1804-.81902-.1917-.37632-.4977-.68229-.874-.87403-.1564-.07969-.3806-.14462-.819-.18044zm.1628-1.99336c.5621.04593 1.0788.14449 1.5642.39178.7526.3835 1.3645.99542 1.748 1.74807.2473.48533.3459 1.00204.3918 1.56413C23 10.2894 23 10.9537 23 11.7587v4.4826c0 .805 0 1.4693-.0442 2.0105-.0459.5621-.1445 1.0788-.3918 1.5642-.3835.7526-.9954 1.3645-1.748 1.748-.4854.2473-1.0021.3459-1.5642.3918C18.7106 22 18.0463 22 17.2413 22H6.75873c-.80499 0-1.46935 0-2.01056-.0442-.56209-.0459-1.0788-.1445-1.56413-.3918-.75265-.3835-1.36457-.9954-1.74807-1.748-.24729-.4854-.34585-1.0021-.39178-1.5642C.999977 17.7106.999988 17.0463 1 16.2413V7c0-.55228.44772-1 1-1h15.2413c.805-.00001 1.4693-.00002 2.0105.04419zm-6.1022 3.65559c.0001.00003-.0001-.00003 0 0l2.1869.78142c.3979.1422.6635.5191.6635.9417v2.5023c0 1.5391-1.0564 2.6899-1.8595 3.3597-.4264.3556-.8476.6312-1.1599.8172-.1573.0937-.2897.1664-.385.2167-.0477.0252-.0863.0449-.1144.0589l-.0339.0168-.0107.0052-.0037.0018-.0015.0006c-.0002.0002-.0011.0006-.4314-.9021-.4303.9027-.4305.9026-.4308.9024l-.0021-.0009-.0037-.0018-.0107-.0052-.0339-.0168c-.0281-.014-.0667-.0337-.1144-.0589-.0953-.0503-.2277-.123-.385-.2167-.3123-.186-.7335-.4616-1.15994-.8172C9.05645 16.6151 8 15.4643 8 13.9252v-2.5023c0-.4225.26552-.7994.66335-.9416l2.18585-.78152c.7434-.26614 1.557-.26621 2.3004 0zM12 17.5l-.4308.9024c.2722.1298.5889.13.8611.0003L12 17.5zm0-1.1419c.2442-.1477.5541-.3544.8595-.6091.697-.5814 1.1405-1.2179 1.1405-1.8238v-1.7977l-1.5241-.5446c-.3076-.1102-.6447-.1104-.9523-.0003L10 12.1274v1.7978c0 .6059.4436 1.2424 1.1405 1.8238.3054.2547.6153.4614.8595.6091z" fill="#000"/></svg>