<svg width="24" height="24" viewBox="0 0 24 24" fill="none" xmlns="http://www.w3.org/2000/svg"><path opacity=".4" fill-rule="evenodd" clip-rule="evenodd" d="M14 7c0-.55228.4477-1 1-1 .7662 0 1.5357.29309 2.1213.87868.5856.58557.8787 1.35504.8787 2.12123 0 .55229-.4477 1.00002-1 1.00003-.5523.00002-1-.44768-1-.99997 0-.25746-.0974-.51163-.2929-.70708S15.2575 8 15 8c-.5523 0-1-.44772-1-1z" fill="#000"/><path fill-rule="evenodd" clip-rule="evenodd" d="M8.00019 9c0-3.86599 3.13401-7 7.00001-7 3.866 0 7 3.13401 7 7 0 3.866-3.134 7-7 7-.3184 0-.6323-.0213-.9403-.0627-.225-.0303-.3658-.049-.4684-.0589-.0183-.0018-.0333-.0031-.0454-.0039-.0031.0026-.0063.0056-.0099.0088-.0535.0488-.1238.1188-.2498.2447l-1.5791 1.5791c-.1875.1875-.4419.2929-.7071.2929h-1v1c0 .5523-.44772 1-1.00001 1h-1v1c0 .5523-.44771 1-1 1H4.56828c-.25238 0-.49817.0001-.70632-.0169-.22859-.0187-.49833-.0628-.76975-.2011-.37632-.1917-.68228-.4977-.87403-.874-.1383-.2714-.18237-.5412-.20104-.7698-.01701-.2081-.01698-.4539-.01695-.7063v-1.7692c0-.0165-.00004-.0336-.00009-.051-.00051-.1899-.00115-.429.05535-.6644.04899-.2041.1298-.3991.23946-.5781.12646-.2063.296-.375.43065-.5089.01237-.0123.02444-.0243.03615-.036l5.11051-5.1105c.12592-.126.19591-.1963.24462-.2498.00325-.0036.0062-.0068.0089-.0099-.00089-.0121-.00214-.0271-.0039-.0454-.00991-.1026-.02867-.2434-.05892-.46842-.04141-.30801-.06273-.62192-.06273-.94028zm0 9v-1c0-.5523.44772-1 1-1H10.586l1.2862-1.2862c.0171-.0171.0346-.0347.0524-.0527.1793-.1804.3973-.3998.6458-.5387.2334-.1305.4279-.1962.6926-.234.1934-.0277.3817-.0142.5207-.0008.1445.014.3231.038.5249.0651l.0178.0024c.2199.0296.4448.0449.6738.0449 2.7614 0 5-2.2386 5-5 0-2.76142-2.2386-5-5-5s-5 2.23858-5 5c0 .22899.0153.45388.0449.67379l.0024.01781c.0271.20184.0511.3804.0651.5249.0134.139.0269.3273-.0008.5207-.0378.2647-.1036.4592-.23402.6926-.13891.2485-.35833.4665-.53874.6458a13.91068 13.91068 0 00-.05261.0524l-5.1105 5.1105c-.09263.0926-.1387.139-.17074.1741a.08407.08407 0 00-.00242.0027c-.00005.0011-.00011.0023-.00017.0036-.00217.0475-.00241.1128-.00241.2438V19.4c0 .2965.00078.4588.0103.5754.00038.0046.00077.009.00115.0131.00415.0004.00855.0008.01318.0012.11659.0095.27884.0103.57537.0103h1.4v-1c0-.5523.44772-1 1-1h1z" fill="#000"/></svg>