<svg xmlns="http://www.w3.org/2000/svg" width="95" height="18" role="img" aria-label="license: MIT">
<title>license: MIT</title>
<linearGradient id="s" x2="0" y2="100%">
  <stop offset="0" stop-color="#fff" stop-opacity=".7"/>
  <stop offset=".1" stop-color="#aaa" stop-opacity=".1"/>
  <stop offset=".9" stop-color="#000" stop-opacity=".3"/>
  <stop offset="1" stop-color="#000" stop-opacity=".5"/>
</linearGradient>
<clipPath id="r"><rect width="95" height="18" rx="4" fill="#fff"/></clipPath>
<g clip-path="url(#r)">
  <rect width="64" height="18" fill="#555"/>
  <rect x="64" width="31" height="18" fill="skyblue"/>
  <rect width="95" height="18" fill="url(#s)"/>
</g>
<g fill="#fff" text-anchor="middle" font-family="Verdana,Geneva,DejaVu Sans,sans-serif" font-size="110">
  <svg x="5" y="2" width="14" height="14" viewBox="0 0 128 128">
    <path fill="skyblue" d="
      m 70.5,11.5 c 0-3.9-12-3.9-12,0
      v 10 c -5.2,0-20.3,8-24.4,8
      h -18.4 c -7.1,0-8.1,13.9,3.5,12
      l -16.9,38.3 c -3.5,6.9,12.5,14,22.9,14,11.8,0,25.9-7.1,22.9-14
      l -16.7-38.3 c 5.6,0,18.4-7.8,27.1-8
      v 76.8 h -20 c -3.9,0-3.9,12,0,12
      h 52 c 4,0,4-12,0-12
      h -20 v -76.8 c 9.3-.1,21.2,8,27.4,8
      l -16.9,38.3 c -2.7,6,11.6,14,22.9,14,11.8,0,26.2-6.5,22.9-14
      l -16.9-38.3 c 12.4,1.2,11.5-12,3.5-12
      h -18.4 c 0,0-19-8-24.5-8 z
      m 32.9,44.7,10.4,24 c -5.8,3.2-15,3.2-20.8,0 z
      m -77.7,0,10.4,24 c -5.8,3.2-15,3.2-20.8,0 z
    "/>
  </svg>
  <text aria-hidden="true" x="415" y="140" fill="#010101" fill-opacity=".3" transform="scale(.1)" textLength="370">license</text>
  <text aria-hidden="true" x="785" y="140" fill="#ccc" fill-opacity=".3" transform="scale(.1)" textLength="210">MIT</text>
  <text x="415" y="130" transform="scale(.1)" fill="#fff" textLength="370">license</text>
  <text x="785" y="130" transform="scale(.1)" fill="#333" textLength="210">MIT</text>
</g>
</svg>