<svg width="24" height="24" viewBox="0 0 24 24" fill="none" xmlns="http://www.w3.org/2000/svg"><path opacity=".4" fill-rule="evenodd" clip-rule="evenodd" d="M9 16c.55228 0 1 .4477 1 1v3h4v-3c0-.5523.4477-1 1-1s1 .4477 1 1v4c0 .5523-.4477 1-1 1H9c-.55228 0-1-.4477-1-1v-4c0-.5523.44772-1 1-1z" fill="#000"/><path fill-rule="evenodd" clip-rule="evenodd" d="M5.16146 2H18.8385c.5272-.00002.982-.00003 1.3565.03057.3954.0323.7886.10362 1.167.29641.5645.28762 1.0234.74656 1.311 1.31105.1928.37838.2641.7716.2964 1.16694C23 5.17954 23 5.6343 23 6.16144v7.67716c0 .5271 0 .9819-.0306 1.3564-.0323.3954-.1036.7886-.2964 1.167a2.999437 2.999437 0 01-1.311 1.311c-.3784.1928-.7716.2641-1.167.2964C19.8205 18 19.3657 18 18.8385 18H5.16148c-.52716 0-.98193 0-1.35651-.0306-.39534-.0323-.78856-.1036-1.16694-.2964-.56449-.2876-1.02343-.7465-1.31105-1.311-.19279-.3784-.26411-.7716-.29641-1.167C.999967 14.8205.999983 14.3657 1 13.8385V6.16146c-.000017-.52715-.000033-.98191.03057-1.35649.0323-.39534.10362-.78856.29641-1.16694.28762-.56449.74656-1.02343 1.31105-1.31105.37838-.19279.7716-.26411 1.16694-.29641.37458-.0306.82934-.03059 1.35649-.03057zM3.96784 4.02393c-.27167.02219-.37238.05987-.42183.08507a.99996.99996 0 00-.43701.43701c-.0252.04945-.06288.15016-.08507.42183C3.00078 5.25117 3 5.62345 3 6.2v7.6c0 .5766.00078.9488.02393 1.2322.02219.2716.05987.3723.08507.4218.09587.1882.24885.3411.43701.437.04945.0252.15016.0629.42183.0851C4.25117 15.9992 4.62345 16 5.2 16h13.6c.5766 0 .9488-.0008 1.2322-.0239.2716-.0222.3723-.0599.4218-.0851a.999812.999812 0 00.437-.437c.0252-.0495.0629-.1502.0851-.4218.0231-.2834.0239-.6556.0239-1.2322V6.2c0-.57655-.0008-.94882-.0239-1.23216-.0222-.27167-.0599-.37238-.0851-.42183-.0959-.18816-.2488-.34114-.437-.43701-.0495-.0252-.1502-.06288-.4218-.08507C19.7488 4.00078 19.3766 4 18.8 4H5.2c-.57655 0-.94883.00078-1.23216.02393z" fill="#000"/></svg>