<svg width="24" height="24" viewBox="0 0 24 24" fill="none" xmlns="http://www.w3.org/2000/svg"><path opacity=".4" fill-rule="evenodd" clip-rule="evenodd" d="M9.00001 1C9.55229 1 10 1.44772 10 2v1.4c0 .29653.0008.45878.0103.57537.0004.00464.0008.00903.0012.01318.0041.00038.0085.00077.0131.00115.1166.00952.2789.0103.5754.0103h2.8c.2965 0 .4588-.00078.5754-.0103.0046-.00038.009-.00077.0132-.00115.0003-.00415.0007-.00854.0011-.01318C13.9992 3.85878 14 3.69653 14 3.4V2c0-.55228.4477-1 1-1s1 .44772 1 1v1.4319c0 .25238.0001.49817-.0169.70633-.0187.22859-.0628.49833-.2011.76975-.1917.37633-.4977.68229-.874.87403-.2714.1383-.5412.18237-.7698.20104-.2081.01701-.4539.01698-.7063.01695H10.5681c-.2524.00003-.4982.00006-.70632-.01695-.2286-.01867-.49833-.06274-.76976-.20104-.37632-.19174-.68228-.4977-.87403-.87403-.1383-.27142-.18236-.54116-.20104-.76975C7.99994 3.93007 7.99997 3.68428 8 3.4319c0-.01062.00001-.02126.00001-.0319V2c0-.55228.44771-1 1-1z" fill="#000"/><path fill-rule="evenodd" clip-rule="evenodd" d="M8.16146 1h7.67704c.5272-.000017.982-.000033 1.3565.03057.3954.0323.7886.10362 1.167.29641.5645.28762 1.0234.74656 1.311 1.31105.1928.37838.2641.7716.2964 1.16694C20 4.17955 20 4.63432 20 5.16148V18.8385c0 .5272 0 .982-.0306 1.3565-.0323.3954-.1036.7886-.2964 1.167a2.999437 2.999437 0 01-1.311 1.311c-.3784.1928-.7716.2641-1.167.2964C16.8205 23 16.3657 23 15.8386 23H8.16144c-.52714 0-.9819 0-1.35647-.0306-.39534-.0323-.78856-.1036-1.16694-.2964-.56449-.2876-1.02343-.7465-1.31105-1.311-.19279-.3784-.26411-.7716-.29641-1.167-.0306-.3745-.03059-.8293-.03057-1.3565V5.16146c-.00002-.52715-.00003-.98191.03057-1.35649.0323-.39534.10362-.78856.29641-1.16694.28762-.56449.74656-1.02343 1.31105-1.31105.37838-.19279.7716-.26411 1.16694-.29641C7.17955.999967 7.63431.999983 8.16146 1zM6.96784 3.02393c-.27167.02219-.37238.05987-.42183.08507a.99996.99996 0 00-.43701.43701c-.0252.04945-.06288.15016-.08507.42183C6.00078 4.25118 6 4.62345 6 5.2v13.6c0 .5766.00078.9488.02393 1.2322.02219.2716.05987.3723.08507.4218.09587.1882.24885.3411.43701.437.04945.0252.15016.0629.42183.0851C7.25117 20.9992 7.62345 21 8.2 21h7.6c.5766 0 .9488-.0008 1.2322-.0239.2716-.0222.3723-.0599.4218-.0851a.999812.999812 0 00.437-.437c.0252-.0495.0629-.1502.0851-.4218.0231-.2834.0239-.6556.0239-1.2322V5.2c0-.57655-.0008-.94883-.0239-1.23216-.0222-.27167-.0599-.37238-.0851-.42183-.0959-.18816-.2488-.34114-.437-.43701-.0495-.0252-.1502-.06288-.4218-.08507C16.7488 3.00078 16.3766 3 15.8 3H8.2c-.57655 0-.94883.00078-1.23216.02393z" fill="#000"/></svg>