<svg xmlns="http://www.w3.org/2000/svg" width="111" height="18" role="img" aria-label="sswg: sandbox">
<title>sswg: sandbox</title>
<linearGradient id="s" x2="0" y2="100%">
  <stop offset="0" stop-color="#fff" stop-opacity=".7"/>
  <stop offset=".1" stop-color="#aaa" stop-opacity=".1"/>
  <stop offset=".9" stop-color="#000" stop-opacity=".3"/>
  <stop offset="1" stop-color="#000" stop-opacity=".5"/>
</linearGradient>
<clipPath id="r"><rect width="111" height="18" rx="4" fill="#fff"/></clipPath>
<g clip-path="url(#r)">
  <rect width="54" height="18" fill="#555"/>
  <rect x="54" width="57" height="18" fill="#fff2fa"/>
  <rect width="111" height="18" fill="url(#s)"/>
</g>
<g fill="#fff" text-anchor="middle" font-family="Verdana,Geneva,DejaVu Sans,sans-serif" font-size="110">
  <svg x="5" y="2" width="14" height="14" viewBox="0 0 256 256">
    <linearGradient id="b" x1=".8" x2=".2" y1=".2" y2=".8">
      <stop stop-color="#e01595"/>
      <stop stop-color="#a53f8a" offset=".7"/>
    </linearGradient>
    <path fill="#fff" stroke-width="7" stroke="url(#b)" d="
             m 44,44 v 168.5 h 168.5 v -168.5 z
             m 24.5-19-5,19 h 76 z
             m 144,38.5 v 76 l 19-71 z
             m -168.5,53.5-19,70.5,19,5 z
             m 73,95.5,70.5,19,5-19 z
             m -19.6-199.6-9.9,17.1,52,14 h 11.3 z
             m 129.1,74.5-14,52 v 11.3 l 30.5-53.4 z
             m -182.5,18-31.1,53.5,17.1,9.5,14-51.5 z
             m 61.5,107,53.5,30.5,9.5-16.5-51.5-14 z
             m 22.8-203.6-14.2,13.9,36.8,21.2 h 12.4 z
             m -84.3,84.1-35.1,35.3,13.9,13.8,21.2-36.5 z
             m 189.5,21-21,36.8 v 12.2l34.9-35 z
             m -140.5,98.5,35.3,34.9,13.8-13.9-36.5-21 z
             m 66-199.6-17,9.8,21,21.2 h 13.5 z
             m -115,66.5-31.1,17.9,9.8,16.6,21.2-21 z
             m 189.5,62.5-21,21 v 13.5l30.5-17.5 z
             m -154,70.5,17.9,30.5,16.6-9.5-21-21 z
             m 108-187.5-19,5,8,14 h 16 z
             m -143.5,38.5-19,5,5,19,14-8 z
             m 182.5,105-14,8 v 16 l 19-5 z
             m -163,44,5,19,19-5-8-14 z
      "/>
    <path fill="url(#b)" d="
             m 140,68
             c 19.0,26.0 15.8,49.8 11.5,60.5  -22.5,-14.5 -42.5,-31.7 -61.5,-50.3
               -0.7,-0.7 16.5,24.8 36.0,45.3   -9.2, -5.3 -34.9,-24.0 -51.0,-39.0
               16.7,24.0 36.8,46.0 59.5,64.5  -25.5, 15.8 -58.5,  2.0 -71.5, -9.0
               21.2,34.1 66.2,50.0 95.0,33.0    7.2, -3.0  21.4, -7.7  29.0,  7.3
                1.8, 3.5 5.7,-15.2 -8.5, -33    6.0,-36.0  -8.9,-59.6 -38.5,-79.4
             z
      "/>
  </svg>
  <text aria-hidden="true" x="365" y="140" fill="#010101" fill-opacity=".3" transform="scale(.1)" textLength="270">sswg</text>
  <text aria-hidden="true" x="815" y="140" fill="#ccc" fill-opacity=".3" transform="scale(.1)" textLength="470">sandbox</text>
  <text x="365" y="130" transform="scale(.1)" fill="#fff" textLength="270">sswg</text>
  <text x="815" y="130" transform="scale(.1)" fill="#333" textLength="470">sandbox</text>
</g>
</svg>
