<svg width="24" height="24" viewBox="0 0 24 24" fill="none" xmlns="http://www.w3.org/2000/svg"><path opacity=".4" fill-rule="evenodd" clip-rule="evenodd" d="M4.5 1c.55228 0 1 .44772 1 1v1.5H7c.55228 0 1 .44772 1 1s-.44772 1-1 1H5.5V7c0 .55228-.44772 1-1 1s-1-.44772-1-1V5.5H2c-.55228 0-1-.44772-1-1s.44772-1 1-1h1.5V2c0-.55228.44772-1 1-1zm0 15c.55228 0 1 .4477 1 1v1.5H7c.55228 0 1 .4477 1 1s-.44772 1-1 1H5.5V22c0 .5523-.44772 1-1 1s-1-.4477-1-1v-1.5H2c-.55228 0-1-.4477-1-1s.44772-1 1-1h1.5V17c0-.5523.44772-1 1-1z" fill="#000"/><path fill-rule="evenodd" clip-rule="evenodd" d="M13 2c.4138 0 .7848.25483.9333.64102l1.7342 4.50886c.3004.78105.3948 1.00612.5239 1.18771.1296.18221.2888.3414.471.47096.1816.12913.4067.22352 1.1877.52393l4.5089 1.73422c.3862.1485.641.5195.641.9333 0 .4138-.2548.7848-.641.9333l-4.5089 1.7342c-.781.3004-1.0061.3948-1.1877.5239a2.0021 2.0021 0 00-.471.471c-.1291.1816-.2235.4067-.5239 1.1877l-1.7342 4.5089c-.1485.3862-.5195.641-.9333.641-.4138 0-.7848-.2548-.9333-.641l-1.7342-4.5089c-.3004-.781-.39482-1.0061-.52395-1.1877a2.000994 2.000994 0 00-.47096-.471c-.18159-.1291-.40666-.2235-1.18771-.5239l-4.50886-1.7342C3.25483 12.7848 3 12.4138 3 12c0-.4138.25483-.7848.64102-.9333l4.50886-1.73422c.78105-.30041 1.00612-.3948 1.18771-.52393a1.999889 1.999889 0 00.47096-.47096c.12913-.18159.22355-.40666.52395-1.18771l1.7342-4.50886C12.2152 2.25483 12.5862 2 13 2zm0 3.78568l-.8008 2.08216c-.0133.03447-.0264.0685-.0393.10209-.2435.63426-.4275 1.11337-.7214 1.52665a3.999318 3.999318 0 01-.9419.94192c-.4133.2939-.89241.4779-1.52667.7214-.03359.0129-.06762.026-.10209.0393L6.78568 12l2.08216.8008c.03448.0133.0685.0264.10209.0393.63426.2435 1.11337.4275 1.52667.7214.3644.2591.6828.5775.9419.9419.2939.4133.4779.8924.7214 1.5267.0129.0336.026.0676.0393.1021L13 18.2143l.8008-2.0821c.0133-.0345.0264-.0685.0393-.1021.2435-.6343.4275-1.1134.7214-1.5267.2591-.3644.5775-.6828.9419-.9419.4133-.2939.8924-.4779 1.5267-.7214.0336-.0129.0676-.026.1021-.0393L19.2143 12l-2.0821-.8008c-.0345-.0133-.0685-.0264-.1021-.0393-.6343-.2435-1.1134-.4275-1.5267-.7214a3.999318 3.999318 0 01-.9419-.94192c-.2939-.41327-.4779-.89239-.7214-1.52664a74.44249 74.44249 0 00-.0393-.1021L13 5.78568z" fill="#000"/></svg>