<svg width="24" height="24" viewBox="0 0 24 24" fill="none" xmlns="http://www.w3.org/2000/svg"><path d="M11.2827 3.45332c.2304-.46694.3457-.70041.5021-.77501.1361-.0649.2943-.0649.4304 0 .1565.0746.2717.30807.5022.77501l2.1867 4.42996c.068.13785.102.20678.1517.2603.0441.04738.0969.08577.1555.11304.0663.0308.1423.04192.2944.06415l4.8913.71494c.5151.07528.7726.11292.8918.23873.1037.10945.1524.25986.1327.40933-.0227.17181-.2091.35343-.582.71663l-3.5381 3.446c-.1102.1074-.1654.1612-.201.2251-.0315.0565-.0517.1187-.0595.183-.0088.0726.0042.1485.0302.3002l.8349 4.8674c.088.5134.132.7701.0493.9224-.072.1325-.1999.2255-.3482.253-.1705.0316-.401-.0897-.862-.3321l-4.3727-2.2996c-.1363-.0716-.2044-.1074-.2762-.1215a.498258.498258 0 00-.1924 0c-.0718.0141-.1399.0499-.2761.1215l-4.37278 2.2996c-.461.2424-.69151.3637-.86195.3321-.14829-.0275-.27625-.1205-.34823-.253-.08274-.1523-.03871-.409.04933-.9224l.83482-4.8674c.02602-.1517.03904-.2276.03023-.3002-.0078-.0643-.02801-.1265-.05951-.183-.03559-.0639-.09073-.1177-.20102-.2251l-3.53803-3.446c-.3729-.3632-.55935-.54482-.58203-.71663-.01974-.14947.02902-.29988.13272-.40933.11919-.12581.37672-.16345.89179-.23873l4.89127-.71494c.15211-.02223.22817-.03335.29441-.06415a.50015.50015 0 00.15547-.11304c.04972-.05352.08374-.12245.15178-.2603l2.18673-4.42996z" stroke="#000" stroke-width="2" stroke-linecap="round" stroke-linejoin="round"/></svg>