<svg xmlns="http://www.w3.org/2000/svg" width="100" height="18" viewBox="0 0 100 18" role="img" aria-label="swift: 6.2.3+">
<title>swift: 6.2.3+</title>
<linearGradient id="s" x2="0" y2="100%">
  <stop offset="0" stop-color="#fff" stop-opacity=".7"/>
  <stop offset=".1" stop-color="#aaa" stop-opacity=".1"/>
  <stop offset=".9" stop-color="#000" stop-opacity=".3"/>
  <stop offset="1" stop-color="#000" stop-opacity=".5"/>
</linearGradient>
<clipPath id="r"><rect width="100" height="18" rx="4" fill="#fff"/></clipPath>
<g clip-path="url(#r)">
  <rect width="52" height="18" fill="#555"/>
  <rect x="52" width="48" height="18" fill="#f07158"/>
  <rect width="100" height="18" fill="url(#s)"/>
</g>
<g fill="#fff" text-anchor="middle" font-family="Verdana,Geneva,DejaVu Sans,sans-serif" font-size="11">
  <svg x="5" y="2" width="14" height="14" viewBox="0 0 24 24">
    <path fill="#f07158" d="
      m 6,24 c -3,0 -6,-3 -6,-6
      v -12  c 0,-3  3,-6  6,-6
      h 12   c 3,0   6,3   6,6
      v 12   c 0,3  -3,6  -6,6 z
    "/>
    <path fill="#fff" d="
      m 13.6,3.4
      c 4.1,2.4 6.3,7.5 5.3,11.5 1.9,2.8 1.6,5.2 1.3,4.7-1.2-2.4-3.3-1.5-4.3-.7-3.9,1.8-10.2,.1-13.5-5.1
        3,2.2 7.2,3.2 10.3,1.3-4.6-3.6-8.5-9.2-8.5-9.3 2.3,2.1 6,4.8 7.3,5.7-2.8-3.1-5.3-6.7-5.2-6.7
        2.7,2.7 5.7,5.3 8.9,7.3 .4-.8 1.4-4.5-1.6-8.7
      z
    "/>
  </svg>
  <text aria-hidden="true" x="35.5" y="14" fill="#010101" fill-opacity=".3" textLength="25">swift</text>
  <text aria-hidden="true" x="75" y="14" fill="#010101" fill-opacity=".3">6.2.3+</text>
  <text x="35.5" y="13" fill="#fff" textLength="25">swift</text>
  <text x="75" y="13" fill="#fff">6.2.3+</text>
</g>
</svg>
