<svg viewBox="0 0 759 128" xmlns="http://www.w3.org/2000/svg" id="technology">
  <defs>
  <style>
    @font-face { font-family: AvenirN; font-weight: 900; src: local("Avenir Next Bold"); }
    @font-face { font-family: AvenirN; font-weight: 400; src: local("Avenir Next Medium"); }
    @media(prefers-color-scheme: dark) {
      :root { --color-logo-shape: #000000; --color-logo-base: #ffffff; }
    }
    body[data-color-scheme="dark"] {
      --color-logo-shape: #000000; --color-logo-base: #ffffff;
    }
  </style>
  <path id="surface" d="m 6,47 l 58,-47 58,47 -58,45 z"/>
  <path id="strut"   d="m 6,47 v 12 l 58,45 v -12 z"/>
  <path id="shape"   d="m81.2,47.83,6.24-3.6-8.65-15-11.1-2.97-1.86,6.96,8.2,2.2zm8.06-.5-21.76,12.56-8.2-2.2.93-3.5,6.8,1.8,8.84-5.1-13.74-3.7.94-3.5,13.73,3.7-5.1-8.84-6.75-1.8.93-3.45-17.1-4.6-21.73,12.55,9.8,2.63,12.9-7.43,7.2,1.93-2.8,10.5-7.2-1.93-2.04-3.54-6.24,3.6,3.53,6.1,17.03,4.56-1.86,6.93,11.1,2.97,30.6-17.67z"/>
  <text id="name" letter-spacing="-5"><tspan font-weight="900">Websocket</tspan><tspan dx="2">Kit</tspan></text>
  </defs>
  <use href="#strut" fill="#9ee0ff"/>
  <use href="#strut" fill="#6bd0ff" y="12"/>
  <use href="#strut" fill="#38c0ff" y="24"/>
  <g transform="matrix(-1 0 0 1 128 0)">
    <use href="#strut" fill="#f29eff"/>
    <use href="#strut" fill="#eb6bff" y="12"/>
    <use href="#strut" fill="#e438ff" y="24"/>
  </g>
  <use href="#surface" style="fill: var(--color-logo-base, #000000);"/>
  <use href="#shape" style="fill: var(--color-logo-shape, #ffffff);"/>
  <use href="#name" x="137" y="99" style="fill: var(--color-logo-base, #000000); font-family: AvenirN, Arial; font-size: 100px;"/>
</svg>
