<svg viewBox="0 0 558 128" xmlns="http://www.w3.org/2000/svg" id="technology">
  <defs>
  <style>
    @font-face { font-family: AvenirN; font-weight: 900; src: local("Avenir Next Bold"); }
    @font-face { font-family: AvenirN; font-weight: 400; src: local("Avenir Next Medium"); }
    @media(prefers-color-scheme: dark) {
      :root { --color-logo-shape: #000000; --color-logo-base: #ffffff; }
    }
    body[data-color-scheme="dark"] {
      --color-logo-shape: #000000; --color-logo-base: #ffffff;
    }
  </style>
  <path id="surface" d="m 6,47 l 58,-47 58,47 -58,45 z"/>
  <path id="strut"   d="m 6,47 v 12 l 58,45 v -12 z"/>
  <path id="shape"   d="m70.7,24.7v.1l-9.1,7.2-3.9-3.1c-.7-.6-1.9-.6-2.6,0l-12.3,9.7c-.7.6-.8,1.5-.1,2.1l3.9,3.1-9.6,7.6c-1.6,1.2-1.8,2.6-.6,3.5l2.3,1.8,38.7-30.6-2.1-1.7c-1.2-1-3.2-.8-4.6.3zm8.6,2.9-38.8,30.7,16.5,13.2c1,.8,2.3.9,3.5-.1l35.2-27.9c1.3-1,.8-2.1.1-2.7zm-22.9,4.4,2.5,2-9.7,7.7-2.6-2zm22,10.6c0,.1.1,5-.2,7.9-.3,2.8-.5,4-.9,4.9-.2.3-.4.4-.4.4-2.7-.4-5.2-1.4-7.6-2.8-6.2-3.5-6.8-7.2-7-7.1,1.4,5.7,6.6,8.3,9.7,9.4.6.3-2,.8-3.7.4-7.1-1.1-7.8-7.3-7.8-9.1-.1-1.4.2-2.9.4-3.7.1-.2.3-.3.4-.2.6.5,1.8.9,1.8,1,.6.2,1.6.5,1.6.5.9.3,1.2,2.9,1.2,2.9l.5-2.4c6.9,2.5,6.9,8.7,7.5,8.8.9.6,1.9,1.3,2.8,1.9l.3-1.9c.8-3.6,1.1-7.3,1.4-10.9z"/>
  <text id="name" letter-spacing="-4"><tspan font-weight="900">SQLite</tspan><tspan dx="0">Kit</tspan></text>
  </defs>
  <use href="#strut" fill="#9ee0ff"/>
  <use href="#strut" fill="#6bd0ff" y="12"/>
  <use href="#strut" fill="#38c0ff" y="24"/>
  <g transform="matrix(-1 0 0 1 128 0)">
    <use href="#strut" fill="#f29eff"/>
    <use href="#strut" fill="#eb6bff" y="12"/>
    <use href="#strut" fill="#e438ff" y="24"/>
  </g>
  <use href="#surface" style="fill: var(--color-logo-base, #000000);"/>
  <use href="#shape" style="fill: var(--color-logo-shape, #ffffff);"/>
  <use href="#name" x="137" y="99" style="fill: var(--color-logo-base, #000000); font-family: AvenirN, Arial; font-size: 100px;"/>
</svg>

