<svg viewBox="0 0 620 128" xmlns="http://www.w3.org/2000/svg" id="technology">
  <defs>
  <style>
    @font-face { font-family: AvenirN; font-weight: 900; src: local("Avenir Next Bold"); }
    @font-face { font-family: AvenirN; font-weight: 400; src: local("Avenir Next Medium"); }
    @media(prefers-color-scheme: dark) {
      :root { --color-logo-shape: #000000; --color-logo-base: #ffffff; }
    }
    body[data-color-scheme="dark"] {
      --color-logo-shape: #000000; --color-logo-base: #ffffff;
    }
  </style>
  <path id="surface" d="m 6,47 l 58,-47 58,47 -58,45 z"/>
  <path id="strut"   d="m 6,47 v 12 l 58,45 v -12 z"/>
  <path id="shape"   d="m81,68c-3.2,3.9-5.9,6.4-8.4,7.8-.9.5-1.5.2-1.5.2-5.7-5.5-10.1-12.2-13.5-19.3-9-18.9-4.2-28.9-4.9-28.9-3,7.7-2.6,16-.4,23.8,1.6,5.3,4.4,10.3,7.8,15.1.4.8-.2.7-.5.5-3.5-1.4-6.6-3.3-9-5.8-15.2-14.7-6.3-30.8-3.5-35.1,2.1-3.4,5.5-6.6,7.3-8.2.5-.4,1.2-.3,1.3.3.6,2.1,2.8,5.2,2.7,5.3.9,1.5,2.9,3.7,3,4,1.7,2.2-2.2,8.9-2.2,8.9l5.2-4.9c7.2,10.1,6.8,19,5.6,25.2-.8,4.1-2.4,8.2-2.1,8.5,1.1,3.1,2.4,6.3,3.5,9.4l3.9-4c8.1-7.4,14.8-15.8,21.7-24-.1.2-8.3,12.2-15.9,21.2z"/>
  <text id="name" letter-spacing="-4"><tspan font-weight="900">SQLite</tspan><tspan dx="0">NIO</tspan></text>
  </defs>
  <use href="#strut" fill="#9ee0ff"/>
  <use href="#strut" fill="#6bd0ff" y="12"/>
  <use href="#strut" fill="#38c0ff" y="24"/>
  <g transform="matrix(-1 0 0 1 128 0)">
    <use href="#strut" fill="#f29eff"/>
    <use href="#strut" fill="#eb6bff" y="12"/>
    <use href="#strut" fill="#e438ff" y="24"/>
  </g>
  <use href="#surface" style="fill: var(--color-logo-base, #000000);"/>
  <use href="#shape" style="fill: var(--color-logo-shape, #ffffff);"/>
  <use href="#name" x="137" y="99" style="fill: var(--color-logo-base, #000000); font-family: AvenirN, Arial; font-size: 100px;"/>
</svg>
