<svg viewBox="0 0 470 128" xmlns="http://www.w3.org/2000/svg" id="technology">
  <defs>
  <style>
    @font-face { font-family: AvenirN; font-weight: 900; src: local("Avenir Next Bold"); }
    @font-face { font-family: AvenirN; font-weight: 400; src: local("Avenir Next Medium"); }
    @media(prefers-color-scheme: dark) {
      :root { --color-logo-shape: #000000; --color-logo-base: #ffffff; }
    }
    body[data-color-scheme="dark"] {
      --color-logo-shape: #000000; --color-logo-base: #ffffff;
    }
  </style>
  <path id="surface" d="m 6,47 l 58,-47 58,47 -58,45 z"/>
  <path id="strut"   d="m 6,47 v 12 l 58,45 v -12 z"/>
  <path id="shape"   d="m56.8,22.3,1.8,12.8,4.9,4.1,3.6-5.3-1.8-12.8zm10.4,11.6.8,5.4,8.2-3.8,5.8-8.6-7.3-4.2zm9,1.6-4.6,6.8,6.8,1,11.4-5.2-3.7-7.1zm2.1,7.9-6.2,2.9,6.4,5.3,10.7,1.6,1.6-7.9zm.1,8.1-8.9-1.4.8,5.4,10.3,8.6,5.8-6zm-8.2,4-4.9-4.1-3.6,5.3,1.8,12.8,8.6-1.2zm-8.6,1.2-.8-5.4-8.2,3.8-5.8,8.6,7.3,4.2zm-8.9-1.6,4.6-6.8-6.8-1-11.4,5.2,3.7,7.1zm-2.1-7.9,6.2-2.9-6.4-5.3-10.6-1.6-1.6,7.9zm-.1-8.1,8.9,1.4-.8-5.4-10.3-8.6-5.8,6z"/>
  <text id="name"><tspan font-weight="900">JWT</tspan><tspan letter-spacing="-5" dx="0">Kit</tspan></text>
  </defs>
  <use href="#strut" fill="#9ee0ff"/>
  <use href="#strut" fill="#6bd0ff" y="12"/>
  <use href="#strut" fill="#38c0ff" y="24"/>
  <g transform="matrix(-1 0 0 1 128 0)">
    <use href="#strut" fill="#f29eff"/>
    <use href="#strut" fill="#eb6bff" y="12"/>
    <use href="#strut" fill="#e438ff" y="24"/>
  </g>
  <use href="#surface" style="fill: var(--color-logo-base, #000000);"/>
  <use href="#shape" style="fill: var(--color-logo-shape, #ffffff);"/>
  <use href="#name" x="137" y="99" style="fill: var(--color-logo-base, #000000); font-family: AvenirN, Arial; font-size: 100px;"/>
</svg>

