<svg viewBox="0 0 607 128" xmlns="http://www.w3.org/2000/svg" id="technology">
  <defs>
  <style>
    @font-face { font-family: AvenirN; font-weight: 900; src: local("Avenir Next Bold"); }
    @font-face { font-family: AvenirN; font-weight: 400; src: local("Avenir Next Medium"); }
    @media(prefers-color-scheme: dark) {
      :root { --color-logo-shape: #000000; --color-logo-base: #ffffff; }
    }
    body[data-color-scheme="dark"] {
      --color-logo-shape: #000000; --color-logo-base: #ffffff;
    }
  </style>
  <path id="surface" d="m 6,47 l 58,-47 58,47 -58,45 z"/>
  <path id="strut"   d="m 6,47 v 12 l 58,45 v -12 z"/>
  <path id="shape"   d="m29.7,49.8c-7.7-6.2,4.8-15.9,12.5-9.8,7.8,6.2-4.8,15.9-12.5,9.8zm67.2-3.2c-8.2,6.4-20-3-11.8-9.4,8.1-6.4,20,3,11.8,9.4zm-14.6,2.1c.8-.1,2,.9,1.9,1.9l-1,11.1c-.6,2.1-3.7,1.5-3.6-.1l.7-7.4-13.1,10.4c-12.9,10.2-28.3-2.8-15.5-12.9l15.5-12.3c8.3-6.6-1.7-14.3-10.1-7.6l-9.2,7.3c-1.7,1.3-4.1-.5-2.5-1.9l9.2-7.3c11.6-9.1,26.8,2.2,15,11.5l-15.4,12.2c-9.7,7.7,1.4,16.4,10.7,9.1l12.9-10.2-8.9.8c-2.3.2-2.6-3.1-.3-3.3z"/>
  <text id="name" letter-spacing="-5"><tspan font-weight="900">Routing</tspan><tspan dx="0">Kit</tspan></text>
  </defs>
  <use href="#strut" fill="#9ee0ff"/>
  <use href="#strut" fill="#6bd0ff" y="12"/>
  <use href="#strut" fill="#38c0ff" y="24"/>
  <g transform="matrix(-1 0 0 1 128 0)">
    <use href="#strut" fill="#f29eff"/>
    <use href="#strut" fill="#eb6bff" y="12"/>
    <use href="#strut" fill="#e438ff" y="24"/>
  </g>
  <use href="#surface" style="fill: var(--color-logo-base, #000000);"/>
  <use href="#shape" style="fill: var(--color-logo-shape, #ffffff);"/>
  <use href="#name" x="137" y="99" style="fill: var(--color-logo-base, #000000); font-family: AvenirN, Arial; font-size: 100px;"/>
</svg>

