<svg width="24" height="24" viewBox="0 0 24 24" fill="none" xmlns="http://www.w3.org/2000/svg"><path opacity=".4" fill-rule="evenodd" clip-rule="evenodd" d="M3 6.5c0-.55228.44772-1 1-1h5c.55228 0 1 .44772 1 1s-.44772 1-1 1H4c-.55228 0-1-.44772-1-1zM1 12c0-.5523.44772-1 1-1h4.5c.55228 0 1 .4477 1 1s-.44772 1-1 1H2c-.55228 0-1-.4477-1-1zm1.5 5.5c0-.5523.44772-1 1-1H9c.55228 0 1 .4477 1 1s-.44772 1-1 1H3.5c-.55228 0-1-.4477-1-1z" fill="#000"/><path fill-rule="evenodd" clip-rule="evenodd" d="M17.3675 2.06997c.4271.16882.6844.6069.6237 1.06216l-.8491 6.36783h3.8378c.2207-.00005.4495-.0001.6385.01718.1859.01699.5241.06203.8264.29537.3526.27209.566.68679.5825 1.13189.0142.3816-.1458.683-.24.8442-.0958.1638-.2288.3499-.3572.5295-.0067.0094-.0133.0188-.02.0281l-6.5964 9.235c-.267.3737-.7542.5176-1.1813.3488-.4272-.1689-.6844-.6069-.6237-1.0622l.8491-6.3678H11.02c-.2208 0-.4495.0001-.6385-.0172-.1859-.017-.52414-.0621-.82646-.2954-.35256-.2721-.56598-.6868-.58248-1.1319-.01415-.3816.14577-.683.24-.8441.09579-.1639.2288-.35.35715-.5296.0067-.0094.01339-.0187.02006-.0281l6.59643-9.23498c.267-.37374.7542-.51758 1.1813-.34875zM11.4431 12.5h4.5568c.2883 0 .5625.1244.7524.3412.1899.2169.277.5052.2389.7909l-.4688 3.516L20.5567 11.5h-4.5568c-.2882 0-.5625-.1244-.7523-.3413-.1899-.2169-.277-.5052-.2389-.7909l.4688-3.51597L11.4431 12.5z" fill="#000"/></svg>