<svg width="24" height="24" viewBox="0 0 24 24" fill="none" xmlns="http://www.w3.org/2000/svg"><path fill-rule="evenodd" clip-rule="evenodd" d="M13.3981 1.08275c.4072.17677.6491.60084.594 1.04134l-.8595 6.87597 6.195-.00001c.241-.00004.4851-.00009.6845.01797.1887.01707.5498.06225.863.31536.3586.28976.564.72832.5571 1.18932-.0061.4026-.2026.709-.3102.8648-.1138.1648-.2701.3523-.4244.5374l-8.9295 10.7153c-.2842.3411-.7592.4539-1.1664.2772-.4072-.1768-.64918-.6009-.5941-1.0414l.8595-6.8759H4.67209c-.24099 0-.48509.0001-.68451-.018-.18861-.0171-.54978-.0623-.86299-.3154-.35858-.2897-.56399-.7283-.55704-1.1893.00608-.4026.20258-.709.31021-.8648.1138-.1648.27011-.3523.42443-.5374.00764-.0092.01528-.0183.02291-.0275l8.9065-10.68783c.2842-.34103.7592-.453884 1.1665-.27712zM5.1349 13.0001h6.865c.2868 0 .5598.1231.7496.3382.1899.215.2782.5012.2426.7858l-.5769 4.6155 6.4496-7.7395h-6.8649c-.2869 0-.5599-.1232-.7497-.3382-.1898-.2151-.2782-.5013-.2426-.78588l.5769-4.61551-6.4496 7.73959z" fill="#000"/></svg>