<svg width="24" height="24" viewBox="0 0 24 24" fill="none" xmlns="http://www.w3.org/2000/svg"><path opacity=".4" fill-rule="evenodd" clip-rule="evenodd" d="M4 12c0-.5523.44772-1 1-1h14c.5523 0 1 .4477 1 1s-.4477 1-1 1H5c-.55228 0-1-.4477-1-1z" fill="#000"/><path fill-rule="evenodd" clip-rule="evenodd" d="M12.7071 4.29289c.3905.39053.3905 1.02369 0 1.41422L6.41421 12l6.29289 6.2929c.3905.3905.3905 1.0237 0 1.4142-.3905.3905-1.0237.3905-1.4142 0l-7.00001-7c-.39052-.3905-.39052-1.0237 0-1.4142l7.00001-7.00001c.3905-.39052 1.0237-.39052 1.4142 0z" fill="#000"/></svg>