<svg width="24" height="24" viewBox="0 0 24 24" fill="none" xmlns="http://www.w3.org/2000/svg"><path fill-rule="evenodd" clip-rule="evenodd" d="M5.24923 9.14303C6.0632 6.17816 8.7764 4 12 4c3.2236 0 5.9368 2.17816 6.7508 5.14303C21.1861 9.70961 23 11.8925 23 14.5c0 3.0376-2.4624 5.5-5.5 5.5h-11C3.46243 20 1 17.5376 1 14.5c0-2.6075 1.8139-4.79039 4.24923-5.35697zM12 6c-2.48215 0-4.54357 1.80968-4.9335 4.1816-.07382.449-.44145.7915-.89454.8335C4.39329 11.1798 3 12.6778 3 14.5 3 16.433 4.567 18 6.5 18h11c1.933 0 3.5-1.567 3.5-3.5 0-1.8222-1.3933-3.3202-3.172-3.4849-.453-.042-.8207-.3845-.8945-.8335C16.5436 7.80968 14.4822 6 12 6z" fill="#000"/></svg>