<svg width="1464" height="832" viewBox="0 0 1464 832" fill="none" xmlns="http://www.w3.org/2000/svg"><mask id="a" style="mask-type:alpha" maskUnits="userSpaceOnUse" x="19" y="102" width="1442" height="828"><path fill-rule="evenodd" clip-rule="evenodd" d="M1461 102H19v828h1442V102zM739 871c373.34 0 676-123.569 676-276 0-152.431-302.66-276-676-276-373.344 0-676 123.569-676 276 0 152.431 302.656 276 676 276z" fill="#D9D9D9"/></mask><g mask="url(#a)"><path fill-rule="evenodd" clip-rule="evenodd" d="M92.4293 167H0v-1h92.4293c22.5837 0 40.8907 18.132 40.8907 40.5v420c0 21.815 17.856 39.5 39.882 39.5H1307.46c22.03 0 39.88-17.685 39.88-39.5V429c0-22.368 18.31-40.5 40.9-40.5H1464v1h-75.76c-22.03 0-39.89 17.685-39.89 39.5v197.5c0 22.368-18.3 40.5-40.89 40.5H173.202c-22.584 0-40.891-18.132-40.891-40.5v-420c0-21.815-17.856-39.5-39.8817-39.5z" fill="url(#paint0_linear_925_192767)"/></g><defs><linearGradient id="paint0_linear_925_192767" x1="0" y1="165.5" x2="1464" y2="165.5" gradientUnits="userSpaceOnUse"><stop stop-color="#94A8B2" stop-opacity=".03"/><stop offset=".042062" stop-color="#F6F7F7"/><stop offset=".079786" stop-color="#94A8B2" stop-opacity=".888453"/><stop offset=".882827" stop-color="#94A8B2" stop-opacity=".117173"/><stop offset=".940608" stop-color="#F6F7F7"/><stop offset="1" stop-color="#94A8B2" stop-opacity="0"/></linearGradient></defs></svg>