<svg viewBox="0 0 24 24" fill="none" xmlns="http://www.w3.org/2000/svg"><path opacity=".4" fill-rule="evenodd" clip-rule="evenodd" d="M8.47189.999855c.01745.000047.03447.000092.05104.000092h6.95447c.0166 0 .0336-.000045.0511-.000092.1899-.000507.429-.001146.6644.055355.204.04899.3991.1298.5781.23946.2063.12645.375.296.5089.43065.0123.01236.0243.02443.036.03615l4.9228 4.92274c.0117.01172.0238.02373.0361.03604.1347.13392.3042.30257.4307.50891.1096.17895.1904.37404.2394.57811.0565.23533.0559.47446.0554.66437-.0001.01745-.0001.03448-.0001.05105v6.95451c0 .0166 0 .0336.0001.051.0005.19.0011.4291-.0554.6644-.049.2041-.1298.3992-.2394.5781-.1265.2064-.296.375-.4307.509-.0123.0123-.0244.0243-.0361.036l-4.9228 4.9227c-.0117.0117-.0237.0238-.036.0362-.1339.1346-.3026.3042-.5089.4306-.179.1097-.3741.1905-.5781.2395-.2354.0565-.4745.0558-.6644.0553-.0175 0-.0345-.0001-.0511-.0001H8.52293c-.01657 0-.0336.0001-.05104.0001-.18991.0005-.42905.0012-.66438-.0553-.20407-.049-.39916-.1298-.5781-.2395-.20635-.1264-.37499-.296-.50892-.4306-.0123-.0124-.02431-.0245-.03603-.0362l-4.92275-4.9227c-.01171-.0117-.02378-.0237-.03615-.036-.13464-.134-.30419-.3026-.43065-.509a1.998965 1.998965 0 01-.23946-.5781c-.056497-.2353-.055858-.4744-.05535-.6644.00005-.0174.00009-.0344.00009-.051V8.52269c0-.01657-.00004-.0336-.00009-.05104-.000508-.18991-.001147-.42905.05535-.66438a1.999944 1.999944 0 01.23946-.57811c.12645-.20635.296-.37499.43065-.50892.01237-.0123.02444-.02431.03615-.03603l4.92275-4.92274c.01171-.01172.02372-.02379.03602-.03616.13393-.13464.30257-.30419.50893-.43064a1.99977 1.99977 0 01.5781-.23946c.23534-.056501.47447-.055862.66438-.055355zM8.27547 3.00253a.911495.911495 0 00-.00265.00241c-.03512.03205-.08152.07811-.17415.17074L3.17593 8.09842c-.09263.09264-.1387.13904-.17074.17415a.922324.922324 0 00-.00242.00266c-.00005.00115-.00011.00234-.00017.00359-.00217.04749-.00241.11287-.00241.24387v6.95451c0 .131.00024.1964.00241.2439.00006.0012.00012.0024.00017.0036.00077.0008.00158.0017.00242.0026.03204.0351.07811.0815.17074.1742l4.92274 4.9227c.09263.0926.13903.1387.17415.1708.00092.0008.0018.0016.00265.0024.00115 0 .00234.0001.00359.0001.04749.0022.11287.0024.24387.0024h6.95447c.131 0 .1964-.0002.2439-.0024.0013 0 .0025-.0001.0036-.0001.0009-.0008.0017-.0016.0027-.0024.0351-.0321.0815-.0782.1741-.1708l4.9228-4.9227c.0926-.0927.1387-.1391.1707-.1742.0008-.0009.0016-.0018.0024-.0026.0001-.0012.0001-.0024.0002-.0036.0022-.0475.0024-.1129.0024-.2439V8.52269c0-.131-.0002-.19638-.0024-.24388-.0001-.00124-.0001-.00243-.0002-.00358a.09124.09124 0 01-.0024-.00266c-.032-.03511-.0781-.08151-.1707-.17415l-4.9228-4.92274c-.0926-.09263-.139-.13869-.1741-.17074-.001-.00084-.0018-.00164-.0027-.00241a.222535.222535 0 00-.0036-.00017c-.0475-.00217-.1129-.00241-.2439-.00241H8.52293c-.131 0-.19638.00024-.24387.00241a.302137.302137 0 00-.00359.00017z" fill="#000"/><path fill-rule="evenodd" clip-rule="evenodd" d="M12 7c.5523 0 1 .44772 1 1v4c0 .5523-.4477 1-1 1s-1-.4477-1-1V8c0-.55228.4477-1 1-1zm-1 9c0-.5523.4477-1 1-1h.01c.5523 0 1 .4477 1 1s-.4477 1-1 1H12c-.5523 0-1-.4477-1-1z" fill="#000"/></svg>