<svg viewBox="0 0 145 51" fill="none" xmlns="http://www.w3.org/2000/svg">
<path d="M141.72 16.9185C140.496 15.3403 138.926 14.0631 137.133 13.1844C135.339 12.3057 133.368 11.8489 131.37 11.8489C129.373 11.8489 127.401 12.3057 125.608 13.1844C123.814 14.0631 122.245 15.3403 121.02 16.9185C119.379 19.26 118.518 22.0595 118.56 24.9185C118.518 27.7776 119.379 30.577 121.02 32.9185C122.245 34.4967 123.814 35.774 125.608 36.6526C127.401 37.5313 129.373 37.9881 131.37 37.9881C133.368 37.9881 135.339 37.5313 137.133 36.6526C138.926 35.774 140.496 34.4967 141.72 32.9185C143.361 30.5767 144.221 27.7775 144.18 24.9185C144.221 22.0596 143.361 19.2603 141.72 16.9185ZM137.62 27.9185C136.68 30.7285 134.45 32.9185 131.36 32.9885C128.27 33.0585 126.04 30.7285 125.11 27.9185C124.445 25.9738 124.445 23.8632 125.11 21.9185C126.05 19.1085 128.28 16.9185 131.36 16.8485C134.44 16.7785 136.68 19.1085 137.62 21.9185C138.282 23.8603 138.282 25.9667 137.62 27.9085V27.9185ZM43.3701 37.3185C43.3701 37.5148 43.2921 37.703 43.1533 37.8418C43.0145 37.9806 42.8263 38.0585 42.6301 38.0585H38.3301C38.1338 38.0585 37.9456 37.9806 37.8068 37.8418C37.668 37.703 37.5901 37.5148 37.5901 37.3185V1.96852C37.5901 1.77226 37.668 1.58403 37.8068 1.44526C37.9456 1.30648 38.1338 1.22852 38.3301 1.22852H42.6301C42.8263 1.22852 43.0145 1.30648 43.1533 1.44526C43.2921 1.58403 43.3701 1.77226 43.3701 1.96852V37.3185ZM33.2701 37.3185C33.2701 37.5148 33.1921 37.703 33.0533 37.8418C32.9145 37.9806 32.7263 38.0585 32.5301 38.0585H28.2301C28.0338 38.0585 27.8456 37.9806 27.7068 37.8418C27.568 37.703 27.4901 37.5148 27.4901 37.3185V1.96852C27.49 1.77398 27.5666 1.58725 27.7033 1.44876C27.8399 1.31027 28.0255 1.23114 28.2201 1.22852H32.5201C32.7163 1.22852 32.9045 1.30648 33.0433 1.44526C33.1821 1.58403 33.2601 1.77226 33.2601 1.96852V37.3185H33.2701ZM117.59 13.3185V16.3185C117.607 16.448 117.592 16.5798 117.545 16.7017C117.498 16.8237 117.422 16.932 117.322 17.0166C117.223 17.1012 117.103 17.1594 116.976 17.186C116.848 17.2125 116.715 17.2065 116.59 17.1685C111.73 16.1685 108.74 18.3285 108.74 22.8185V37.3185C108.74 37.5148 108.662 37.703 108.523 37.8418C108.385 37.9806 108.196 38.0585 108 38.0585H103.7C103.504 38.0585 103.316 37.9806 103.177 37.8418C103.038 37.703 102.96 37.5148 102.96 37.3185V22.5085C102.934 21.1076 103.203 19.717 103.749 18.4267C104.295 17.1364 105.106 15.9752 106.13 15.0185C108.232 12.9633 111.06 11.8206 114 11.8385C115.006 11.8412 116.011 11.9349 117 12.1185C117.51 12.2885 117.59 12.5885 117.59 13.3585V13.3185ZM99.1801 24.9085C99.2346 22.0477 98.3726 19.2444 96.7201 16.9085C95.4956 15.3303 93.9264 14.0531 92.1325 13.1744C90.3386 12.2957 88.3676 11.8389 86.3701 11.8389C84.3726 11.8389 82.4015 12.2957 80.6076 13.1744C78.8137 14.0531 77.2446 15.3303 76.0201 16.9085C74.3949 19.2598 73.5244 22.0503 73.5244 24.9085C73.5244 27.7668 74.3949 30.5572 76.0201 32.9085C77.2249 34.5081 78.79 35.8009 80.5884 36.6819C82.3868 37.5628 84.3677 38.0071 86.3701 37.9785C88.9927 37.9871 91.5585 37.2142 93.7401 35.7585V38.9185C93.7401 43.2085 89.9901 43.9885 87.5901 44.1385C85.9387 44.1931 84.2857 44.1028 82.6501 43.8685C81.9901 43.7685 81.5301 43.8685 81.5301 44.5785V48.3785C81.5339 48.4639 81.5546 48.5477 81.5908 48.6251C81.6271 48.7025 81.6783 48.772 81.7415 48.8296C81.8046 48.8871 81.8785 48.9317 81.9589 48.9607C82.0393 48.9897 82.1247 49.0025 82.2101 48.9985C87.7801 49.4785 91.5301 49.3785 94.3501 47.7685C96.3257 46.6003 97.792 44.7343 98.4601 42.5385C98.9589 40.8443 99.1983 39.0844 99.1701 37.3185V24.9085H99.1801ZM86.3701 32.9685C83.2801 32.9685 81.0501 30.7085 80.1101 27.8985C79.4449 25.9538 79.4449 23.8432 80.1101 21.8985C81.0501 19.0885 83.2801 16.8285 86.3701 16.8285C93.2801 16.8285 93.5101 23.8785 93.5101 24.8985C93.5101 25.9185 93.2801 32.9685 86.3701 32.9685ZM23.5501 22.3185C23.5501 18.9085 22.7901 16.3185 21.1501 14.5285C19.5101 12.7385 16.2101 11.8485 13.1501 11.8485C10.0785 11.8365 7.05888 12.6406 4.40006 14.1785C4.31684 14.2277 4.24806 14.298 4.20065 14.3823C4.15325 14.4666 4.1289 14.5618 4.13006 14.6585L4.36006 18.4185C4.38049 18.5355 4.43164 18.6449 4.50827 18.7356C4.5849 18.8263 4.68426 18.895 4.79618 18.9347C4.90809 18.9744 5.02854 18.9836 5.1452 18.9614C5.26185 18.9393 5.37051 18.8865 5.46006 18.8085C9.21006 16.4985 13.7101 16.0685 16.0001 17.2285C16.6301 17.5916 17.1492 18.1196 17.5016 18.7557C17.854 19.3917 18.0263 20.1118 18.0001 20.8385V21.3885H11.7501C9.06006 21.3885 0.82006 22.3885 0.82006 29.9585V30.0385C0.755941 31.1905 0.964285 32.3413 1.42819 33.3977C1.89209 34.4541 2.59848 35.3862 3.49006 36.1185C5.43755 37.4904 7.7917 38.1635 10.1701 38.0285H22.8201C23.0163 38.0285 23.2045 37.9506 23.3433 37.8118C23.4821 37.673 23.5601 37.4848 23.5601 37.2885V22.2885L23.5501 22.3185ZM18.0001 33.4085H10.5301C9.57162 33.381 8.64549 33.056 7.88006 32.4785C7.48633 32.202 7.16647 31.8332 6.94853 31.4043C6.73059 30.9754 6.62124 30.4995 6.63006 30.0185C6.63006 28.6685 7.54006 25.9685 12.0901 25.9685H18.0001V33.4085ZM59.2001 11.8485C51.5501 11.8485 48.2001 16.9785 47.1301 21.3185C46.8358 22.489 46.688 23.6916 46.6901 24.8985C46.6487 27.7575 47.5095 30.5567 49.1501 32.8985C50.376 34.4751 51.9455 35.7512 53.739 36.6298C55.5326 37.5084 57.5029 37.9662 59.5001 37.9685C63.6301 38.1185 66.3901 37.4185 68.5001 36.2185C68.7058 36.0858 68.8647 35.8918 68.9544 35.664C69.0441 35.4361 69.0601 35.1859 69.0001 34.9485V31.6185C69.0001 30.9385 68.5901 30.6185 68.0001 31.0285C65.5303 32.6113 62.5994 33.3159 59.6801 33.0285C58.0176 33.0066 56.4205 32.3773 55.19 31.2591C53.9595 30.141 53.1806 28.6113 53.0001 26.9585H70.0001C70.184 26.9585 70.3605 26.8862 70.4915 26.757C70.6225 26.6279 70.6974 26.4524 70.7001 26.2685C71.0001 21.6185 69.6501 11.8485 59.2001 11.8485ZM53.0901 22.3585C53.1245 21.593 53.3108 20.8419 53.6381 20.1491C53.9655 19.4562 54.4273 18.8354 54.9968 18.3226C55.5663 17.8099 56.2321 17.4155 56.9554 17.1624C57.6787 16.9094 58.4451 16.8027 59.2101 16.8485C59.9421 16.8037 60.6753 16.9161 61.3604 17.1781C62.0454 17.4402 62.6665 17.8458 63.1818 18.3677C63.6971 18.8896 64.0947 19.5158 64.348 20.2041C64.6012 20.8925 64.7042 21.6271 64.6501 22.3585H53.0901Z" fill="#666880"/>
</svg>
