<svg xmlns="http://www.w3.org/2000/svg" width="871" height="485" viewBox="0 0 871 485" fill="none">
<g opacity="0.15" filter="url(#filter0_f_710_71079)">
<path d="M892.079 321.124L1125.7 152.55C1130.91 148.791 1134 142.757 1134 136.332V18.2853C1134 3.24645 1118.03 -6.41218 1104.71 0.574894L844.134 137.289C834.366 142.414 822.293 138.663 817.149 128.905L739.786 -17.8615C733.845 -29.1333 719.019 -32.0492 709.251 -23.867L399.661 235.47C393.81 240.371 385.68 241.515 378.704 238.418L305.998 206.144C295.056 201.287 282.326 207.066 278.781 218.502L201.324 468.349C195.678 486.559 216.294 501.591 231.907 490.648L649.258 198.103C662.512 188.812 680.737 198.294 680.737 214.48V304.905C680.737 315.951 689.692 324.905 700.737 324.905H880.377C884.578 324.905 888.673 323.582 892.079 321.124Z" fill="url(#paint0_linear_710_71079)"/>
</g>
<defs>
<filter id="filter0_f_710_71079" x="0.370422" y="-228.539" width="1333.63" height="922.895" filterUnits="userSpaceOnUse" color-interpolation-filters="sRGB">
<feFlood flood-opacity="0" result="BackgroundImageFix"/>
<feBlend mode="normal" in="SourceGraphic" in2="BackgroundImageFix" result="shape"/>
<feGaussianBlur stdDeviation="100" result="effect1_foregroundBlur_710_71079"/>
</filter>
<linearGradient id="paint0_linear_710_71079" x1="659" y1="-39.7715" x2="346.861" y2="393.409" gradientUnits="userSpaceOnUse">
<stop stop-color="#23ACF0"/>
<stop offset="0.751057" stop-color="#DF3EFB"/>
<stop offset="1" stop-color="#701980"/>
</linearGradient>
</defs>
</svg>
