<svg width="24" height="24" viewBox="0 0 24 24" fill="none" xmlns="http://www.w3.org/2000/svg"><path opacity=".4" fill-rule="evenodd" clip-rule="evenodd" d="M5.29289 5.29289c.39053-.39052 1.02369-.39052 1.41422 0L18.7071 17.2929c.3905.3905.3905 1.0237 0 1.4142-.3905.3905-1.0237.3905-1.4142 0L5.29289 6.70711c-.39052-.39053-.39052-1.02369 0-1.41422z" fill="#000"/><path fill-rule="evenodd" clip-rule="evenodd" d="M5 6c0-.55228.44772-1 1-1h8c.5523 0 1 .44772 1 1s-.4477 1-1 1H7v7c0 .5523-.44772 1-1 1s-1-.4477-1-1V6z" fill="#000"/></svg>