<svg viewBox="0 0 24 24" fill="none" xmlns="http://www.w3.org/2000/svg"><path opacity=".4" fill-rule="evenodd" clip-rule="evenodd" d="M12 3c.5523 0 1 .44772 1 1v16c0 .5523-.4477 1-1 1s-1-.4477-1-1V4c0-.55228.4477-1 1-1z" fill="#000"/><path fill-rule="evenodd" clip-rule="evenodd" d="M11.2929 3.29289c.3905-.39052 1.0237-.39052 1.4142 0l6 6c.3905.39053.3905 1.02371 0 1.41421-.3905.3905-1.0237.3905-1.4142 0L12 5.41421 6.70711 10.7071c-.39053.3905-1.02369.3905-1.41422 0-.39052-.3905-.39052-1.02368 0-1.41421l6.00001-6z" fill="#000"/></svg>