<svg viewBox="0 0 24 24" fill="none" xmlns="http://www.w3.org/2000/svg"><path opacity=".4" fill-rule="evenodd" clip-rule="evenodd" d="M3 12c0-.5523.44772-1 1-1h16c.5523 0 1 .4477 1 1s-.4477 1-1 1H4c-.55228 0-1-.4477-1-1z" fill="#000"/><path fill-rule="evenodd" clip-rule="evenodd" d="M10.7071 5.29289c.3905.39053.3905 1.02369 0 1.41422L5.41421 12l5.29289 5.2929c.3905.3905.3905 1.0237 0 1.4142-.3905.3905-1.02368.3905-1.41421 0l-6-6c-.39052-.3905-.39052-1.0237 0-1.4142l6-6.00001c.39053-.39052 1.02371-.39052 1.41421 0z" fill="#000"/></svg>