<svg viewBox="0 0 24 24" fill="none" xmlns="http://www.w3.org/2000/svg"><path opacity=".4" fill-rule="evenodd" clip-rule="evenodd" d="M18.7071 5.29289c.3905.39053.3905 1.02369 0 1.41422L6.70711 18.7071c-.39053.3905-1.02369.3905-1.41422 0-.39052-.3905-.39052-1.0237 0-1.4142L17.2929 5.29289c.3905-.39052 1.0237-.39052 1.4142 0z" fill="#000"/><path fill-rule="evenodd" clip-rule="evenodd" d="M6 9c.55228 0 1 .44772 1 1v7h7c.5523 0 1 .4477 1 1s-.4477 1-1 1H6c-.55228 0-1-.4477-1-1v-8c0-.55228.44772-1 1-1z" fill="#000"/></svg>