<svg viewBox="0 0 24 24" fill="none" xmlns="http://www.w3.org/2000/svg"><path opacity=".4" fill-rule="evenodd" clip-rule="evenodd" d="M6.29289 6.29289c.39053-.39052 1.02369-.39052 1.41422 0L17.7071 16.2929c.3905.3905.3905 1.0237 0 1.4142-.3905.3905-1.0237.3905-1.4142 0L6.29289 7.70711c-.39052-.39053-.39052-1.02369 0-1.41422z" fill="#000"/><path fill-rule="evenodd" clip-rule="evenodd" d="M6 7c0-.55228.44772-1 1-1h10c.5523 0 1 .44772 1 1s-.4477 1-1 1H8v9c0 .5523-.44772 1-1 1s-1-.4477-1-1V7z" fill="#000"/></svg>