<svg viewBox="0 0 24 24" fill="none" xmlns="http://www.w3.org/2000/svg"><path opacity=".4" fill-rule="evenodd" clip-rule="evenodd" d="M17.7071 6.29289c.3905.39053.3905 1.02369 0 1.41422L7.70711 17.7071c-.39053.3905-1.02369.3905-1.41422 0-.39052-.3905-.39052-1.0237 0-1.4142L16.2929 6.29289c.3905-.39052 1.0237-.39052 1.4142 0z" fill="#000"/><path fill-rule="evenodd" clip-rule="evenodd" d="M6 7c0-.55228.44772-1 1-1h10c.5523 0 1 .44772 1 1v10c0 .5523-.4477 1-1 1s-1-.4477-1-1V8H7c-.55228 0-1-.44772-1-1z" fill="#000"/></svg>