<svg viewBox="0 0 24 24" fill="none" xmlns="http://www.w3.org/2000/svg"><path opacity=".4" fill-rule="evenodd" clip-rule="evenodd" d="M2.143 6.286C2.143 4.47071 3.61372 3 5.429 3c.55228 0 1 .44772 1 1s-.44772 1-1 1c-.71072 0-1.286.57528-1.286 1.286v4.571c0 .2652-.10536.5196-.29289.7071L3.41421 12l.4359.4359c.18753.1875.29289.4419.29289.7071v4.571c0 .7107.57528 1.286 1.286 1.286.55228 0 1 .4477 1 1s-.44772 1-1 1c-1.81528 0-3.286-1.4707-3.286-3.286v-4.1568l-.85011-.8501C1.10536 12.5196 1 12.2652 1 12c0-.2652.10536-.5196.29289-.7071l.85011-.8501V6.286zM17.5708 4c0-.55228.4477-1 1-1 1.8153 0 3.286 1.47071 3.286 3.286v4.1568l.8501.8501c.3905.3905.3905 1.0237 0 1.4142l-.8501.8501v4.1568c0 1.8156-1.472 3.286-3.286 3.286-.5523 0-1-.4477-1-1s.4477-1 1-1c.71 0 1.286-.5756 1.286-1.286v-4.571c0-.2652.1054-.5196.2929-.7071L20.5856 12l-.4359-.4359c-.1875-.1875-.2929-.4419-.2929-.7071V6.286c0-.71071-.5753-1.286-1.286-1.286-.5523 0-1-.44772-1-1z" fill="#000"/><path fill-rule="evenodd" clip-rule="evenodd" d="M17.2071 8.29289c-.3905-.39052-1.0237-.39052-1.4142 0h1.4142zm-1.4142 0L10.5 13.5858l5.2929-5.29291zM6.79289 11.2929c.39053-.3905 1.02369-.3905 1.41422 0L10.5 13.5858m-3.70711-2.2929c-.39052.3905-.39052 1.0237 0 1.4142v-1.4142zm0 1.4142l2.43432 2.4343-2.43432-2.4343zm4.68291 2.717c-.111.0942-.2796.2198-.5123.2954-.3012.0979-.6258.0979-.927 0-.23266-.0756-.40126-.2012-.51233-.2955-.09586-.0813-.19641-.182-.2806-.2662-.00553-.0055-.01098-.011-.01636-.0164m2.24859.2827c.0959-.0814.1964-.1821.2806-.2663l-.2806.2663zm.2806-.2663c.0056-.0055.011-.011.0164-.0164l-.0164.0164z" fill="#000"/><path d="M17.2071 9.70711c.3905-.39053.3905-1.02369 0-1.41422h-1.4142L10.5 13.5858l-3.70711-2.2929v1.4142l2.43432 2.4343 2.24859.2827.2806-.2663.0164-.0164 5.4343-5.43429z" fill="#000"/></svg>