<svg width="100%" height="100%" viewBox="0 0 24 24" version="1.1" xmlns="http://www.w3.org/2000/svg" xmlns:xlink="http://www.w3.org/1999/xlink" xml:space="preserve" xmlns:serif="http://www.serif.com/" fill="none"><path d="M5.769,3.619c2.522,1.893 5.235,5.732 6.231,7.793c0.996,-2.06 3.709,-5.9 6.231,-7.793c1.82,-1.367 4.769,-2.424 4.769,0.94c0,0.672 -0.385,5.644 -0.611,6.451c-0.785,2.806 -3.647,3.522 -6.192,3.089c4.449,0.757 5.581,3.265 3.136,5.774c-4.642,4.763 -6.672,-1.196 -7.192,-2.722c-0.096,-0.28 -0.14,-0.411 -0.141,-0.3c-0.001,-0.111 -0.045,0.02 -0.141,0.3c-0.52,1.526 -2.55,7.486 -7.192,2.722c-2.445,-2.509 -1.313,-5.017 3.136,-5.774c-2.545,0.433 -5.407,-0.283 -6.192,-3.089c-0.226,-0.807 -0.611,-5.779 -0.611,-6.451c-0,-3.364 2.949,-2.307 4.769,-0.94l-0,-0Z" fill="#000"/></svg>
