<svg viewBox="0 0 24 24" fill="none" xmlns="http://www.w3.org/2000/svg"><path opacity=".4" fill-rule="evenodd" clip-rule="evenodd" d="M17.1458 4.05118C16.5289 4.00078 15.7366 4 14.6 4H7.5c-.55228 0-1-.44771-1-1 0-.55228.44772-1 1-1h7.1428c1.0838-.00001 1.9579-.00002 2.6658.05782.7289.05955 1.3691.18536 1.9614.48715.9408.47936 1.7057 1.24427 2.185 2.18508.3018.59229.4276 1.23248.4872 1.96133C22 7.39926 22 8.27342 22 9.35722V16.5c0 .5523-.4477 1-1 1s-1-.4477-1-1V9.4c0-1.13661-.0008-1.92892-.0512-2.54576-.0494-.60517-.1416-.95286-.2758-1.21621-.2876-.56449-.7465-1.02343-1.311-1.31105-.2634-.13419-.6111-.22636-1.2162-.2758z" fill="#000"/><path fill-rule="evenodd" clip-rule="evenodd" d="M6.16146 5.5h8.17704c.5272-.00002.982-.00003 1.3565.03057.3954.0323.7886.10362 1.167.29641.5645.28762 1.0234.74656 1.311 1.31105.1928.37838.2641.7716.2964 1.16694.0306.37458.0306.82935.0306 1.35651v8.17702c0 .5272 0 .982-.0306 1.3565-.0323.3954-.1036.7886-.2964 1.167a2.999437 2.999437 0 01-1.311 1.311c-.3784.1928-.7716.2641-1.167.2964C15.3205 22 14.8657 22 14.3385 22H6.16148c-.52716 0-.98193 0-1.35651-.0306-.39534-.0323-.78856-.1036-1.16694-.2964-.56449-.2876-1.02343-.7465-1.31105-1.311-.19279-.3784-.26411-.7716-.29641-1.167-.0306-.3745-.03059-.8293-.03057-1.3565V9.66146c-.00002-.52715-.00003-.98191.03057-1.35649.0323-.39534.10362-.78856.29641-1.16694.28762-.56449.74656-1.02343 1.31105-1.31105.37838-.19279.7716-.26411 1.16694-.29641.37458-.0306.82934-.03059 1.35649-.03057zM4.96784 7.52393c-.27167.02219-.37238.05987-.42183.08507a.99996.99996 0 00-.43701.43701c-.0252.04945-.06288.15016-.08507.42183C4.00078 8.75117 4 9.12345 4 9.7v8.1c0 .5766.00078.9488.02393 1.2322.02219.2716.05987.3723.08507.4218.09587.1882.24885.3411.43701.437.04945.0252.15016.0629.42183.0851C5.25118 19.9992 5.62345 20 6.2 20h8.1c.5766 0 .9488-.0008 1.2322-.0239.2716-.0222.3723-.0599.4218-.0851a.999812.999812 0 00.437-.437c.0252-.0495.0629-.1502.0851-.4218.0231-.2834.0239-.6556.0239-1.2322V9.7c0-.57655-.0008-.94882-.0239-1.23216-.0222-.27167-.0599-.37238-.0851-.42183-.0959-.18816-.2488-.34114-.437-.43701-.0495-.0252-.1502-.06288-.4218-.08507C15.2488 7.50078 14.8766 7.5 14.3 7.5H6.2c-.57655 0-.94883.00078-1.23216.02393z" fill="#000"/></svg>