<svg viewBox="0 0 24 24" fill="none" xmlns="http://www.w3.org/2000/svg"><path opacity=".4" fill-rule="evenodd" clip-rule="evenodd" d="M12 3c-4.97056 0-9 4.02944-9 9 0 4.9706 4.02944 9 9 9 4.9706 0 9-4.0294 9-9 0-4.97056-4.0294-9-9-9zM1 12C1 5.92487 5.92487 1 12 1c6.0751 0 11 4.92487 11 11 0 6.0751-4.9249 11-11 11-6.07513 0-11-4.9249-11-11z" fill="#000"/><path fill-rule="evenodd" clip-rule="evenodd" d="M12 4.5c.5523 0 1 .44772 1 1V6h.1667C15.0076 6 16.5 7.49238 16.5 9.33333c0 .55229-.4477.99997-1 .99997s-1-.44768-1-.99997C14.5 8.59695 13.903 8 13.1667 8H11c-.8284 0-1.5.67157-1.5 1.5 0 .8284.6716 1.5 1.5 1.5h2c1.933 0 3.5 1.567 3.5 3.5S14.933 18 13 18v.5c0 .5523-.4477 1-1 1s-1-.4477-1-1V18h-.1667C8.99238 18 7.5 16.5076 7.5 14.6667c0-.5523.44772-1 1-1s1 .4477 1 1C9.5 15.403 10.097 16 10.8333 16H13c.8284 0 1.5-.6716 1.5-1.5S13.8284 13 13 13h-2c-1.933 0-3.5-1.567-3.5-3.5S9.067 6 11 6v-.5c0-.55228.4477-1 1-1z" fill="#000"/></svg>