<svg viewBox="0 0 24 24" fill="none" xmlns="http://www.w3.org/2000/svg"><path opacity=".4" fill-rule="evenodd" clip-rule="evenodd" d="M19.5322 5.52393C19.2488 5.50078 18.8766 5.5 18.3 5.5H11c-.5523 0-1-.44771-1-1 0-.55228.4477-1 1-1h7.3385c.5272-.00002.982-.00003 1.3565.03057.3954.0323.7886.10362 1.167.29641.5645.28762 1.0234.74657 1.311 1.31105.1928.37838.2641.7716.2964 1.16694.0306.37457.0306.82933.0306 1.35647v1.37055c0 .43865 0 .81714-.0213 1.13041-.0226.3298-.0721.6597-.2071.9857-.3044.735-.8885 1.3191-1.6235 1.6235-.326.135-.6559.1845-.9857.2071C19.3491 13 18.9706 13 18.532 13H18.5c-.5523 0-1-.4477-1-1s.4477-1 1-1c.4796 0 .7893-.0005 1.0262-.0167.228-.0156.3149-.0422.3565-.0594.245-.1015.4397-.2962.5412-.5412.0172-.0416.0438-.1285.0594-.3565.0162-.23694.0167-.54657.0167-1.0262V7.7c0-.57655-.0008-.94882-.0239-1.23216-.0222-.27167-.0599-.37238-.0851-.42183-.0959-.18816-.2488-.34114-.437-.43701-.0494-.0252-.1502-.06288-.4218-.08507zM5.46801 11H5.5c.55229 0 1 .4477 1 1s-.44771 1-1 1c-.47962 0-.78926.0005-1.02624.0167-.228.0156-.31483.0422-.35644.0594-.24503.1015-.4397.2962-.5412.5412-.01723.0416-.04385.1285-.05941.3565C3.50054 14.2107 3.5 14.5204 3.5 15v1.3c0 .5766.00078.9488.02393 1.2322.02219.2716.05987.3723.08507.4218.09587.1882.24885.3411.43701.437.04945.0252.15016.0629.42183.0851.28334.0231.65561.0239 1.23216.0239H13c.5523 0 1 .4477 1 1s-.4477 1-1 1H5.66144c-.52714 0-.9819 0-1.35647-.0306-.39534-.0323-.78856-.1036-1.16694-.2964-.56449-.2876-1.02343-.7465-1.31105-1.311-.19279-.3784-.26411-.7716-.29641-1.167-.0306-.3745-.03059-.8293-.03057-1.3565V14.968c-.00001-.4386-.00002-.8171.02135-1.1304.02251-.3298.07201-.6597.20701-.9856.30448-.7351.88851-1.3192 1.62359-1.6236.32593-.135.65584-.1845.98567-.207C4.65088 11 5.02936 11 5.46801 11z" fill="#000"/><path fill-rule="evenodd" clip-rule="evenodd" d="M2.77687 1.00001H6.22315c.11912-.000049.26137-.000104.38669.01014.14522.01186.35321.0423.57116.15335.28224.14381.51171.37328.65552.65553.11105.21794.14149.42593.15336.57115.01024.12532.01018.26758.01014.38669-.00001.00782-.00001.01554-.00001.02314v3.4c0 .00761 0 .01532.00001.02314.00004.11912.0001.26137-.01014.38669-.01187.14522-.04231.35321-.15336.57116a1.500014 1.500014 0 01-.65552.65552c-.21795.11105-.42594.14149-.57116.15336-.12532.01024-.26757.01018-.38669.01014-.00782-.00001-.01553-.00001-.02314-.00001h-3.4c-.0076 0-.01532 0-.02314.00001-.11911.00004-.26137.0001-.38669-.01014-.14522-.01187-.35321-.04231-.57115-.15336A1.499984 1.499984 0 011.1635 7.181c-.11105-.21795-.14149-.42594-.15335-.57116-.010244-.12532-.010189-.26757-.01014-.38669V2.80001v-.02314c-.000049-.11911-.000104-.26137.01014-.38669.01186-.14522.0423-.35321.15335-.57115a1.499955 1.499955 0 01.65553-.65553c.21794-.11105.42593-.14149.57115-.15335.12532-.010244.26758-.010189.38669-.01014zm.22314 2v3h3v-3h-3zm7.27689 5.5h3.4463c.1191-.00005.2613-.0001.3866.01014.1453.01186.3533.0423.5712.15335.2822.14381.5117.37328.6555.65553.1111.21794.1415.42593.1534.57115.0102.12532.0102.26762.0101.38672V13.7231c.0001.1192.0001.2614-.0101.3867-.0119.1453-.0423.3533-.1534.5712-.1438.2822-.3733.5117-.6555.6555-.2179.1111-.4259.1415-.5712.1534-.1253.0102-.2675.0102-.3867.0101H10.2769c-.1191.0001-.2614.0001-.38672-.0101-.14522-.0119-.35321-.0423-.57115-.1534-.28225-.1438-.51172-.3733-.65553-.6555-.11105-.2179-.14149-.4259-.15335-.5712-.01024-.1253-.01019-.2675-.01014-.3866V10.3v-.0231c-.00005-.1191-.0001-.2614.01014-.38672.01186-.14522.0423-.35321.15335-.57115a1.499955 1.499955 0 01.65553-.65553c.21794-.11105.42593-.14149.57115-.15335.12532-.01024.26762-.01019.38672-.01014zM10.5 10.5v3h3v-3h-3zm7.2769 5.5h3.4462c.1192 0 .2614-.0001.3867.0101.1453.0119.3533.0424.5712.1534.2822.1438.5117.3733.6555.6555.1111.218.1415.426.1534.5712.0102.1253.0102.2675.0101.3867v3.4463c.0001.1191.0001.2613-.0101.3866-.0119.1453-.0423.3533-.1534.5712-.1438.2822-.3733.5117-.6555.6555-.2179.1111-.4259.1415-.5712.1534-.1253.0102-.2675.0102-.3866.0101h-3.4463c-.1192.0001-.2614.0001-.3867-.0101-.1452-.0119-.3532-.0423-.5712-.1534-.2822-.1438-.5117-.3733-.6555-.6555-.111-.2179-.1415-.4259-.1534-.5712-.0102-.1253-.0101-.2675-.0101-.3867v-3.4462c0-.1191-.0001-.2614.0101-.3867.0119-.1452.0424-.3532.1534-.5712.1438-.2822.3733-.5117.6555-.6555.218-.111.426-.1415.5712-.1534.1253-.0102.2676-.0101.3867-.0101zM18 18v3h3v-3h-3z" fill="#000"/></svg>