<svg viewBox="0 0 24 24" fill="none" xmlns="http://www.w3.org/2000/svg"><path opacity=".4" fill-rule="evenodd" clip-rule="evenodd" d="M11.9999 6c-.3818 0-.7522.02849-1.1112.08156-.5463.08078-1.05471-.29664-1.13549-.84298-.08078-.54635.29669-1.05473.84299-1.13551C11.05 4.03597 11.5182 4 11.9999 4c2.8617 0 5.1947 1.26472 6.9233 2.70743 1.7262 1.44075 2.9098 3.10686 3.5025 4.04537.0078.0125.0159.0251.0241.038.1176.1852.2704.4256.3476.7625.0623.272.0623.6218-.0001.8938l-.9747-.2235.9747.2235c-.0773.337-.2307.5783-.3488.7642-.0083.013-.0165.0258-.0244.0384-.3183.5039-.8014 1.2084-1.4414 1.9727-.3545.4235-.9852.4793-1.4087.1248-.4234-.3546-.4793-.9853-.1247-1.4087.5713-.6824 1.0027-1.3118 1.284-1.7571.0356-.0563.0605-.0959.0814-.1302.014-.0231.0233-.039.0294-.05V12v-.0012c-.006-.0108-.015-.0263-.0287-.0488-.0206-.034-.0453-.0732-.0807-.1292-.5327-.8434-1.5868-2.32073-3.093-3.57789C16.1377 6.9877 14.2433 6 11.9999 6zm-4.44851.15366c.31004.45704.19087 1.07889-.26617 1.38893C5.2876 8.8977 3.9077 10.8036 3.26606 11.8194c-.0355.0561-.06038.0956-.08118.1298-.01388.0229-.02302.0386-.02912.0496v.0024c.00602.0108.01502.0264.02865.0488.02067.034.04539.0732.08074.1292.53266.8434 1.58676 2.3207 3.09305 3.5779C7.86214 17.0123 9.7566 18 11.9999 18c1.8105 0 3.3909-.6421 4.726-1.5503.4567-.3106 1.0787-.1922 1.3893.2645.3106.4566.1922 1.0786-.2645 1.3893C16.2719 19.1773 14.3063 20 11.9999 20c-2.86164 0-5.19463-1.2647-6.92323-2.7074-1.72625-1.4408-2.90978-3.1069-3.50252-4.0454-.00784-.0125-.01588-.0251-.02409-.038-.11764-.1852-.27037-.4256-.34757-.7625-.06232-.2719-.0623-.6218.00006-.8937l.96796.2219-.96796-.2219c.07724-.3369.23041-.5779.34835-.7635.00828-.013.01638-.0258.02428-.0383.70505-1.11608 2.26074-3.28549 4.58727-4.86372.45705-.31004 1.0789-.19087 1.38894.26618z" fill="#000"/><path fill-rule="evenodd" clip-rule="evenodd" d="M2.29289 2.29289c.39053-.39052 1.02369-.39052 1.41422 0L21.7071 20.2929c.3905.3905.3905 1.0237 0 1.4142-.3905.3905-1.0237.3905-1.4142 0l-6.2611-6.2611C13.4364 15.7977 12.7414 16 12 16c-2.20914 0-4-1.7909-4-4 0-.7414.20229-1.4364.55397-2.03182L2.29289 3.70711c-.39052-.39053-.39052-1.02369 0-1.41422zm7.77471 9.18891C10.0235 11.647 10 11.8207 10 12c0 1.1046.8954 2 2 2 .1793 0 .353-.0235.5182-.0676l-2.4506-2.4506z" fill="#000"/></svg>