<svg viewBox="0 0 24 24" fill="none" xmlns="http://www.w3.org/2000/svg"><path opacity=".4" fill-rule="evenodd" clip-rule="evenodd" d="M6.35819 8.24291C4.8519 9.50007 3.7978 10.9774 3.26513 11.8208c-.03534.056-.06006.0952-.08072.1292-.01363.0224-.02263.038-.02865.0488v.0024c.00602.0108.01502.0264.02865.0488.02066.034.04538.0732.08072.1292.53267.8434 1.58677 2.3207 3.09306 3.5779C7.86213 17.0123 9.75658 18 11.9999 18c2.2433 0 4.1378-.9877 5.6417-2.2429 1.5063-1.2572 2.5604-2.7345 3.0931-3.5779.0353-.056.0601-.0952.0807-.1292.0137-.0224.0227-.038.0287-.0488V12v-.0012c-.0061-.0108-.015-.0264-.0287-.0488-.0206-.034-.0454-.0732-.0807-.1292-.5327-.8434-1.5868-2.32073-3.0931-3.57789C16.1377 6.9877 14.2432 6 11.9999 6c-2.24332 0-4.13777.9877-5.64171 2.24291zM5.07666 6.70743C6.80526 5.26472 9.13824 4 11.9999 4c2.8617 0 5.1947 1.26472 6.9233 2.70743 1.7262 1.44075 2.9098 3.10686 3.5025 4.04537.0078.0125.0159.0251.0241.038.1176.1852.2703.4256.3475.7624.0624.2719.0624.6217 0 .8936-.0772.3368-.2299.5772-.3475.7624-.0082.0129-.0163.0255-.0241.038-.5927.9385-1.7763 2.6046-3.5025 4.0454C17.1946 18.7353 14.8616 20 11.9999 20c-2.86166 0-5.19464-1.2647-6.92324-2.7074-1.72625-1.4408-2.90978-3.1069-3.50253-4.0454a12.64407 12.64407 0 00-.02408-.038c-.11762-.1852-.27034-.4256-.34754-.7624-.06233-.2719-.06233-.6217 0-.8936.0772-.3368.22992-.5772.34754-.7624.00821-.0129.01625-.0256.02408-.038.59275-.93851 1.77628-2.60462 3.50253-4.04537z" fill="#000"/><path fill-rule="evenodd" clip-rule="evenodd" d="M12 10c-1.1046 0-2 .8954-2 2s.8954 2 2 2 2-.8954 2-2-.8954-2-2-2zm-4 2c0-2.20914 1.79086-4 4-4 2.2091 0 4 1.79086 4 4 0 2.2091-1.7909 4-4 4-2.20914 0-4-1.7909-4-4z" fill="#000"/></svg>