<svg width="24" height="24" viewBox="0 0 24 24" fill="none" xmlns="http://www.w3.org/2000/svg"><path opacity=".4" fill-rule="evenodd" clip-rule="evenodd" d="M8.7587 1h6.4826c.805-.000012 1.4693-.000023 2.0105.04419.5621.04593 1.0788.14449 1.5642.39178.7526.3835 1.3645.99542 1.748 1.74807.2473.48533.3459 1.00204.3918 1.56413C21 5.28936 21 5.95372 21 6.75868V12.5c0 .5523-.4477 1-1 1s-1-.4477-1-1V6.8c0-.85658-.0008-1.43887-.0376-1.88896-.0358-.43842-.1007-.66262-.1804-.81902-.1917-.37632-.4977-.68229-.874-.87403-.1564-.07969-.3806-.14462-.819-.18044C16.6389 3.00078 16.0566 3 15.2 3H8.8c-.85658 0-1.43887.00078-1.88896.03755-.43842.03582-.66262.10075-.81902.18044a1.999964 1.999964 0 00-.87403.87403c-.07969.1564-.14462.3806-.18044.81902C5.00078 5.36113 5 5.94342 5 6.8v10.4c0 .8566.00078 1.4389.03755 1.889.03582.4384.10075.6626.18044.819.19174.3763.49771.6823.87403.874.1564.0797.3806.1446.81902.1804C7.36113 20.9992 7.94342 21 8.8 21H12c.5523 0 1 .4477 1 1s-.4477 1-1 1H8.75868c-.80496 0-1.46932 0-2.01051-.0442-.56209-.0459-1.0788-.1445-1.56413-.3918-.75265-.3835-1.36457-.9954-1.74807-1.748-.24729-.4854-.34585-1.0021-.39178-1.5642-.04421-.5412-.0442-1.2055-.04419-2.0105V6.7587c-.00001-.80497-.00002-1.46933.04419-2.01053.04593-.56209.14449-1.0788.39178-1.56413.3835-.75265.99542-1.36457 1.74807-1.74807.48533-.24729 1.00204-.34585 1.56413-.39178C7.28937.999977 7.95373.999988 8.7587 1z" fill="#000"/><path fill-rule="evenodd" clip-rule="evenodd" d="M7 7c0-.55228.44772-1 1-1h8c.5523 0 1 .44772 1 1s-.4477 1-1 1H8c-.55228 0-1-.44772-1-1zm0 4c0-.5523.44772-1 1-1h6c.5523 0 1 .4477 1 1s-.4477 1-1 1H8c-.55228 0-1-.4477-1-1zm0 4c0-.5523.44772-1 1-1h2c.5523 0 1 .4477 1 1s-.4477 1-1 1H8c-.55228 0-1-.4477-1-1zm14.7071.7929c.3905.3905.3905 1.0237 0 1.4142l-4.5 4.5c-.3905.3905-1.0237.3905-1.4142 0l-2-2c-.3905-.3905-.3905-1.0237 0-1.4142.3905-.3905 1.0237-.3905 1.4142 0L16.5 19.5858l3.7929-3.7929c.3905-.3905 1.0237-.3905 1.4142 0z" fill="#000"/></svg>