<svg viewBox="0 0 24 24" fill="none" xmlns="http://www.w3.org/2000/svg"><path d="M5.88322 18.653c-.3-.2-.558-.455-.86-.816a49.53574 49.53574 0 01-.466-.579c-.463-.575-.755-.84-1.057-.949-.2497-.0896-.45356-.2748-.56674-.5147-.11318-.24-.1264-.5151-.03676-.7648.08965-.2497.27481-.4535.51477-.5667.23995-.1132.51503-.1264.76473-.0368.752.27 1.261.735 1.947 1.588-.094-.117.34.427.433.539.19.227.33.365.44.438.204.137.587.196 1.15.14.023-.382.094-.753.202-1.095-2.968-.726-4.648-2.64-4.648-6.39598 0-1.24.37-2.356 1.058-3.292-.218-.894-.185-1.975.302-3.192a1.000107 1.000107 0 01.24944-.36197 1.000048 1.000048 0 01.38056-.22003c.081-.024.127-.035.208-.047.803-.123 1.937.17 3.415 1.096a11.731431 11.731431 0 012.68698-.308c.912 0 1.818.104 2.684.308 1.477-.933 2.613-1.226 3.422-1.096.085.013.157.03.218.05.1389.04578.266.12144.3724.22165.1064.1002.1896.22253.2436.35835.487 1.216.52 2.297.302 3.19.691.936 1.058 2.045 1.058 3.293 0 3.75698-1.674 5.66498-4.642 6.39198.125.415.19.879.19 1.38.0001.9054-.0039 1.8107-.012 2.716.2246.049.4254.1739.5688.3536.1433.1797.2203.4033.218.6331-.0022.2299-.0835.452-.2303.6289-.1468.1769-.35.2978-.5755.3424-1.139.228-1.983-.532-1.983-1.525l.002-.446.005-.705c.005-.708.007-1.338.007-1.998 0-.697-.183-1.152-.425-1.36-.661-.57-.326-1.655.54-1.752 2.967-.333 4.337-1.482 4.337-4.65998 0-.955-.312-1.744-.913-2.404-.1266-.13875-.2116-.31037-.2452-.49519-.0336-.18481-.0145-.37536.0552-.54981.166-.414.237-.957.096-1.614l-.01.003c-.491.139-1.11.44-1.858.949a.999525.999525 0 01-.4015.15967c-.1439.02332-.2912.0149-.4315-.02467a9.62586 9.62586 0 00-2.592-.349c-.89 0-1.772.119-2.59198.35a.999931.999931 0 01-.42976.02447 1.000013 1.000013 0 01-.40024-.15847c-.752-.507-1.374-.807-1.868-.947-.144.653-.073 1.194.092 1.607a.999938.999938 0 01.05568.54966.999902.999902 0 01-.24468.49534c-.597.654-.913 1.458-.913 2.404 0 3.17198 1.371 4.32798 4.32198 4.65998.865.097 1.201 1.177.544 1.748-.192.168-.429.732-.429 1.364v3.15c0 .986-.83498 1.725-1.95998 1.528-.22823-.0401-.43546-.1581-.58628-.3341a.99975.99975 0 01-.24057-.6304c-.00473-.2317.07116-.4578.21467-.6398.14352-.1819.34577-.3083.57218-.3577v-.99c-.91.061-1.662-.088-2.254-.485z" fill="#000"/></svg>