<svg width="162" height="162" viewBox="0 0 162 162" fill="none" xmlns="http://www.w3.org/2000/svg">
<g clip-path="url(#clip0_594_26201)">
<mask id="mask0_594_26201" style="mask-type:alpha" maskUnits="userSpaceOnUse" x="0" y="-65" width="162" height="205">
<path d="M0 -65H162V77.4735L81 139.5L0 77.4735V-65Z" fill="#D9D9D9"/>
</mask>
<g mask="url(#mask0_594_26201)">
<path fill-rule="evenodd" clip-rule="evenodd" d="M9 59.2869L79.3059 0L153 59.2869V59.7104L81 116.456L9 59.7104V59.2869Z" fill="#1F1F28"/>
<path fill-rule="evenodd" clip-rule="evenodd" d="M9 59.2869L79.3059 0L153 59.2869V59.7104L81 116.456L9 59.7104V59.2869Z" fill="url(#paint0_linear_594_26201)" fill-opacity="0.2"/>
<path fill-rule="evenodd" clip-rule="evenodd" d="M81.3825 116.446H81.8083C81.8083 116.446 81.9462 127.089 81.8083 132.187C81.6704 137.285 81.3825 132.187 81.3825 132.187L9 75.1777V59.4363L81.3825 116.446Z" fill="#40C4FF"/>
<path fill-rule="evenodd" clip-rule="evenodd" d="M81.3825 131.762H81.8083V147.078L81.3825 147.503L9 90.4936V74.7522L81.3825 131.762Z" fill="#40C4FF"/>
<path fill-rule="evenodd" clip-rule="evenodd" d="M81.3825 131.762H81.8083V147.078L81.3825 147.503L9 90.4936V74.7522L81.3825 131.762Z" fill="white" fill-opacity="0.25"/>
<path fill-rule="evenodd" clip-rule="evenodd" d="M81.3825 147.078L81.8083 146.652V161.543L81.3825 161.968L9 104.959V90.0681L81.3825 147.078Z" fill="#40C4FF"/>
<path fill-rule="evenodd" clip-rule="evenodd" d="M81.3825 147.078L81.8083 146.652V161.543L81.3825 161.968L9 104.959V90.0681L81.3825 147.078Z" fill="white" fill-opacity="0.5"/>
<path fill-rule="evenodd" clip-rule="evenodd" d="M80.8493 116.446V132.187L153 75.1777L153 59.4363L80.8493 116.446Z" fill="#E040FB"/>
<path fill-rule="evenodd" clip-rule="evenodd" d="M80.8493 131.762V147.503L153 90.4936V74.7522L80.8493 131.762Z" fill="#E040FB"/>
<path fill-rule="evenodd" clip-rule="evenodd" d="M80.8493 131.762V147.503L153 90.4936V74.7522L80.8493 131.762Z" fill="white" fill-opacity="0.25"/>
<path fill-rule="evenodd" clip-rule="evenodd" d="M80.8493 147.078V161.968L153 105.384L153 90.0681L80.8493 147.078Z" fill="#E040FB"/>
<path fill-rule="evenodd" clip-rule="evenodd" d="M80.8493 147.078V161.968L153 105.384L153 90.0681L80.8493 147.078Z" fill="white" fill-opacity="0.5"/>
</g>
</g>
<path fill-rule="evenodd" clip-rule="evenodd" d="M76.4972 27.7468C75.4339 26.7902 75.3834 25.4157 76.3457 23.6231C76.8742 22.7807 77.8435 22.0016 79.2535 21.2858C79.2192 20.9478 79.3655 20.7565 79.6924 20.7118C79.4154 21.3863 79.8815 21.7338 81.0906 21.7542C78.0381 23.3691 76.9944 24.7391 77.9598 25.8641C78.7 26.5582 80.3145 27.1869 82.8031 27.7501C86.6179 28.1807 89.4178 30.7799 91.2027 35.5477C91.4088 35.9631 91.6496 35.895 91.9251 35.3434C92.3809 34.1629 92.7385 32.3754 92.9979 29.981C93.8555 30.4913 94.2415 31.9057 94.1558 34.2241L96.1634 27.76C98.7419 30.412 97.5589 34.5685 92.6144 40.2294C91.932 41.1018 91.3265 41.9592 90.798 42.8016C88.5851 46.4009 87.9396 49.7688 88.8614 52.9053C89.5427 55.2883 91.1182 57.5445 93.5878 59.674C96.324 61.9888 98.3942 63.0186 99.7986 62.7634C101.902 63.4786 102.829 64.5728 102.581 66.0459C102.584 67.3204 103.409 68.2068 105.053 68.7051C106.004 69.4769 104.262 70.6366 99.8283 72.1844C100.241 73.0153 100.65 73.3011 101.056 73.0418C105.303 74.2573 105.893 75.4498 102.827 76.6194C102.016 76.9538 100.871 77.2331 99.39 77.4573C98.1101 76.9452 97.1157 75.8431 96.4067 74.1509C93.826 71.6832 90.4294 69.2197 86.2169 66.7605C83.8278 67.4876 81.692 69.4903 79.8094 72.7685C82.5127 74.6226 84.8409 76.5441 86.7939 78.5332C90.2472 78.7012 91.2647 79.4809 89.8465 80.8724C88.5264 82.0953 87.0267 83.0795 85.3476 83.8249C84.2932 83.713 81.8573 81.9676 78.0399 78.5887C79.836 80.8535 81.435 83.5474 82.8368 86.6706C85.5051 86.6664 86.5441 87.2619 85.9537 88.4572C85.3443 89.637 84.4306 90.5853 83.2125 91.3019C81.4686 92.6459 80.0489 92.5785 78.9535 91.0998C77.7932 88.638 75.3166 86.2859 71.5238 84.0434C68.2465 82.0334 64.8881 80.3763 61.4486 79.072C61.7718 79.3344 62.1747 80.1423 62.6574 81.4956C63.0618 82.9715 63.1824 84.1083 63.0191 84.9061C62.8246 83.5386 62.4828 82.4393 61.9938 81.608L59.9621 78.1905C58.6415 76.2808 57.9795 73.8826 57.9762 70.9957C58.1838 64.9617 63.123 59.7307 72.794 55.3026C73.6803 55.0299 73.7612 54.6924 73.0366 54.2902C67.7846 52.0723 68.5519 48.9583 75.3383 44.9481C75.1531 42.8129 78.3523 40.1851 84.936 37.0647C86.2375 34.2139 84.95 31.9589 81.0733 30.2996C79.067 29.5388 77.5416 28.6878 76.4972 27.7468ZM92.217 65.0307C94.9685 66.1791 95.9841 67.2119 95.2639 68.129C94.775 67.4727 93.7594 66.44 92.217 65.0307Z" fill="white"/>
<path fill-rule="evenodd" clip-rule="evenodd" d="M76.4972 27.7468C75.4339 26.7902 75.3834 25.4157 76.3457 23.6231C76.8742 22.7807 77.8435 22.0016 79.2535 21.2858C79.2192 20.9478 79.3655 20.7565 79.6924 20.7118C79.4154 21.3863 79.8815 21.7338 81.0906 21.7542C78.0381 23.3691 76.9944 24.7391 77.9598 25.8641C78.7 26.5582 80.3145 27.1869 82.8031 27.7501C86.6179 28.1807 89.4178 30.7799 91.2027 35.5477C91.4088 35.9631 91.6496 35.895 91.9251 35.3434C92.3809 34.1629 92.7385 32.3754 92.9979 29.981C93.8555 30.4913 94.2415 31.9057 94.1558 34.2241L96.1634 27.76C98.7419 30.412 97.5589 34.5685 92.6144 40.2294C91.932 41.1018 91.3265 41.9592 90.798 42.8016C88.5851 46.4009 87.9396 49.7688 88.8614 52.9053C89.5427 55.2883 91.1182 57.5445 93.5878 59.674C96.324 61.9888 98.3942 63.0186 99.7986 62.7634C101.902 63.4786 102.829 64.5728 102.581 66.0459C102.584 67.3204 103.409 68.2068 105.053 68.7051C106.004 69.4769 104.262 70.6366 99.8283 72.1844C100.241 73.0153 100.65 73.3011 101.056 73.0418C105.303 74.2573 105.893 75.4498 102.827 76.6194C102.016 76.9538 100.871 77.2331 99.39 77.4573C98.1101 76.9452 97.1157 75.8431 96.4067 74.1509C93.826 71.6832 90.4294 69.2197 86.2169 66.7605C83.8278 67.4876 81.692 69.4903 79.8094 72.7685C82.5127 74.6226 84.8409 76.5441 86.7939 78.5332C90.2472 78.7012 91.2647 79.4809 89.8465 80.8724C88.5264 82.0953 87.0267 83.0795 85.3476 83.8249C84.2932 83.713 81.8573 81.9676 78.0399 78.5887C79.836 80.8535 81.435 83.5474 82.8368 86.6706C85.5051 86.6664 86.5441 87.2619 85.9537 88.4572C85.3443 89.637 84.4306 90.5853 83.2125 91.3019C81.4686 92.6459 80.0489 92.5785 78.9535 91.0998C77.7932 88.638 75.3166 86.2859 71.5238 84.0434C68.2465 82.0334 64.8881 80.3763 61.4486 79.072C61.7718 79.3344 62.1747 80.1423 62.6574 81.4956C63.0618 82.9715 63.1824 84.1083 63.0191 84.9061C62.8246 83.5386 62.4828 82.4393 61.9938 81.608L59.9621 78.1905C58.6415 76.2808 57.9795 73.8826 57.9762 70.9957C58.1838 64.9617 63.123 59.7307 72.794 55.3026C73.6803 55.0299 73.7612 54.6924 73.0366 54.2902C67.7846 52.0723 68.5519 48.9583 75.3383 44.9481C75.1531 42.8129 78.3523 40.1851 84.936 37.0647C86.2375 34.2139 84.95 31.9589 81.0733 30.2996C79.067 29.5388 77.5416 28.6878 76.4972 27.7468ZM92.217 65.0307C94.9685 66.1791 95.9841 67.2119 95.2639 68.129C94.775 67.4727 93.7594 66.44 92.217 65.0307Z" fill="url(#paint1_linear_594_26201)" fill-opacity="0.15"/>
<defs>
<linearGradient id="paint0_linear_594_26201" x1="81" y1="0" x2="81" y2="116.456" gradientUnits="userSpaceOnUse">
<stop stop-color="#91CEED" stop-opacity="0.8"/>
<stop offset="1" stop-opacity="0"/>
</linearGradient>
<linearGradient id="paint1_linear_594_26201" x1="533.948" y1="-844.974" x2="-961.336" y2="-210.985" gradientUnits="userSpaceOnUse">
<stop stop-color="#E040FB"/>
<stop offset="1" stop-color="#3DC3FF"/>
</linearGradient>
<clipPath id="clip0_594_26201">
<rect width="162" height="162" fill="white"/>
</clipPath>
</defs>
</svg>
