<svg viewBox="0 0 115 73" fill="none" xmlns="http://www.w3.org/2000/svg">
<path fill-rule="evenodd" clip-rule="evenodd" d="M0.37854 36.2285V72.2285H1.9214H3.46425V36.2285V0.228516H1.9214H0.37854V36.2285ZM14.7785 36.2285V72.2285H17.35H19.9214V36.2285V0.228516H17.35H14.7785V36.2285ZM28.15 36.2285V72.2285H33.8071H39.4643V36.2285V0.228516H33.8071H28.15V36.2285ZM42.55 36.2285V72.2285H78.55H114.55V36.2285V0.228516H78.55H42.55V36.2285ZM70.3728 13.1933C71.4094 13.3426 72.2706 13.7811 73.0362 14.5496C73.8079 15.3242 74.1898 16.0684 74.3305 17.0714C74.5464 18.6119 74.0945 20.0294 73.063 21.0479C72.092 22.0067 70.9379 22.4466 69.3998 22.4444C67.8582 22.4423 66.8226 22.0196 65.843 20.9926C63.6963 18.742 64.3704 15.0282 67.1764 13.6465C68.1825 13.1512 69.1383 13.0157 70.3728 13.1933ZM60.7375 17.8428L60.7043 22.3942L60.3957 23.0114C60.0869 23.6288 59.6449 24.0307 59.1329 24.1592C58.9325 24.2095 58.7815 24.1174 58.3261 23.6676L57.7657 23.1142L58.1549 23.036C58.3691 22.993 58.6612 22.9106 58.8043 22.853C59.3687 22.6256 59.3646 22.6596 59.3969 17.7914L59.4267 13.2914H60.0987H60.7708L60.7375 17.8428ZM79.5785 15.2457V17.1999H82.2528H84.9271V15.2457V13.2914H85.5443H86.1614V17.8171V22.3428H85.5443H84.9271V20.3885V18.4342H82.2528H79.5785V20.3885V22.3428H78.91H78.2414V17.8171V13.2914H78.91H79.5785V15.2457ZM95.172 16.7986L98.35 20.3059L98.377 16.7986L98.4041 13.2914H99.0199H99.6357V17.8171V22.3428L99.0443 22.34L98.4528 22.3374L95.3157 18.8744L92.1785 15.4115L92.1515 18.8771L92.1243 22.3428H91.5086H90.8928V17.8171V13.2914H91.4434H91.9941L95.172 16.7986ZM68.7175 14.4197C67.9946 14.5738 67.5612 14.8065 66.988 15.3487C66.2221 16.073 65.9667 16.6876 65.9621 17.8171C65.9575 18.968 66.213 19.5642 67.0383 20.3283C67.7949 21.0288 68.4224 21.2613 69.5548 21.2606C70.2812 21.2602 70.4662 21.219 71.0653 20.924C72.3473 20.293 73.0402 19.2027 73.0402 17.8171C73.0402 16.8847 72.7726 16.1786 72.1684 15.5176C71.3293 14.5994 69.9434 14.1585 68.7175 14.4197ZM102.104 33.1213L102.67 33.3999L102.7 34.1543L102.731 34.9086L102.34 34.5955C101.841 34.1951 101.186 33.9657 100.542 33.9657C99.6594 33.9657 99.1214 34.3803 99.1214 35.0602C99.1214 35.6275 99.4919 36.0144 100.74 36.7506C102.514 37.7973 102.928 38.3096 103.005 39.5566C103.045 40.2159 103.019 40.3494 102.752 40.8553C102.388 41.5467 101.847 41.9469 101.051 42.113C100.291 42.2716 99.3043 42.1145 98.5092 41.7083L97.9385 41.4168L97.9083 40.5455L97.8781 39.6742L98.3197 40.1002C98.8429 40.6047 99.2653 40.8325 99.8962 40.9504C101.598 41.2684 102.439 39.8207 101.213 38.6833C101.053 38.5343 100.505 38.1558 99.9957 37.8422C99.0097 37.235 98.3299 36.605 98.0402 36.0295C97.7759 35.5049 97.8726 34.4102 98.2311 33.8686C98.9422 32.7939 100.737 32.4478 102.104 33.1213ZM55.4071 36.8457V40.8571H57.5671H59.7271V41.4742V42.0914H56.8985H54.07V37.4628V32.8342H54.7385H55.4071V36.8457ZM69.91 33.4514V34.0685H67.6441H65.3783L65.407 35.4314L65.4357 36.7942L67.6214 36.822L69.8071 36.8498V37.4114V37.973L67.6214 38.0007L65.4357 38.0285L65.4071 39.4428L65.3785 40.8571H67.6957H70.0128V41.4742V42.0914H67.0814H64.15V37.4628V32.8342H67.03H69.91V33.4514ZM76.3935 35.9802C77.2311 38.0731 77.6819 39.0801 77.7398 38.9888C77.7877 38.9132 78.3695 37.4955 79.0326 35.8385L80.2382 32.8255L80.8598 32.8556L81.4814 32.8857L82.7224 35.9438C83.4049 37.6257 83.9892 39.0277 84.0206 39.0591C84.0521 39.0907 84.6329 37.7145 85.3113 36.0011L86.5445 32.8857L87.1759 32.855C87.523 32.8382 87.8074 32.8614 87.8078 32.9064C87.8082 32.9516 86.9866 35.0356 85.9821 37.5377C84.7144 40.6953 84.1085 42.0871 84.0014 42.0875C83.8945 42.088 83.3904 40.9521 82.3596 38.3882C81.5415 36.3532 80.8424 34.7223 80.8062 34.764C80.77 34.8058 80.2268 36.1128 79.599 37.6685C77.7612 42.223 77.8141 42.1035 77.6506 42.0704C77.5218 42.0443 76.7652 40.2234 73.9944 33.2714L73.8202 32.8342H74.4772H75.1343L76.3935 35.9802ZM93.1557 37.4628V42.0914H92.4871H91.8185V37.4628V32.8342H92.4871H93.1557V37.4628ZM103.056 52.2779C103.294 52.3893 103.339 52.4738 103.339 52.8161C103.339 53.1634 103.313 53.2108 103.159 53.1448C102.18 52.7251 101.488 52.7117 101.275 53.1084C101.096 53.4433 101.399 53.7706 102.316 54.2313C103.239 54.6954 103.543 55.0595 103.544 55.6994C103.544 56.2111 103.305 56.6579 102.896 56.9069C102.466 57.1693 101.291 57.1784 100.767 56.9233C100.451 56.769 100.403 56.6952 100.376 56.3111C100.358 56.0708 100.358 55.8744 100.376 55.8746C100.393 55.8749 100.635 55.9906 100.913 56.1318C101.52 56.4395 102.092 56.4629 102.425 56.1936C102.63 56.0274 102.651 55.9564 102.565 55.7126C102.49 55.5002 102.242 55.3056 101.599 54.9562C100.63 54.4291 100.366 54.1442 100.285 53.536C100.163 52.6316 100.936 52.0217 102.104 52.1006C102.472 52.1254 102.9 52.2052 103.056 52.2779ZM56.2334 52.3274C56.9584 52.7023 57.0067 53.5625 56.3392 54.2104L55.9456 54.5924L56.2813 54.9923L56.6171 55.3922L56.9001 54.9647C57.1508 54.5856 57.2282 54.5371 57.5808 54.5371C57.8306 54.5371 57.9784 54.5849 57.9781 54.6657C57.9777 54.828 57.611 55.4429 57.3369 55.7411L57.1284 55.9679L57.6187 56.5126L58.1091 57.0571L57.504 57.0887C56.9567 57.1173 56.8785 57.0947 56.6856 56.8528L56.4723 56.5854L56.0168 56.8457C55.1598 57.3355 53.9695 57.152 53.592 56.4718C53.2818 55.9128 53.5477 55.1579 54.2071 54.7257L54.5568 54.4965L54.3134 54.0385C54.1795 53.7867 54.07 53.4696 54.07 53.3338C54.07 52.9675 54.3433 52.5057 54.6627 52.3323C55.0306 52.1328 55.852 52.1302 56.2334 52.3274ZM64.3249 52.373C64.9574 52.7586 65.1654 53.6543 64.7723 54.2991C64.4863 54.7681 64.2063 54.8895 63.2757 54.9481L62.4528 54.9999L62.4235 56.0542L62.3942 57.1085H61.9349H61.4757V54.6399V52.1714L62.7357 52.1718C63.8039 52.1721 64.0458 52.2027 64.3249 52.373ZM69.7263 54.462C70.2757 55.7196 70.7551 56.8296 70.7916 56.9285C70.8485 57.0837 70.7914 57.1085 70.3761 57.1085H69.8945L69.6282 56.4914L69.362 55.8742H68.2558H67.1496L66.9103 56.4914L66.671 57.1085H66.1709C65.7376 57.1085 65.6798 57.0844 65.738 56.9285C65.7749 56.8296 66.2282 55.7186 66.7453 54.4599L67.6854 52.1714L68.2062 52.1734L68.7271 52.1755L69.7263 54.462ZM74.9737 52.4296C75.7044 52.9261 75.7384 54.0489 75.0378 54.5478C74.7204 54.7738 74.7201 54.7751 74.9335 54.9386C75.108 55.0724 76.1843 56.8999 76.1843 57.0624C76.1843 57.0877 75.9584 57.1085 75.6824 57.1085H75.1806L74.6921 56.2383C74.1148 55.2096 73.9453 55.0371 73.491 55.0159L73.15 54.9999L73.1207 56.0542L73.0913 57.1085H72.6321H72.1728V54.6399V52.1714H73.3832C74.5062 52.1714 74.621 52.19 74.9737 52.4296ZM81.5328 52.5314V52.8914H80.6071H79.6814V54.9999V57.1085H79.2185H78.7557V54.9999V52.8914H77.8814H77.0071V52.5314V52.1714H79.27H81.5328V52.5314ZM85.4303 53.8771L86.8814 55.5827V53.8771V52.1714H87.3443H87.8071V54.6399V57.1085H87.411C87.0246 57.1085 86.9784 57.0652 85.5339 55.3509L84.0528 53.5934L84.0246 55.3509L83.9966 57.1085H83.5361H83.0757V54.6399V52.1714H83.5274H83.9791L85.4303 53.8771ZM93.0528 52.5314V52.8914H91.9165H90.7802L90.8107 53.5342L90.8414 54.1771L91.8957 54.2064L92.95 54.2357V54.5921V54.9485H91.8652H90.7806L90.811 55.6428L90.8414 56.3371L91.9985 56.3662L93.1557 56.3953V56.7519V57.1085H91.51H89.8643V54.6399V52.1714H91.4585H93.0528V52.5314ZM97.619 52.3273C98.2265 52.6156 98.4877 53.4206 98.1995 54.1164C98.1271 54.2912 98.0387 54.4357 98.0032 54.4375C97.9677 54.4393 97.8511 54.5069 97.7443 54.5878C97.5571 54.7295 97.5608 54.7469 97.8494 55.0755C98.0139 55.2629 98.3467 55.7971 98.5888 56.2624L99.0289 57.1085H98.5138C98.0066 57.1085 97.9943 57.1009 97.7216 56.6199C97.0615 55.4557 96.8421 55.1686 96.5291 55.0595C95.934 54.852 95.9328 54.8538 95.9328 56.0285V57.1085H95.47H95.0071V54.6399V52.1714H96.1487C96.9558 52.1714 97.3866 52.217 97.619 52.3273ZM55.2081 52.96C54.9385 53.1488 54.9383 53.4078 55.2076 53.7501C55.4084 54.0055 55.4322 54.0111 55.6664 53.8576C55.9693 53.6592 56.0701 53.375 55.9303 53.1139C55.7879 52.8478 55.4662 52.7792 55.2081 52.96ZM62.4014 53.555V54.2285H63.0112C63.6512 54.2285 63.8694 54.1122 63.9998 53.7013C64.0448 53.5594 63.9988 53.3897 63.8674 53.2133C63.694 52.9803 63.5784 52.9386 63.0338 52.9122L62.4014 52.8816V53.555ZM73.0985 53.5599V54.2285H73.5899C74.2311 54.2285 74.5385 54.0151 74.5385 53.57C74.5385 53.0882 74.2751 52.8914 73.6304 52.8914H73.0985V53.5599ZM95.9328 53.5599V54.2285H96.4471C97.2522 54.2285 97.618 53.6987 97.2127 53.12C97.0806 52.9314 96.9547 52.8914 96.4927 52.8914H95.9328V53.5599ZM67.825 54.1488L67.4594 55.1028L68.1828 55.1332C68.5806 55.15 68.9299 55.14 68.959 55.111C69.0001 55.0699 68.3201 53.3437 68.2152 53.2231C68.2016 53.2076 68.026 53.6241 67.825 54.1488ZM54.7685 55.2519C54.4018 55.5404 54.3236 55.8265 54.5267 56.1364C54.732 56.4497 55.2244 56.4737 55.6528 56.1912L55.95 55.9954L55.4966 55.5156L55.0433 55.0357L54.7685 55.2519Z" fill="#666880"/>
</svg>
