<svg viewBox="0 0 24 24" fill="none" xmlns="http://www.w3.org/2000/svg"><path opacity=".4" fill-rule="evenodd" clip-rule="evenodd" d="M16.2071 7.79289c.3905.39053.3905 1.02369 0 1.41422L9.20711 16.2071c-.39053.3905-1.02369.3905-1.41422 0-.39052-.3905-.39052-1.0237 0-1.4142l7.00001-7.00001c.3905-.39052 1.0237-.39052 1.4142 0z" fill="#000"/><path fill-rule="evenodd" clip-rule="evenodd" d="M12 3.51468c2.3431-2.34314 6.1421-2.34314 8.4852 0 2.3432 2.34315 2.3432 6.14214 0 8.48532l-1.4142 1.4142c-.3905.3905-1.0237.3905-1.4142 0-.3905-.3905-.3905-1.0237 0-1.4142l1.4142-1.4142c1.5621-1.56215 1.5621-4.09481 0-5.6569-1.5621-1.5621-4.0947-1.5621-5.6568 0L12 6.34311c-.3906.39052-1.0237.39052-1.4142 0-.3906-.39052-.3906-1.02369 0-1.41421L12 3.51468zM6.34311 10.5858c.39052.3905.39052 1.0236 0 1.4142L4.9289 13.4142c-1.5621 1.5621-1.5621 4.0947 0 5.6568 1.56209 1.5621 4.09475 1.5621 5.6569 0L12 17.6568c.3905-.3905 1.0237-.3905 1.4142 0 .3905.3905.3905 1.0237 0 1.4142L12 20.4852c-2.34318 2.3432-6.14217 2.3432-8.48532 0-2.34314-2.3431-2.34314-6.1421 0-8.4852l1.41422-1.4142c.39052-.3906 1.02369-.3906 1.41421 0z" fill="#000"/></svg>