<svg viewBox="0 0 130 50" fill="none" xmlns="http://www.w3.org/2000/svg">
<path fill-rule="evenodd" clip-rule="evenodd" d="M0 18.2344L21.1909 0L43.4031 18.2344V18.3646L21.7016 35.8175L0 18.3646V18.2344Z" fill="white"/>
<path fill-rule="evenodd" clip-rule="evenodd" d="M21.8169 35.8142H21.9452C21.9452 35.8142 21.9868 39.0876 21.9452 40.6557C21.9036 42.2237 21.8169 40.6557 21.8169 40.6557L0 23.1217V18.2803L21.8169 35.8142Z" fill="#40C4FF"/>
<path fill-rule="evenodd" clip-rule="evenodd" d="M21.8169 40.5246H21.9452V45.2353L21.8169 45.3661L0 27.8322V22.9907L21.8169 40.5246Z" fill="#3DC4FF"/>
<path fill-rule="evenodd" clip-rule="evenodd" d="M21.8169 40.5246H21.9452V45.2353L21.8169 45.3661L0 27.8322V22.9907L21.8169 40.5246Z" fill="white" fill-opacity="0.25"/>
<path fill-rule="evenodd" clip-rule="evenodd" d="M21.8169 45.2356L21.9452 45.1047V49.6845L21.8169 49.8153L0 32.2814V27.7017L21.8169 45.2356Z" fill="#3DC4FF"/>
<path fill-rule="evenodd" clip-rule="evenodd" d="M21.8169 45.2356L21.9452 45.1047V49.6845L21.8169 49.8153L0 32.2814V27.7017L21.8169 45.2356Z" fill="white" fill-opacity="0.5"/>
<path fill-rule="evenodd" clip-rule="evenodd" d="M21.6561 35.8142V40.6557L43.4031 23.1217L43.4031 18.2803L21.6561 35.8142Z" fill="#E040FB"/>
<path fill-rule="evenodd" clip-rule="evenodd" d="M21.6561 40.5246V45.3661L43.4031 27.8322V22.9907L21.6561 40.5246Z" fill="#E040FB"/>
<path fill-rule="evenodd" clip-rule="evenodd" d="M21.6561 40.5246V45.3661L43.4031 27.8322V22.9907L21.6561 40.5246Z" fill="white" fill-opacity="0.25"/>
<path fill-rule="evenodd" clip-rule="evenodd" d="M21.6561 45.2356V49.8153L43.4031 32.4123L43.4031 27.7017L21.6561 45.2356Z" fill="#E040FB"/>
<path fill-rule="evenodd" clip-rule="evenodd" d="M21.6561 45.2356V49.8153L43.4031 32.4123L43.4031 27.7017L21.6561 45.2356Z" fill="white" fill-opacity="0.5"/>
<path d="M14.559 11.6222C14.559 11.6222 24.812 11.948 27.5377 14.2818C30.2635 16.6157 30.6498 20.725 28.4006 23.4601C26.1514 26.1953 22.1185 26.5206 19.3927 24.1868C16.667 21.8529 14.559 11.6222 14.559 11.6222Z" fill="#1C1C1F"/>
<path d="M55.4031 12.313L62.429 32.1323H65.5214L72.5473 12.313H69.0751L63.9752 27.8141L58.9025 12.313H55.4031Z" fill="white"/>
<path d="M78.2965 32.4644C80.4938 32.4644 82.1214 31.3019 83.0166 29.0597V32.1323H85.6479V17.7937H82.7182V20.3957C81.8502 18.4581 80.3039 17.4616 78.2965 17.4616C74.5259 17.4616 72.2201 20.4788 72.2201 24.963C72.2201 29.4196 74.5259 32.4644 78.2965 32.4644ZM82.7453 24.963C82.7453 27.6757 81.3619 29.7241 78.9476 29.7241C76.5604 29.7241 75.1498 27.6757 75.1498 24.963C75.1498 22.2226 76.5604 20.2019 78.9476 20.2019C81.3619 20.2019 82.7453 22.2226 82.7453 24.963Z" fill="white"/>
<path d="M97.2388 17.4616C95.0415 17.4616 93.4139 18.6242 92.5458 20.8663V17.7937H89.9145V37.5023H92.8171V29.5303C93.6851 31.4679 95.2314 32.4644 97.2388 32.4644C101.009 32.4644 103.315 29.4473 103.315 24.963C103.315 20.5064 101.009 17.4616 97.2388 17.4616ZM92.7899 24.963C92.7899 22.2503 94.2006 20.2019 96.5877 20.2019C98.9749 20.2019 100.385 22.2503 100.385 24.963C100.385 27.7034 98.9749 29.7241 96.5877 29.7241C94.2006 29.7241 92.7899 27.7034 92.7899 24.963Z" fill="white"/>
<path d="M112.275 32.4644C116.317 32.4644 119.084 29.4196 119.084 24.963C119.084 20.5064 116.317 17.4616 112.275 17.4616C108.26 17.4616 105.493 20.5064 105.493 24.963C105.493 29.4196 108.26 32.4644 112.275 32.4644ZM108.477 24.963C108.477 22.278 109.86 20.285 112.275 20.285C114.716 20.285 116.1 22.278 116.1 24.963C116.1 27.648 114.716 29.641 112.275 29.641C109.86 29.641 108.477 27.648 108.477 24.963Z" fill="white"/>
<path d="M122.313 32.1323H125.216V22.9423C125.216 21.5583 126.165 20.7279 127.413 20.7279H128.525L129.149 17.8214C128.769 17.6553 128.362 17.5723 127.901 17.5723C126.545 17.5723 125.541 18.2643 124.945 19.2885V17.7937H122.313V32.1323Z" fill="white"/>
</svg>
