<svg viewBox="0 0 24 24" fill="none" xmlns="http://www.w3.org/2000/svg"><path opacity=".4" fill-rule="evenodd" clip-rule="evenodd" d="M12 3c-3.86599 0-7 3.13401-7 7 0 1.8921.85317 3.678 2.29228 5.5467 1.21513 1.5778 2.77042 3.1206 4.44002 4.7766.0889.0882.1782.1767.2677.2656.0895-.0889.1788-.1774.2677-.2656 1.6696-1.656 3.2249-3.1988 4.44-4.7766C18.1468 13.678 19 11.8921 19 10c0-3.86599-3.134-7-7-7zm-9 7c0-4.97056 4.02944-9 9-9 4.9706 0 9 4.02944 9 9 0 2.5262-1.1468 4.7402-2.7077 6.767-1.3043 1.6937-2.9738 3.3486-4.6415 5.0019-.3154.3127-.6308.6254-.9437.9382-.3905.3905-1.0237.3905-1.4142 0-.3129-.3128-.6283-.6255-.9437-.9382-1.66773-1.6533-3.33715-3.3082-4.64148-5.0019C4.14683 14.7402 3 12.5262 3 10z" fill="#000"/><path fill-rule="evenodd" clip-rule="evenodd" d="M12 8c-1.1046 0-2 .89543-2 2 0 1.1046.8954 2 2 2s2-.8954 2-2c0-1.10457-.8954-2-2-2zm-4 2c0-2.20914 1.79086-4 4-4 2.2091 0 4 1.79086 4 4 0 2.2091-1.7909 4-4 4-2.20914 0-4-1.7909-4-4z" fill="#000"/></svg>