<?xml version="1.0" encoding="UTF-8" standalone="no"?>
<svg
   xmlns="http://www.w3.org/2000/svg"
   viewBox="0 0 450 450"
   fill="none">
  <path
     d="m 417.87313,147.11265 c 0,-97.200002 -63.7,-125.700002 -63.7,-125.700002 -62.5,-28.7000002 -228.5,-28.4000002 -290.4,0 0,0 -63.69999981,28.5 -63.69999981,125.700002 0,115.7 -6.59999999,259.4 105.59999981,289.1 40.5,10.7 75.3,13 103.3,11.4 50.8,-2.8 79.3,-18.1 79.3,-18.1 l -1.7,-36.9 c 0,0 -36.3,11.4 -77.1,10.1 -40.4,-1.4 -83,-4.4 -89.6,-54 -0.6,-4.4 -0.9,-9 -0.9,-13.9 85.6,20.9 158.6,9.1 178.7,6.7 56.1,-6.7 105,-41.3 111.2,-72.9 9.8,-49.8 9,-121.5 9,-121.5 z m -75.1,125.2 h -46.6 v -114.2 c 0,-49.7 -64,-51.6 -64,6.9 v 62.5 h -46.3 v -62.5 c 0,-58.5 -64,-56.6 -64,-6.9 v 114.2 h -46.7 c 0,-122.1 -5.2,-147.9 18.4,-175.000002 25.9,-28.9 79.8,-30.8 103.8,6.100002 l 11.6,19.5 11.6,-19.5 c 24.1,-37.100002 78.1,-34.800002 103.8,-6.100002 23.7,27.300002 18.4,53.000002 18.4,175.000002 z"
     fill="#000"
   />
</svg>
