<svg viewBox="0 0 24 24" fill="none" xmlns="http://www.w3.org/2000/svg"><path fill-rule="evenodd" clip-rule="evenodd" d="M8.86288 1.29292c.29426.29426.37553.74.20405 1.11917-.53657 1.18648-.83577 2.50419-.83577 3.89447 0 5.22594 4.23644 9.46234 9.46234 9.46234 1.3903 0 2.708-.2992 3.8944-.8358.3792-.1715.8249-.0902 1.1192.204.2943.2943.3755.74.2041 1.1192C21.1136 20.2311 17.1124 23 12.4623 23 6.13185 23 1 17.8682 1 11.5377 1 6.88764 3.76893 2.88642 7.74371 1.08887c.37918-.171474.82491-.090206 1.11917.20405zM6.41336 4.2608C4.32688 5.99715 3 8.6131 3 11.5377 3 16.7636 7.23642 21 12.4623 21c2.9246 0 5.5406-1.3268 7.2769-3.4133-.6641.1197-1.3479.1822-2.0457.1822-6.3305 0-11.46234-5.1319-11.46234-11.46234 0-.69786.06247-1.3816.1822-2.04576z" fill="#000"/></svg>