<svg viewBox="0 0 24 24" fill="none" xmlns="http://www.w3.org/2000/svg"><path opacity=".4" fill-rule="evenodd" clip-rule="evenodd" d="M12 14c.5523 0 1 .4477 1 1v7c0 .5523-.4477 1-1 1s-1-.4477-1-1v-7c0-.5523.4477-1 1-1z" fill="#000"/><path fill-rule="evenodd" clip-rule="evenodd" d="M8.32357 1h7.35273c.3617-.000031.6977-.000061.9728.02491.2879.02613.6472.08825.9789.3081.4393.29121.7458.74406.8531 1.26009.0809.38958.0052.74622-.0775 1.02322-.079.26475-.2038.57673-.3382.91251L17.0429 7.0853c-.023.0574-.0341.08542-.0418.106a.049066.049066 0 01-.0006.0014v.00149c-.0005.02197-.0006.05213-.0006.11395v2.13062c0 .11151.0002.16673.0018.20688.0001.00101.0001.00199.0001.00292a.080698.080698 0 01.0018.00236c.0238.03234.0582.07558.1278.16265l1.5976 1.99703c.309.3862.5827.7282.7745 1.0184.1873.2833.4153.6843.4158 1.1688.0007.6091-.2763 1.1853-.7523 1.5653-.3787.3023-.8342.3748-1.1725.4055-.3463.0315-.7844.0314-1.2791.0314H7.28447c-.49468 0-.93274.0001-1.27911-.0314-.33827-.0307-.79382-.1032-1.1725-.4055-.47602-.38-.75295-.9562-.75229-1.5653.00052-.4845.22848-.8855.4158-1.1688.19181-.2902.46548-.6322.77452-1.0185l1.59757-1.99693c.06966-.08707.10402-.1303.12786-.16265.0006-.00082.00118-.0016.00173-.00236a.990165.990165 0 00.00012-.00292c.00159-.04015.00177-.09537.00177-.20688V7.30814c0-.06182-.00006-.09197-.00056-.11394a.937688.937688 0 00-.00003-.0015.163216.163216 0 01-.00052-.0014c-.0077-.02058-.01884-.0486-.0418-.106L5.94916 4.56562c-.00492-.01229-.00983-.02455-.01472-.03678-.13435-.33578-.25917-.64777-.33818-.91252-.08266-.277-.15841-.63364-.07745-1.02322.10723-.51603.41382-.96888.85311-1.26009.33165-.21985.69092-.28197.97881-.3081C7.62589.999939 7.96191.999969 8.32357 1zm-.81811 2.01929c.0022.00783.00463.0162.00729.02514.04981.16691.13923.3931.29336.77841l1.00787 2.51968c.00288.00719.00584.01457.00887.02213.03356.08358.07583.18887.10657.3015.02672.09794.04594.19777.0575.29863.0133.11599.01316.22945.01304.31952-.00001.00814-.00002.01609-.00002.02384v2.13062c0 .01405.00003.02849.00007.04329.00037.16193.00084.36588-.0409.56925-.03623.1765-.09615.3474-.17814.5078-.09445.1849-.22222.3439-.32367.4701a8.997163 8.997163 0 00-.0271.0338l-1.56978 1.9622c-.34533.4316-.56027.7019-.69569.9068-.00949.0143-.0181.0276-.0259.04.01453.0016.03032.0032.04745.0048.24456.0222.58987.0232 1.14266.0232h9.34196c.5528 0 .8981-.001 1.1427-.0232.0171-.0016.0329-.0032.0475-.0048-.0078-.0124-.0165-.0257-.0259-.04-.1355-.2049-.3504-.4752-.6957-.9068l-1.5698-1.9622c-.0088-.011-.0178-.0223-.0271-.0338-.1015-.1262-.2292-.2852-.3237-.4701-.082-.1604-.1419-.3313-.1781-.5078-.0418-.20337-.0413-.40732-.0409-.56925V7.30814v-.02385c-.0001-.09007-.0002-.20352.0131-.31951.0115-.10086.0307-.20069.0575-.29863.0307-.11263.073-.21792.1065-.30151.0031-.00755.006-.01493.0089-.02212l1.0079-2.51968c.1541-.38531.2435-.6115.2933-.77841.0027-.00894.0051-.01731.0073-.02514a1.775672 1.775672 0 00-.026-.00257C16.2949 3.00098 16.0517 3 15.6367 3H8.36319c-.41499 0-.65821.00098-.83168.01672a1.785577 1.785577 0 00-.02605.00257z" fill="#000"/></svg>