<svg viewBox="0 0 24 24" fill="none" xmlns="http://www.w3.org/2000/svg"><path d="M11.0896 8.13529l.751-3.536c.0546-.25696.1594-.50063.3082-.71709.1489-.21647.3389-.40149.5593-.5445.2203-.14301.4667-.2412.725-.28897.2583-.04777.5236-.04419.7805.01056l3.196.68c.2946-.32718.689-.548 1.1219-.62821.4329-.08021.8802-.01532 1.2724.18459.3923.19992.7077.52369.8972.9211.1895.39741.2426.84625.151 1.27689-.0916.43065-.3228.81905-.6576 1.10494-.3348.28589-.7546.45331-1.1943.47629-.4397.02297-.8747-.09978-1.2375-.34922s-.6331-.61163-.7691-1.03038l-3.196-.68-.666 3.135c1.784.137 3.557.73 5.163 1.7.4772-.26535 1.0146-.40384 1.5606-.40222.546.00162 1.0825.1433 1.5582.41147.4756.26816.8746.65386 1.1586 1.12026.284.4664.4436.9978.4636 1.5435v.021c.0076.4891-.0972.9734-.3065 1.4156-.2093.4421-.5174.8302-.9005 1.1344-.0018.041-.0045.082-.008.123 0 3.998-4.45 7.03-9.799 7.03-5.33201 0-9.70802-3.024-9.70502-6.953a5.337402 5.337402 0 01-.01-.181c-.64588-.4848-1.08399-1.1964-1.22604-1.9914-.142052-.795.02252-1.6143.46055-2.2928.43803-.6785 1.11695-1.16569 1.89995-1.36347.783-.19778 1.61186-.09142 2.31954.29766 1.61511-.97336 3.44569-1.5326 5.32902-1.628zm9.286 5.52601c.408-.203.664-.62.661-1.075a1.192153 1.192153 0 00-.2192-.6365 1.191673 1.191673 0 00-.5291-.4162c-.2127-.085-.4453-.107-.6701-.0632-.2249.0437-.4323.1513-.5976.3099l-.585.56-.67-.455c-1.615-1.098-3.452-1.725-5.23-1.764h-1.006c-1.87502.029-3.65102.6-5.23702 1.675l-.66299.45-.584-.55c-.12594-.1182-.27607-.2077-.43999-.2621a1.190607 1.190607 0 00-.50936-.0533c-.17164.0194-.33702.0758-.4847.1654a1.19206 1.19206 0 00-.37058.3535c-.09645.1432-.16061.3058-.18804.4763-.02743.1706-.01746.345.0292.5113s.12891.3205.24105.4519c.11214.1314.2515.2368.40841.309l.633.29-.054.695c-.013.17-.01299.339.00301.584 0 2.71 3.356 5.03 7.70801 5.03 4.371 0 7.799-2.336 7.802-5.106.013-.1691.013-.3389 0-.508l-.052-.672.604-.3zm-13.38801.159c0-.3978.15803-.7794.43933-1.0607.28131-.2813.66284-.4393 1.06067-.4393.39782 0 .77935.158 1.06066.4393.2813.2813.43934.6629.43934 1.0607 0 .3978-.15804.7793-.43934 1.0606-.28131.2814-.66284.4394-1.06066.4394-.39783 0-.77936-.158-1.06067-.4394-.2813-.2813-.43933-.6628-.43933-1.0606zm7.00001 0c0-.3978.158-.7794.4393-1.0607s.6629-.4393 1.0607-.4393c.3978 0 .7793.158 1.0606.4393s.4394.6629.4394 1.0607c0 .3978-.1581.7793-.4394 1.0606-.2813.2814-.6628.4394-1.0606.4394-.3978 0-.7794-.158-1.0607-.4394-.2813-.2813-.4393-.6628-.4393-1.0606zm-1.984 5.103c-1.397 0-2.76702-.37-3.88202-1.21-.06735-.0813-.10194-.1849-.097-.2903.00494-.1055.04906-.2053.12372-.28a.423624.423624 0 01.27997-.1237c.10548-.005.209.0296.29032.097.94499.693 2.12301.99 3.26901.99 1.146 0 2.33-.275 3.284-.959.0552-.0538.1235-.0922.1982-.1112.0747-.019.1531-.018.2273.0028.0742.0209.1415.061.1953.1161.0539.0552.0922.1236.1112.1983.0162.0749.0138.1525-.0069.2263-.0208.0737-.0592.1413-.1121.1967-.684.797-2.484 1.147-3.881 1.147z" fill="#000"/></svg>