<svg width="24" height="24" viewBox="0 0 24 24" fill="none" xmlns="http://www.w3.org/2000/svg"><path opacity=".4" d="M7 3v3.4c0 .56005 0 .84008.10899 1.05399.09588.18816.24886.34114.43702.43702C7.75992 8 8.03995 8 8.6 8h6.8c.5601 0 .8401 0 1.054-.10899.1882-.09588.3411-.24886.437-.43702C17 7.24008 17 6.96005 17 6.4V4" stroke="#000" stroke-width="2" stroke-linecap="round" stroke-linejoin="round"/><path d="M17 21v-6.4c0-.5601 0-.8401-.109-1.054a.999812.999812 0 00-.437-.437C16.2401 13 15.9601 13 15.4 13H8.6c-.56005 0-.84008 0-1.05399.109-.18816.0959-.34114.2488-.43702.437C7 13.7599 7 14.0399 7 14.6V21M21 9.32548V16.2c0 1.6802 0 2.5202-.327 3.162a2.999437 2.999437 0 01-1.311 1.311C18.7202 21 17.8802 21 16.2 21H7.8c-1.68016 0-2.52024 0-3.16197-.327-.56449-.2876-1.02343-.7465-1.31105-1.311C3 18.7202 3 17.8802 3 16.2V7.8c0-1.68016 0-2.52024.32698-3.16197.28762-.56449.74656-1.02343 1.31105-1.31105C5.27976 3 6.11984 3 7.8 3h6.8745c.4892 0 .7338 0 .964.05526.204.04899.3991.1298.5781.23946.2018.12368.3748.29663.7207.64254l3.1254 3.12548c.3459.34591.5189.51886.6426.72069.1096.17894.1904.37403.2394.57811C21 8.59171 21 8.8363 21 9.32548z" stroke="#000" stroke-width="2" stroke-linecap="round" stroke-linejoin="round"/></svg>