<svg viewBox="0 0 24 24" fill="none" xmlns="http://www.w3.org/2000/svg"><path opacity=".4" fill-rule="evenodd" clip-rule="evenodd" d="M14.2929 14.2929c.3905-.3905 1.0237-.3905 1.4142 0l5.9999 6c.3905.3905.3905 1.0237 0 1.4142-.3905.3905-1.0237.3905-1.4142 0l-5.9999-6c-.3905-.3905-.3905-1.0237 0-1.4142z" fill="#000"/><path fill-rule="evenodd" clip-rule="evenodd" d="M10 4c-3.31371 0-6 2.68629-6 6 0 3.3137 2.68629 6 6 6 3.3137 0 6-2.6863 6-6 0-3.31371-2.6863-6-6-6zm-8 6c0-4.41828 3.58172-8 8-8 4.4183 0 8 3.58172 8 8 0 4.4183-3.5817 8-8 8-4.41828 0-8-3.5817-8-8z" fill="#000"/></svg>