<svg viewBox="0 0 24 24" fill="none" xmlns="http://www.w3.org/2000/svg"><path opacity=".4" fill-rule="evenodd" clip-rule="evenodd" d="M7.19916 1.5h9.60194c.7175-.00001 1.3126-.00002 1.8014.03772.5099.03938.9796.12383 1.431.333.7049.32663 1.2994.85144 1.7109 1.51034.2636.42197.4056.87763.5079 1.37869.0981.48034.1719 1.07087.2609 1.78288l.4792 3.83337c.0685.548-.3202 1.0478-.8683 1.1163-.548.0685-1.0478-.3202-1.1163-.8683l-.4744-3.79533c-.0949-.7596-.1598-1.27309-.2406-1.66878-.0783-.38348-.1579-.58043-.2447-.71936-.2058-.32945-.503-.59186-.8555-.75517-.1486-.06887-.3539-.12344-.7441-.15357-.4027-.0311-.9202-.03179-1.6857-.03179H7.23746c-.76552 0-1.28309.00069-1.68574.03179-.39023.03013-.59553.0847-.74415.15357a2.00005 2.00005 0 00-.85545.75517c-.08677.13893-.16638.33588-.24468.71935-.0808.3957-.14569.90919-.24064 1.66879L2.99238 10.624c-.0685.5481-.56829.9368-1.11631.8683s-.936745-.5683-.86824-1.1163L1.487 6.54259c.08899-.712.16279-1.30252.26087-1.78284.10232-.50106.24438-.95672.50793-1.37869.41153-.6589 1.00602-1.18371 1.71088-1.51034.4514-.20917.92116-.29362 1.43105-.333.48878-.03774 1.08389-.03773 1.80143-.03772z" fill="#000"/><path fill-rule="evenodd" clip-rule="evenodd" d="M1 11c0-2.48528 2.01472-4.5 4.5-4.5h13c2.4853 0 4.5 2.01472 4.5 4.5 0 1.4136-.6518 2.675-1.6713 3.5C22.3482 15.325 23 16.5864 23 18c0 2.4853-2.0147 4.5-4.5 4.5h-13C3.01472 22.5 1 20.4853 1 18c0-1.4136.65183-2.675 1.67133-3.5C1.65183 13.675 1 12.4136 1 11zm4.5 4.5C4.11929 15.5 3 16.6193 3 18s1.11929 2.5 2.5 2.5h13c1.3807 0 2.5-1.1193 2.5-2.5s-1.1193-2.5-2.5-2.5h-13zm13-2c1.3807 0 2.5-1.1193 2.5-2.5 0-1.38071-1.1193-2.5-2.5-2.5h-13C4.11929 8.5 3 9.61929 3 11c0 1.3807 1.11929 2.5 2.5 2.5h13zM5 11c0-.5523.44772-1 1-1h.01c.55228 0 1 .4477 1 1s-.44772 1-1 1H6c-.55228 0-1-.4477-1-1zm6 0c0-.5523.4477-1 1-1h6c.5523 0 1 .4477 1 1s-.4477 1-1 1h-6c-.5523 0-1-.4477-1-1zm-6 7c0-.5523.44772-1 1-1h.01c.55228 0 1 .4477 1 1s-.44772 1-1 1H6c-.55228 0-1-.4477-1-1zm6 0c0-.5523.4477-1 1-1h6c.5523 0 1 .4477 1 1s-.4477 1-1 1h-6c-.5523 0-1-.4477-1-1z" fill="#000"/></svg>