<svg viewBox="0 0 24 24" fill="none" xmlns="http://www.w3.org/2000/svg"><path opacity=".4" fill-rule="evenodd" clip-rule="evenodd" d="M11.7137 1.08855c.1897-.02741.3824-.02741.5721 0 .2186.0316.4221.10845.5836.16948.0148.00558.0292.01103.0433.01631l5.3618 2.01067c.0439.01647.0875.03273.1306.04885.6178.23065 1.1604.43321 1.5782.80143.3655.32212.6471.72841.8203 1.18376.1981.52051.1973 1.09962.1963 1.75907-.0001.04609-.0001.09258-.0001.13947V12c0 2.8266-1.5373 5.1832-3.1991 6.9144-1.6729 1.7428-3.5869 2.9738-4.599 3.5642-.0134.0078-.027.0158-.041.024-.1847.1085-.4244.2493-.7416.3173-.2594.0556-.5792.0556-.8387 0-.3171-.068-.5569-.2088-.7416-.3173-.0139-.0082-.0276-.0162-.0409-.024-1.01213-.5904-2.92616-1.8214-4.59906-3.5642C4.53707 17.1832 2.99978 14.8266 2.99978 12V7.21759c0-.04688-.00007-.09337-.00014-.13947-.00095-.65944-.00179-1.23856.19628-1.75907a2.999959 2.999959 0 01.82034-1.18376c.41783-.36822.96037-.57078 1.57816-.80143.04318-.01613.08674-.03238.13064-.04885l5.36184-2.01067c.014-.00528.0285-.01073.0432-.01631.1616-.06103.365-.13788.5836-.16948zm.2831 1.98272c-.0409.01339-.0963.03395-.2077.07573L6.4273 5.15767c-.82523.30946-.98405.38587-1.08869.47809a.99987.99987 0 00-.27345.39458c-.04961.13037-.06538.3059-.06538 1.18725V12c0 2.0818 1.13969 3.9644 2.64191 5.5294 1.49109 1.5534 3.22811 2.6757 4.16401 3.2217.0572.0334.0985.0574.1343.0776.0282.0159.0469.0259.0598.0324.0128-.0065.0316-.0165.0597-.0324.0359-.0202.0772-.0442.1344-.0776.9359-.546 2.6729-1.6683 4.164-3.2217 1.5022-1.565 2.6419-3.4476 2.6419-5.5294V7.21759c0-.88135-.0158-1.05688-.0654-1.18725-.0578-.15178-.1516-.28721-.2735-.39458-.1046-.09222-.2634-.16863-1.0887-.47809L12.2105 3.147c-.1115-.04178-.1669-.06234-.2077-.07573a.097098.097098 0 01-.003-.00099.116777.116777 0 00-.003.00099z" fill="#000"/><path fill-rule="evenodd" clip-rule="evenodd" d="M16.2071 8.29289c.3905.39053.3905 1.02369 0 1.41422l-4.5 4.49999c-.3905.3905-1.0237.3905-1.4142 0l-2.00001-2c-.39052-.3905-.39052-1.0237 0-1.4142.39053-.3905 1.02369-.3905 1.41422 0L11 12.0858l3.7929-3.79291c.3905-.39052 1.0237-.39052 1.4142 0z" fill="#000"/></svg>