<svg viewBox="0 0 161 49" fill="none" xmlns="http://www.w3.org/2000/svg">
<path d="M24.1787 0.228516C10.9239 0.228516 0.178223 10.9739 0.178223 24.2287C0.178223 37.484 10.9239 48.2285 24.1787 48.2285C37.4349 48.2285 48.1794 37.484 48.1794 24.2287C48.1794 10.9747 37.4349 0.229662 24.1784 0.229662L24.1787 0.228516ZM35.1851 34.8436C34.7552 35.5486 33.8324 35.7722 33.1273 35.3394C27.4923 31.8974 20.3984 31.1179 12.0442 33.0266C11.2391 33.21 10.4367 32.7056 10.2532 31.9003C10.0689 31.0949 10.5714 30.2925 11.3784 30.109C20.5208 28.0203 28.363 28.9197 34.6893 32.7858C35.3943 33.2186 35.6179 34.1386 35.1851 34.8436ZM38.1227 28.3086C37.581 29.1891 36.4289 29.4671 35.5491 28.9254C29.0978 24.9601 19.2638 23.8117 11.6332 26.1279C10.6436 26.4269 9.59836 25.8691 9.298 24.8812C8.99994 23.8916 9.55795 22.8484 10.5458 22.5475C19.2621 19.9028 30.098 21.1839 37.5065 25.7364C38.3864 26.2781 38.6644 27.4302 38.1227 28.3089V28.3086ZM38.3749 21.5037C30.6397 16.9093 17.8775 16.4868 10.4922 18.7283C9.30631 19.088 8.05217 18.4185 7.69278 17.2326C7.33338 16.046 8.0023 14.7928 9.1891 14.4322C17.6669 11.8586 31.7603 12.3558 40.666 17.6427C41.735 18.2758 42.0846 19.6534 41.4512 20.7187C40.8207 21.7854 39.4393 22.1371 38.3761 21.5037H38.3749ZM65.4755 22.3841C61.3313 21.3959 60.5947 20.7024 60.5947 19.245C60.5947 17.8682 61.8901 16.9417 63.8189 16.9417C65.6875 16.9417 67.5389 17.6453 69.4821 19.0937C69.5394 19.1376 69.6139 19.155 69.6856 19.1436C69.7601 19.1327 69.8231 19.0929 69.8661 19.033L71.8895 16.1807C71.9726 16.0632 71.9497 15.9013 71.8379 15.8116C69.5251 13.9565 66.9228 13.0546 63.8791 13.0546C59.4053 13.0546 56.2786 15.7397 56.2786 19.5815C56.2786 23.7013 58.9755 25.1601 63.6355 26.2861C67.5991 27.1995 68.2698 27.9647 68.2698 29.3324C68.2698 30.8485 66.917 31.7914 64.7389 31.7914C62.32 31.7914 60.3454 30.9746 58.1386 29.0658C58.0841 29.0171 58.0096 28.997 57.9408 28.9999C57.8663 29.0056 57.8004 29.04 57.7546 29.0945L55.4847 31.7942C55.3901 31.9089 55.4016 32.0751 55.5105 32.1725C58.0784 34.4653 61.2367 35.6747 64.6472 35.6747C69.4677 35.6747 72.583 33.0409 72.583 28.9627C72.5916 25.5215 70.531 23.6156 65.4841 22.3878L65.4755 22.3841ZM83.4909 18.2973C81.4016 18.2973 79.6878 19.1204 78.272 20.807V18.9086C78.272 18.7587 78.1516 18.6366 78.0026 18.6366H74.2912C74.1421 18.6366 74.0218 18.7587 74.0218 18.9086V40.0023C74.0218 40.1514 74.1421 40.2746 74.2912 40.2746H78.0026C78.1516 40.2746 78.272 40.1514 78.272 40.0023V33.3447C79.6878 34.9296 81.4016 35.7063 83.4909 35.7063C87.3743 35.7063 91.3064 32.7171 91.3064 27.0026C91.3121 21.287 87.38 18.297 83.4938 18.297L83.4909 18.2973ZM86.9902 27.0026C86.9902 29.9113 85.199 31.9433 82.6311 31.9433C80.0947 31.9433 78.1803 29.8196 78.1803 27.0026C78.1803 24.1854 80.0947 22.0623 82.6311 22.0623C85.156 22.062 86.9902 24.1392 86.9902 27.0023V27.0026ZM101.38 18.2973C96.3791 18.2973 92.4614 22.148 92.4614 27.0648C92.4614 31.9289 96.3533 35.7378 101.32 35.7378C106.338 35.7378 110.268 31.9003 110.268 27.0026C110.268 22.1216 106.364 18.2978 101.38 18.2978V18.2973ZM101.38 31.9719C98.7206 31.9719 96.7145 29.8339 96.7145 27.0012C96.7145 24.1556 98.6518 22.0906 101.32 22.0906C103.997 22.0906 106.015 24.2278 106.015 27.0634C106.015 29.9084 104.066 31.9719 101.38 31.9719ZM120.946 18.6366H116.862V14.462C116.862 14.3124 116.742 14.1903 116.593 14.1903H112.881C112.732 14.1903 112.609 14.3124 112.609 14.462V18.6366H110.826C110.677 18.6366 110.557 18.7587 110.557 18.9086V22.0975C110.557 22.2471 110.677 22.3695 110.826 22.3695H112.609V30.622C112.609 33.9552 114.268 35.6461 117.544 35.6461C118.874 35.6461 119.977 35.3709 121.018 34.7806C121.104 34.7347 121.155 34.643 121.155 34.5455V31.5076C121.155 31.4159 121.107 31.3271 121.026 31.2784C120.946 31.2268 120.846 31.2239 120.763 31.2669C120.049 31.6251 119.358 31.7914 118.585 31.7914C117.395 31.7914 116.862 31.2497 116.862 30.0403V22.3709H120.946C121.095 22.3709 121.216 22.2488 121.216 22.099V18.9103C121.221 18.7604 121.101 18.6383 120.949 18.6383L120.946 18.6366ZM135.173 18.6529V18.1402C135.173 16.6319 135.752 15.9592 137.047 15.9592C137.821 15.9592 138.443 16.1128 139.139 16.345C139.225 16.3719 139.314 16.3584 139.383 16.3071C139.455 16.2558 139.495 16.1736 139.495 16.0865V12.9597C139.495 12.8402 139.42 12.7344 139.303 12.6992C138.569 12.4805 137.629 12.2561 136.219 12.2561C132.794 12.2561 130.98 14.186 130.98 17.8353V18.6205H129.197C129.048 18.6205 128.925 18.7426 128.925 18.8922V22.0975C128.925 22.2471 129.048 22.3695 129.197 22.3695H130.98V35.0958C130.98 35.2477 131.103 35.3681 131.252 35.3681H134.961C135.113 35.3681 135.233 35.2477 135.233 35.0958V22.3704H138.698L144.006 35.0958C143.404 36.4314 142.811 36.6979 142.002 36.6979C141.349 36.6979 140.658 36.503 139.956 36.1161C139.89 36.0817 139.81 36.076 139.741 36.096C139.669 36.1218 139.609 36.1734 139.581 36.2422L138.322 39.0021C138.262 39.134 138.314 39.2859 138.44 39.3546C139.753 40.0654 140.936 40.3692 142.401 40.3692C145.141 40.3692 146.657 39.091 147.989 35.6575L154.426 19.0244C154.461 18.9407 154.449 18.8461 154.398 18.7719C154.349 18.6982 154.266 18.6538 154.177 18.6538H150.314C150.196 18.6538 150.093 18.7274 150.056 18.8361L146.098 30.1377L141.765 18.8286C141.724 18.7234 141.624 18.6538 141.512 18.6538H135.173V18.6529ZM126.925 18.6366H123.213C123.064 18.6366 122.941 18.7587 122.941 18.9086V35.0958C122.941 35.2477 123.064 35.3681 123.213 35.3681H126.925C127.074 35.3681 127.197 35.2477 127.197 35.0958V18.9097C127.197 18.7598 127.076 18.6377 126.925 18.6377V18.6366ZM125.09 11.2656C123.62 11.2656 122.428 12.4556 122.428 13.9255C122.428 15.3963 123.62 16.5877 125.09 16.5877C126.561 16.5877 127.75 15.3963 127.75 13.9255C127.75 12.4559 126.558 11.2656 125.09 11.2656ZM157.596 23.8415C156.129 23.8415 154.985 22.6621 154.985 21.23C154.985 19.7979 156.143 18.6051 157.61 18.6051C159.078 18.6051 160.221 19.7841 160.221 21.2151C160.221 22.6472 159.063 23.8415 157.596 23.8415ZM157.61 18.8647C156.272 18.8647 155.26 19.928 155.26 21.23C155.26 22.5314 156.266 23.5804 157.596 23.5804C158.935 23.5804 159.946 22.518 159.946 21.2151C159.946 19.9137 158.94 18.8647 157.61 18.8647ZM158.189 21.4836L158.929 22.5177H158.304L157.639 21.569H157.069V22.5177H156.547V19.7767H157.768C158.407 19.7767 158.826 20.1025 158.826 20.6511C158.828 21.1005 158.568 21.375 158.192 21.4836H158.189ZM157.748 20.247H157.069V21.1139H157.748C158.086 21.1139 158.29 20.948 158.29 20.68C158.29 20.398 158.086 20.247 157.748 20.247Z" fill="#666880"/>
</svg>
