<svg viewBox="0 0 24 24" fill="none" xmlns="http://www.w3.org/2000/svg"><path opacity=".4" fill-rule="evenodd" clip-rule="evenodd" d="M12 1c.5523 0 1 .44772 1 1v2c0 .55228-.4477 1-1 1s-1-.44772-1-1V2c0-.55228.4477-1 1-1zM4.1928 4.1928c.39052-.39053 1.02368-.39053 1.41421 0l1.41421 1.41421c.39053.39052.39053 1.02369 0 1.41421-.39052.39053-1.02369.39053-1.41421 0L4.1928 5.60701c-.39053-.39053-.39053-1.02369 0-1.41421zm15.6144 0c.3905.39052.3905 1.02368 0 1.41421L18.393 7.02122c-.3905.39053-1.0237.39053-1.4142 0-.3905-.39052-.3905-1.02369 0-1.41421L18.393 4.1928c.3905-.39053 1.0237-.39053 1.4142 0zM1 12c0-.5523.44772-1 1-1h2c.55228 0 1 .4477 1 1s-.44772 1-1 1H2c-.55228 0-1-.4477-1-1zm18 0c0-.5523.4477-1 1-1h2c.5523 0 1 .4477 1 1s-.4477 1-1 1h-2c-.5523 0-1-.4477-1-1zM7.02122 16.9829c.39053.3905.39053 1.0237 0 1.4142l-1.41421 1.4142c-.39053.3905-1.02369.3905-1.41421 0-.39053-.3905-.39053-1.0237 0-1.4142l1.41421-1.4142c.39052-.3905 1.02369-.3905 1.41421 0zm9.95758 0c.3905-.3905 1.0237-.3905 1.4142 0l1.4142 1.4142c.3905.3905.3905 1.0237 0 1.4142-.3905.3905-1.0237.3905-1.4142 0l-1.4142-1.4142c-.3905-.3905-.3905-1.0237 0-1.4142zM12 19c.5523 0 1 .4477 1 1v2c0 .5523-.4477 1-1 1s-1-.4477-1-1v-2c0-.5523.4477-1 1-1z" fill="#000"/><path fill-rule="evenodd" clip-rule="evenodd" d="M12 8c-2.20914 0-4 1.79086-4 4 0 2.2091 1.79086 4 4 4 2.2091 0 4-1.7909 4-4 0-2.20914-1.7909-4-4-4zm-6 4c0-3.31371 2.68629-6 6-6 3.3137 0 6 2.68629 6 6 0 3.3137-2.6863 6-6 6-3.31371 0-6-2.6863-6-6z" fill="#000"/></svg>