<svg viewBox="0 0 241 54" fill="none" xmlns="http://www.w3.org/2000/svg">
<path fill-rule="evenodd" clip-rule="evenodd" d="M40.1075 4.90271L49.4469 39.7578L14.5918 49.0972L5.25243 14.2421L40.1075 4.90271Z" fill="#141416"/>
<path fill-rule="evenodd" clip-rule="evenodd" d="M40.5996 4.05048L50.2993 40.2502L14.0996 49.9498L4.39993 13.7502L40.5996 4.05048ZM39.6153 5.75531L6.10476 14.7344L15.0839 48.245L48.5945 39.2659L39.6153 5.75531Z" fill="#9FA1BF"/>
<path fill-rule="evenodd" clip-rule="evenodd" d="M33.9537 2.3537L51.9961 33.6039L20.7458 51.6463L2.70349 20.396L33.9537 2.3537Z" fill="#141416"/>
<path fill-rule="evenodd" clip-rule="evenodd" d="M34.2083 1.40295L52.9466 33.8587L20.4908 52.597L1.75251 20.1413L34.2083 1.40295ZM33.6987 3.30445L3.654 20.6508L21.0003 50.6955L51.0451 33.3492L33.6987 3.30445Z" fill="#9FA1BF"/>
<path fill-rule="evenodd" clip-rule="evenodd" d="M27.3496 1.48419L52.8653 26.9999L27.3496 52.5156L1.83389 26.9999L27.3496 1.48419Z" fill="#141416"/>
<path fill-rule="evenodd" clip-rule="evenodd" d="M27.3496 0.5L53.8496 27L27.3496 53.5L0.849606 27L27.3496 0.5ZM27.3496 2.46857L2.81818 27L27.3496 51.5314L51.881 27L27.3496 2.46857Z" fill="#9FA1BF"/>
<path fill-rule="evenodd" clip-rule="evenodd" d="M20.7455 2.3537L51.9957 20.396L33.9534 51.6463L2.70315 33.6039L20.7455 2.3537Z" fill="#141416"/>
<path fill-rule="evenodd" clip-rule="evenodd" d="M20.491 1.40295L52.9467 20.1413L34.2084 52.597L1.75263 33.8587L20.491 1.40295ZM21.0005 3.30445L3.65413 33.3492L33.6989 50.6955L51.0452 20.6508L21.0005 3.30445Z" fill="#9FA1BF"/>
<path fill-rule="evenodd" clip-rule="evenodd" d="M14.5917 4.90271L49.4468 14.2421L40.1074 49.0972L5.25227 39.7578L14.5917 4.90271Z" fill="#141416"/>
<path fill-rule="evenodd" clip-rule="evenodd" d="M14.0996 4.05048L50.2993 13.7502L40.5996 49.9498L4.39993 40.2502L14.0996 4.05048ZM15.0839 5.75531L6.10477 39.2659L39.6153 48.245L48.5945 14.7344L15.0839 5.75531Z" fill="#9FA1BF"/>
<path fill-rule="evenodd" clip-rule="evenodd" d="M9.30713 8.95782H45.3918V45.0425H9.30713V8.95782Z" fill="#141416"/>
<path fill-rule="evenodd" clip-rule="evenodd" d="M8.61139 8.26154H46.0881V45.7382H8.61139V8.26154ZM10.0034 9.65353V44.3462H44.6961V9.65353H10.0034Z" fill="#9FA1BF"/>
<path d="M33.0595 36.3547C29.8936 38.1923 25.5407 38.3811 21.1613 36.4951C17.6154 34.9792 14.6732 32.3257 12.7871 29.294C13.6924 30.0519 14.7486 30.6585 15.8802 31.1888C20.4029 33.3188 24.9246 33.173 28.1067 31.1943C28.1047 31.1922 28.1034 31.1909 28.102 31.1888C23.5754 27.7017 19.7278 23.1534 16.8611 19.4393C16.2573 18.8328 15.8047 18.0747 15.352 17.3925C18.8224 20.5763 24.3299 24.5937 26.291 25.7313C22.1423 21.3342 18.4453 15.8766 18.5959 16.0279C25.1595 22.6988 31.2708 26.4892 31.2708 26.4892C31.4729 26.6037 31.6289 26.6992 31.7544 26.7844C31.8867 26.4463 32.0027 26.0953 32.1004 25.7313C33.1566 21.8652 31.9498 17.4682 29.309 13.8298C35.4195 17.5442 39.0412 24.518 37.5319 30.3553C37.4925 30.5127 37.4498 30.6681 37.4037 30.8208C37.4213 30.8419 37.439 30.8638 37.4566 30.8863C40.4739 34.6767 39.6443 38.694 39.2671 37.9361C37.6303 34.7176 34.6001 35.7018 33.0596 36.3548L33.0595 36.3547Z" fill="#9FA1BF"/>
<path d="M69.5844 34.8475C73.1528 34.8475 75.2899 33.1221 75.2899 30.4067V30.3969C75.2899 28.1716 73.9566 26.9658 70.9961 26.3776L69.4962 26.0737C67.8689 25.7502 67.1435 25.2306 67.1435 24.3386V24.3287C67.1435 23.319 68.0552 22.623 69.5746 22.6132C71.0353 22.6132 72.0548 23.2896 72.2019 24.3974L72.2117 24.515H75.0056L74.9958 24.3287C74.8585 21.8486 72.8489 20.2114 69.5746 20.2114C66.4376 20.2114 64.1829 21.9172 64.1829 24.5052V24.515C64.1829 26.6423 65.5946 27.9755 68.3885 28.5343L69.8785 28.8284C71.6333 29.1911 72.3293 29.6714 72.3293 30.6322V30.642C72.3293 31.7203 71.3 32.4359 69.6629 32.4359C68.0454 32.4359 66.8788 31.7497 66.6925 30.6518L66.6729 30.5439H63.879L63.8888 30.7008C64.0555 33.3084 66.222 34.8475 69.5844 34.8475Z" fill="#9FA1BF"/>
<path d="M78.5057 34.6024H81.5152L83.4072 27.1717H83.466L85.3679 34.6024H88.4166L91.2007 24.0935H88.3774L86.7795 31.887H86.7207L84.8483 24.0935H82.1034L80.2408 31.887H80.182L78.5939 24.0935H75.7118L78.5057 34.6024Z" fill="#9FA1BF"/>
<path d="M93.4068 22.7406C94.2695 22.7406 94.9361 22.0642 94.9361 21.2506C94.9361 20.4369 94.2695 19.7605 93.4068 19.7605C92.5441 19.7605 91.8775 20.4369 91.8775 21.2506C91.8775 22.0642 92.5441 22.7406 93.4068 22.7406ZM91.9755 34.6024H94.8381V24.0935H91.9755V34.6024Z" fill="#9FA1BF"/>
<path d="M97.1226 34.6024H99.9851V26.2502H102.005V24.0935H99.9165V23.3582C99.9165 22.6034 100.338 22.2015 101.289 22.2015C101.554 22.2015 101.828 22.2113 102.024 22.2505V20.3585C101.691 20.2899 101.112 20.2409 100.583 20.2409C98.1029 20.2409 97.1226 21.1918 97.1226 23.2504V24.0935H95.6913V26.2502H97.1226V34.6024Z" fill="#9FA1BF"/>
<path d="M107.289 34.8181C107.887 34.8181 108.348 34.7593 108.671 34.7102V32.6124C108.495 32.632 108.308 32.6614 108.053 32.6614C107.191 32.6614 106.75 32.3281 106.75 31.3478V26.2502H108.671V24.0935H106.75V21.5251H103.858V24.0935H102.397V26.2502H103.858V31.6615C103.858 33.9162 104.956 34.8181 107.289 34.8181Z" fill="#9FA1BF"/>
<path d="M113.671 34.6024H116.632V30.142H119.357C122.337 30.142 124.327 28.2206 124.327 25.3091V25.2895C124.327 22.3779 122.337 20.4565 119.357 20.4565H113.671V34.6024ZM118.632 22.7995C120.328 22.7995 121.328 23.6915 121.328 25.2993V25.3189C121.328 26.9266 120.328 27.8285 118.632 27.8285H116.632V22.7995H118.632Z" fill="#9FA1BF"/>
<path d="M127.877 34.7691C129.259 34.7691 130.376 34.1123 130.974 33.0339H131.033V34.6024H133.896V27.3971C133.896 25.2797 132.141 23.8778 129.425 23.8778C126.651 23.8778 124.985 25.2698 124.828 27.2109L124.818 27.3285H127.435L127.455 27.2403C127.592 26.5639 128.239 26.0639 129.308 26.0639C130.425 26.0639 131.033 26.6423 131.033 27.5736V28.2206L128.435 28.3774C125.828 28.5441 124.347 29.6616 124.347 31.5733V31.5929C124.347 33.4456 125.769 34.7691 127.877 34.7691ZM127.18 31.4458V31.4262C127.18 30.6812 127.759 30.2106 128.867 30.142L131.033 30.0048V30.7596C131.033 31.8575 130.092 32.681 128.808 32.681C127.818 32.681 127.18 32.2203 127.18 31.4458Z" fill="#9FA1BF"/>
<path d="M140.15 34.8181C142.954 34.8181 144.768 33.0731 144.905 30.7792V30.7204H142.238L142.229 30.8086C142.033 31.8673 141.317 32.5732 140.17 32.5732C138.758 32.5732 137.876 31.4066 137.876 29.3479V29.3381C137.876 27.3285 138.758 26.1227 140.16 26.1227C141.346 26.1227 142.042 26.8874 142.219 27.8873L142.238 27.9755H144.895V27.9069C144.787 25.6326 142.974 23.8778 140.121 23.8778C136.974 23.8778 134.965 25.9659 134.965 29.3283V29.3381C134.965 32.73 136.945 34.8181 140.15 34.8181Z" fill="#9FA1BF"/>
<path d="M145.984 34.6024H148.846V31.1223L149.581 30.3087L152.591 34.6024H155.895L151.728 28.6127L155.699 24.0935H152.454L148.905 28.299H148.846V20.4565H145.984V34.6024Z" fill="#9FA1BF"/>
<path d="M159.355 34.7691C160.738 34.7691 161.855 34.1123 162.453 33.0339H162.512V34.6024H165.375V27.3971C165.375 25.2797 163.62 23.8778 160.904 23.8778C158.13 23.8778 156.464 25.2698 156.307 27.2109L156.297 27.3285H158.914L158.934 27.2403C159.071 26.5639 159.718 26.0639 160.787 26.0639C161.904 26.0639 162.512 26.6423 162.512 27.5736V28.2206L159.914 28.3774C157.307 28.5441 155.826 29.6616 155.826 31.5733V31.5929C155.826 33.4456 157.248 34.7691 159.355 34.7691ZM158.659 31.4458V31.4262C158.659 30.6812 159.238 30.2106 160.346 30.142L162.512 30.0048V30.7596C162.512 31.8575 161.571 32.681 160.287 32.681C159.297 32.681 158.659 32.2203 158.659 31.4458Z" fill="#9FA1BF"/>
<path d="M171.737 38.2492C174.894 38.2492 176.864 36.6513 176.864 34.3083V24.0935H174.002V25.8874H173.943C173.374 24.6621 172.227 23.8778 170.747 23.8778C168.09 23.8778 166.444 25.8678 166.444 29.2205V29.2303C166.444 32.4947 168.071 34.4554 170.698 34.4554C172.218 34.4554 173.394 33.7593 173.943 32.6614H174.002V34.2691C174.002 35.4455 173.217 36.2101 171.737 36.2101C170.541 36.2101 169.777 35.7592 169.551 35.2396L169.522 35.171H166.738L166.747 35.2592C167.022 36.9454 168.845 38.2492 171.737 38.2492ZM171.688 32.3575C170.257 32.3575 169.355 31.1909 169.355 29.2989V29.2891C169.355 27.4069 170.267 26.2502 171.688 26.2502C173.08 26.2502 174.012 27.4167 174.012 29.2891V29.2989C174.012 31.1811 173.09 32.3575 171.688 32.3575Z" fill="#9FA1BF"/>
<path d="M183.129 34.8181C186.129 34.8181 187.579 33.0437 187.903 31.4948L187.932 31.387H185.305L185.286 31.4458C185.08 32.034 184.364 32.681 183.188 32.681C181.727 32.681 180.815 31.7007 180.786 30.0244H188.021V29.1421C188.021 25.9659 186.089 23.8778 183.011 23.8778C179.933 23.8778 177.963 26.0149 177.963 29.3577V29.3676C177.963 32.73 179.913 34.8181 183.129 34.8181ZM183.06 26.0149C184.246 26.0149 185.099 26.7697 185.276 28.2206H180.815C181.002 26.7991 181.884 26.0149 183.06 26.0149Z" fill="#9FA1BF"/>
<path d="M192.923 34.6024H195.883V20.4565H192.923V34.6024Z" fill="#9FA1BF"/>
<path d="M197.59 34.6024H200.452V28.5637C200.452 27.1913 201.266 26.2502 202.55 26.2502C203.834 26.2502 204.481 27.0344 204.481 28.4068V34.6024H207.344V27.8187C207.344 25.3581 206.03 23.8778 203.717 23.8778C202.128 23.8778 201.05 24.613 200.511 25.8188H200.452V24.0935H197.59V34.6024Z" fill="#9FA1BF"/>
<path d="M212.648 34.8181C214.167 34.8181 215.324 34.0534 215.883 32.8084H215.941V34.6024H218.804V20.4565H215.941V25.9169H215.883C215.314 24.6424 214.138 23.8778 212.648 23.8778C210.001 23.8778 208.373 25.9169 208.373 29.3381V29.3479C208.373 32.7594 210.001 34.8181 212.648 34.8181ZM213.608 32.4457C212.177 32.4457 211.285 31.2596 211.285 29.3479V29.3381C211.285 27.4167 212.187 26.2502 213.608 26.2502C214.991 26.2502 215.951 27.4461 215.951 29.3381V29.3479C215.951 31.2497 215 32.4457 213.608 32.4457Z" fill="#9FA1BF"/>
<path d="M225.098 34.8181C228.098 34.8181 229.549 33.0437 229.872 31.4948L229.901 31.387H227.274L227.255 31.4458C227.049 32.034 226.333 32.681 225.157 32.681C223.696 32.681 222.784 31.7007 222.755 30.0244H229.99V29.1421C229.99 25.9659 228.058 23.8778 224.98 23.8778C221.902 23.8778 219.932 26.0149 219.932 29.3577V29.3676C219.932 32.73 221.883 34.8181 225.098 34.8181ZM225.029 26.0149C226.215 26.0149 227.068 26.7697 227.245 28.2206H222.784C222.971 26.7991 223.853 26.0149 225.029 26.0149Z" fill="#9FA1BF"/>
<path d="M230.196 34.6024H233.206L235.176 30.9557H235.235L237.235 34.6024H240.342L237.088 29.2891L240.372 24.0935H237.254L235.392 27.6422H235.333L233.441 24.0935H230.216L233.49 29.3676L230.196 34.6024Z" fill="#9FA1BF"/>
</svg>
