<svg viewBox="0 0 24 24" fill="none" xmlns="http://www.w3.org/2000/svg"><g opacity=".4" fill="#000"><path fill-rule="evenodd" clip-rule="evenodd" d="M17.1525 9.30806c.3585.17311.5528.47472.6494.63703.1012.17011.2049.38711.3069.60041.0051.0107.0102.0214.0153.032l-.9022.4315m-.0694-1.70094c-.4121-.199-.8925-.199-1.3045 0h1.3045zm-.6523 2.50964L14.5 15.9999h4.0004l-2.0002-4.1822zm2.9568 6.1822l1.6411 3.4315c.2383.4982.8354.709 1.3336.4707.4982-.2383.709-.8354.4707-1.3336l-4.7783-9.991-.9022.4315m2.2351 6.9909h-5.9135l-1.6411 3.4315c-.2383.4982-.8354.709-1.3336.4707-.4983-.2383-.70899-.8354-.4707-1.3336l4.7783-9.991c.0051-.0107.0102-.0213.0153-.032.1019-.2133.2057-.4303.3069-.60041.0965-.16231.2909-.46392.6494-.63703"/><path d="M17.2219 11.009l-.0694-1.70094H15.848l3.609 8.69184-2.2351-6.9909z"/></g><path fill-rule="evenodd" clip-rule="evenodd" d="M8.00022 2c.55229 0 1 .44772 1 1v1h4.99998c.5523 0 1 .44772 1 1s-.4477 1-1 1h-1.6717c-.5123 2.42693-1.4533 4.6671-2.7635 6.6367.28532.1756.5689.3271.845.4511.5038.2264.7287.8182.5024 1.322-.2263.5038-.8182.7287-1.32199.5024-.41275-.1855-.82445-.4112-1.22681-.6682-1.60703 1.9198-3.60598 3.5024-5.91835 4.6515-.49458.2458-1.09476.0441-1.34054-.4505-.245788-.4945-.0441-1.0947.45048-1.3405 2.03926-1.0134 3.79982-2.4006 5.21986-4.079-1.13893-1.0311-2.13534-2.3094-2.69598-3.63631-.21495-.50874.02322-1.0954.53196-1.31035.50874-.21494 1.0954.02323 1.31035.53197.40507.95874 1.15216 1.95509 2.05487 2.80219C9.03044 9.79868 9.81343 7.9769 10.2793 6H2.00022c-.55228 0-1-.44772-1-1s.44772-1 1-1h5V3c0-.55228.44772-1 1-1z" fill="#000"/></svg>