<svg viewBox="0 0 239 49" fill="none" xmlns="http://www.w3.org/2000/svg">
<path d="M5.12974 40.0987V47.8237H4.11795V40.0987H1.31025V39.1426H7.97286V40.0987H5.12974Z" fill="#666880"/>
<path d="M16.3909 45.0615C16.2037 45.0615 16.0064 45.0868 15.8091 45.0868H13.5023V47.8237H12.4905V39.1426H15.7889C17.9794 39.1426 19.2239 40.205 19.2239 42.0616C19.2709 42.6827 19.103 43.301 18.7485 43.8131C18.3939 44.3251 17.8741 44.6998 17.2762 44.8743L19.2998 47.8237H18.2121L16.3909 45.0615ZM15.8091 44.1307C17.3825 44.1307 18.2728 43.4376 18.2728 42.0818C18.2728 40.726 17.3825 40.0987 15.8091 40.0987H13.5023V44.1459L15.8091 44.1307Z" fill="#666880"/>
<path d="M25.33 45.6281L24.3638 47.8237H23.3115L27.2018 39.1426H28.2136L32.0938 47.8237H31.0365L30.0703 45.6281H25.33ZM27.6875 40.2758L25.7499 44.677H29.6453L27.6875 40.2758Z" fill="#666880"/>
<path d="M42.7783 47.8237L37.5676 40.8576V47.8237H36.5558V39.1426H37.5676L42.8137 46.1239V39.1426H43.7952V47.8237H42.7783Z" fill="#666880"/>
<path d="M54.8692 39.9118L54.4443 40.8426C53.7324 40.3766 52.9022 40.1239 52.0514 40.1141C50.9384 40.1141 50.2049 40.534 50.2049 41.2676C50.2049 43.4986 55.0918 42.33 55.0766 45.4817C55.0766 46.9336 53.8018 47.8644 51.9401 47.8644C50.7049 47.8514 49.5194 47.3768 48.6164 46.5339L49.0717 45.6436C49.8464 46.4011 50.8774 46.8398 51.9603 46.8729C53.2099 46.8729 53.9839 46.367 53.9839 45.5323C53.9839 43.2507 49.1071 44.4648 49.1071 41.3536C49.1071 39.9877 50.3111 39.1074 52.1121 39.1074C53.0887 39.1092 54.0448 39.3882 54.8692 39.9118Z" fill="#666880"/>
<path d="M61.2131 40.0987V43.1341H65.2602V44.0902H61.2131V47.8085H60.2013V39.1426H65.7206V40.0987H61.2131Z" fill="#666880"/>
<path d="M78.5652 43.4833C78.6036 44.391 78.3695 45.2895 77.8931 46.063C77.4167 46.8366 76.7198 47.45 75.8919 47.8243C75.0641 48.1986 74.1432 48.3166 73.2477 48.1632C72.3522 48.0099 71.5231 47.5921 70.8669 46.9637C70.2108 46.3353 69.7577 45.5249 69.5659 44.6369C69.374 43.7488 69.4523 42.8237 69.7905 41.9805C70.1287 41.1373 70.7115 40.4145 71.4638 39.9052C72.2162 39.3959 73.1037 39.1233 74.0122 39.1225C74.598 39.1077 75.181 39.209 75.7275 39.4206C76.2741 39.6321 76.7733 39.9497 77.1965 40.3551C77.6198 40.7604 77.9586 41.2455 78.1935 41.7824C78.4284 42.3193 78.5547 42.8974 78.5652 43.4833ZM70.4709 43.4833C70.4468 44.1884 70.6337 44.8846 71.0078 45.4827C71.382 46.0808 71.9262 46.5535 72.5708 46.8403C73.2153 47.127 73.9309 47.2147 74.6256 47.0921C75.3204 46.9695 75.9626 46.6421 76.4701 46.152C76.9776 45.662 77.3271 45.0315 77.4739 44.3415C77.6207 43.6514 77.558 42.9333 77.2939 42.2791C77.0298 41.6249 76.5763 41.0645 75.9916 40.6698C75.4069 40.275 74.7177 40.0639 74.0122 40.0635C73.092 40.0539 72.2051 40.4077 71.544 41.0479C70.8829 41.6881 70.501 42.5632 70.4811 43.4833H70.4709Z" fill="#666880"/>
<path d="M87.3526 45.0615C87.1704 45.0615 86.9731 45.0868 86.7708 45.0868H84.4841V47.8237H83.4724V39.1426H86.7708C88.9411 39.1426 90.1957 40.21 90.1957 42.0616C90.2427 42.6827 90.0748 43.301 89.7202 43.8131C89.3656 44.3251 88.8459 44.6998 88.248 44.8743L90.2716 47.8237H89.1434L87.3526 45.0615ZM86.7708 44.1307C88.3492 44.1307 89.2395 43.4376 89.2395 42.0818C89.2395 40.726 88.3492 40.0987 86.7708 40.0987H84.4841V44.1459L86.7708 44.1307Z" fill="#666880"/>
<path d="M103.4 47.8237V40.6704L100.238 46.908H99.6408L96.4891 40.6704V47.8237H95.5481V39.1426H96.7774L99.9494 45.3954L103.101 39.1426H104.32V47.8237H103.4Z" fill="#666880"/>
<path d="M119.634 47.8237H118.652V44.8845L115.293 39.1426H116.305L119.123 43.6703L121.92 39.1426H122.932L119.634 44.8491V47.8237Z" fill="#666880"/>
<path d="M135.195 43.4833C135.233 44.391 134.999 45.2895 134.523 46.063C134.046 46.8366 133.349 47.45 132.522 47.8243C131.694 48.1986 130.773 48.3166 129.877 48.1632C128.982 48.0099 128.153 47.5921 127.497 46.9637C126.84 46.3353 126.387 45.5249 126.196 44.6369C126.004 43.7488 126.082 42.8237 126.42 41.9805C126.758 41.1373 127.341 40.4145 128.093 39.9052C128.846 39.3959 129.733 39.1233 130.642 39.1225C131.228 39.1077 131.811 39.209 132.357 39.4206C132.904 39.6321 133.403 39.9497 133.826 40.3551C134.249 40.7604 134.588 41.2455 134.823 41.7824C135.058 42.3193 135.184 42.8974 135.195 43.4833ZM127.101 43.4833C127.076 44.1884 127.263 44.8846 127.637 45.4827C128.012 46.0808 128.556 46.5535 129.2 46.8403C129.845 47.127 130.561 47.2147 131.255 47.0921C131.95 46.9695 132.592 46.6421 133.1 46.152C133.607 45.662 133.957 45.0315 134.104 44.3415C134.25 43.6514 134.188 42.9333 133.924 42.2791C133.659 41.6249 133.206 41.0645 132.621 40.6698C132.037 40.275 131.347 40.0639 130.642 40.0635C129.722 40.0539 128.835 40.4077 128.174 41.0479C127.513 41.6881 127.131 42.5632 127.111 43.4833H127.101Z" fill="#666880"/>
<path d="M147.215 44.2521C147.215 46.5134 145.849 47.8743 143.578 47.8743C141.306 47.8743 139.92 46.5134 139.92 44.2521V39.1426H140.932V44.2521C140.932 45.9418 141.944 46.9182 143.598 46.9182C145.252 46.9182 146.203 45.9418 146.203 44.2521V39.1426H147.215V44.2521Z" fill="#666880"/>
<path d="M156.609 45.0615C156.422 45.0615 156.225 45.0868 156.027 45.0868H153.721V47.8237H152.709V39.1426H156.007C158.178 39.1426 159.427 40.21 159.427 42.0616C159.474 42.6827 159.306 43.301 158.952 43.8131C158.597 44.3251 158.077 44.6998 157.479 44.8743L159.503 47.8237H158.375L156.609 45.0615ZM156.027 44.1307C157.601 44.1307 158.491 43.4376 158.491 42.0818C158.491 40.726 157.601 40.0987 156.027 40.0987H153.721V44.1459L156.027 44.1307Z" fill="#666880"/>
<path d="M172.282 40.0987V43.1341H176.329V44.0902H172.282V47.8085H171.27V39.1426H176.81V40.0987H172.282Z" fill="#666880"/>
<path d="M188.465 44.2521C188.465 46.5134 187.1 47.8743 184.833 47.8743C182.567 47.8743 181.171 46.5134 181.171 44.2521V39.1426H182.182V44.2521C182.182 45.9418 183.194 46.9182 184.848 46.9182C186.503 46.9182 187.489 45.9418 187.489 44.2521V39.1426H188.501L188.465 44.2521Z" fill="#666880"/>
<path d="M196.636 40.0987V47.8237H195.624V40.0987H192.796V39.1426H199.474V40.0987H196.636Z" fill="#666880"/>
<path d="M211.104 44.2521C211.104 46.5134 209.743 47.8743 207.472 47.8743C205.2 47.8743 203.814 46.5134 203.814 44.2521V39.1426H204.826V44.2521C204.826 45.9418 205.838 46.9182 207.492 46.9182C209.146 46.9182 210.133 45.9418 210.133 44.2521V39.1426H211.145L211.104 44.2521Z" fill="#666880"/>
<path d="M220.519 45.0615C220.332 45.0615 220.134 45.0868 219.937 45.0868H217.625V47.8237H216.613V39.1426H219.917C222.082 39.1426 223.337 40.21 223.337 42.0616C223.384 42.6827 223.216 43.301 222.861 43.8131C222.507 44.3251 221.987 44.6998 221.389 44.8743L223.412 47.8237H222.284L220.519 45.0615ZM219.937 44.1307C221.51 44.1307 222.401 43.4376 222.401 42.0818C222.401 40.726 221.51 40.0987 219.937 40.0987H217.625V44.1459L219.937 44.1307Z" fill="#666880"/>
<path d="M229.675 40.0987V42.952H234.057V43.9081H229.675V46.8827H234.734V47.8237H228.664V39.1426H234.557V40.0987H229.675Z" fill="#666880"/>
<path d="M15.9154 8.50116V31.408H8.60018V8.50116H0V2.57715H24.5965V8.50116H15.9154Z" fill="#666880"/>
<path d="M46.9671 23.3082H41.2101V31.4025H33.8948V2.61719H46.7648C54.3532 2.61719 58.7291 6.23938 58.7291 12.6541C58.7291 17.0554 56.8826 20.2425 53.5083 21.9069L59.579 31.4076H51.247L46.9671 23.3082ZM46.7648 17.5461C49.9317 17.5461 51.7782 15.9424 51.7782 12.902C51.7782 9.86158 49.9317 8.34896 46.7648 8.34896H41.1999V17.5461H46.7648Z" fill="#666880"/>
<path d="M76.3899 26.1007L74.2904 31.4076H66.7779L79.1723 2.61719H86.7L98.8414 31.4076H91.0152L88.9613 26.1007H76.3899ZM82.7236 9.91217L78.5146 20.5511H86.8214L82.7236 9.91217Z" fill="#666880"/>
<path d="M127.784 31.4076L114.539 13.7013V31.4076H107.674V2.61719H114.13L127.414 20.3842V2.61719H134.244V31.4076H127.784Z" fill="#666880"/>
<path d="M168.584 5.49615L165.827 11.2127C162.791 9.44718 158.962 8.2128 156.614 8.2128C154.722 8.2128 153.448 8.91093 153.448 10.3072C153.448 15.2852 168.665 12.4471 168.665 22.8533C168.665 28.6104 163.565 31.6559 157.151 31.6559C152.376 31.6247 147.748 30.003 143.997 27.0472L146.836 21.4166C149.795 24.0068 154.237 25.7319 157.242 25.7319C159.544 25.7319 160.985 24.8668 160.985 23.2024C160.985 18.103 145.768 21.1485 145.768 10.9446C145.768 5.64286 150.321 2.26855 157.242 2.26855C161.249 2.27221 165.175 3.38968 168.584 5.49615Z" fill="#666880"/>
<path d="M186.169 8.37425V14.0908H199.909V19.853H186.169V25.6505H201.851V31.4076H178.823V2.61719H201.345V8.37425H186.169Z" fill="#666880"/>
<path d="M221.526 9.74016C222.96 9.74016 224.361 10.1655 225.554 10.9623C226.746 11.7591 227.675 12.8916 228.224 14.2165C228.772 15.5415 228.915 16.9994 228.635 18.4058C228.355 19.8122 227.664 21.1039 226.65 22.1175C225.635 23.1312 224.343 23.8212 222.937 24.1004C221.53 24.3795 220.072 24.2352 218.748 23.6858C217.423 23.1363 216.291 22.2063 215.495 21.0135C214.699 19.8207 214.275 18.4186 214.276 16.9846C214.279 15.0632 215.044 13.2213 216.403 11.8632C217.762 10.505 219.604 9.7415 221.526 9.74016ZM221.526 2.61719C218.683 2.61719 215.904 3.46024 213.54 5.03973C211.176 6.61922 209.334 8.86418 208.247 11.4907C207.159 14.1172 206.875 17.0073 207.43 19.7954C207.985 22.5835 209.354 25.1444 211.364 27.1542C213.375 29.1641 215.936 30.5325 218.725 31.0865C221.513 31.6405 224.403 31.3551 227.029 30.2665C229.655 29.178 231.9 27.335 233.478 24.9708C235.057 22.6066 235.899 19.8274 235.898 16.9846C235.898 15.0974 235.526 13.2287 234.804 11.4852C234.081 9.74177 233.023 8.1577 231.688 6.8235C230.353 5.4893 228.769 4.43112 227.025 3.70939C225.282 2.98766 223.413 2.61652 221.526 2.61719Z" fill="#666880"/>
<path d="M205.15 16.9846C205.155 12.6431 206.882 8.48095 209.952 5.41106C213.022 2.34117 217.184 0.614152 221.526 0.608797C221.784 0.608797 222.031 0.608797 222.295 0.608797C220.142 0.108963 217.905 0.101767 215.749 0.587745C213.594 1.07372 211.576 2.04032 209.846 3.41538C208.116 4.79044 206.72 6.53843 205.76 8.52887C204.801 10.5193 204.303 12.7008 204.305 14.9104C204.304 17.0227 204.763 19.1098 205.651 21.0266C205.315 19.7056 205.146 18.3476 205.15 16.9846Z" fill="#666880"/>
<path d="M237.623 13.9844C237.67 14.2272 237.711 14.47 237.744 14.7129V14.7382C237.775 14.9709 237.805 15.2086 237.825 15.4464V15.6336C237.825 15.8208 237.856 16.0079 237.866 16.2002C237.876 16.3924 237.866 16.7061 237.866 16.9843C237.862 21.3276 236.135 25.4917 233.064 28.5629C229.993 31.634 225.828 33.3611 221.485 33.3651C221.171 33.3651 220.863 33.3651 220.554 33.3651H220.347C220.099 33.3651 219.841 33.3247 219.603 33.2943H219.431C219.163 33.2589 218.9 33.2184 218.637 33.1729H218.541C218.242 33.1173 217.949 33.0565 217.655 32.9857C220.342 34.2943 223.365 34.7511 226.318 34.2951C229.272 33.839 232.015 32.4919 234.182 30.4338C236.349 28.3758 237.836 25.705 238.444 22.7789C239.051 19.8528 238.751 16.8109 237.583 14.0603L237.623 13.9844Z" fill="#666880"/>
</svg>
