<svg viewBox="0 0 24 24" fill="none" xmlns="http://www.w3.org/2000/svg"><path opacity=".4" fill-rule="evenodd" clip-rule="evenodd" d="M8 3c0-.55228.44772-1 1-1h6c.5523 0 1 .44772 1 1s-.4477 1-1 1H9c-.55228 0-1-.44772-1-1zm2 6.5c.5523 0 1 .44772 1 1v5c0 .5523-.4477 1-1 1-.55228 0-1-.4477-1-1v-5c0-.55228.44772-1 1-1zm4 0c.5523 0 1 .44772 1 1v5c0 .5523-.4477 1-1 1s-1-.4477-1-1v-5c0-.55228.4477-1 1-1z" fill="#000"/><path fill-rule="evenodd" clip-rule="evenodd" d="M4.99224 5.00004H3c-.55228 0-1 .44771-1 1 0 .55228.44772 1 1 1h1.06445l.64169 9.62546c.05035.7554.09202 1.3806.16673 1.8894.07779.5298.20118 1.0139.45822 1.4651.40014.7024 1.0037 1.2671 1.73114 1.6196.46729.2265.95857.3174 1.49236.3598.51269.0407 1.13924.0407 1.89631.0406h3.0982c.7571.0001 1.3836.0001 1.8963-.0406.5338-.0424 1.0251-.1333 1.4924-.3598.7274-.3525 1.331-.9172 1.7311-1.6196.2571-.4512.3804-.9353.4582-1.4651.0747-.5089.1164-1.1341.1668-1.8896l.6417-9.62526H21c.5523 0 1-.44772 1-1 0-.55229-.4477-1-1-1h-1.9922a1.020833 1.020833 0 00-.0175 0H5.00975a1.022018 1.022018 0 00-.01751 0zm12.93886 2H6.06889l.63018 9.45276c.05367.805.09077 1.3506.15259 1.7716.06004.4089.13339.6185.21722.7656.20007.3512.50184.6336.86556.8098.1524.0739.36642.1331.77842.1658.42417.0337.97099.0344 1.77784.0344h3.0186c.8068 0 1.3537-.0007 1.7778-.0344.412-.0327.6261-.0919.7785-.1658.3637-.1762.6655-.4586.8655-.8098.0839-.1471.1572-.3567.2172-.7656.0619-.421.099-.9666.1526-1.7716l.6302-9.45276z" fill="#000"/></svg>