<svg viewBox="0 0 24 24" fill="none" xmlns="http://www.w3.org/2000/svg"><path d="M22.1618 5.65605a8.383497 8.383497 0 01-2.402.658c.8738-.52257 1.5277-1.34499 1.84-2.314-.82.488-1.719.83-2.656 1.015-.6294-.67342-1.4636-1.12004-2.373-1.27042-.9094-.15038-1.8431.00391-2.6557.43887-.8127.43496-1.4589 1.12623-1.8382 1.96634-.3793.84011-.4703 1.78199-.2591 2.67921a11.87394 11.87394 0 01-4.7747-1.26834 11.873947 11.873947 0 01-3.84529-3.10166 4.167955 4.167955 0 00-.566 2.103c0 1.45.738 2.731 1.86 3.48095-.66399-.0209-1.31337-.20017-1.894-.52295v.052c.0002.96565.33437 1.90165.94585 2.64905.61147.7475 1.46263 1.2604 2.40915 1.4519-.61639.1671-1.26269.1917-1.89.072.26687.8313.78701 1.5582 1.48759 2.0792.70059.5209 1.54654.8096 2.41941.8258-.86752.6814-1.86082 1.185-2.92312 1.4822-1.0623.2972-2.17275.3821-3.26788.2498 1.9117 1.2295 4.13709 1.8822 6.41 1.88 7.69299 0 11.89999-6.373 11.89999-11.89995 0-.18-.005-.362-.013-.54.8189-.59183 1.5256-1.32498 2.087-2.165l-.001-.001z" fill="#000"/></svg>