<svg width="24" height="24" viewBox="0 0 24 24" fill="none" xmlns="http://www.w3.org/2000/svg">
<g clip-path="url(#clip0_917_54284)">
<path d="M0 11.9993C0 12.8212 0.082875 13.6238 0.240328 14.3993L12 15.1297L23.7597 14.3993C23.9172 13.6238 24 12.8212 24 11.9993C24 11.1773 23.9171 10.3747 23.7597 9.59929L12 8.86884L0.240328 9.59929C0.082875 10.3747 0 11.1773 0 11.9993Z" fill="#0052B4"/>
<path d="M23.7596 14.3992H0.240234C1.35206 19.8765 6.19448 23.9992 11.9999 23.9992C17.8053 23.9992 22.6477 19.8765 23.7596 14.3992Z" fill="#F0F0F0"/>
<path d="M0.240234 9.6H23.7597C22.6478 4.12266 17.8054 0 11.9999 0C6.19439 0 1.35206 4.12266 0.240234 9.6Z" fill="black"/>
<path d="M17.2175 9.59937H6.78271L8.91459 8.59653L7.77933 6.53192L10.0942 6.97466L10.3877 4.63611L12.0001 6.35614L13.6126 4.63611L13.9058 6.97466L16.2209 6.53192L15.0857 8.59662L17.2175 9.59937Z" fill="#FFDA44"/>
<path d="M0 12.0008C0 18.6282 5.37262 24.0008 12 24.0008L2.39981 4.80035C0.893062 6.80609 0 9.29904 0 12.0008Z" fill="#A2001D"/>
<path d="M11.9995 23.9998C18.6269 23.9998 23.9995 18.6272 23.9995 11.9998C23.9995 9.2981 23.1065 6.80514 21.5997 4.79941L11.9995 23.9998Z" fill="#A2001D"/>
</g>
<defs>
<clipPath id="clip0_917_54284">
<rect width="24" height="24" fill="white"/>
</clipPath>
</defs>
</svg>
