<svg width="24" height="24" viewBox="0 0 24 24" fill="none" xmlns="http://www.w3.org/2000/svg">
<path d="M12 24C18.6274 24 24 18.6274 24 12C24 5.37258 18.6274 0 12 0C5.37258 0 0 5.37258 0 12C0 18.6274 5.37258 24 12 24Z" fill="#D80027"/>
<path d="M18.7825 8.90742H14.436C14.7043 8.62646 14.8694 8.24606 14.8694 7.82686C14.8694 6.96244 14.1686 6.26166 13.3042 6.26166C12.7596 6.26166 12.2802 6.53991 11.9999 6.96183C11.7195 6.53991 11.2401 6.26166 10.6955 6.26166C9.8311 6.26166 9.13032 6.96244 9.13032 7.82686C9.13032 8.24606 9.29546 8.6265 9.56377 8.90742H5.21729C5.21729 10.06 6.22121 10.9943 7.37372 10.9943H7.30416C7.30416 12.147 8.23852 13.0814 9.39118 13.0814C9.39118 13.4547 9.48957 13.8046 9.66132 14.1076L7.93022 15.8388L9.25838 17.1668L11.1424 15.2829C11.2162 15.3099 11.2925 15.3316 11.3714 15.3464L10.2329 17.9168L11.9999 19.8269L13.7668 17.9167L12.6284 15.3463C12.7073 15.3316 12.7836 15.3099 12.8573 15.2828L14.7413 17.1668L16.0695 15.8386L14.3384 14.1075C14.5102 13.8046 14.6086 13.4545 14.6086 13.0812C15.7612 13.0812 16.6955 12.1469 16.6955 10.9942H16.626C17.7785 10.9943 18.7825 10.06 18.7825 8.90742Z" fill="black"/>
</svg>
