<svg width="24" height="24" viewBox="0 0 24 24" fill="none" xmlns="http://www.w3.org/2000/svg">
<g clip-path="url(#clip0_917_54298)">
<path d="M24 12C24 10.5322 23.736 9.12608 23.2536 7.82615L12 7.30438L0.746391 7.8261C0.264047 9.12608 0 10.5322 0 12C0 13.4679 0.264047 14.874 0.746391 16.1739L12 16.6957L23.2536 16.174C23.736 14.874 24 13.4679 24 12Z" fill="#0052B4"/>
<path d="M12.0002 23.9995C17.1598 23.9995 21.5583 20.743 23.2538 16.1734H0.746582C2.4421 20.743 6.84061 23.9995 12.0002 23.9995Z" fill="#FF9811"/>
<path d="M0.746094 7.82611H23.2534C21.5578 3.2565 17.1593 0 11.9997 0C6.84012 0 2.44161 3.2565 0.746094 7.82611Z" fill="#D80027"/>
</g>
<defs>
<clipPath id="clip0_917_54298">
<rect width="24" height="24" fill="white"/>
</clipPath>
</defs>
</svg>
