<svg width="24" height="24" viewBox="0 0 24 24" fill="none" xmlns="http://www.w3.org/2000/svg">
<g clip-path="url(#clip0_917_54302)">
<path d="M12 24C18.6274 24 24 18.6274 24 12C24 5.37258 18.6274 0 12 0C5.37258 0 0 5.37258 0 12C0 18.6274 5.37258 24 12 24Z" fill="#FFDA44"/>
<path d="M11.9999 24.0002C15.637 24.0002 18.8959 22.3819 21.0965 19.8264H2.90332C5.10396 22.3819 8.36285 24.0002 11.9999 24.0002Z" fill="#338AF3"/>
<path d="M24 12C24 5.37263 18.6274 0 12 0C5.37262 0 0 5.37263 0 12C0 13.0831 0.144375 14.1323 0.413391 15.1305H23.5867C23.8556 14.1323 24 13.0831 24 12Z" fill="#338AF3"/>
<path d="M0.953613 16.6962C1.18494 17.2398 1.45536 17.7625 1.76104 18.2614H22.2385C22.5441 17.7625 22.8146 17.2397 23.046 16.6962H0.953613Z" fill="#338AF3"/>
<path d="M5.4988 7.56907L3.1543 6.53435L5.4988 5.49964L6.53347 3.15518L7.56814 5.49964L9.9126 6.53435L7.56814 7.56907L6.53347 9.91353L5.4988 7.56907Z" fill="#F0F0F0"/>
<path d="M6.53375 4.44733L7.1727 5.89525L8.62067 6.5343L7.1727 7.1733L6.53375 8.62122L5.8947 7.1733L4.44678 6.5343L5.8947 5.89525L6.53375 4.44733Z" fill="#D80027"/>
</g>
<defs>
<clipPath id="clip0_917_54302">
<rect width="24" height="24" fill="white"/>
</clipPath>
</defs>
</svg>
