<svg width="24" height="24" viewBox="0 0 24 24" fill="none" xmlns="http://www.w3.org/2000/svg">
<g clip-path="url(#clip0_917_54502)">
<path d="M12 24C18.6274 24 24 18.6274 24 12C24 5.37258 18.6274 0 12 0C5.37258 0 0 5.37258 0 12C0 18.6274 5.37258 24 12 24Z" fill="#F0F0F0"/>
<path d="M11.9994 -0.000732422C7.74456 -0.000732422 4.00721 2.21378 1.87646 5.55297L18.1495 22.3047C21.6531 20.2093 23.9994 16.3785 23.9994 11.9993C23.9994 5.37189 18.6268 -0.000732422 11.9994 -0.000732422Z" fill="#FFDA44"/>
<path d="M24.0001 11.9991C24.0001 8.8856 22.8142 6.04928 20.8696 3.91656V20.0817C22.8142 17.949 24.0001 15.1127 24.0001 11.9991Z" fill="#0052B4"/>
<path d="M14.9906 22.587L16.2475 22.5862L16.6353 21.3904L17.0245 22.5857L17.6549 22.5853C18.0415 22.3784 18.4154 22.1509 18.7752 21.9043L2.09528 5.22437C1.82041 5.62543 1.56972 6.04421 1.3443 6.47827L1.49252 6.93352L2.74947 6.93272L1.73303 7.67218L2.12219 8.86744L1.10482 8.12926L0.49802 8.57063C0.174535 9.65701 0.000488281 10.8077 0.000488281 11.9992C0.000488281 18.6265 5.37311 23.9992 12.0005 23.9992C13.4017 23.9992 14.7466 23.7586 15.9966 23.317L14.9906 22.587ZM2.677 11.4774L3.06466 10.2818L2.04738 9.54348L3.30433 9.54268L3.69203 8.34694L4.08119 9.54221L5.33814 9.54141L4.32166 10.2809L4.71082 11.4761L3.69344 10.7379L2.677 11.4774ZM5.26568 14.0861L5.65333 12.8904L4.63605 12.1522L5.893 12.1514L6.28071 10.9556L6.66986 12.1509L7.92682 12.1501L6.91038 12.8896L7.29953 14.0848L6.28216 13.3466L5.26568 14.0861ZM7.8543 16.6948L8.24196 15.4991L7.22468 14.7608L8.48163 14.7601L8.86933 13.5643L9.25849 14.7596L10.5154 14.7588L9.499 15.4982L9.88816 16.6935L8.87078 15.9552L7.8543 16.6948ZM11.4594 18.5641L10.4429 19.3035L10.8306 18.1078L9.8133 17.3695L11.0703 17.3687L11.458 16.173L11.8472 17.3683L13.1041 17.3675L12.0877 18.1069L12.4768 19.3022L11.4594 18.5641ZM13.0316 21.9122L13.4193 20.7165L12.402 19.9782L13.6589 19.9774L14.0466 18.7817L14.4358 19.977L15.6927 19.9762L14.6763 20.7156L15.0655 21.9109L14.0481 21.1726L13.0316 21.9122Z" fill="#0052B4"/>
</g>
<defs>
<clipPath id="clip0_917_54502">
<rect width="24" height="24" fill="white"/>
</clipPath>
</defs>
</svg>
