<svg width="24" height="24" viewBox="0 0 24 24" fill="none" xmlns="http://www.w3.org/2000/svg">
<g clip-path="url(#clip0_917_54350)">
<path d="M17.217 1.19088C15.6394 0.428035 13.8695 0.000160217 11.9996 0.000160217C10.1298 0.000160217 8.35988 0.428035 6.78225 1.19088L5.73877 12.0002L6.78225 22.8094C8.35988 23.5723 10.1298 24.0002 11.9996 24.0002C13.8695 24.0002 15.6394 23.5723 17.217 22.8094L18.2605 12.0002L17.217 1.19088Z" fill="#FFDA44"/>
<path d="M6.78262 1.19128C2.76872 3.13219 0 7.24261 0 12.0001C0 16.7577 2.76872 20.8681 6.78262 22.809V1.19128Z" fill="#0052B4"/>
<path d="M17.2173 1.1917V22.8094C21.2312 20.8685 23.9999 16.758 23.9999 12.0006C23.9999 7.24308 21.2312 3.13261 17.2173 1.1917Z" fill="#0052B4"/>
<path d="M15.6523 7.30336L16.3523 7.65333L15.6523 7.30336L14.9522 6.95339C14.9101 7.03781 13.996 8.89748 13.8467 11.7382H12.7827V7.30336L12.0001 6.25987L11.2175 7.30336V11.7382H10.1535C10.0041 8.89748 9.09015 7.03781 9.04792 6.95339L7.64795 7.65337C7.65761 7.67259 8.60884 9.60876 8.60884 12.5208V13.3034H11.2175V17.7382H12.7827V13.3034H15.3914V12.5207C15.3914 11.0152 15.6519 9.77376 15.8705 8.99742C16.1087 8.15086 16.3508 7.65647 16.3532 7.65154L15.6523 7.30336Z" fill="black"/>
</g>
<defs>
<clipPath id="clip0_917_54350">
<rect width="24" height="24" fill="white"/>
</clipPath>
</defs>
</svg>
