<svg width="24" height="24" viewBox="0 0 24 24" fill="none" xmlns="http://www.w3.org/2000/svg">
<g clip-path="url(#clip0_917_54344)">
<path d="M12 24C18.6274 24 24 18.6274 24 12C24 5.37258 18.6274 0 12 0C5.37258 0 0 5.37258 0 12C0 18.6274 5.37258 24 12 24Z" fill="#F0F0F0"/>
<path d="M12.0001 -0.000930786C9.59189 -0.000930786 7.34977 0.708991 5.47046 1.93023L8.55666 3.99877L4.6958 5.99874L8.55666 7.99871L4.6958 9.99868L8.55666 11.9984L4.6958 13.9983L8.55666 15.9983L4.6958 17.9984L8.55666 19.9984L5.47008 22.0676C7.34949 23.2891 9.59175 23.9991 12.0001 23.9991C18.6275 23.9991 24.0001 18.6264 24.0001 11.9991C24.0001 5.37169 18.6275 -0.000930786 12.0001 -0.000930786Z" fill="#D80027"/>
</g>
<defs>
<clipPath id="clip0_917_54344">
<rect width="24" height="24" fill="white"/>
</clipPath>
</defs>
</svg>
