<svg width="24" height="24" viewBox="0 0 24 24" fill="none" xmlns="http://www.w3.org/2000/svg">
<g clip-path="url(#clip0_917_54593)">
<path d="M12 24C18.6274 24 24 18.6274 24 12C24 5.37258 18.6274 0 12 0C5.37258 0 0 5.37258 0 12C0 18.6274 5.37258 24 12 24Z" fill="#F0F0F0"/>
<path d="M19.3067 2.48002C15.0105 -0.825891 8.98955 -0.825891 4.69336 2.47997L12 9.78666L19.3067 2.48002Z" fill="#D80027"/>
<path d="M12.0004 14.2139L4.69385 21.5205C8.99004 24.8264 15.011 24.8264 19.3072 21.5205L12.0005 14.2138L12.0004 14.2139Z" fill="#D80027"/>
<path d="M9.78656 12.0003L2.47992 4.6936C-0.825988 8.98979 -0.825988 15.0108 2.47992 19.307L9.78656 12.0003Z" fill="#6DA544"/>
<path d="M14.2139 12.0003L21.5205 19.307C24.8264 15.0108 24.8264 8.98979 21.5205 4.6936L14.2139 12.0003Z" fill="#6DA544"/>
<path d="M12.0001 17.2179C14.8816 17.2179 17.2175 14.882 17.2175 12.0005C17.2175 9.11901 14.8816 6.78311 12.0001 6.78311C9.11862 6.78311 6.78271 9.11901 6.78271 12.0005C6.78271 14.882 9.11862 17.2179 12.0001 17.2179Z" fill="#F0F0F0"/>
<path d="M12 8.34824L12.4518 9.13086H13.3555L12.9037 9.91344L13.3555 10.6961H12.4518L12 11.4787L11.5482 10.6961H10.6445L11.0964 9.91344L10.6445 9.13086H11.5482L12 8.34824Z" fill="#D80027"/>
<path d="M9.70368 12.001L10.1555 12.7836H11.0592L10.6073 13.5662L11.0592 14.3488H10.1555L9.70368 15.1314L9.2518 14.3488H8.34814L8.79997 13.5662L8.34814 12.7836H9.2518L9.70368 12.001Z" fill="#D80027"/>
<path d="M14.2969 12.001L14.7488 12.7836H15.6524L15.2006 13.5662L15.6524 14.3488H14.7488L14.2969 15.1314L13.8451 14.3488H12.9414L13.3932 13.5662L12.9414 12.7836H13.8451L14.2969 12.001Z" fill="#D80027"/>
</g>
<defs>
<clipPath id="clip0_917_54593">
<rect width="24" height="24" fill="white"/>
</clipPath>
</defs>
</svg>
