<svg width="24" height="24" viewBox="0 0 24 24" fill="none" xmlns="http://www.w3.org/2000/svg">
<path d="M12.0002 23.9977C18.6266 23.9977 23.9984 18.6259 23.9984 11.9995C23.9984 5.37302 18.6266 0.0012207 12.0002 0.0012207C5.37375 0.0012207 0.00195312 5.37302 0.00195312 11.9995C0.00195312 18.6259 5.37375 23.9977 12.0002 23.9977Z" fill="#F0F0F0"/>
<path d="M1.6094 6.00128C1.06784 6.93918 0.668365 7.91973 0.402344 8.91852L20.468 20.5035C21.2 19.7737 21.8495 18.9374 22.3909 17.9995L1.6094 6.00128Z" fill="black"/>
<path d="M17.9987 1.60927C13.1979 -1.16247 7.2784 -0.238681 3.53174 3.49696L23.5974 15.0819C24.9593 9.96946 22.7995 4.38104 17.9987 1.60927Z" fill="#FFDA44"/>
<path d="M6.00079 22.3899C10.8015 25.1617 16.7212 24.2379 20.4678 20.5023L0.402062 8.91724C-0.959733 14.0298 1.19994 19.6182 6.00079 22.3899Z" fill="#FFDA44"/>
<path d="M15.3913 10.6963C15.3913 12.569 13.8732 14.0871 12.0005 14.0871C10.1278 14.0871 8.60965 12.569 8.60965 10.6963C8.60965 10.1124 8.75726 9.56299 9.01724 9.08331C8.28142 9.83581 7.82715 10.8648 7.82715 12.0005C7.82715 14.3053 9.69558 16.1738 12.0005 16.1738C14.3054 16.1738 16.1738 14.3053 16.1738 12.0005C16.1738 10.8648 15.7196 9.83581 14.9837 9.08331C15.2437 9.56309 15.3913 10.1124 15.3913 10.6963Z" fill="#D80027"/>
<path d="M12.7828 6.78357H11.2178V14.6085H12.7828V6.78357Z" fill="#D80027"/>
<path d="M14.6082 8.34827H9.3916C9.3916 8.70841 9.70534 9.00036 10.0654 9.00036H10.0437C10.0437 9.36051 10.3357 9.65245 10.6958 9.65245C10.6958 10.0126 10.9878 10.3045 11.3479 10.3045H12.652C13.0122 10.3045 13.3041 10.0126 13.3041 9.65245C13.6643 9.65245 13.9562 9.36051 13.9562 9.00036H13.9345C14.2945 9.00031 14.6082 8.70846 14.6082 8.34827Z" fill="#D80027"/>
<path d="M15.6524 15.13H8.34912V16.695H15.6524V15.13Z" fill="#D80027"/>
<path d="M16.6949 15.651H13.5649V17.216H16.6949V15.651Z" fill="#D80027"/>
<path d="M10.4351 15.651H7.30518V17.216H10.4351V15.651Z" fill="#D80027"/>
</svg>
