<svg width="24" height="24" viewBox="0 0 24 24" fill="none" xmlns="http://www.w3.org/2000/svg">
<g clip-path="url(#clip0_917_55717)">
<path d="M5.23682 21.9128C7.16272 23.2293 9.49133 23.9997 12.0003 23.9997C14.5092 23.9997 16.8379 23.2293 18.7637 21.9128L12.0003 20.8693L5.23682 21.9128Z" fill="#D80027"/>
<path d="M18.7637 2.08709C16.8379 0.770606 14.5092 0.00012207 12.0003 0.00012207C9.49133 0.00012207 7.16263 0.770606 5.23682 2.08709L12.0003 3.13057L18.7637 2.08709Z" fill="#D80027"/>
<path d="M5.23682 21.9128C7.16272 23.2293 9.49133 23.9997 12.0003 23.9997C14.5092 23.9997 16.8379 23.2293 18.7637 21.9128L12.0003 20.8693L5.23682 21.9128Z" fill="#D80027"/>
<path d="M18.7637 2.08709C16.8379 0.770606 14.5092 0.00012207 12.0003 0.00012207C9.49133 0.00012207 7.16263 0.770606 5.23682 2.08709L12.0003 3.13057L18.7637 2.08709Z" fill="#D80027"/>
<path d="M23.9701 11.2165C23.6858 7.51289 21.4355 3.91214 18.7641 2.08603H5.23721C2.27771 4.1092 0.270191 7.42271 0.0258789 11.2165L12.0007 11.9991L23.9701 11.2165Z" fill="#0052B4"/>
<path d="M0.0249023 12.7822C0.269215 16.576 2.27668 19.8895 5.23618 21.9126H18.7631C21.7227 19.8895 23.7301 16.576 23.9744 12.7822L11.9997 11.9996L0.0249023 12.7822Z" fill="#0052B4"/>
<path d="M23.9694 11.2173H12.7826V1.56519H11.2174V11.2173H0.0252656C0.008625 11.4761 0 11.737 0 12C0 12.2629 0.00857813 12.5238 0.0252187 12.7826H11.2174V22.4348H12.7826V12.7826H23.9748C23.9914 12.5238 24 12.2629 24 12C24 11.7389 23.9895 11.4779 23.9694 11.2173Z" fill="#D80027"/>
<path d="M4.6958 11.9993L12.0001 7.40823L19.3045 11.9993L12.0001 16.5903L4.6958 11.9993Z" fill="#F0F0F0"/>
<path d="M7.82568 14.0873H17.2169L15.13 10.9568L14.0865 12.0003L13.0431 11.4786L11.9996 13.0438H9.91261L8.86912 12.0003L7.82568 14.0873Z" fill="#6DA544"/>
<path d="M12.0004 8.86896L12.2595 9.66607H13.0975L12.4195 10.1588L12.6785 10.9559L12.0004 10.4633L11.3223 10.9559L11.5814 10.1588L10.9033 9.66607H11.7414L12.0004 8.86896Z" fill="#FFDA44"/>
<path d="M12.0002 6.09656L2.60889 11.9993L12.0002 17.9021L21.3915 11.9993L12.0002 6.09656ZM5.5502 11.9993L12.0002 7.94526L18.4502 11.9993L12.0002 16.0534L5.5502 11.9993Z" fill="#D80027"/>
</g>
<defs>
<clipPath id="clip0_917_55717">
<rect width="24" height="24" fill="white"/>
</clipPath>
</defs>
</svg>
