<svg width="24" height="24" viewBox="0 0 24 24" fill="none" xmlns="http://www.w3.org/2000/svg">
<g clip-path="url(#clip0_917_54401)">
<path d="M3.51422 20.4854C-1.17206 15.7991 -1.17206 8.20118 3.51422 3.51485C8.2005 -1.17148 15.7985 -1.17143 20.4848 3.51485C20.4848 3.51649 23.6708 14.2988 18.9845 18.9851C14.2983 23.6715 3.5175 20.4887 3.51422 20.4854Z" fill="#FFDA44"/>
<path d="M3.51465 20.4846C8.20093 25.1709 15.7989 25.1709 20.4853 20.4846C25.1716 15.7983 25.1716 8.20033 20.4853 3.51401L3.51465 20.4846Z" fill="#FF9811"/>
<path d="M18.7886 6.78198V4.69501H14.7885L14.4829 5.00059C13.3959 6.08757 13.5788 7.35563 13.7123 8.28151C13.8361 9.1404 13.8509 9.46941 13.5315 9.78887C13.2121 10.1082 12.883 10.0934 12.0242 9.96952C11.0983 9.83607 9.83032 9.65321 8.74334 10.7401C7.6564 11.8271 7.83935 13.0951 7.97294 14.0209C8.09684 14.8797 8.11174 15.2087 7.79243 15.528C7.47307 15.8472 7.14396 15.8324 6.28535 15.7085C5.95057 15.6601 5.6044 15.6103 5.23484 15.6061L5.21191 17.693C5.4432 17.6956 5.70752 17.7337 5.98737 17.7741C6.31868 17.8219 6.69368 17.876 7.08865 17.876C7.49796 17.876 7.92855 17.8177 8.3538 17.6341V19.3038H11.4843V17.7386H9.91905V16.6951H10.9625V15.1299H10.1285C10.1681 14.6236 10.0985 14.1387 10.0385 13.723C9.91465 12.8642 9.89974 12.5352 10.2191 12.216C10.5385 11.8966 10.8674 11.9114 11.7264 12.0352C12.401 12.1325 13.2574 12.2554 14.093 11.8946V13.5646H17.2234V11.9994H15.6582V10.956H16.7017V9.39076H15.8678C15.9074 8.88437 15.8379 8.39954 15.7779 7.98371C15.6914 7.38366 15.658 7.04223 15.7548 6.78202H18.7886V6.78198Z" fill="#F0F0F0"/>
</g>
<defs>
<clipPath id="clip0_917_54401">
<rect width="24" height="24" fill="white"/>
</clipPath>
</defs>
</svg>
