<svg width="24" height="24" viewBox="0 0 24 24" fill="none" xmlns="http://www.w3.org/2000/svg">
<g clip-path="url(#clip0_917_54508)">
<path d="M0.567113 8.34777C0.19952 9.49944 0.000441415 10.7263 0.00048829 11.9999C0.000441415 13.2735 0.19952 14.5004 0.56716 15.6521L12.0005 16.1739L23.4338 15.6521C23.8013 14.5004 24.0004 13.2734 24.0004 12C24.0004 10.7264 23.8014 9.49944 23.4338 8.34777L12.0004 7.82605L0.567113 8.34777Z" fill="#F0F0F0"/>
<path d="M24.0005 12.0005C24.0005 11.2886 23.9381 10.5913 23.8192 9.91351H0.181801C0.062832 10.5913 0.000488281 11.2885 0.000488281 12.0005C0.000488281 12.7124 0.0628789 13.4096 0.181801 14.0874H23.8192C23.9381 13.4096 24.0005 12.7124 24.0005 12.0005Z" fill="black"/>
<path d="M11.9997 23.9997C17.3536 23.9997 21.8878 20.4933 23.433 15.6518H0.566406C2.11164 20.4932 6.64591 23.9996 11.9997 23.9997Z" fill="#338AF3"/>
<path d="M12.0003 -0.00061035C6.64644 -0.00061035 2.11222 3.50578 0.566895 8.34712L23.4335 8.34717C21.8883 3.50578 17.354 -0.0007041 12.0003 -0.00061035Z" fill="#338AF3"/>
</g>
<defs>
<clipPath id="clip0_917_54508">
<rect width="24" height="24" fill="white"/>
</clipPath>
</defs>
</svg>
