<svg width="24" height="24" viewBox="0 0 24 24" fill="none" xmlns="http://www.w3.org/2000/svg">
<g clip-path="url(#clip0_917_54356)">
<path d="M12 24C18.6274 24 24 18.6274 24 12C24 5.37258 18.6274 0 12 0C5.37258 0 0 5.37258 0 12C0 18.6274 5.37258 24 12 24Z" fill="#FCFCFC"/>
<path d="M4.95669 11.1289L3.65234 8.76249L4.95669 6.43323L6.26103 8.76249L4.95669 11.1289Z" fill="#A2001D"/>
<path d="M2.3478 11.1289L1.04346 8.76249L2.3478 6.43323L3.65214 8.76249L2.3478 11.1289Z" fill="#A2001D"/>
<path d="M4.95669 17.5644L3.65234 15.198L4.95669 12.8687L6.26103 15.198L4.95669 17.5644Z" fill="#A2001D"/>
<path d="M2.3478 17.5644L1.04346 15.198L2.3478 12.8687L3.65214 15.198L2.3478 17.5644Z" fill="#A2001D"/>
<path d="M6.26041 2.32878L5.89113 1.66934C5.22878 2.06178 4.60755 2.51614 4.03516 3.02445L4.95606 4.69513L6.26041 2.32878Z" fill="#A2001D"/>
<path d="M4.95605 19.3042L4.02539 20.9662C4.59727 21.4752 5.21808 21.9302 5.88014 22.3235L6.26044 21.6335L4.95605 19.3042Z" fill="#A2001D"/>
<path d="M7.3042 15.1307V23.0461C8.7465 23.6601 10.3334 24.0002 11.9999 24.0002C17.1594 24.0002 21.5579 20.7437 23.2535 16.1741L7.3042 15.1307Z" fill="#6DA544"/>
<path d="M23.2535 16.1741C23.7359 14.8741 23.9999 13.468 23.9999 12.0002C23.9999 5.37279 18.6272 0.000167847 11.9999 0.000167847C10.3335 0.000167847 8.7465 0.340152 7.3042 0.95398V16.1741H23.2535V16.1741Z" fill="#A2001D"/>
</g>
<defs>
<clipPath id="clip0_917_54356">
<rect width="24" height="24" fill="white"/>
</clipPath>
</defs>
</svg>
