<svg width="24" height="24" viewBox="0 0 24 24" fill="none" xmlns="http://www.w3.org/2000/svg">
<g clip-path="url(#clip0_917_54642)">
<path d="M12 24C18.6274 24 24 18.6274 24 12C24 5.37258 18.6274 0 12 0C5.37258 0 0 5.37258 0 12C0 18.6274 5.37258 24 12 24Z" fill="#F0F0F0"/>
<path d="M22.5406 6.26031C20.99 3.41833 18.3236 1.2729 15.1301 0.412186L14.6084 6.26031H22.5406Z" fill="#0052B4"/>
<path d="M1.45898 6.26051H9.39117L8.86945 0.412384C5.676 1.2731 3.00966 3.41857 1.45898 6.26051Z" fill="#0052B4"/>
<path d="M14.6084 12.0017V17.7408H22.5406C23.4708 16.0359 23.9997 14.0806 23.9997 12.0017H14.6084Z" fill="#6DA544"/>
<path d="M9.39131 12.0007H0C0 14.0796 0.528891 16.035 1.45908 17.7399H9.39127V12.0007H9.39131Z" fill="#6DA544"/>
<path d="M1.45898 17.7396C3.00966 20.5816 5.676 22.727 8.86945 23.5877L9.39117 18.4732L1.45898 17.7396Z" fill="#FFDA44"/>
<path d="M15.1301 23.5883C18.3236 22.7276 20.99 20.5822 22.5406 17.7402L14.6084 18.4738L15.1301 23.5883Z" fill="#FFDA44"/>
<path d="M14.6084 18.4737L22.5406 17.7402H14.6084V18.4737Z" fill="#FFDA44"/>
<path d="M9.39122 17.7396H1.45898L9.39122 18.4732V17.7396Z" fill="#FFDA44"/>
<path d="M12.0001 0.000389099C10.9169 0.000389099 9.86779 0.144764 8.86963 0.41378V23.587C9.86779 23.856 10.9169 24.0004 12.0001 24.0004C13.0832 24.0004 14.1324 23.856 15.1305 23.587V0.41378C14.1324 0.144764 13.0832 0.000389099 12.0001 0.000389099Z" fill="#D80027"/>
<path d="M6.45438 2.60911L6.7781 3.60553H7.8259L6.9783 4.22137L7.30207 5.2178L6.45438 4.602L5.60674 5.2178L5.9306 4.22137L5.08301 3.60553H6.13071L6.45438 2.60911Z" fill="#FFDA44"/>
</g>
<defs>
<clipPath id="clip0_917_54642">
<rect width="24" height="24" fill="white"/>
</clipPath>
</defs>
</svg>
