<svg width="24" height="24" viewBox="0 0 24 24" fill="none" xmlns="http://www.w3.org/2000/svg">
<g clip-path="url(#clip0_917_54714)">
<path d="M24 12C24 18.6274 18.6274 24 12 24C5.37262 24 0 18.6274 0 12C0 12.0029 12 0.0013125 12 0C18.6274 0 24 5.37262 24 12Z" fill="#0052B4"/>
<path d="M11.9678 12.001H11.9999C11.9999 11.9902 11.9999 11.9797 11.9999 11.9688C11.9892 11.9796 11.9785 11.9903 11.9678 12.001Z" fill="#F0F0F0"/>
<path d="M11.9995 6.2619C11.9995 4.15041 11.9995 2.7669 11.9995 0.0010376H11.9975C5.37096 0.0021626 -0.000488281 5.37427 -0.000488281 12.001H6.26037V8.47552L9.78588 12.001H11.9674C11.9781 11.9903 11.9888 11.9797 11.9996 11.9689C11.9996 11.1605 11.9996 10.4391 11.9996 9.78751L8.47394 6.2619H11.9995Z" fill="#F0F0F0"/>
<path d="M6.07124 1.56454C4.19441 2.63325 2.63409 4.19353 1.56543 6.07036V11.9994H4.69588V4.69509V4.695H12.0002C12.0002 3.70767 12.0002 2.76708 12.0002 1.56454H6.07124Z" fill="#D80027"/>
<path d="M11.9999 10.5236L7.73637 6.26013H6.26074V6.26023L11.9998 11.9992H11.9999C11.9999 11.9992 11.9999 10.9817 11.9999 10.5236Z" fill="#D80027"/>
<path d="M16.1738 12L16.3958 12.6833H17.1142L16.533 13.1055L16.755 13.7888L16.1738 13.3665L15.5926 13.7888L15.8146 13.1055L15.2334 12.6833H15.9518L16.1738 12Z" fill="#F0F0F0"/>
<path d="M13.2224 13.223L13.8625 13.5491L14.3705 13.0411L14.2581 13.7507L14.8982 14.0769L14.1886 14.1892L14.0763 14.8989L13.7501 14.2587L13.0405 14.3711L13.5486 13.8631L13.2224 13.223Z" fill="#F0F0F0"/>
<path d="M11.9995 16.1731L12.6828 15.9511L12.6829 15.2328L13.105 15.8139L13.7883 15.5918L13.366 16.1731L13.7883 16.7544L13.105 16.5324L12.6829 17.1135V16.3952L11.9995 16.1731Z" fill="#F0F0F0"/>
<path d="M13.2224 19.1254L13.5485 18.4853L13.0405 17.9774L13.7501 18.0897L14.0763 17.4496L14.1886 18.1592L14.8982 18.2715L14.2581 18.5977L14.3705 19.3073L13.8625 18.7992L13.2224 19.1254Z" fill="#F0F0F0"/>
<path d="M16.1738 20.3482L15.9518 19.6649H15.2334L15.8146 19.2426L15.5926 18.5594L16.1738 18.9816L16.7551 18.5594L16.5331 19.2426L17.1143 19.6649H16.3959L16.1738 20.3482Z" fill="#F0F0F0"/>
<path d="M19.125 19.1254L18.4849 18.7994L17.977 19.3073L18.0893 18.5977L17.4492 18.2716L18.1588 18.1592L18.2712 17.4496L18.5973 18.0897L19.3069 17.9774L18.7988 18.4853L19.125 19.1254Z" fill="#F0F0F0"/>
<path d="M20.3479 16.1731L19.6646 16.3952V17.1135L19.2423 16.5323L18.5591 16.7544L18.9814 16.1731L18.5591 15.5918L19.2423 15.8139L19.6646 15.2328V15.9511L20.3479 16.1731Z" fill="#F0F0F0"/>
<path d="M19.125 13.223L18.799 13.8631L19.3069 14.371L18.5973 14.2586L18.2712 14.8988L18.1588 14.1891L17.4492 14.0768L18.0893 13.7507L17.977 13.0411L18.485 13.549L19.125 13.223Z" fill="#F0F0F0"/>
</g>
<defs>
<clipPath id="clip0_917_54714">
<rect width="24" height="24" fill="white"/>
</clipPath>
</defs>
</svg>
