<svg width="24" height="24" viewBox="0 0 24 24" fill="none" xmlns="http://www.w3.org/2000/svg">
<path d="M12 24C18.6274 24 24 18.6274 24 12C24 5.37258 18.6274 0 12 0C5.37258 0 0 5.37258 0 12C0 18.6274 5.37258 24 12 24Z" fill="#D80027"/>
<path d="M6.56719 7.30148L7.60313 10.489H10.9547L8.24531 12.4624L9.28125 15.6499L6.56719 13.6812L3.85313 15.6499L4.89375 12.4624L2.17969 10.489H5.53125L6.56719 7.30148Z" fill="#FFDA44"/>
<path d="M14.226 18.5846L13.4338 17.6096L12.2619 18.0643L12.9416 17.0096L12.1494 16.03L13.3635 16.3534L14.0479 15.2987L14.1135 16.555L15.3322 16.8784L14.1557 17.3284L14.226 18.5846Z" fill="#FFDA44"/>
<path d="M15.8015 15.7253L16.1765 14.5253L15.1499 13.7987L16.4062 13.78L16.7765 12.58L17.1843 13.7706L18.4405 13.7565L17.4327 14.5065L17.8358 15.6972L16.8093 14.9706L15.8015 15.7253Z" fill="#FFDA44"/>
<path d="M17.9251 8.80662L17.372 9.93631L18.272 10.8129L17.0298 10.6348L16.4767 11.7598L16.261 10.5223L15.0142 10.3441L16.1298 9.75819L15.9142 8.516L16.8142 9.39256L17.9251 8.80662Z" fill="#FFDA44"/>
<path d="M14.2592 5.38507L14.1654 6.63664L15.3326 7.11007L14.1092 7.41007L14.0201 8.66632L13.3592 7.59757L12.1357 7.89757L12.9467 6.93664L12.2811 5.87257L13.4482 6.34601L14.2592 5.38507Z" fill="#FFDA44"/>
</svg>
