<svg width="24" height="24" viewBox="0 0 24 24" fill="none" xmlns="http://www.w3.org/2000/svg">
<g clip-path="url(#clip0_917_54763)">
<path d="M12 24.0001C18.6273 24.0001 23.9999 18.6275 23.9999 12.0001C23.9999 5.37274 18.6273 0.000183105 12 0.000183105C5.37256 0.000183105 0 5.37274 0 12.0001C0 18.6275 5.37256 24.0001 12 24.0001Z" fill="#F0F0F0"/>
<path d="M11.9994 0.000244141C8.07357 0.000244141 4.58822 1.8857 2.39893 4.80024H21.5999C19.4107 1.88565 15.9253 0.000244141 11.9994 0.000244141Z" fill="#0052B4"/>
<path d="M11.9994 24.0002C15.9253 24.0002 19.4107 22.1147 21.6 19.2002H2.39893C4.58818 22.1148 8.07357 24.0002 11.9994 24.0002Z" fill="#0052B4"/>
<path d="M0 12.0002C0 12.8222 0.0828749 13.6248 0.240328 14.4002H23.7597C23.9172 13.6248 24 12.8222 24 12.0002C24 11.1783 23.9171 10.3757 23.7597 9.60022H0.240328C0.0828749 10.3757 0 11.1783 0 12.0002Z" fill="#0052B4"/>
<path d="M3.51468 3.51459C-1.17156 8.20082 -1.17156 15.7988 3.51468 20.4852C5.45122 18.5486 7.31366 16.6861 11.9999 11.9999L3.51468 3.51459Z" fill="#D80027"/>
<path d="M4.85646 8.86957L5.63336 11.2609H8.14802L6.11379 12.739L6.89069 15.1303L4.85646 13.6524L2.82213 15.1303L3.59922 12.739L1.56494 11.2609H4.07941L4.85646 8.86957Z" fill="#F0F0F0"/>
</g>
<defs>
<clipPath id="clip0_917_54763">
<rect width="24" height="24" fill="white"/>
</clipPath>
</defs>
</svg>
