<svg width="24" height="24" viewBox="0 0 24 24" fill="none" xmlns="http://www.w3.org/2000/svg">
<g clip-path="url(#clip0_917_54674)">
<path d="M20.4858 20.4857C15.7995 25.172 8.20153 25.172 3.51521 20.4857C-1.17111 15.7995 -1.17106 8.20146 3.51521 3.51514C3.88412 3.884 13.1073 10.8936 13.1073 10.8936L20.4858 20.4857Z" fill="#0052B4"/>
<path d="M3.51514 3.51423C8.20141 -1.17204 15.7994 -1.17204 20.4857 3.51423C25.1721 8.2005 25.172 15.7985 20.4857 20.4848" fill="#6DA544"/>
<path d="M12.0006 15.131C13.7295 15.131 15.131 13.7294 15.131 12.0005C15.131 10.2716 13.7295 8.87009 12.0006 8.87009C10.2717 8.87009 8.87012 10.2716 8.87012 12.0005C8.87012 13.7294 10.2717 15.131 12.0006 15.131Z" fill="#FFDA44"/>
<path d="M4.46828 17.2175L4.79757 17.9061L5.54115 17.7342L5.20815 18.4209L5.80618 18.8952L5.06162 19.0629L5.06368 19.8262L4.46828 19.3487L3.87287 19.8262L3.87493 19.0629L3.13037 18.8952L3.7284 18.4209L3.39536 17.7342L4.13898 17.9061L4.46828 17.2175Z" fill="#F0F0F0"/>
<path d="M2.31442 11.4769L2.64372 12.1655L3.38729 11.9935L3.05434 12.6803L3.65228 13.1546L2.90776 13.3223L2.90982 14.0856L2.31442 13.6081L1.71906 14.0856L1.72108 13.3223L0.976562 13.1546L1.57455 12.6803L1.24155 11.9935L1.98512 12.1655L2.31442 11.4769Z" fill="#F0F0F0"/>
<path d="M4.46823 6.78189L4.79752 7.47044L5.5411 7.2985L5.20815 7.98531L5.80613 8.45954L5.06157 8.62731L5.06363 9.39057L4.46823 8.91311L3.87282 9.39057L3.87489 8.62731L3.13037 8.45954L3.72831 7.98531L3.39531 7.2985L4.13893 7.47044L4.46823 6.78189Z" fill="#F0F0F0"/>
<path d="M7.14401 10.4346L7.47331 11.1232L8.21693 10.9512L7.88388 11.6381L8.48187 12.1123L7.73735 12.2801L7.73937 13.0433L7.14401 12.5658L6.5486 13.0433L6.55067 12.2801L5.80615 12.1123L6.40409 11.6381L6.07114 10.9512L6.81471 11.1232L7.14401 10.4346Z" fill="#F0F0F0"/>
<path d="M5.23143 13.5646L5.49046 14.3617H6.32859L5.65049 14.8544L5.90953 15.6515L5.23143 15.1589L4.55334 15.6515L4.81237 14.8544L4.13428 14.3617H4.9724L5.23143 13.5646Z" fill="#F0F0F0"/>
<path d="M12 14.0871H13.0434C13.0434 14.0871 13.4956 13.2872 13.0434 12.5219L14.0869 11.4785L13.5652 10.435H13.0435C13.0435 10.435 12.7826 11.2176 11.7391 11.2176C10.6957 11.2176 10.4348 10.435 10.4348 10.435H9.91309L10.4348 11.4785L9.91309 12.5219L10.4348 13.0437C10.4348 13.0437 10.9565 12.0002 12 12.5219C12 12.5219 12.4434 13.1741 12 14.0871Z" fill="#6DA544"/>
<path d="M19.7888 6.57256C19.8134 6.44436 19.8265 6.31213 19.8265 6.17675C19.8265 5.24863 19.2205 4.46249 18.3828 4.19127C18.6387 4.71158 18.783 5.29677 18.783 5.91589C18.783 6.12467 18.7662 6.32952 18.7347 6.52944C18.6086 6.32633 18.4466 6.14075 18.2488 5.9833C17.5034 5.39024 16.4849 5.37453 15.7318 5.87398C16.3132 6.00092 16.8754 6.25897 17.3726 6.65455C17.7618 6.9643 18.0763 7.38326 18.3172 7.7877L15.1309 8.78543C18.2613 9.30715 20.87 7.22023 20.87 7.22023C20.5809 6.64217 20.132 6.54467 19.7888 6.57256Z" fill="#FFDA44"/>
</g>
<defs>
<clipPath id="clip0_917_54674">
<rect width="24" height="24" fill="white"/>
</clipPath>
</defs>
</svg>
