<svg width="24" height="24" viewBox="0 0 24 24" fill="none" xmlns="http://www.w3.org/2000/svg">
<path d="M12 24C18.6274 24 24 18.6274 24 12C24 5.37258 18.6274 0 12 0C5.37258 0 0 5.37258 0 12C0 18.6274 5.37258 24 12 24Z" fill="#FCFCFC"/>
<path d="M18.7824 10.4344C18.4172 10.4344 17.965 10.4344 17.2172 10.4344C17.2172 13.316 14.8813 15.6518 11.9999 15.6518C9.11832 15.6518 6.78249 13.316 6.78249 10.4344C6.27811 10.4344 5.72157 10.4344 5.21729 10.4344C5.21729 13.5383 7.3021 16.1552 10.1479 16.9611C9.83588 17.5538 9.88341 18.3 10.3291 18.8562C10.9145 18.387 11.5205 17.9013 12.0346 17.4894C12.5488 17.9014 13.1549 18.387 13.7402 18.8562C14.1903 18.2945 14.2346 17.5388 13.9122 16.9432C16.7268 16.1175 18.7824 13.5162 18.7824 10.4344Z" fill="#6DA544"/>
<path d="M7.82617 9.91286C7.82617 9.91286 7.82617 12.5215 10.4349 12.5215L10.9566 13.0433H12.0001C12.0001 13.0433 12.5218 11.4781 13.5653 11.4781C13.5653 11.4781 13.5653 10.4346 14.6088 10.4346C15.6522 10.4346 16.174 10.4346 16.174 10.4346C16.174 10.4346 15.6522 8.34761 18.2609 6.7824L17.2174 6.26068C17.2174 6.26068 13.5653 8.86937 10.9566 8.34765V9.39114H9.91309L9.39138 8.86942L7.82617 9.91286Z" fill="#FFDA44"/>
</svg>
