<svg width="24" height="24" viewBox="0 0 24 24" fill="none" xmlns="http://www.w3.org/2000/svg">
<g clip-path="url(#clip0_917_54784)">
<path d="M12 24C18.6274 24 24 18.6274 24 12C24 5.37258 18.6274 0 12 0C5.37258 0 0 5.37258 0 12C0 18.6274 5.37258 24 12 24Z" fill="#F0F0F0"/>
<path d="M10.957 11.9993C10.957 11.9993 3.52217 20.4863 3.51514 20.4846C5.68667 22.6562 8.68671 23.9993 12.0004 23.9993C18.6278 23.9993 24.0004 18.6267 24.0004 11.9993H10.957Z" fill="#D80027"/>
<path d="M3.5152 3.51459C-1.17108 8.20087 -1.17108 15.7989 3.5152 20.4852C5.45175 18.5487 7.31423 16.6862 12.0005 11.9999L3.5152 3.51459Z" fill="#0052B4"/>
</g>
<defs>
<clipPath id="clip0_917_54784">
<rect width="24" height="24" fill="white"/>
</clipPath>
</defs>
</svg>
