<svg width="24" height="24" viewBox="0 0 24 24" fill="none" xmlns="http://www.w3.org/2000/svg">
<g clip-path="url(#clip0_917_54807)">
<path d="M12 24C18.6274 24 24 18.6274 24 12C24 5.37258 18.6274 0 12 0C5.37258 0 0 5.37258 0 12C0 18.6274 5.37258 24 12 24Z" fill="#F0F0F0"/>
<path d="M14.3481 23.7694C19.092 22.8283 22.829 19.0913 23.77 14.3475H14.3481V23.7694Z" fill="#496E2D"/>
<path d="M0.22998 14.3475C1.171 19.0913 4.90796 22.8283 9.65186 23.7694V14.3475H0.22998Z" fill="#496E2D"/>
<path d="M23.77 9.65228C22.829 4.90844 19.092 1.17147 14.3481 0.230408V9.65228H23.77Z" fill="#496E2D"/>
<path d="M9.65234 0.230469C4.90845 1.17153 1.17148 4.9085 0.230469 9.65234H9.65234V0.230469Z" fill="#496E2D"/>
<path d="M11.2171 14.3481H9.65186V23.77C10.1627 23.8713 10.6852 23.9399 11.2171 23.9742V14.3481Z" fill="#FFDA44"/>
<path d="M11.2175 9.65277V0.0267029C10.6857 0.0609216 10.1631 0.129594 9.65234 0.23089V9.65277H11.2175Z" fill="#FFDA44"/>
<path d="M12.7825 0.0266587C12.5237 0.00992432 12.2629 0.000549316 11.9999 0.000549316C11.7369 0.000549316 11.4761 0.00992432 11.2173 0.0266587V9.65277H12.7825V0.0266587H12.7825Z" fill="black"/>
<path d="M11.2173 23.9739C11.4761 23.9906 11.7369 24 11.9999 24C12.2629 24 12.5237 23.9906 12.7825 23.9739V14.3478H11.2173V23.9739H11.2173Z" fill="black"/>
<path d="M9.65194 11.2178V9.65259H0.230066C0.128723 10.1634 0.0600977 10.6859 0.0258789 11.2178H9.65194Z" fill="#FFDA44"/>
<path d="M14.3477 11.2183H23.9738C23.9395 10.6864 23.8709 10.1639 23.7696 9.65311H14.3477V11.2183H14.3477Z" fill="#FFDA44"/>
<path d="M14.3481 12.7831H23.9742C23.9909 12.5243 24.0003 12.2635 24.0003 12.0005C24.0003 11.7375 23.9909 11.4767 23.9742 11.2179H14.3481V12.7831Z" fill="black"/>
<path d="M0.0261094 11.2179C0.00942187 11.4767 0 11.7375 0 12.0005C0 12.2635 0.00942187 12.5243 0.0261094 12.7831H9.65222V11.2179H0.0261094V11.2179Z" fill="black"/>
<path d="M11.9999 17.7389C15.1695 17.7389 17.739 15.1694 17.739 11.9998C17.739 8.83015 15.1695 6.26065 11.9999 6.26065C8.83024 6.26065 6.26074 8.83015 6.26074 11.9998C6.26074 15.1694 8.83024 17.7389 11.9999 17.7389Z" fill="#D80027"/>
<path d="M13.307 12.6408C12.8801 11.7871 12.3253 10.9218 12.3253 10.9218C12.3253 10.9218 12.3391 10.5278 12.3391 10.2931C12.3391 9.93943 12.0524 9.65274 11.6987 9.65274C11.3637 9.65274 11.0892 9.91013 11.0612 10.2378C10.7978 10.255 10.5894 10.4736 10.5894 10.7413C10.5894 10.936 10.6997 11.1047 10.8611 11.189C10.9413 11.0013 11.0985 10.8548 11.2928 10.788C11.3245 10.8139 11.3585 10.8371 11.3949 10.8567L11.4769 10.896C11.4769 10.896 11.1727 11.7534 11.1727 12.214C11.1727 13.5089 12.0265 13.9082 12.0265 13.9082V13.9216L11.5996 14.3484H12.4533V13.4946L12.8802 13.9215C12.884 13.9135 13.6888 13.4045 13.307 12.6408Z" fill="#496E2D"/>
<path d="M11.9996 7.30444L12.1938 7.90229H12.8224L12.3139 8.2718L12.5082 8.86964L11.9996 8.50018L11.491 8.86964L11.6853 8.2718L11.1768 7.90229H11.8054L11.9996 7.30444Z" fill="#496E2D"/>
<path d="M9.24012 8.20183L9.74862 8.57135L10.2572 8.20178L10.063 8.79972L10.5716 9.16914L9.94292 9.16919L9.74867 9.76704L9.55437 9.16919L8.92578 9.16914L9.43433 8.79963L9.24012 8.20183Z" fill="#496E2D"/>
<path d="M7.53418 10.5493H8.16273L8.35702 9.95142L8.55127 10.5493L9.17991 10.5492L8.67136 10.9188L8.86566 11.5166L8.35702 11.1471L7.84848 11.5166L8.04268 10.9187L7.53418 10.5493Z" fill="#496E2D"/>
<path d="M7.53418 13.4514L8.04268 13.0819L7.84843 12.484L8.35702 12.8536L8.86562 12.484L8.67137 13.0819L9.17996 13.4514L8.55127 13.4514L8.35702 14.0492L8.16273 13.4514H7.53418Z" fill="#496E2D"/>
<path d="M9.24017 15.799L9.43437 15.2013L8.92578 14.8318H9.55442L9.74872 14.2339L9.94297 14.8317H10.5716L10.063 15.2013L10.2573 15.7991L9.74867 15.4296L9.24017 15.799Z" fill="#496E2D"/>
<path d="M11.9996 16.6964L11.8054 16.0986H11.1768L11.6853 15.7291L11.491 15.1312L11.9996 15.5007L12.5081 15.1312L12.3139 15.7291L12.8224 16.0986L12.1938 16.0986L11.9996 16.6964Z" fill="#496E2D"/>
<path d="M14.7601 15.799L14.2516 15.4295L13.7431 15.7991L13.9373 15.2013L13.4287 14.8317L14.0574 14.8317L14.2516 14.2339L14.4459 14.8317H15.0745L14.5659 15.2013L14.7601 15.799Z" fill="#496E2D"/>
<path d="M16.4661 13.4515H15.8375L15.6433 14.0494L15.449 13.4516H14.8203L15.3289 13.082L15.1346 12.4842L15.6433 12.8537L16.1518 12.4842L15.9576 13.0821L16.4661 13.4515Z" fill="#496E2D"/>
<path d="M16.4661 10.5492L15.9576 10.9187L16.1518 11.5165L15.6433 11.1471L15.1347 11.5166L15.3289 10.9187L14.8203 10.5493L15.449 10.5492L15.6432 9.95142L15.8375 10.5492H16.4661Z" fill="#496E2D"/>
<path d="M14.7601 8.20178L14.5659 8.79958L15.0745 9.1691H14.4459L14.2516 9.76699L14.0574 9.16915L13.4287 9.16919L13.9373 8.79958L13.7431 8.20183L14.2516 8.57125L14.7601 8.20178Z" fill="#496E2D"/>
</g>
<defs>
<clipPath id="clip0_917_54807">
<rect width="24" height="24" fill="white"/>
</clipPath>
</defs>
</svg>
