<svg width="24" height="24" viewBox="0 0 24 24" fill="none" xmlns="http://www.w3.org/2000/svg">
<g clip-path="url(#clip0_917_55838)">
<path d="M1.19121 6.78262C0.428363 8.36025 0.000488281 10.1301 0.000488281 12C0.000488281 13.8699 0.428363 15.6398 1.19121 17.2174L12.0005 18.2609L22.8098 17.2174C23.5726 15.6398 24.0005 13.8699 24.0005 12C24.0005 10.1301 23.5726 8.36025 22.8098 6.78262L12.0005 5.73914L1.19121 6.78262Z" fill="#F0F0F0"/>
<path d="M1.19092 17.2167C3.13182 21.2307 7.24225 23.9993 11.9998 23.9993C16.7573 23.9993 20.8677 21.2307 22.8086 17.2167H1.19092Z" fill="black"/>
<path d="M1.19092 6.7829H22.8086C20.8677 2.76895 16.7573 0.000274658 11.9998 0.000274658C7.24225 0.000274658 3.13182 2.76895 1.19092 6.7829Z" fill="#D80027"/>
<path d="M3.5152 3.51395C-1.17108 8.20023 -1.17108 15.7982 3.5152 20.4846C5.45175 18.548 7.31423 16.6855 12.0005 11.9993L3.5152 3.51395Z" fill="#496E2D"/>
</g>
<defs>
<clipPath id="clip0_917_55838">
<rect width="24" height="24" fill="white"/>
</clipPath>
</defs>
</svg>
