<svg width="24" height="24" viewBox="0 0 24 24" fill="none" xmlns="http://www.w3.org/2000/svg">
<g clip-path="url(#clip0_917_54240)">
<path d="M12.0003 0C18.6276 0 24.0003 5.37262 24.0003 12C24.0003 18.6274 18.6276 24 12.0003 24C12.0003 23.4783 10.4351 12 10.4351 12L12.0003 0Z" fill="#F0F0F0"/>
<path d="M12 24C5.37262 24 0 18.6274 0 12C0 5.37262 5.37262 0 12 0" fill="#496E2D"/>
<path d="M14.5781 9.69867L13.5936 11.0555L11.999 10.5383L12.9852 11.894L12.0007 13.2508L13.5946 12.7318L14.5808 14.0874L14.5798 12.4111L16.1738 11.8921L14.5793 11.3751L14.5781 9.69867Z" fill="#D80027"/>
<path d="M12.9953 15.392C11.1224 15.392 9.60401 13.8736 9.60401 12.0007C9.60401 10.1277 11.1224 8.60935 12.9953 8.60935C13.5793 8.60935 14.1288 8.757 14.6085 9.01697C13.8559 8.28099 12.8267 7.82672 11.691 7.82672C9.38576 7.82672 7.51709 9.69544 7.51709 12.0006C7.51709 14.3058 9.38581 16.1745 11.691 16.1745C12.8268 16.1745 13.856 15.7202 14.6085 14.9843C14.1288 15.2443 13.5793 15.392 12.9953 15.392Z" fill="#D80027"/>
</g>
<defs>
<clipPath id="clip0_917_54240">
<rect width="24" height="24" fill="white"/>
</clipPath>
</defs>
</svg>
