<svg width="24" height="24" viewBox="0 0 24 24" fill="none" xmlns="http://www.w3.org/2000/svg">
<g clip-path="url(#clip0_917_54851)">
<path d="M0 12C0 5.37263 5.37262 0 12 0C18.6274 0 24 5.37263 24 12L12 13.0435L0 12Z" fill="#FFDA44"/>
<path d="M1.60547 18.0009C3.68039 21.5876 7.55808 24.0009 11.9997 24.0009C16.4414 24.0009 20.319 21.5876 22.394 18.0009L11.9997 17.2183L1.60547 18.0009Z" fill="#D80027"/>
<path d="M22.3942 18.0002C23.4153 16.2352 24 14.186 24 12.0002H0C0 14.186 0.584719 16.2352 1.60575 18.0002H22.3942Z" fill="#0052B4"/>
<path d="M11.9996 16.1744C14.3048 16.1744 16.1735 14.3057 16.1735 12.0005C16.1735 9.69534 14.3048 7.82663 11.9996 7.82663C9.6944 7.82663 7.82568 9.69534 7.82568 12.0005C7.82568 14.3057 9.6944 16.1744 11.9996 16.1744Z" fill="#FFDA44"/>
<path d="M12.0003 14.6092C10.5618 14.6092 9.3916 13.4389 9.3916 12.0005V10.4353C9.3916 8.99686 10.5619 7.82663 12.0003 7.82663C13.4387 7.82663 14.609 8.99691 14.609 10.4353V12.0005C14.609 13.439 13.4387 14.6092 12.0003 14.6092Z" fill="#338AF3"/>
<path d="M16.1736 5.73996H13.0431C13.0431 5.16368 12.5759 4.69647 11.9996 4.69647C11.4233 4.69647 10.9561 5.16368 10.9561 5.73996H7.82568C7.82568 6.31629 8.32767 6.78344 8.9039 6.78344H8.86917C8.86917 7.35977 9.33633 7.82693 9.91265 7.82693C9.91265 8.40326 10.3798 8.87041 10.9561 8.87041H13.0431C13.6194 8.87041 14.0866 8.40326 14.0866 7.82693C14.6629 7.82693 15.1301 7.35977 15.1301 6.78344H15.0953C15.6716 6.78344 16.1736 6.31624 16.1736 5.73996Z" fill="black"/>
</g>
<defs>
<clipPath id="clip0_917_54851">
<rect width="24" height="24" fill="white"/>
</clipPath>
</defs>
</svg>
