<svg width="24" height="24" viewBox="0 0 24 24" fill="none" xmlns="http://www.w3.org/2000/svg">
<g clip-path="url(#clip0_917_54879)">
<path d="M-0.000488281 11.9995C-0.000488281 13.4673 0.263559 14.8734 0.745902 16.1734L11.9995 16.6951L23.2531 16.1734C23.7355 14.8734 23.9995 13.4673 23.9995 11.9995C23.9995 10.5316 23.7355 9.12558 23.2531 7.8256L11.9995 7.30383L0.745902 7.82555C0.263559 9.12558 -0.000488281 10.5316 -0.000488281 11.9995Z" fill="black"/>
<path d="M11.9997 -0.00031662C6.84013 -0.00031662 2.44161 3.25618 0.746094 7.82579H23.2534C21.5578 3.25618 17.1593 -0.00031662 11.9997 -0.00031662Z" fill="#0052B4"/>
<path d="M23.2533 16.1742H0.746094C2.44161 20.7438 6.84012 24.0003 11.9997 24.0003C17.1593 24.0003 21.5578 20.7438 23.2533 16.1742Z" fill="#F0F0F0"/>
</g>
<defs>
<clipPath id="clip0_917_54879">
<rect width="24" height="24" fill="white"/>
</clipPath>
</defs>
</svg>
