<svg width="24" height="24" viewBox="0 0 24 24" fill="none" xmlns="http://www.w3.org/2000/svg">
<g clip-path="url(#clip0_917_54874)">
<path d="M10.957 10.9566C10.957 10.9566 3.52217 20.4871 3.51514 20.4853C5.68667 22.6569 8.68671 24.0001 12.0004 24.0001C18.6278 24.0001 24.0004 18.6275 24.0004 12.0001L10.957 10.9566Z" fill="#338AF3"/>
<path d="M10.957 11.9997C10.957 11.9997 3.52217 3.51273 3.51514 3.51442C5.68667 1.34284 8.68671 -0.000312805 12.0004 -0.000312805C18.6278 -0.000312805 24.0004 5.37231 24.0004 11.9997H10.957Z" fill="#6DA544"/>
<path d="M3.51422 3.5155C-1.17206 8.20178 -1.17206 15.7998 3.51422 20.4861C3.51389 20.488 23.9995 12.0008 23.9995 12.0008L3.51422 3.5155Z" fill="#D80027"/>
<path d="M6.26032 7.04321C3.9588 7.04321 2.08643 8.91563 2.08643 11.2171V12.7823C2.08643 15.0838 3.95885 16.9562 6.26032 16.9562C8.56179 16.9562 10.4342 15.0838 10.4342 12.7823V11.2171C10.4343 8.91563 8.56183 7.04321 6.26032 7.04321ZM8.869 12.7824C8.869 13.9482 8.10016 14.9377 7.04289 15.2709V13.565L8.15027 12.4576L7.0435 11.3508L7.04289 10.9569V10.4346H5.47774V11.9997L4.37111 13.1063L5.47774 14.2129V15.271C4.42047 14.9378 3.65163 13.9483 3.65163 12.7824V11.2172C3.65163 9.77874 4.82191 8.60851 6.26032 8.60851C7.69872 8.60851 8.869 9.77879 8.869 11.2172V12.7824Z" fill="#FFDA44"/>
</g>
<defs>
<clipPath id="clip0_917_54874">
<rect width="24" height="24" fill="white"/>
</clipPath>
</defs>
</svg>
