<svg width="24" height="24" viewBox="0 0 24 24" fill="none" xmlns="http://www.w3.org/2000/svg">
<g clip-path="url(#clip0_917_54883)">
<path d="M0 12C0 13.4679 0.264047 14.874 0.746437 16.174L12 17.2173L23.2536 16.1739C23.736 14.874 24 13.4679 24 12C24 10.5522 23.7435 9.1644 23.2737 7.87942L12 6.78259L0.726281 7.87947C0.256453 9.1644 0 10.5522 0 12Z" fill="#FFDA44"/>
<path d="M11.9997 24.0003C17.1593 24.0003 21.5578 20.7438 23.2533 16.1742H0.746094C2.44161 20.7438 6.84012 24.0003 11.9997 24.0003Z" fill="#D80027"/>
<path d="M12.0002 -0.000314713C6.84061 -0.000314713 2.4421 3.25619 0.746582 7.82579H23.2538C21.5583 3.25619 17.1598 -0.000314713 12.0002 -0.000314713Z" fill="#6DA544"/>
<path d="M11.9999 17.7398C15.1695 17.7398 17.739 15.1703 17.739 12.0007C17.739 8.83105 15.1695 6.26155 11.9999 6.26155C8.83024 6.26155 6.26074 8.83105 6.26074 12.0007C6.26074 15.1703 8.83024 17.7398 11.9999 17.7398Z" fill="#0052B4"/>
<path d="M11.9985 7.55645L13.0345 10.745H16.3925L13.6748 12.7157L14.719 15.9137L11.9985 13.9336L9.2822 15.91L10.3222 12.7157L7.60693 10.745H10.9625L11.9985 7.55645Z" fill="#FFDA44"/>
<path d="M16.1308 12.7939L12.8441 11.7259L14.8753 8.93028L14.0312 8.31687L11.9999 11.1127L9.96872 8.31692L9.1245 8.93023L11.1557 11.7261L7.86914 12.7939L8.19155 13.7863L11.4782 12.7185V16.1742H12.5217V12.7184L15.8082 13.7863L16.1308 12.7939Z" fill="#FFDA44"/>
</g>
<defs>
<clipPath id="clip0_917_54883">
<rect width="24" height="24" fill="white"/>
</clipPath>
</defs>
</svg>
