<svg width="24" height="24" viewBox="0 0 24 24" fill="none" xmlns="http://www.w3.org/2000/svg">
<g clip-path="url(#clip0_917_54909)">
<path d="M24 12C24 18.6274 18.6274 24 12 24C5.37262 24 0 18.6274 0 12C0 12.0029 12 0.0013125 12 0C18.6274 0 24 5.37262 24 12Z" fill="#338AF3"/>
<path d="M11.9996 5.74028V9.78761L7.82568 5.74028H11.9996Z" fill="#0052B4"/>
<path d="M6.26049 12.0019H9.78605L6.26049 7.30621L5.73877 10.9584L6.26049 12.0019Z" fill="#0052B4"/>
<path d="M11.9678 12.0001H11.9999C11.9999 11.9893 11.9999 11.9788 11.9999 11.968C11.9892 11.9787 11.9785 11.9894 11.9678 12.0001Z" fill="#F0F0F0"/>
<path d="M12 6.26152C12 4.15003 12 2.76652 12 0.000656128H11.998C5.3715 0.00178113 0 5.37389 0 12.0007H6.26086V8.47514L9.78642 12.0007H11.968C11.9787 11.99 11.9894 11.9793 12.0001 11.9685C12.0001 11.1601 12.0001 10.4387 12.0001 9.78712L8.47443 6.26152H12Z" fill="#F0F0F0"/>
<path d="M6.07075 1.56586C4.19393 2.63456 2.63364 4.19484 1.56494 6.07167V12.0007H4.6954V4.69641V4.69631H11.9997C11.9997 3.70898 11.9997 2.76839 11.9997 1.56586H6.07075Z" fill="#D80027"/>
<path d="M11.9998 10.525L7.73641 6.2616H6.26074V6.26169L11.9997 12.0007H11.9998C11.9998 12.0007 11.9998 10.9832 11.9998 10.525Z" fill="#D80027"/>
<path d="M13.5654 7.82718V12.001C13.5654 14.7966 17.2176 15.6532 17.2176 15.6532C17.2176 15.6532 20.8698 14.7966 20.8698 12.001V7.82718L17.2176 6.78369L13.5654 7.82718Z" fill="#F3F3F3"/>
<path d="M20.8698 7.82628V6.26108H13.5654V7.82628H16.6958V10.9568H13.5654V12.0002C13.5654 12.0002 13.5654 12.0003 13.5654 12.0003L16.6958 12.0003V15.4924C17.0107 15.6037 17.2176 15.6524 17.2176 15.6524C17.2176 15.6524 17.4244 15.6038 17.7393 15.4924V12.0003H20.8698V12.0002V10.9567H17.7393V7.82623H20.8698V7.82628Z" fill="#D80027"/>
</g>
<defs>
<clipPath id="clip0_917_54909">
<rect width="24" height="24" fill="white"/>
</clipPath>
</defs>
</svg>
