<svg width="24" height="24" viewBox="0 0 24 24" fill="none" xmlns="http://www.w3.org/2000/svg">
<path d="M12 24C18.6274 24 24 18.6274 24 12C24 5.37258 18.6274 0 12 0C5.37258 0 0 5.37258 0 12C0 18.6274 5.37258 24 12 24Z" fill="#F0F0F0"/>
<path d="M2.48081 4.69299C1.5382 5.91938 0.827433 7.3329 0.413574 8.86848H6.65629L2.48081 4.69299Z" fill="#0052B4"/>
<path d="M23.5874 8.86863C23.1735 7.3331 22.4627 5.91958 21.5201 4.69319L17.3447 8.86863H23.5874Z" fill="#0052B4"/>
<path d="M0.413574 15.1302C0.827481 16.6657 1.53825 18.0793 2.48081 19.3056L6.65616 15.1302H0.413574Z" fill="#0052B4"/>
<path d="M19.3058 2.47977C18.0794 1.53716 16.666 0.826397 15.1304 0.412491V6.65517L19.3058 2.47977Z" fill="#0052B4"/>
<path d="M4.69385 21.5177C5.92024 22.4603 7.33376 23.1711 8.86929 23.585V17.3423L4.69385 21.5177Z" fill="#0052B4"/>
<path d="M8.86924 0.412491C7.33371 0.826397 5.92019 1.53716 4.69385 2.47972L8.86924 6.65511V0.412491Z" fill="#0052B4"/>
<path d="M15.1304 23.585C16.6659 23.1711 18.0794 22.4603 19.3058 21.5177L15.1304 17.3423V23.585Z" fill="#0052B4"/>
<path d="M17.3447 15.1302L21.5201 19.3056C22.4627 18.0793 23.1735 16.6657 23.5874 15.1302H17.3447Z" fill="#0052B4"/>
<path d="M23.8984 10.4348H13.5653H13.5653V0.101578C13.0529 0.034875 12.5305 0 12 0C11.4694 0 10.9471 0.034875 10.4348 0.101578V10.4347V10.4347H0.101578C0.034875 10.9471 0 11.4695 0 12C0 12.5306 0.034875 13.0529 0.101578 13.5652H10.4347H10.4347V23.8984C10.9471 23.9651 11.4694 24 12 24C12.5305 24 13.0529 23.9652 13.5652 23.8984V13.5653V13.5653H23.8984C23.9651 13.0529 24 12.5306 24 12C24 11.4695 23.9651 10.9471 23.8984 10.4348Z" fill="#D80027"/>
<path d="M15.1304 15.1312L20.4852 20.4861C20.7315 20.2399 20.9664 19.9825 21.1906 19.7157L16.6061 15.1312H15.1304V15.1312Z" fill="#D80027"/>
<path d="M8.86951 15.1312H8.86941L3.51465 20.486C3.76084 20.7322 4.01823 20.9672 4.28504 21.1913L8.86951 16.6068V15.1312Z" fill="#D80027"/>
<path d="M8.86927 8.86913V8.86903L3.51446 3.51418C3.26818 3.76036 3.03324 4.01775 2.80908 4.28457L7.3936 8.86908H8.86927V8.86913Z" fill="#D80027"/>
<path d="M15.1304 8.87019L20.4852 3.51528C20.239 3.269 19.9817 3.03406 19.7148 2.80995L15.1304 7.39447V8.87019Z" fill="#D80027"/>
</svg>
