<svg width="24" height="24" viewBox="0 0 24 24" fill="none" xmlns="http://www.w3.org/2000/svg">
<g clip-path="url(#clip0_917_54866)">
<path d="M12 24C18.6274 24 24 18.6274 24 12C24 5.37258 18.6274 0 12 0C5.37258 0 0 5.37258 0 12C0 18.6274 5.37258 24 12 24Z" fill="#F0F0F0"/>
<path d="M7.30486 7.82579H23.2541C21.5586 3.25618 17.16 -0.000320435 12.0005 -0.000320435C8.68673 -0.000320435 5.68706 1.34307 3.51562 3.51479L7.30486 7.82579Z" fill="#6DA544"/>
<path d="M7.30486 16.1742H23.2541C21.5586 20.7438 17.16 24.0003 12.0005 24.0003C8.68673 24.0003 5.68706 22.6569 3.51562 20.4852L7.30486 16.1742Z" fill="#D80027"/>
<path d="M3.5152 3.5155C-1.17108 8.20178 -1.17108 15.7998 3.5152 20.4861C5.45175 18.5496 7.31423 16.6871 12.0005 12.0008L3.5152 3.5155Z" fill="#0052B4"/>
<path d="M14.0869 9.91273V12.5214C14.0869 14.1189 16.1739 14.6084 16.1739 14.6084C16.1739 14.6084 18.2609 14.1189 18.2609 12.5214V9.91273H14.0869Z" fill="#DEDDE0"/>
<path d="M16.6953 12.0523H15.6519V13.5653H16.6953V12.0523Z" fill="#786145"/>
<path d="M17.2176 11.4788C17.2176 10.9025 16.7504 10.4353 16.1741 10.4353C15.5978 10.4353 15.1306 10.9025 15.1306 11.4788C14.8425 11.4788 14.6089 11.7124 14.6089 12.0006C14.6089 12.2887 14.8425 12.5223 15.1306 12.5223C15.3017 12.5223 17.0465 12.5223 17.2176 12.5223C17.5057 12.5223 17.7393 12.2887 17.7393 12.0006C17.7393 11.7124 17.5058 11.4788 17.2176 11.4788Z" fill="#6DA544"/>
</g>
<defs>
<clipPath id="clip0_917_54866">
<rect width="24" height="24" fill="white"/>
</clipPath>
</defs>
</svg>
