<svg width="24" height="24" viewBox="0 0 24 24" fill="none" xmlns="http://www.w3.org/2000/svg">
<g clip-path="url(#clip0_917_55020)">
<path d="M12 24C18.6274 24 24 18.6274 24 12C24 5.37258 18.6274 0 12 0C5.37258 0 0 5.37258 0 12C0 18.6274 5.37258 24 12 24Z" fill="#F0F0F0"/>
<path d="M23.9989 12.0003C23.9989 7.24276 21.2303 3.13201 17.2163 1.19101V22.8095C21.2303 20.8686 23.9989 16.7578 23.9989 12.0003Z" fill="#338AF3"/>
<path d="M-0.000488281 12.0001C-0.000488281 16.7576 2.76818 20.8684 6.78214 22.8094V1.19083C2.76818 3.13183 -0.000488281 7.24258 -0.000488281 12.0001Z" fill="#338AF3"/>
<path d="M15.1355 14.0284L13.1065 11.9994L15.0379 10.0679L14.9503 9.04781L14.3974 8.49478L11.9997 10.8925L9.60191 8.49478L9.04897 9.04781L8.96146 10.0679L10.8928 11.9994L8.86377 14.0284L9.97058 15.1351L11.9997 13.1062L14.0287 15.1351L15.1355 14.0284Z" fill="#ACABB1"/>
<path d="M14.9515 9.04898L13.8447 10.1557C14.3168 10.6278 14.6088 11.28 14.6088 12.0004C14.6088 13.4411 13.4408 14.6091 12.0001 14.6091C10.5594 14.6091 9.39138 13.4411 9.39138 12.0004C9.39138 11.28 9.68341 10.6278 10.1555 10.1557L9.04872 9.04898C8.29333 9.80423 7.82617 10.8477 7.82617 12.0004C7.82617 14.3056 9.69489 16.1743 12.0001 16.1743C14.3052 16.1743 16.174 14.3055 16.174 12.0004C16.174 10.8478 15.7068 9.80428 14.9515 9.04898Z" fill="#6DA544"/>
</g>
<defs>
<clipPath id="clip0_917_55020">
<rect width="24" height="24" fill="white"/>
</clipPath>
</defs>
</svg>
