<svg width="24" height="24" viewBox="0 0 24 24" fill="none" xmlns="http://www.w3.org/2000/svg">
<path d="M12 24C18.6274 24 24 18.6274 24 12C24 5.37258 18.6274 0 12 0C5.37258 0 0 5.37258 0 12C0 18.6274 5.37258 24 12 24Z" fill="#D80027"/>
<path d="M13.2392 9.07757C12.9665 10.2119 12.482 9.99557 12.2442 10.9848C10.8434 10.648 9.9807 9.23943 10.3175 7.83857C10.6542 6.43781 12.0629 5.57512 13.4637 5.91192C12.9881 7.89037 13.4832 8.06306 13.2392 9.07757Z" fill="#F0F0F0"/>
<path d="M9.60444 9.9176C10.599 10.5274 10.2435 10.9215 11.1108 11.4534C10.3576 12.6816 8.75141 13.0667 7.52319 12.3135C6.29502 11.5604 5.90985 9.95411 6.66304 8.72594C8.39769 9.78963 8.7148 9.37211 9.60444 9.9176Z" fill="#F0F0F0"/>
<path d="M9.28044 13.635C10.1678 12.8776 10.4326 13.3374 11.2065 12.677C12.1419 13.7728 12.0117 15.4194 10.916 16.3548C9.82015 17.2902 8.17353 17.1599 7.23828 16.0642C8.78581 14.7431 8.4867 14.3124 9.28044 13.635Z" fill="#F0F0F0"/>
<path d="M12.7155 15.0915C12.2692 14.0135 12.7884 13.9037 12.3994 12.9637C13.7306 12.4128 15.2565 13.0453 15.8075 14.3765C16.3584 15.7077 15.7258 17.2335 14.3946 17.7845C13.6166 15.9044 13.1146 16.0558 12.7155 15.0915Z" fill="#F0F0F0"/>
<path d="M15.1623 12.274C13.9991 12.3653 14.055 11.8375 13.0408 11.917C12.9282 10.4808 14.0013 9.22501 15.4376 9.11228C16.8739 8.99982 18.1297 10.0729 18.2423 11.5092C16.2137 11.6683 16.2025 12.1925 15.1623 12.274Z" fill="#F0F0F0"/>
</svg>
