<svg width="24" height="24" viewBox="0 0 24 24" fill="none" xmlns="http://www.w3.org/2000/svg">
<g clip-path="url(#clip0_917_55111)">
<path d="M12 24C18.6274 24 24 18.6274 24 12C24 5.37258 18.6274 0 12 0C5.37258 0 0 5.37258 0 12C0 18.6274 5.37258 24 12 24Z" fill="#F0F0F0"/>
<path d="M23.9995 11.9991C23.9995 6.83955 20.743 2.44098 16.1733 0.745514V23.2528C20.743 21.5572 23.9995 17.1587 23.9995 11.9991Z" fill="#FF9811"/>
<path d="M0 11.9996C0 17.1593 3.2565 21.5577 7.82611 23.2533V0.746063C3.2565 2.44153 0 6.8401 0 11.9996Z" fill="#6DA544"/>
</g>
<defs>
<clipPath id="clip0_917_55111">
<rect width="24" height="24" fill="white"/>
</clipPath>
</defs>
</svg>
