<svg width="24" height="24" viewBox="0 0 24 24" fill="none" xmlns="http://www.w3.org/2000/svg">
<g clip-path="url(#clip0_917_55088)">
<path d="M12 24C18.6274 24 24 18.6274 24 12C24 5.37258 18.6274 0 12 0C5.37258 0 0 5.37258 0 12C0 18.6274 5.37258 24 12 24Z" fill="#F0F0F0"/>
<path d="M12.0002 -0.000946045C7.24267 -0.000946045 3.13192 2.76773 1.19092 6.78168H22.8094C20.8685 2.76773 16.7577 -0.000946045 12.0002 -0.000946045Z" fill="#FF9811"/>
<path d="M12.0002 23.9997C16.7577 23.9997 20.8685 21.231 22.8095 17.217H1.19092C3.13192 21.231 7.24267 23.9997 12.0002 23.9997Z" fill="#6DA544"/>
<path d="M12.0006 16.1732C14.3057 16.1732 16.1744 14.3045 16.1744 11.9993C16.1744 9.69412 14.3057 7.82541 12.0006 7.82541C9.69537 7.82541 7.82666 9.69412 7.82666 11.9993C7.82666 14.3045 9.69537 16.1732 12.0006 16.1732Z" fill="#0052B4"/>
<path d="M12.0003 14.608C13.441 14.608 14.609 13.4401 14.609 11.9994C14.609 10.5586 13.441 9.39067 12.0003 9.39067C10.5595 9.39067 9.3916 10.5586 9.3916 11.9994C9.3916 13.4401 10.5595 14.608 12.0003 14.608Z" fill="#F0F0F0"/>
<path d="M12.0002 8.78088L12.805 10.6061L14.788 10.3904L13.6098 12L14.788 13.6095L12.805 13.3939L12.0002 15.2191L11.1954 13.3939L9.2124 13.6095L10.3907 12L9.2124 10.3904L11.1954 10.6061L12.0002 8.78088Z" fill="#0052B4"/>
</g>
<defs>
<clipPath id="clip0_917_55088">
<rect width="24" height="24" fill="white"/>
</clipPath>
</defs>
</svg>
