<svg width="24" height="24" viewBox="0 0 24 24" fill="none" xmlns="http://www.w3.org/2000/svg">
<g clip-path="url(#clip0_917_55080)">
<path d="M12 24C18.6274 24 24 18.6274 24 12C24 5.37258 18.6274 0 12 0C5.37258 0 0 5.37258 0 12C0 18.6274 5.37258 24 12 24Z" fill="#F0F0F0"/>
<path d="M0.413086 15.1301C1.1074 17.7063 2.63763 19.9391 4.69535 21.5202V15.1301H0.413086Z" fill="#0052B4"/>
<path d="M10.9561 23.954C11.3 23.9836 11.6479 23.9996 11.9995 23.9996C17.5439 23.9996 22.2091 20.2393 23.5861 15.1301H10.9561V23.954Z" fill="#0052B4"/>
<path d="M23.5861 8.86913C22.2091 3.75995 17.5439 -0.000411987 11.9995 -0.000411987C11.6479 -0.000411987 11.3 0.0156193 10.9561 0.0452443V8.86913H23.5861Z" fill="#0052B4"/>
<path d="M4.69535 2.47936C2.63763 4.06046 1.1074 6.29325 0.413086 8.86946H4.69535V2.47936Z" fill="#0052B4"/>
<path d="M23.8979 10.4352H9.39087H9.39082V0.285614C8.28186 0.53152 7.2305 0.930098 6.26037 1.45946V10.4351H0.10109C0.034293 10.9475 -0.000488281 11.4699 -0.000488281 12.0004C-0.000488281 12.5309 0.034293 13.0532 0.10109 13.5656H6.26032H6.26037V22.5413C7.2305 23.0706 8.28186 23.4692 9.39082 23.7151V13.5657V13.5656H23.8979C23.9646 13.0532 23.9995 12.5309 23.9995 12.0004C23.9995 11.4699 23.9646 10.9475 23.8979 10.4352Z" fill="#D80027"/>
</g>
<defs>
<clipPath id="clip0_917_55080">
<rect width="24" height="24" fill="white"/>
</clipPath>
</defs>
</svg>
