<svg width="24" height="24" viewBox="0 0 24 24" fill="none" xmlns="http://www.w3.org/2000/svg">
<path d="M12 24C18.6274 24 24 18.6274 24 12C24 5.37258 18.6274 0 12 0C5.37258 0 0 5.37258 0 12C0 18.6274 5.37258 24 12 24Z" fill="#F0F0F0"/>
<path d="M21.5204 19.3071L14.2138 12.0006H14.2137L21.5204 4.69382C21.2053 4.28432 20.8606 3.89033 20.4855 3.51519C20.1104 3.1401 19.7164 2.79533 19.3069 2.48029L12.0002 9.78693L12.0002 9.78697L4.69356 2.48029C4.28411 2.79538 3.89007 3.14005 3.51493 3.51519C3.13979 3.89033 2.79507 4.28432 2.48003 4.69382L9.78667 12.0004L9.78672 12.0005L2.47998 19.3072C2.79512 19.7167 3.13984 20.1107 3.51489 20.4858C3.89003 20.8609 4.28396 21.2057 4.69351 21.5207L12.0002 14.2141L12.0002 14.214L19.3069 21.5207C19.7163 21.2056 20.1104 20.8609 20.4855 20.4858C20.8607 20.1106 21.2053 19.7166 21.5204 19.3071Z" fill="#D80027"/>
<path d="M9.9126 3.65288L11.9996 4.1746L14.0865 3.65288V1.87899L13.2517 2.29636L11.9996 1.04419L10.7474 2.29636L9.9126 1.87899V3.65288Z" fill="#FFDA44"/>
<path d="M9.9126 3.65289V4.95733C9.9126 6.55483 11.9996 7.0443 11.9996 7.0443C11.9996 7.0443 14.0865 6.55478 14.0865 4.95733V3.65289H9.9126Z" fill="#D80027"/>
</svg>
