<svg width="24" height="24" viewBox="0 0 24 24" fill="none" xmlns="http://www.w3.org/2000/svg">
<path d="M12 24C18.6274 24 24 18.6274 24 12C24 5.37258 18.6274 0 12 0C5.37258 0 0 5.37258 0 12C0 18.6274 5.37258 24 12 24Z" fill="#D80027"/>
<path d="M17.8681 12L15.4702 13.1279L16.7471 15.4504L14.1431 14.9522L13.8133 17.5826L11.9994 15.6481L10.1857 17.5826L9.85578 14.9522L7.25197 15.4503L8.52884 13.1278L6.13086 12L8.52884 10.8722L7.25197 8.54959L9.85569 9.04787L10.1858 6.41739L11.9994 8.35197L13.8133 6.41739L14.1431 9.04787L16.7472 8.54959L15.4702 10.8723L17.8681 12Z" fill="#FFDA44"/>
<path d="M12.0003 15.6514C14.0174 15.6514 15.6525 14.0163 15.6525 11.9992C15.6525 9.98221 14.0174 8.34708 12.0003 8.34708C9.98328 8.34708 8.34814 9.98221 8.34814 11.9992C8.34814 14.0163 9.98328 15.6514 12.0003 15.6514Z" fill="#D80027"/>
<path d="M10.1742 12.0005C10.0862 12.0005 9.99931 12.005 9.91357 12.0135C9.91671 12.5193 10.0997 12.9823 10.402 13.342C10.5632 12.908 10.804 12.5124 11.1076 12.1738C10.8176 12.0622 10.503 12.0005 10.1742 12.0005Z" fill="#FFDA44"/>
<path d="M11.2983 13.9671C11.5177 14.0455 11.7539 14.0884 12.0003 14.0884C12.2467 14.0884 12.4829 14.0455 12.7022 13.9671C12.5827 13.4978 12.3358 13.0788 12.0003 12.7495C11.6648 13.0787 11.4179 13.4978 11.2983 13.9671Z" fill="#FFDA44"/>
<path d="M13.8079 10.9573C13.447 10.3336 12.7731 9.91351 12.0006 9.91351C11.2281 9.91351 10.5542 10.3336 10.1934 10.9573C10.8512 10.9607 11.4681 11.1395 12.0006 11.4484C12.5332 11.1395 13.15 10.9607 13.8079 10.9573Z" fill="#FFDA44"/>
<path d="M12.8926 12.1739C13.1962 12.5125 13.4369 12.9082 13.5982 13.3422C13.9004 12.9825 14.0834 12.5195 14.0866 12.0137C14.0008 12.0051 13.9139 12.0006 13.826 12.0006C13.4972 12.0006 13.1826 12.0624 12.8926 12.1739Z" fill="#FFDA44"/>
</svg>
