<svg width="24" height="24" viewBox="0 0 24 24" fill="none" xmlns="http://www.w3.org/2000/svg">
<g clip-path="url(#clip0_917_54702)">
<path d="M12 24C18.6274 24 24 18.6274 24 12C24 5.37258 18.6274 0 12 0C5.37258 0 0 5.37258 0 12C0 18.6274 5.37258 24 12 24Z" fill="#F0F0F0"/>
<path d="M23.9994 11.9653H10.9911C8.40842 14.548 6.84664 16.5419 5.25195 18.1366L12.0346 18.7478L22.5596 17.7044C23.4781 16.0077 23.9998 14.0648 23.9998 12C23.9998 11.9884 23.9994 11.9769 23.9994 11.9653Z" fill="#D80027"/>
<path d="M5.25272 6.22558H22.522C20.4812 2.51458 16.5348 -0.000549316 12.0005 -0.000549316C8.69559 -0.000549316 5.70328 1.3359 3.5332 3.49745L5.25272 6.22558Z" fill="#FFDA44"/>
<path d="M5.77327 17.7039C4.69449 18.7827 4.27759 19.6866 3.49707 20.467C5.66996 22.6489 8.67676 23.9996 11.9994 23.9996C16.562 23.9996 20.5297 21.4531 22.5592 17.7039H5.77327Z" fill="#0052B4"/>
<path d="M3.51422 3.48035C-1.17206 8.16663 -1.17206 15.7646 3.51422 20.451C5.45077 18.5144 7.31325 16.6519 11.9995 11.9657L3.51422 3.48035Z" fill="#6DA544"/>
<path d="M3.16535 11.9647C3.16535 10.2164 4.39408 8.75578 6.03489 8.39747C5.78271 8.34239 5.52105 8.31253 5.25227 8.31253C3.23519 8.31253 1.6001 9.94763 1.6001 11.9647C1.6001 13.9818 3.23519 15.6169 5.25227 15.6169C5.521 15.6169 5.78266 15.587 6.03489 15.5319C4.39408 15.1736 3.16535 13.7131 3.16535 11.9647Z" fill="#F0F0F0"/>
<path d="M5.99477 8.83472L6.18906 9.43256H6.81766L6.30906 9.80208L6.50336 10.3999L5.99477 10.0305L5.48617 10.3999L5.68047 9.80208L5.17188 9.43256H5.80047L5.99477 8.83472Z" fill="#F0F0F0"/>
<path d="M5.99477 10.3998L6.18906 10.9977H6.81766L6.30906 11.3671L6.50336 11.965L5.99477 11.5955L5.48617 11.965L5.68047 11.3671L5.17188 10.9977H5.80047L5.99477 10.3998Z" fill="#F0F0F0"/>
<path d="M5.99477 11.9647L6.18906 12.5625H6.81766L6.30906 12.932L6.50336 13.5299L5.99477 13.1603L5.48617 13.5299L5.68047 12.932L5.17188 12.5625H5.80047L5.99477 11.9647Z" fill="#F0F0F0"/>
<path d="M5.99477 13.5297L6.18906 14.1276H6.81766L6.30906 14.4971L6.50336 15.0949L5.99477 14.7255L5.48617 15.0949L5.68047 14.4971L5.17188 14.1276H5.80047L5.99477 13.5297Z" fill="#F0F0F0"/>
</g>
<defs>
<clipPath id="clip0_917_54702">
<rect width="24" height="24" fill="white"/>
</clipPath>
</defs>
</svg>
