<svg width="24" height="24" viewBox="0 0 24 24" fill="none" xmlns="http://www.w3.org/2000/svg">
<path d="M12 24C18.6274 24 24 18.6274 24 12C24 5.37257 18.6274 0 12 0C5.37257 0 0 5.37257 0 12C0 18.6274 5.37257 24 12 24Z" fill="#FFDA44"/>
<path d="M3.51491 20.4851C4.0183 20.9885 4.55544 21.4375 5.11883 21.8327L21.833 5.11853C21.4378 4.55509 20.9889 4.01799 20.4854 3.5146C19.982 3.01121 19.4449 2.56238 18.8815 2.16708L2.16748 18.8813C2.56264 19.4447 3.01151 19.9817 3.51491 20.4851Z" fill="black"/>
<path d="M3.51426 3.51475C-0.271509 7.30053 -0.998308 12.9861 1.33251 17.5021L17.5016 1.33309C12.9856 -0.997679 7.2999 -0.27088 3.51426 3.51475Z" fill="#6DA544"/>
<path d="M20.4855 20.4847C24.2712 16.6991 24.998 11.0134 22.6673 6.49734L6.49805 22.6665C11.0141 24.9973 16.6997 24.2705 20.4855 20.4847Z" fill="#D80027"/>
<path d="M7.62971 14.1577L8.74993 14.7285L9.63896 13.8395L9.44228 15.0812L10.5624 15.652L9.32068 15.8487L9.12399 17.0904L8.55324 15.9702L7.31152 16.1669L8.20051 15.2779L7.62971 14.1577Z" fill="#F0F0F0"/>
<path d="M14.1561 7.6305L15.2763 8.2013L16.1653 7.31232L15.9686 8.55399L17.0888 9.12483L15.8471 9.32152L15.6504 10.5632L15.0796 9.44307L13.8379 9.63971L14.7269 8.75072L14.1561 7.6305Z" fill="#F0F0F0"/>
</svg>
