<svg width="24" height="24" viewBox="0 0 24 24" fill="none" xmlns="http://www.w3.org/2000/svg">
<path d="M12 24C18.6274 24 24 18.6274 24 12C24 5.37258 18.6274 0 12 0C5.37258 0 0 5.37258 0 12C0 18.6274 5.37258 24 12 24Z" fill="#F0F0F0"/>
<path d="M16.174 11.9996C16.174 13.0431 14.3052 15.6518 12.0001 15.6518C9.69489 15.6518 7.82617 13.0431 7.82617 11.9996C7.82617 9.69441 9.69489 7.82574 12.0001 7.82574C14.3052 7.82574 16.174 9.69441 16.174 11.9996Z" fill="#D80027"/>
<path d="M16.174 11.9995C16.174 14.3048 14.3052 16.1734 12.0001 16.1734C9.69489 16.1734 7.82617 14.3048 7.82617 11.9995" fill="#0052B4"/>
<path d="M17.5335 14.5826L16.4268 15.6894L17.1646 16.4272L18.2714 15.3204L17.5335 14.5826Z" fill="black"/>
<path d="M15.6883 16.4268L14.5815 17.5336L15.3194 18.2714L16.4261 17.1647L15.6883 16.4268Z" fill="black"/>
<path d="M19.7469 16.7947L18.6401 17.9015L19.378 18.6393L20.4847 17.5326L19.7469 16.7947Z" fill="black"/>
<path d="M17.9031 18.6409L16.7964 19.7477L17.5342 20.4855L18.641 19.3788L17.9031 18.6409Z" fill="black"/>
<path d="M18.6404 15.6896L17.5337 16.7964L18.2715 17.5342L19.3783 16.4275L18.6404 15.6896Z" fill="black"/>
<path d="M16.7962 17.5339L15.6895 18.6406L16.4273 19.3785L17.5341 18.2717L16.7962 17.5339Z" fill="black"/>
<path d="M15.6893 5.35816L18.6406 8.30952L19.3785 7.57167L16.4271 4.62032L15.6893 5.35816Z" fill="black"/>
<path d="M14.5827 6.46617L15.6895 7.57292L16.4273 6.83511L15.3205 5.72835L14.5827 6.46617Z" fill="black"/>
<path d="M16.4274 8.31L17.5342 9.41676L18.272 8.67894L17.1652 7.57219L16.4274 8.31Z" fill="black"/>
<path d="M16.7951 4.25228L17.9019 5.35903L18.6397 4.62118L17.5329 3.51443L16.7951 4.25228Z" fill="black"/>
<path d="M18.6408 6.09767L19.7476 7.20443L20.4854 6.46658L19.3787 5.35983L18.6408 6.09767Z" fill="black"/>
<path d="M7.20331 19.7479L4.25195 16.7966L3.5141 17.5344L6.46546 20.4858L7.20331 19.7479Z" fill="black"/>
<path d="M8.31086 18.6399L7.2041 17.5332L6.46629 18.271L7.57304 19.3778L8.31086 18.6399Z" fill="black"/>
<path d="M6.46564 16.7959L5.35889 15.6892L4.62104 16.427L5.72779 17.5338L6.46564 16.7959Z" fill="black"/>
<path d="M9.41767 17.5337L6.46631 14.5823L5.72846 15.3202L8.67982 18.2715L9.41767 17.5337Z" fill="black"/>
<path d="M4.25274 7.20471L7.2041 4.25335L6.46625 3.51551L3.5149 6.46686L4.25274 7.20471Z" fill="black"/>
<path d="M5.3587 8.30981L8.31006 5.35845L7.57221 4.6206L4.62085 7.57196L5.3587 8.30981Z" fill="black"/>
<path d="M6.46612 9.41704L9.41748 6.46568L8.67967 5.72787L5.72831 8.67923L6.46612 9.41704Z" fill="black"/>
</svg>
