<svg width="24" height="24" viewBox="0 0 24 24" fill="none" xmlns="http://www.w3.org/2000/svg">
<g clip-path="url(#clip0_917_55177)">
<path d="M23.2541 16.1731C23.7364 14.8731 24.0005 13.467 24.0005 11.9992C24.0005 10.5313 23.7364 9.12527 23.2541 7.82528L12.0005 6.7818L0.746879 7.82528C0.264535 9.12527 0.000488281 10.5313 0.000488281 11.9992C0.000488281 13.467 0.264535 14.8731 0.746879 16.1731L12.0005 17.2166L23.2541 16.1731Z" fill="#F0F0F0"/>
<path d="M12.0002 23.9995C17.1598 23.9995 21.5583 20.743 23.2538 16.1734H0.746582C2.44214 20.743 6.84061 23.9995 12.0002 23.9995Z" fill="#D80027"/>
<path d="M12.0002 -0.000518799C6.84061 -0.000518799 2.44214 3.25598 0.746582 7.82559H23.2538C21.5583 3.25598 17.1598 -0.000518799 12.0002 -0.000518799Z" fill="#6DA544"/>
<path d="M3.5152 3.5145C-1.17108 8.20078 -1.17108 15.7988 3.5152 20.4851C4.7384 19.2619 5.93231 18.068 7.82657 16.1737V7.82592L3.5152 3.5145Z" fill="black"/>
</g>
<defs>
<clipPath id="clip0_917_55177">
<rect width="24" height="24" fill="white"/>
</clipPath>
</defs>
</svg>
