<svg width="24" height="24" viewBox="0 0 24 24" fill="none" xmlns="http://www.w3.org/2000/svg">
<path d="M12 24C18.6274 24 24 18.6274 24 12C24 5.37257 18.6274 0 12 0C5.37257 0 0 5.37257 0 12C0 18.6274 5.37257 24 12 24Z" fill="#FFDA44"/>
<path d="M9.391 2.0862H5.23623C5.05211 2.21206 4.87192 2.34307 4.69534 2.47868L3.65186 11.9992L4.69534 21.5197C4.87192 21.6554 5.05211 21.7864 5.23623 21.9122H9.391V2.0862Z" fill="#FF9811"/>
<path d="M0 12.0006C0 15.8793 1.84069 19.3275 4.69567 21.5211V2.48006C1.84069 4.67372 0 8.12194 0 12.0006Z" fill="#6DA544"/>
<path d="M19.3042 7.31535V7.61586L19.3154 7.61755L19.3042 7.31535Z" fill="#FFDA44"/>
<path d="M23.0435 15.1297H20.7826L19.8261 16.1731V18.2601H17.7391V17.2166H18.7826V15.1297H14.087V16.434H13.0435V13.9482C12.7233 13.6616 12.5217 13.2453 12.5217 12.7818V5.99924C12.5217 5.13481 13.2225 4.43403 14.087 4.43403V14.0862H16.1739L16.89 13.4895C16.7649 13.1916 16.6956 12.8644 16.6956 12.521V10.9558H15.1304V7.8254H18.2608C18.2608 7.30368 19.0435 6.78191 19.0435 6.78191C19.0435 6.78191 19.8261 7.30363 19.8261 7.8254V8.60802V10.9559C20.4066 10.9627 21.3288 10.9477 22.3251 10.9559C22.0634 10.4984 21.913 9.95549 21.913 9.39065C21.913 8.46998 22.3105 7.64225 22.9432 7.06944C22.0312 5.04842 20.576 3.3252 18.7634 2.0862H10.9565V21.9123H18.7635C20.9675 20.4057 22.6432 18.1833 23.4562 15.5799L23.0435 15.1297Z" fill="#A2001D"/>
</svg>
