<svg width="24" height="24" viewBox="0 0 24 24" fill="none" xmlns="http://www.w3.org/2000/svg">
<g clip-path="url(#clip0_917_55213)">
<path d="M12 24C18.6274 24 24 18.6274 24 12C24 5.37258 18.6274 0 12 0C5.37258 0 0 5.37258 0 12C0 18.6274 5.37258 24 12 24Z" fill="#F0F0F0"/>
<path d="M2.74316 4.36309H21.2573C20.5735 3.53504 19.7804 2.80074 18.9006 2.18129H5.0999C4.2201 2.80065 3.42702 3.53499 2.74316 4.36309Z" fill="#F0F0F0"/>
<path d="M0 12.0005C0 12.3684 0.0174844 12.732 0.049875 13.0915H23.9501C23.9825 12.732 24 12.3684 24 12.0005C24 11.6327 23.9825 11.2691 23.9501 10.9097H0.049875C0.0174844 11.2691 0 11.6327 0 12.0005Z" fill="#F0F0F0"/>
<path d="M1.30884 17.4546H22.6917C23.0451 16.7634 23.3332 16.0335 23.5484 15.2729H0.452148C0.667258 16.0335 0.955539 16.7634 1.30884 17.4546Z" fill="#F0F0F0"/>
<path d="M5.0999 21.8181H18.9005C19.7803 21.1986 20.5734 20.4643 21.2572 19.6363H2.74316C3.42702 20.4642 4.2201 21.1986 5.0999 21.8181Z" fill="#F0F0F0"/>
<path d="M0.452148 8.72786H23.5485C23.3333 7.96718 23.0451 7.23724 22.6918 6.54607H1.30888C0.955586 7.23724 0.667305 7.96718 0.452148 8.72786Z" fill="#F0F0F0"/>
<path d="M5.73828 2.18186H18.8995C16.9476 0.807577 14.5677 6.10352e-05 11.9991 6.10352e-05C10.4339 6.10352e-05 7.69016 0.807577 5.73828 2.18186Z" fill="#D80027"/>
<path d="M11.478 6.54526H22.6912C22.2921 5.76465 21.8102 5.03345 21.2568 4.36346H11.478V6.54526Z" fill="#D80027"/>
<path d="M11.478 10.9085H23.9499C23.8824 10.1593 23.7467 9.42975 23.5479 8.72668H11.478V10.9085Z" fill="#D80027"/>
<path d="M0.451316 15.2736H23.5476C23.7464 14.5706 23.8821 13.841 23.9496 13.0918H0.0493164C0.116816 13.841 0.252473 14.5706 0.451316 15.2736Z" fill="#D80027"/>
<path d="M2.74248 19.6368H21.2566C21.81 18.9668 22.2919 18.2356 22.691 17.4551H1.30811C1.70715 18.2357 2.18912 18.9669 2.74248 19.6368Z" fill="#D80027"/>
<path d="M11.999 24.0005C14.5676 24.0005 16.9474 23.1929 18.8993 21.8187H5.09863C7.05051 23.1929 9.43035 24.0005 11.999 24.0005Z" fill="#D80027"/>
<path d="M0.451758 8.72685C0.252914 9.42998 0.117305 10.1595 0.0498047 10.9087H11.9999V-0.000427246C6.50711 -0.000427246 1.87638 3.69014 0.451758 8.72685Z" fill="#0052B4"/>
<path d="M7.14357 3.13052L7.92052 5.52185H10.4352L8.40089 6.99991L9.1778 9.39138L7.14357 7.91341L5.10924 9.39138L5.88633 6.99991L3.85205 5.52185H6.36657L7.14357 3.13052Z" fill="#F0F0F0"/>
</g>
<defs>
<clipPath id="clip0_917_55213">
<rect width="24" height="24" fill="white"/>
</clipPath>
</defs>
</svg>
