<svg width="24" height="24" viewBox="0 0 24 24" fill="none" xmlns="http://www.w3.org/2000/svg">
<g clip-path="url(#clip0_917_55245)">
<path d="M12 24C18.6274 24 24 18.6274 24 12C24 5.37258 18.6274 0 12 0C5.37258 0 0 5.37258 0 12C0 18.6274 5.37258 24 12 24Z" fill="#F0F0F0"/>
<path d="M12.0002 -0.000366211C6.84061 -0.000366211 2.4421 3.25613 0.746582 7.82574H23.2538C21.5583 3.25613 17.1598 -0.000366211 12.0002 -0.000366211Z" fill="#D80027"/>
<path d="M12.0002 24.0008C17.1598 24.0008 21.5583 20.7443 23.2538 16.1747H0.746582C2.4421 20.7443 6.84061 24.0008 12.0002 24.0008Z" fill="#338AF3"/>
</g>
<defs>
<clipPath id="clip0_917_55245">
<rect width="24" height="24" fill="white"/>
</clipPath>
</defs>
</svg>
