<svg width="24" height="24" viewBox="0 0 24 24" fill="none" xmlns="http://www.w3.org/2000/svg">
<g clip-path="url(#clip0_917_55334)">
<path d="M17.217 1.1913C15.6394 0.428455 13.8695 0.000579834 11.9996 0.000579834C10.1298 0.000579834 8.35988 0.428455 6.78225 1.1913L5.73877 12.0006L6.78225 22.8099C8.35988 23.5727 10.1298 24.0006 11.9996 24.0006C13.8695 24.0006 15.6394 23.5727 17.217 22.8099L18.2605 12.0006L17.217 1.1913Z" fill="#FFDA44"/>
<path d="M6.78262 1.19211C2.76872 3.13306 0 7.24348 0 12.001C0 16.7585 2.76872 20.8689 6.78262 22.8098V1.19211Z" fill="#0052B4"/>
<path d="M17.2173 1.19211V22.8098C21.2312 20.8689 23.9999 16.7585 23.9999 12.001C23.9999 7.24348 21.2312 3.13306 17.2173 1.19211Z" fill="#D80027"/>
<path d="M16.1735 9.44225H13.3039C13.3039 8.72188 12.7199 8.13791 11.9996 8.13791C11.2792 8.13791 10.6952 8.72188 10.6952 9.44225H7.82568C7.82568 10.1515 8.44354 10.7264 9.15271 10.7264H9.10996C9.10996 11.4358 9.68493 12.0108 10.3942 12.0108C10.3942 12.6388 10.8453 13.1606 11.441 13.2721L10.4289 15.5569C10.9139 15.754 11.4438 15.8636 11.9996 15.8636C12.5553 15.8636 13.0853 15.754 13.5702 15.5569L12.5582 13.2721C13.1539 13.1606 13.6049 12.6388 13.6049 12.0108C14.3142 12.0108 14.8892 11.4358 14.8892 10.7264H14.8464C15.5557 10.7264 16.1735 10.1515 16.1735 9.44225Z" fill="#FF9811"/>
<path d="M11.9999 11.2177L10.3042 12.0003V13.5655L11.9999 14.609L13.6955 13.5655V12.0003L11.9999 11.2177Z" fill="#0052B4"/>
<path d="M13.6955 10.4341H10.3042V11.9993H13.6955V10.4341Z" fill="#D80027"/>
</g>
<defs>
<clipPath id="clip0_917_55334">
<rect width="24" height="24" fill="white"/>
</clipPath>
</defs>
</svg>
