<svg width="24" height="24" viewBox="0 0 24 24" fill="none" xmlns="http://www.w3.org/2000/svg">
<g clip-path="url(#clip0_917_55344)">
<path d="M11.9999 24.0006C13.4677 24.0006 14.8738 23.7366 16.1737 23.2542L16.6955 12.0006L16.1738 0.74697C14.8738 0.264627 13.4677 0.000579834 11.9999 0.000579834C10.532 0.000579834 9.1259 0.264627 7.82596 0.74697L7.3042 12.0006L7.82592 23.2542C9.1259 23.7366 10.532 24.0006 11.9999 24.0006Z" fill="#0052B4"/>
<path d="M0 12C0 17.1596 3.2565 21.5581 7.82611 23.2536V0.746429C3.2565 2.44195 0 6.84046 0 12Z" fill="#A2001D"/>
<path d="M16.1738 0.745972V23.2532C20.7434 21.5577 23.9999 17.1592 23.9999 11.9996C23.9999 6.84 20.7434 2.44149 16.1738 0.745972Z" fill="#A2001D"/>
<path d="M6.78225 11.9989H5.73877V16.1728H6.78225V11.9989Z" fill="#FFDA44"/>
<path d="M2.60843 11.9989H1.56494V16.1728H2.60843V11.9989Z" fill="#FFDA44"/>
<path d="M4.17337 14.6085C4.74967 14.6085 5.21685 14.1413 5.21685 13.565C5.21685 12.9887 4.74967 12.5215 4.17337 12.5215C3.59707 12.5215 3.12988 12.9887 3.12988 13.565C3.12988 14.1413 3.59707 14.6085 4.17337 14.6085Z" fill="#FFDA44"/>
<path d="M4.17357 10.4336C4.46171 10.4336 4.69529 10.2001 4.69529 9.91192C4.69529 9.62378 4.46171 9.3902 4.17357 9.3902C3.88544 9.3902 3.65186 9.62378 3.65186 9.91192C3.65186 10.2001 3.88544 10.4336 4.17357 10.4336Z" fill="#FFDA44"/>
<path d="M5.21685 15.1289H3.12988V16.1724H5.21685V15.1289Z" fill="#FFDA44"/>
<path d="M5.21685 10.9551H3.12988V11.9986H5.21685V10.9551Z" fill="#FFDA44"/>
<path d="M4.17409 6.26004L4.54365 7.39723H5.73934L4.77207 8.10007L5.14136 9.23726L4.17409 8.53442L3.20687 9.23726L3.57615 8.10007L2.60889 7.39723H3.80457L4.17409 6.26004Z" fill="#FFDA44"/>
</g>
<defs>
<clipPath id="clip0_917_55344">
<rect width="24" height="24" fill="white"/>
</clipPath>
</defs>
</svg>
