<svg width="24" height="24" viewBox="0 0 24 24" fill="none" xmlns="http://www.w3.org/2000/svg">
<path d="M12 24C18.6274 24 24 18.6274 24 12C24 5.37258 18.6274 0 12 0C5.37258 0 0 5.37258 0 12C0 18.6274 5.37258 24 12 24Z" fill="#F0F0F0"/>
<path d="M3.51451 20.4849C4.0179 20.9883 4.55499 21.4372 5.11838 21.8325L21.8326 5.11828C21.4374 4.55489 20.9884 4.01779 20.485 3.5144C19.9816 3.01101 19.4445 2.56214 18.8811 2.16689L2.16699 18.8811C2.5622 19.4444 3.01112 19.9815 3.51451 20.4849Z" fill="#A2001D"/>
<path d="M3.51526 3.51477C-0.270555 7.30058 -0.997306 12.9861 1.33346 17.5022L17.5026 1.33306C12.9866 -0.997703 7.30098 -0.27086 3.51526 3.51477Z" fill="#0052B4"/>
<path d="M20.4859 20.4847C24.2716 16.699 24.9984 11.0134 22.6677 6.49733L6.49854 22.6665C11.0145 24.9972 16.7001 24.2705 20.4859 20.4847Z" fill="#496E2D"/>
<path d="M9.91307 6.78185L8.56842 7.41433L9.28448 8.71661L7.82437 8.43733L7.63931 9.91226L6.62231 8.82743L5.60526 9.91226L5.42029 8.43733L3.96014 8.71657L4.67615 7.41429L3.33154 6.78185L4.6762 6.14932L3.96014 4.84713L5.42025 5.12641L5.60531 3.65139L6.62231 4.73627L7.63936 3.65139L7.82437 5.12641L9.28448 4.84713L8.56851 6.14936L9.91307 6.78185Z" fill="#FFDA44"/>
</svg>
