<svg width="24" height="24" viewBox="0 0 24 24" fill="none" xmlns="http://www.w3.org/2000/svg">
<g clip-path="url(#clip0_917_55449)">
<path d="M12 24C18.6274 24 24 18.6274 24 12C24 5.37258 18.6274 0 12 0C5.37258 0 0 5.37258 0 12C0 18.6274 5.37258 24 12 24Z" fill="#F0F0F0"/>
<path d="M-0.000488281 12.0002C-0.000488281 17.1599 3.25601 21.5583 7.82562 23.2539V0.746674C3.25601 2.44214 -0.000488281 6.84071 -0.000488281 12.0002Z" fill="#6DA544"/>
<path d="M23.9999 12.0002C23.9999 6.8407 20.7434 2.44214 16.1738 0.746674V23.2539C20.7434 21.5583 23.9999 17.1599 23.9999 12.0002Z" fill="#6DA544"/>
</g>
<defs>
<clipPath id="clip0_917_55449">
<rect width="24" height="24" fill="white"/>
</clipPath>
</defs>
</svg>
