<svg width="24" height="24" viewBox="0 0 24 24" fill="none" xmlns="http://www.w3.org/2000/svg">
<g clip-path="url(#clip0_917_55454)">
<path d="M24 12C24 18.6274 18.6274 24 12 24C5.37262 24 0 18.6274 0 12C0 12.0029 12 0.0013125 12 0C18.6274 0 24 5.37262 24 12Z" fill="#FFDA44"/>
<path d="M12.0006 5.73953V9.78686L7.82666 5.73953H12.0006Z" fill="#0052B4"/>
<path d="M6.26147 12.0002H9.78698L6.26147 7.3046L5.73975 10.9568L6.26147 12.0002Z" fill="#0052B4"/>
<path d="M11.9683 12.0006H12.0004C12.0004 11.9898 12.0004 11.9793 12.0004 11.9685C11.9897 11.9792 11.979 11.9899 11.9683 12.0006Z" fill="#F0F0F0"/>
<path d="M12 6.26086C12 4.14937 12 2.76586 12 0H11.998C5.37145 0.001125 0 5.37323 0 12H6.26086V8.47448L9.78637 12H11.9679C11.9786 11.9893 11.9893 11.9786 12 11.9679C12 11.1594 12 10.4381 12 9.78647L8.47443 6.26086H12Z" fill="#F0F0F0"/>
<path d="M11.9994 10.5247L7.73588 6.26126H6.26025V6.26135L11.9993 12.0004H11.9994C11.9994 12.0004 11.9994 10.9828 11.9994 10.5247Z" fill="#D80027"/>
<path d="M6.07075 1.565C5.60815 1.82844 5.16494 2.12202 4.74344 2.4425H5.23582L3.93447 3.38816L4.43144 4.91802L3.1301 3.97255L2.99163 4.07319C2.4513 4.68678 1.97224 5.3556 1.56494 6.07082V11.9998H4.6954V4.69555V4.69546H11.9997C11.9997 3.70813 11.9997 2.76753 11.9997 1.565H6.07075Z" fill="#D80027"/>
<path d="M5.12601 2.16428C4.99659 2.25489 4.86899 2.34803 4.74332 2.4436L3.93449 3.38926L3.13012 3.9736L2.99048 4.07504C2.69582 4.40973 2.41949 4.76092 2.16309 5.12715C2.45535 5.269 2.78343 5.34873 3.13012 5.34873C4.35477 5.34873 5.34749 4.35601 5.34749 3.13135C5.34759 2.78457 5.2679 2.45659 5.12601 2.16428Z" fill="#0052B4"/>
<path d="M2.98975 4.07388L3.12939 3.97244L4.43073 4.91796L3.93372 3.3881L5.23497 2.44244H4.7425C4.10528 2.92708 3.51807 3.47384 2.98975 4.07388Z" fill="#FFDA44"/>
<path d="M8.29403 2.0874L8.55306 2.88451H9.39118L8.71313 3.37721L8.97202 4.17432L8.29403 3.68167L7.61598 4.17432L7.87482 3.37721L7.19678 2.88451H8.03495L8.29403 2.0874Z" fill="#FFDA44"/>
<path d="M3.12992 7.30524L3.38895 8.10235H4.22707L3.54907 8.5951L3.80797 9.39221L3.12992 8.8995L2.45182 9.39221L2.71071 8.5951L2.03271 8.10235H2.87084L3.12992 7.30524Z" fill="#FFDA44"/>
</g>
<defs>
<clipPath id="clip0_917_55454">
<rect width="24" height="24" fill="white"/>
</clipPath>
</defs>
</svg>
