<svg width="24" height="24" viewBox="0 0 24 24" fill="none" xmlns="http://www.w3.org/2000/svg">
<g clip-path="url(#clip0_917_55529)">
<path d="M20.4853 20.4857C15.799 25.172 8.20108 25.172 3.51471 20.4857C-1.17158 15.7994 -1.17158 8.20139 3.51475 3.51506C8.20103 -1.17121 15.0611 -0.433356 19.7474 4.25297C24.4337 8.93925 25.1716 15.7994 20.4853 20.4857Z" fill="black"/>
<path d="M3.51465 3.51464C8.20093 -1.17164 15.7989 -1.17155 20.4852 3.51469C25.1715 8.20097 25.1715 15.7989 20.4852 20.4853" fill="#A2001D"/>
<path d="M9.17152 16.1739L9.36577 16.7717H9.99441L9.48582 17.1412L9.68012 17.7391L9.17152 17.3696L8.66293 17.7391L8.85718 17.1412L8.34863 16.7717H8.97723L9.17152 16.1739Z" fill="#F0F0F0"/>
<path d="M7.56532 10.435L7.88918 11.4315H8.93684L8.08919 12.0473L8.41296 13.0437L7.56532 12.4278L6.71772 13.0437L7.04154 12.0473L6.19385 11.4315H7.2416L7.56532 10.435Z" fill="#F0F0F0"/>
<path d="M7.56532 17.7387L7.88908 18.7352H8.93684L8.0891 19.351L8.41296 20.3474L7.56532 19.7315L6.71772 20.3474L7.04144 19.351L6.19385 18.7352H7.24146L7.56532 17.7387Z" fill="#F0F0F0"/>
<path d="M10.6292 13.0439L10.9531 14.0404H12.0008L11.1531 14.6561L11.4769 15.6526L10.6292 15.0367L9.78164 15.6526L10.1055 14.6561L9.25781 14.0404H10.3055L10.6292 13.0439Z" fill="#F0F0F0"/>
<path d="M4.50233 13.0439L4.82619 14.0404H5.8738L5.02621 14.6561L5.34993 15.6526L4.50233 15.0367L3.65469 15.6526L3.97855 14.6561L3.13086 14.0404H4.17856L4.50233 13.0439Z" fill="#F0F0F0"/>
<path d="M20.0879 8.8863C19.5516 8.35 18.8547 8.03317 18.1059 7.97875L20.3475 6.23533C19.4547 5.3426 18.2582 4.93942 17.0906 5.02469C16.9509 4.52238 16.6844 4.04791 16.2894 3.65289L15.4039 5.42374C15.3459 5.31789 15.2723 5.21828 15.1826 5.12861C14.6732 4.61922 13.8473 4.61922 13.338 5.12861C12.8286 5.638 12.8285 6.46385 13.338 6.97324C13.4276 7.06291 13.5273 7.13646 13.6331 7.19458L11.8623 8.08C12.2574 8.47516 12.7322 8.74183 13.2348 8.88152C13.1493 10.0491 13.552 11.2454 14.4448 12.1382L16.4032 9.62017C16.5506 9.4751 16.7451 9.39499 16.9521 9.39499C17.1612 9.39499 17.3577 9.47636 17.5055 9.62425C17.6533 9.77205 17.7348 9.9686 17.7348 10.1776C17.7348 10.3867 17.6533 10.5832 17.5055 10.731L18.2434 11.4689C18.5883 11.124 18.7782 10.6654 18.7782 10.1777C18.7782 9.77857 18.6509 9.39916 18.4159 9.08547C18.7584 9.17692 19.082 9.35608 19.3502 9.62425C20.1639 10.438 20.1639 11.762 19.3502 12.5756L20.0881 13.3135C20.6793 12.7223 21.0049 11.9362 21.0049 11.1C21.0048 10.2637 20.6791 9.47758 20.0879 8.8863Z" fill="#FFDA44"/>
</g>
<defs>
<clipPath id="clip0_917_55529">
<rect width="24" height="24" fill="white"/>
</clipPath>
</defs>
</svg>
