<svg width="24" height="24" viewBox="0 0 24 24" fill="none" xmlns="http://www.w3.org/2000/svg">
<g clip-path="url(#clip0_917_55550)">
<path d="M12 24C18.6274 24 24 18.6274 24 12C24 5.37258 18.6274 0 12 0C5.37258 0 0 5.37258 0 12C0 18.6274 5.37258 24 12 24Z" fill="#F0F0F0"/>
<path d="M12.0004 -3.05176e-05V12L3.51514 20.4853C5.68671 22.6568 8.68671 24 12.0004 24C18.6278 24 24.0004 18.6273 24.0004 12C24.0004 5.37259 12.0004 -3.05176e-05 12.0004 -3.05176e-05Z" fill="#D80027"/>
<path d="M12.0004 -3.05176e-05C8.68671 -3.05176e-05 5.68671 1.34313 3.51514 3.51466C6.45936 6.45888 7.50453 7.50409 12.0004 12H24.0004C24.0004 5.37259 18.6278 -3.05176e-05 12.0004 -3.05176e-05Z" fill="#0052B4"/>
<path d="M8.21723 11.9998L6.75173 11.3105L7.53215 9.89117L5.94074 10.1956L5.73909 8.58795L4.63059 9.77033L3.52213 8.58795L3.32043 10.1956L1.72907 9.89113L2.50949 11.3105L1.04395 11.9998L2.50949 12.6892L1.72907 14.1085L3.32057 13.8041L3.52209 15.4117L4.63059 14.2294L5.73909 15.4117L5.94074 13.8041L7.53205 14.1086L6.75168 12.6892L8.21723 11.9998Z" fill="#FFDA44"/>
<path d="M3.20082 4.69525L3.68851 5.37695L4.48749 5.12388L3.98977 5.79831L4.47746 6.48002L3.68218 6.21513L3.18451 6.88952L3.19074 6.05139L2.39551 5.78645L3.19463 5.53338L3.20082 4.69525Z" fill="#FFDA44"/>
<path d="M3.20082 17.1095L3.68851 17.7912L4.48749 17.5381L3.98977 18.2126L4.47746 18.8943L3.68218 18.6294L3.18451 19.3038L3.19074 18.4657L2.39551 18.2007L3.19463 17.9477L3.20082 17.1095Z" fill="#FFDA44"/>
<path d="M10.1563 10.9033L9.66866 11.585L8.86963 11.3318L9.36735 12.0063L8.87966 12.688L9.67494 12.4231L10.1727 13.0975L10.1664 12.2594L10.9616 11.9945L10.1625 11.7414L10.1563 10.9033Z" fill="#FFDA44"/>
</g>
<defs>
<clipPath id="clip0_917_55550">
<rect width="24" height="24" fill="white"/>
</clipPath>
</defs>
</svg>
