<svg width="24" height="24" viewBox="0 0 24 24" fill="none" xmlns="http://www.w3.org/2000/svg">
<path d="M24 12C24 18.6274 18.6274 24 12 24C5.37262 24 0 18.6274 0 12C0 12.0029 12 0.0013125 12 0C18.6274 0 24 5.37262 24 12Z" fill="#0052B4"/>
<path d="M11.9683 12.0006H12.0004C12.0004 11.9898 12.0004 11.9793 12.0004 11.9685C11.9897 11.9792 11.979 11.9899 11.9683 12.0006Z" fill="#F0F0F0"/>
<path d="M12.0005 6.26103C12.0005 4.14954 12.0005 2.76603 12.0005 0.000167847H11.9985C5.37194 0.00129285 0.000488281 5.3734 0.000488281 12.0002H6.26134V8.47465L9.78686 12.0002H11.9684C11.9791 11.9895 11.9898 11.9788 12.0005 11.9681C12.0005 11.1596 12.0005 10.4382 12.0005 9.78664L8.47492 6.26103H12.0005Z" fill="#F0F0F0"/>
<path d="M6.07124 1.56503C4.19441 2.63374 2.63409 4.19402 1.56543 6.07085V11.9998H4.69588V4.69558V4.69549H12.0002C12.0002 3.70816 12.0002 2.76757 12.0002 1.56503H6.07124Z" fill="#D80027"/>
<path d="M12.0004 10.5247L7.73686 6.26131H6.26123V6.2614L12.0003 12.0004H12.0004C12.0004 12.0004 12.0004 10.9829 12.0004 10.5247Z" fill="#D80027"/>
<path d="M18.783 7.30388L17.2178 7.82564L15.6526 7.30388L15.1309 5.99953L15.6526 4.69519H18.783L18.2613 5.99953L18.783 7.30388Z" fill="#ACABB1"/>
<path d="M13.5649 7.30391V13.043C13.5649 15.8386 17.2171 16.6952 17.2171 16.6952C17.2171 16.6952 20.8693 15.8386 20.8693 13.043V7.30391H13.5649Z" fill="#338AF3"/>
<path d="M13.8945 14.4023C14.7923 16.1258 17.2175 16.6948 17.2175 16.6948C17.2175 16.6948 19.6427 16.1258 20.5405 14.4023L17.2175 8.86879L13.8945 14.4023Z" fill="#6DA544"/>
<path d="M20.8693 12.985L17.2171 7.30391L13.5649 12.9851V13.043C13.5649 13.5604 13.6903 14.0113 13.8941 14.4027L17.2171 9.23352L20.5401 14.4026C20.7439 14.0112 20.8693 13.5604 20.8693 13.043V12.985Z" fill="#FFDA44"/>
</svg>
