<svg width="24" height="24" viewBox="0 0 24 24" fill="none" xmlns="http://www.w3.org/2000/svg">
<g clip-path="url(#clip0_917_55578)">
<path d="M12 24C18.6274 24 24 18.6274 24 12C24 5.37258 18.6274 0 12 0C5.37258 0 0 5.37258 0 12C0 18.6274 5.37258 24 12 24Z" fill="#F0F0F0"/>
<path d="M11.999 -0.000556946C8.07308 -0.000556946 4.58769 1.8849 2.39844 4.79944H21.5995C19.4102 1.8849 15.9248 -0.000556946 11.999 -0.000556946Z" fill="#D80027"/>
<path d="M11.999 23.9994C15.9248 23.9994 19.4102 22.1139 21.5995 19.1994H2.39844C4.58769 22.1139 8.07308 23.9994 11.999 23.9994Z" fill="#D80027"/>
<path d="M-0.000488281 11.9994C-0.000488281 12.8214 0.0823867 13.624 0.23984 14.3994H23.7593C23.9167 13.624 23.9995 12.8214 23.9995 11.9994C23.9995 11.1775 23.9166 10.3749 23.7592 9.59941H0.23984C0.0823867 10.3749 -0.000488281 11.1775 -0.000488281 11.9994Z" fill="#D80027"/>
<path d="M3.51422 3.51538C-1.17206 8.20166 -1.17206 15.7997 3.51422 20.486C5.45077 18.5495 7.31325 16.687 11.9995 12.0007L3.51422 3.51538Z" fill="#0052B4"/>
<path d="M4.85694 8.86878L5.6339 11.2602H8.14855L6.11427 12.7382L6.89118 15.1297L4.85694 13.6517L2.82262 15.1297L3.59971 12.7382L1.56543 11.2602H4.0799L4.85694 8.86878Z" fill="#F0F0F0"/>
</g>
<defs>
<clipPath id="clip0_917_55578">
<rect width="24" height="24" fill="white"/>
</clipPath>
</defs>
</svg>
