<svg width="24" height="24" viewBox="0 0 24 24" fill="none" xmlns="http://www.w3.org/2000/svg">
<g clip-path="url(#clip0_917_55572)">
<path d="M-0.000488281 12.0007C-0.000488281 17.1602 3.25601 21.5587 7.82553 23.2543L8.86906 12.0006L7.82553 0.747086C3.25601 2.44265 -0.000488281 6.84112 -0.000488281 12.0007Z" fill="#6DA544"/>
<path d="M24.0002 12C24.0002 5.37258 18.6275 -4.57764e-05 12.0002 -4.57764e-05C10.5323 -4.57764e-05 9.1262 0.264001 7.82617 0.746345V23.2536C9.1262 23.736 10.5323 24 12.0002 24C18.6275 24 24.0002 18.6273 24.0002 12Z" fill="#D80027"/>
<path d="M7.82623 16.1745C10.1314 16.1745 12.0001 14.3058 12.0001 12.0006C12.0001 9.69542 10.1314 7.82671 7.82623 7.82671C5.52106 7.82671 3.65234 9.69542 3.65234 12.0006C3.65234 14.3058 5.52106 16.1745 7.82623 16.1745Z" fill="#FFDA44"/>
<path d="M5.47754 9.91263V12.5213C5.47754 13.818 6.52866 14.8692 7.82537 14.8692C9.12207 14.8692 10.1732 13.818 10.1732 12.5213V9.91263H5.47754Z" fill="#D80027"/>
<path d="M7.82608 13.3038C7.39455 13.3038 7.04346 12.9527 7.04346 12.5211V11.4777H8.60866V12.5212C8.60866 12.9527 8.25756 13.3038 7.82608 13.3038Z" fill="#F0F0F0"/>
</g>
<defs>
<clipPath id="clip0_917_55572">
<rect width="24" height="24" fill="white"/>
</clipPath>
</defs>
</svg>
