<svg width="24" height="24" viewBox="0 0 24 24" fill="none" xmlns="http://www.w3.org/2000/svg">
<g clip-path="url(#clip0_917_55539)">
<path d="M12 24C18.6274 24 24 18.6274 24 12C24 5.37258 18.6274 0 12 0C5.37258 0 0 5.37258 0 12C0 18.6274 5.37258 24 12 24Z" fill="#F0F0F0"/>
<path d="M12.0002 -3.05176e-05C7.24267 -3.05176e-05 3.13192 2.76864 1.19092 6.78259H22.8094C20.8685 2.76864 16.7577 -3.05176e-05 12.0002 -3.05176e-05Z" fill="#D80027"/>
<path d="M12.0002 24.0008C16.7577 24.0008 20.8685 21.2321 22.8095 17.2181H1.19092C3.13192 21.2321 7.24267 24.0008 12.0002 24.0008Z" fill="#0052B4"/>
<path d="M14.9509 8.52664L13.8442 9.63341C14.3162 10.1055 14.6083 10.7577 14.6083 11.478C14.6083 12.9188 13.4403 14.0867 11.9996 14.0867C10.5589 14.0867 9.39089 12.9187 9.39089 11.478C9.39089 10.7577 9.68292 10.1055 10.155 9.63341L9.04823 8.52664C8.29284 9.28189 7.82568 10.3254 7.82568 11.478C7.82568 13.7833 9.6944 15.6519 11.9996 15.6519C14.3048 15.6519 16.1735 13.7832 16.1735 11.478C16.1734 10.3254 15.7063 9.28189 14.9509 8.52664Z" fill="#6DA544"/>
<path d="M11.9998 9.91263L12.3883 11.1084H13.6456L12.6284 11.8473L13.017 13.0431L11.9998 12.3041L10.9826 13.0431L11.3711 11.8473L10.354 11.1084H11.6112L11.9998 9.91263Z" fill="#FFDA44"/>
</g>
<defs>
<clipPath id="clip0_917_55539">
<rect width="24" height="24" fill="white"/>
</clipPath>
</defs>
</svg>
