<svg width="24" height="24" viewBox="0 0 24 24" fill="none" xmlns="http://www.w3.org/2000/svg">
<g clip-path="url(#clip0_917_55586)">
<path d="M12 24C18.6274 24 24 18.6274 24 12C24 5.37258 18.6274 0 12 0C5.37258 0 0 5.37258 0 12C0 18.6274 5.37258 24 12 24Z" fill="#F0F0F0"/>
<path d="M24.0001 12C24.0001 5.37258 18.6275 -4.19617e-05 12.0001 -4.19617e-05C9.65264 -4.19617e-05 7.46293 0.674724 5.61333 1.83985L8.24363 2.9574L4.6958 4.4648L8.24363 5.97216L4.6958 7.47947L8.24363 8.98674L4.6958 10.4938L8.24363 12.0008L4.6958 13.5081L8.24363 15.0153L4.6958 16.5224L8.24363 18.0296L4.6958 19.5369L8.24363 21.044L5.6145 22.161C7.46386 23.3255 9.65311 24 12.0001 24C18.6275 24 24.0001 18.6273 24.0001 12Z" fill="#751A46"/>
</g>
<defs>
<clipPath id="clip0_917_55586">
<rect width="24" height="24" fill="white"/>
</clipPath>
</defs>
</svg>
