<svg width="24" height="24" viewBox="0 0 24 24" fill="none" xmlns="http://www.w3.org/2000/svg">
<g clip-path="url(#clip0_917_55617)">
<path d="M0.000488281 11.999C0.000488281 14.0779 0.529379 16.0333 1.45957 17.7382L12.0005 18.7816L22.5414 17.7382C23.4716 16.0333 24.0005 14.0779 24.0005 11.999L12.0005 10.9555L0.000488281 11.999Z" fill="#FFDA44"/>
<path d="M22.5409 6.26086C20.5057 2.53073 16.5485 0 12 0C7.45148 0 3.49434 2.53073 1.45908 6.26086C0.528891 7.96575 0 9.92109 0 12H24C24 9.92109 23.4711 7.96575 22.5409 6.26086Z" fill="#338AF3"/>
<path d="M12.0004 23.9991C16.5489 23.9991 20.5061 21.4684 22.5413 17.7383H1.45947C3.49474 21.4684 7.45188 23.9991 12.0004 23.9991Z" fill="#496E2D"/>
<path d="M13.5649 7.02247L15.0305 7.71186L14.2501 9.13123L15.8415 8.82683L16.0432 10.4344L17.1516 9.25203L18.2601 10.4344L18.4617 8.82683L20.0531 9.13114L19.2727 7.71181L20.7382 7.02247L19.2727 6.33317L20.0531 4.9138L18.4617 5.2182L18.26 3.61063L17.1516 4.793L16.0431 3.61063L15.8415 5.2182L14.2501 4.9138L15.0305 6.33322L13.5649 7.02247Z" fill="#FFDA44"/>
</g>
<defs>
<clipPath id="clip0_917_55617">
<rect width="24" height="24" fill="white"/>
</clipPath>
</defs>
</svg>
