<svg width="24" height="24" viewBox="0 0 24 24" fill="none" xmlns="http://www.w3.org/2000/svg">
<path d="M12 24C18.6274 24 24 18.6274 24 12C24 5.37258 18.6274 0 12 0C5.37258 0 0 5.37258 0 12C0 18.6274 5.37258 24 12 24Z" fill="#F0F0F0"/>
<path d="M0 12C0 5.37262 5.37262 0 12 0C18.6274 0 24 5.37262 24 12" fill="#D80027"/>
<path d="M7.30402 6.26095C7.30402 4.51261 8.53275 3.05208 10.1736 2.69372C9.92138 2.63869 9.65977 2.60883 9.39094 2.60883C7.37386 2.60883 5.73877 4.24392 5.73877 6.261C5.73877 8.27808 7.37386 9.91317 9.39094 9.91317C9.65967 9.91317 9.92133 9.88331 10.1736 9.82823C8.53275 9.46987 7.30402 8.00934 7.30402 6.26095Z" fill="#F0F0F0"/>
<path d="M11.9995 2.86996L12.2585 3.66707H13.0967L12.4186 4.15978L12.6776 4.95689L11.9995 4.46428L11.3214 4.95689L11.5804 4.15978L10.9023 3.66707H11.7405L11.9995 2.86996Z" fill="#F0F0F0"/>
<path d="M9.96639 4.43463L10.2254 5.23179H11.0635L10.3855 5.72444L10.6445 6.52155L9.96639 6.02894L9.2882 6.52155L9.54728 5.72444L8.86914 5.23179H9.70731L9.96639 4.43463Z" fill="#F0F0F0"/>
<path d="M14.0332 4.43463L14.2923 5.23179H15.1304L14.4523 5.72444L14.7113 6.52155L14.0332 6.02894L13.3551 6.52155L13.6141 5.72444L12.936 5.23179H13.7742L14.0332 4.43463Z" fill="#F0F0F0"/>
<path d="M13.2505 6.78333L13.5095 7.58048H14.3476L13.6695 8.07314L13.9286 8.87025L13.2505 8.37764L12.5724 8.87025L12.8314 8.07314L12.1533 7.58048H12.9914L13.2505 6.78333Z" fill="#F0F0F0"/>
<path d="M10.7491 6.78333L11.008 7.58048H11.8463L11.1681 8.07314L11.4272 8.87025L10.7491 8.37764L10.0709 8.87025L10.3299 8.07314L9.65186 7.58048H10.49L10.7491 6.78333Z" fill="#F0F0F0"/>
</svg>
