<svg width="24" height="24" viewBox="0 0 24 24" fill="none" xmlns="http://www.w3.org/2000/svg">
<g clip-path="url(#clip0_917_55703)">
<path d="M23.2536 16.1743C23.736 14.8743 24 13.4682 24 12.0004C24 10.5325 23.736 9.12649 23.2536 7.8265L12 6.78302L0.746391 7.8265C0.264 9.12649 0 10.5325 0 12.0004C0 13.4682 0.264 14.8743 0.746391 16.1743L12 17.2178L23.2536 16.1743Z" fill="#F0F0F0"/>
<path d="M11.9997 24.0006C17.1593 24.0006 21.5578 20.7441 23.2533 16.1745H0.746094C2.44166 20.7441 6.84012 24.0006 11.9997 24.0006Z" fill="#338AF3"/>
<path d="M11.9997 0.00012207C6.84012 0.00012207 2.44166 3.25662 0.746094 7.82623H23.2534C21.5578 3.25662 17.1593 0.00012207 11.9997 0.00012207Z" fill="#6DA544"/>
</g>
<defs>
<clipPath id="clip0_917_55703">
<rect width="24" height="24" fill="white"/>
</clipPath>
</defs>
</svg>
