<svg width="24" height="24" viewBox="0 0 24 24" fill="none" xmlns="http://www.w3.org/2000/svg">
<g clip-path="url(#clip0_917_55656)">
<path d="M24 11.9997C24 18.6271 18.6274 23.9997 12 23.9997C5.37262 23.9997 0 18.6271 0 11.9997C0.521719 11.9997 12 10.4345 12 10.4345L24 11.9997Z" fill="#338AF3"/>
<path d="M0 12C0 5.37262 5.37262 0 12 0C18.6274 0 24 5.37262 24 12" fill="#F0F0F0"/>
<path d="M16.7631 8.28088L11.9998 13.0442L7.23659 8.28088C6.6206 9.19527 6.26074 10.2959 6.26074 11.4789V13.0441C6.26074 15.5574 7.88473 17.6983 10.1383 18.4732C9.83754 19.0627 9.88826 19.7984 10.329 20.3485C10.9144 19.8793 11.5204 19.3936 12.0346 18.9817C12.5487 19.3937 13.1548 19.8794 13.7401 20.3485C14.186 19.792 14.2331 19.0453 13.9204 18.4523C16.1433 17.6606 17.7389 15.5354 17.7389 13.0441V11.479C17.739 10.2959 17.3791 9.19532 16.7631 8.28088Z" fill="#6DA544"/>
<path d="M11.9996 17.2176C9.69806 17.2176 7.82568 15.3451 7.82568 13.0437V11.4785C7.82568 9.17694 9.69811 7.30457 11.9996 7.30457C14.301 7.30457 16.1735 9.17699 16.1735 11.4785V13.0437C16.1735 15.3451 14.3011 17.2176 11.9996 17.2176Z" fill="#FFDA44"/>
<path d="M14.609 13.0433V11.4781C14.609 10.0397 13.4387 8.86945 12.0003 8.86945C10.5619 8.86945 9.3916 10.0397 9.3916 11.4781V13.0433L12.0003 13.565L14.609 13.0433Z" fill="#338AF3"/>
<path d="M9.3916 13.0432C9.3916 14.4817 10.5619 15.6519 12.0003 15.6519C13.4387 15.6519 14.609 14.4816 14.609 13.0432H9.3916Z" fill="#6DA544"/>
<path d="M15.1305 7.30397C15.1305 6.43955 14.4297 5.73876 13.5653 5.73876C13.1643 5.73876 12.7988 5.8897 12.5218 6.13762V5.217H13.0435V4.17351H12.5218V3.65179H11.4783V4.17351H10.9566V5.217H11.4783V6.13762C11.2013 5.8897 10.8358 5.73876 10.4348 5.73876C9.57041 5.73876 8.86963 6.43955 8.86963 7.30397C8.86963 7.76742 9.07124 8.18367 9.39135 8.47031V9.39094H14.6087V8.47031C14.9289 8.18367 15.1305 7.76742 15.1305 7.30397Z" fill="#FFDA44"/>
</g>
<defs>
<clipPath id="clip0_917_55656">
<rect width="24" height="24" fill="white"/>
</clipPath>
</defs>
</svg>
