<svg width="24" height="24" viewBox="0 0 24 24" fill="none" xmlns="http://www.w3.org/2000/svg">
<g clip-path="url(#clip0_917_55681)">
<path d="M17.2175 1.19084C15.6399 0.427997 13.87 0.00012207 12.0001 0.00012207C10.1303 0.00012207 8.36037 0.427997 6.78274 1.19084L5.73926 12.0001L6.78274 22.8094C8.36037 23.5722 10.1303 24.0001 12.0001 24.0001C13.87 24.0001 15.6399 23.5722 17.2175 22.8094L18.261 12.0001L17.2175 1.19084Z" fill="#FFDA44"/>
<path d="M12.0004 7.82605L13.0364 11.0145H16.3893L13.6769 12.9853L14.7129 16.1738L12.0004 14.2032L9.28802 16.1738L10.3242 12.9853L7.61182 11.0145H10.9645L12.0004 7.82605Z" fill="#496E2D"/>
<path d="M6.78311 1.1908C2.76921 3.13175 0.000488281 7.24217 0.000488281 11.9997C0.000488281 16.7571 2.76921 20.8676 6.78311 22.8085V1.1908Z" fill="#496E2D"/>
<path d="M17.2178 1.19141V22.8091C21.2317 20.8682 24.0004 16.7578 24.0004 12.0003C24.0004 7.24278 21.2317 3.13236 17.2178 1.19141Z" fill="#D80027"/>
</g>
<defs>
<clipPath id="clip0_917_55681">
<rect width="24" height="24" fill="white"/>
</clipPath>
</defs>
</svg>
