<svg width="24" height="24" viewBox="0 0 24 24" fill="none" xmlns="http://www.w3.org/2000/svg">
<g clip-path="url(#clip0_917_55797)">
<path d="M12 24C18.6274 24 24 18.6274 24 12C24 5.37258 18.6274 0 12 0C5.37258 0 0 5.37258 0 12C0 18.6274 5.37258 24 12 24Z" fill="#F0F0F0"/>
<path d="M23.0639 7.34698C21.2466 3.03022 16.9776 -0.000816345 12 -0.000816345C8.68625 -0.000816345 5.68657 1.34257 3.51514 3.51429L6.52029 7.34698H23.0639Z" fill="black"/>
<path d="M6.55437 16.6076L3.51514 20.4837C5.68657 22.6554 8.68625 23.9988 12 23.9988C16.9944 23.9988 21.2756 20.9475 23.0824 16.6076H6.55437Z" fill="#496E2D"/>
<path d="M2.60889 8.82607V15.1304H23.5868C23.856 14.1324 24.0002 13.0831 24.0002 12C24.0002 10.9011 23.8522 9.83707 23.5754 8.82607H2.60889Z" fill="#A2001D"/>
<path d="M3.51471 3.51461C-1.17157 8.20089 -1.17157 15.7989 3.51471 20.4852C5.45126 18.5487 7.31375 16.6862 12 11.9999L3.51471 3.51461Z" fill="#0052B4"/>
<path d="M3.9084 9.01647L5.37301 11.0603L7.76964 10.2988L6.2785 12.3235L7.74311 14.3674L5.3568 13.5748L3.86561 15.5995L3.88201 13.0849L1.49561 12.2923L3.89204 11.5309L3.9084 9.01647Z" fill="#FFDA44"/>
</g>
<defs>
<clipPath id="clip0_917_55797">
<rect width="24" height="24" fill="white"/>
</clipPath>
</defs>
</svg>
