<svg width="24" height="24" viewBox="0 0 24 24" fill="none" xmlns="http://www.w3.org/2000/svg">
<g clip-path="url(#clip0_917_55664)">
<path d="M12 24C18.6274 24 24 18.6274 24 12C24 5.37258 18.6274 0 12 0C5.37258 0 0 5.37258 0 12C0 18.6274 5.37258 24 12 24Z" fill="#FFDA44"/>
<path d="M7.30535 7.82623H23.2546C21.5591 3.25662 17.1605 0.00012207 12.001 0.00012207C8.68722 0.00012207 5.68755 1.34351 3.51611 3.51523L7.30535 7.82623Z" fill="#6DA544"/>
<path d="M7.30437 16.1746H23.2536C21.5581 20.7442 17.1596 24.0007 12 24.0007C8.68625 24.0007 5.68657 22.6573 3.51514 20.4856L7.30437 16.1746Z" fill="#6DA544"/>
<path d="M3.51471 3.51379C-1.17157 8.20008 -1.17157 15.7981 3.51471 20.4844C5.45126 18.5479 7.31375 16.6854 12 11.9991L3.51471 3.51379Z" fill="#D80027"/>
<path d="M15.2378 9.91278L15.7558 11.5071H17.4322L16.076 12.4924L16.594 14.0867L15.2378 13.1014L13.8816 14.0867L14.3996 12.4924L13.0435 11.5071H14.7198L15.2378 9.91278Z" fill="black"/>
<path d="M20.4556 9.91278L20.9736 11.5071H22.65L21.2938 12.4924L21.8118 14.0867L20.4556 13.1014L19.0994 14.0867L19.6174 12.4924L18.2612 11.5071H19.9376L20.4556 9.91278Z" fill="black"/>
</g>
<defs>
<clipPath id="clip0_917_55664">
<rect width="24" height="24" fill="white"/>
</clipPath>
</defs>
</svg>
