<svg width="24" height="24" viewBox="0 0 24 24" fill="none" xmlns="http://www.w3.org/2000/svg">
<g clip-path="url(#clip0_917_55732)">
<path d="M10.9565 13.0427C10.9565 13.0427 3.52168 3.51222 3.51465 3.51391C5.68618 1.34233 8.68623 -0.000823975 12 -0.000823975C18.6273 -0.000823975 24 5.3718 24 11.9992L10.9565 13.0427Z" fill="#D80027"/>
<path d="M10.9565 11.9995C10.9565 11.9995 3.52168 20.4865 3.51465 20.4848C5.68618 22.6564 8.68623 23.9995 12 23.9995C18.6273 23.9995 24 18.6269 24 11.9995H10.9565Z" fill="#0052B4"/>
<path d="M3.51471 3.51462C-1.17157 8.2009 -1.17157 15.7989 3.51471 20.4852C5.45126 18.5487 7.31375 16.6862 12 11.9999L3.51471 3.51462Z" fill="#F0F0F0"/>
<path d="M1.3157 11.9996C1.30914 12.0857 1.30469 12.1725 1.30469 12.2604C1.30469 14.1333 2.82306 15.6517 4.696 15.6517C6.56894 15.6517 8.08731 14.1333 8.08731 12.2604C8.08731 12.1725 8.08286 12.0857 8.0763 11.9996H1.3157Z" fill="#FFDA44"/>
<path d="M4.69583 10.4338C5.27213 10.4338 5.73931 9.96662 5.73931 9.39032C5.73931 8.81402 5.27213 8.34683 4.69583 8.34683C4.11953 8.34683 3.65234 8.81402 3.65234 9.39032C3.65234 9.96662 4.11953 10.4338 4.69583 10.4338Z" fill="#FFDA44"/>
<path d="M2.34766 9.13019V12.5215C2.34766 14.3187 4.69548 14.8693 4.69548 14.8693C4.69548 14.8693 7.04331 14.3187 7.04331 12.5215V9.13019H2.34766Z" fill="#D80027"/>
<path d="M4.69663 13.7776C4.26107 13.6209 3.39111 13.2203 3.39111 12.5219V10.174H5.99985V12.5219C5.99985 13.2226 5.12999 13.6222 4.69663 13.7776Z" fill="#338AF3"/>
<path d="M5.21792 11.4777V10.9559L4.6962 10.6951L4.17443 10.9559V11.4777L3.91357 11.7386V12.782H5.47883V11.7386L5.21792 11.4777Z" fill="#F3F3F3"/>
</g>
<defs>
<clipPath id="clip0_917_55732">
<rect width="24" height="24" fill="white"/>
</clipPath>
</defs>
</svg>
