<svg width="24" height="24" viewBox="0 0 24 24" fill="none" xmlns="http://www.w3.org/2000/svg">
<g clip-path="url(#clip0_917_55950)">
<path d="M11.9995 -0.00063324C11.1035 -0.00063324 10.2308 0.0984136 9.39086 0.284601L8.86914 11.9993L9.39086 23.7141C10.2308 23.9003 11.1036 23.9994 11.9995 23.9994C18.6269 23.9994 23.9995 18.6267 23.9995 11.9993C23.9995 5.37194 18.6269 -0.00063324 11.9995 -0.00063324Z" fill="#496E2D"/>
<path d="M3.12992 3.91704C1.18536 6.04966 -0.000488281 8.88607 -0.000488281 11.9996C-0.000488281 15.1131 1.1854 17.9495 3.12997 20.0823L3.65168 11.9996L3.12992 3.91704Z" fill="#496E2D"/>
<path d="M17.5517 9.05161C18.1421 7.40602 17.4788 5.61628 16.0553 4.72491C16.3114 4.75824 16.5677 4.81852 16.8206 4.90922C18.7192 5.59041 19.7061 7.68159 19.0249 9.58012C18.3437 11.4788 16.2525 12.4656 14.3539 11.7844C14.101 11.6937 13.8648 11.5772 13.646 11.4402C15.3115 11.6571 16.9613 10.6972 17.5517 9.05161Z" fill="#F0F0F0"/>
<path d="M14.2771 4.27428L13.7641 4.93719L12.9752 4.65411L13.447 5.34683L12.9341 6.00964L13.7387 5.77499L14.2106 6.46761L14.2359 5.62986L15.0406 5.39516L14.2517 5.11217L14.2771 4.27428Z" fill="#F0F0F0"/>
<path d="M15.6624 6.43531L15.1493 7.09817L14.3604 6.81509L14.8323 7.50781L14.3193 8.17062L15.1239 7.93587L15.5959 8.62864L15.6213 7.79084L16.4259 7.55609L15.637 7.27306L15.6624 6.43531Z" fill="#F0F0F0"/>
<path d="M11.8342 5.06039L11.3212 5.7232L10.5323 5.44021L11.0042 6.13289L10.4912 6.79575L11.2958 6.56104L11.7677 7.25372L11.7931 6.41596L12.5977 6.18126L11.8089 5.89818L11.8342 5.06039Z" fill="#F0F0F0"/>
<path d="M11.7781 7.53455L11.2651 8.19741L10.4762 7.91437L10.9482 8.60709L10.4351 9.26991L11.2398 9.03525L11.7116 9.72787L11.737 8.89012L12.5417 8.65542L11.7527 8.37234L11.7781 7.53455Z" fill="#F0F0F0"/>
<path d="M14.1321 8.38L13.6191 9.04281L12.8302 8.75978L13.3022 9.4525L12.7891 10.1153L13.5938 9.88061L14.0657 10.5733L14.091 9.73548L14.8957 9.50083L14.1067 9.21779L14.1321 8.38Z" fill="#F0F0F0"/>
<path d="M3.13037 3.91747V20.0826C4.76537 21.8758 6.93709 23.1707 9.39123 23.7147V0.285309C6.93704 0.82934 4.76542 2.12426 3.13037 3.91747Z" fill="#D80027"/>
<path d="M5.51936 6.31757L4.47119 5.53673V4.43249L5.51936 3.6517H7.00179L8.04996 4.43249V5.53673L7.00179 6.31757H5.51936Z" fill="#F0F0F0"/>
<path d="M6.2606 3.6517H5.51936L4.47119 4.43249V4.97235H6.2606V3.6517Z" fill="#FF9811"/>
<path d="M6.26074 6.31669H7.00193L8.0501 5.53584V4.97254H6.26074V6.31669Z" fill="#FF9811"/>
<path d="M5.51936 20.3484L4.47119 19.5676V18.4634L5.51936 17.6826H7.00179L8.04996 18.4634V19.5676L7.00179 20.3484H5.51936Z" fill="#F0F0F0"/>
<path d="M6.2606 17.6826H5.51936L4.47119 18.4634V19.0033H6.2606V17.6826Z" fill="#FF9811"/>
<path d="M6.26074 20.3493H7.00193L8.0501 19.5684V19.0052H6.26074V20.3493Z" fill="#FF9811"/>
<path d="M5.51936 13.3324L4.47119 12.5515V11.4473L5.51936 10.6665H7.00178L8.04995 11.4473V12.5515L7.00178 13.3324H5.51936Z" fill="#496E2D"/>
<path d="M8.0867 15.0514H7.63014V14.5949H6.82787L6.26059 14.0276L5.69335 14.5949H4.89109V15.0514H4.43457V15.9644H4.89109V16.4209H5.69331L6.26063 16.9883L6.82787 16.4209H7.63014V15.9644H8.0867V15.0514Z" fill="#496E2D"/>
<path d="M8.08719 8.03607H7.63062V7.57951H6.82836L6.26108 7.01223L5.69384 7.57951H4.89157V8.03607H4.43506V8.94911H4.89157V9.40562H5.69379L6.26112 9.973L6.82836 9.40562H7.63062V8.94911H8.08719V8.03607Z" fill="#496E2D"/>
<path d="M6.78225 11.4792H5.73877V12.5226H6.78225V11.4792Z" fill="#D80027"/>
<path d="M6.26049 9.01485C6.54862 9.01485 6.7822 8.78127 6.7822 8.49313C6.7822 8.20499 6.54862 7.97141 6.26049 7.97141C5.97235 7.97141 5.73877 8.20499 5.73877 8.49313C5.73877 8.78127 5.97235 9.01485 6.26049 9.01485Z" fill="#D80027"/>
<path d="M6.26049 16.0308C6.54862 16.0308 6.7822 15.7972 6.7822 15.5091C6.7822 15.2209 6.54862 14.9874 6.26049 14.9874C5.97235 14.9874 5.73877 15.2209 5.73877 15.5091C5.73877 15.7972 5.97235 16.0308 6.26049 16.0308Z" fill="#D80027"/>
</g>
<defs>
<clipPath id="clip0_917_55950">
<rect width="24" height="24" fill="white"/>
</clipPath>
</defs>
</svg>
