<svg width="24" height="24" viewBox="0 0 24 24" fill="none" xmlns="http://www.w3.org/2000/svg">
<path d="M12 24C18.6274 24 24 18.6274 24 12C24 5.37258 18.6274 0 12 0C5.37258 0 0 5.37258 0 12C0 18.6274 5.37258 24 12 24Z" fill="#F0F0F0"/>
<path d="M7.82626 6.2614V4.6962H6.26101V6.2614H4.6958V7.82665H6.26101V9.39186H7.82626V7.82665H9.39146V6.2614H7.82626Z" fill="#D80027"/>
<path d="M12 0V12C5.37262 12 2.73867 12 0 12C0 18.6274 5.37262 24 12 24C18.6274 24 24 18.6274 24 12C24 5.37262 18.6274 0 12 0Z" fill="#D80027"/>
</svg>
