<svg width="24" height="24" viewBox="0 0 24 24" fill="none" xmlns="http://www.w3.org/2000/svg">
<g clip-path="url(#clip0_917_55933)">
<path d="M6.49763 1.33197C5.42335 1.88645 4.41493 2.61325 3.51436 3.51381C2.61375 4.41442 1.88696 5.42284 1.33252 6.49713L9.04847 14.951L17.5023 22.6669C18.5767 22.1125 19.5851 21.3857 20.4856 20.4851C21.3863 19.5845 22.113 18.5761 22.6675 17.5018L14.9515 9.04792L6.49763 1.33197Z" fill="#F0F0F0"/>
<path d="M20.4853 20.486C20.9887 19.9826 21.4377 19.4454 21.833 18.8821L5.11804 2.16708C4.55464 2.56229 4.0175 3.01126 3.51411 3.51465C3.01072 4.01804 2.56175 4.55518 2.1665 5.11862L18.8814 21.8335C19.4448 21.4383 19.982 20.9894 20.4853 20.486Z" fill="black"/>
<path d="M3.51431 20.4865C7.30026 24.2725 12.9861 24.9992 17.5023 22.6683L1.33251 6.4985C-0.998347 11.0147 -0.271457 16.7006 3.51431 20.4865Z" fill="#D80027"/>
<path d="M20.4855 3.51458C16.6996 -0.271324 11.0138 -0.998074 6.49756 1.33269L22.6673 17.5026C24.9982 12.9864 24.2715 7.30049 20.4855 3.51458Z" fill="#D80027"/>
</g>
<defs>
<clipPath id="clip0_917_55933">
<rect width="24" height="24" fill="white"/>
</clipPath>
</defs>
</svg>
