<svg width="24" height="24" viewBox="0 0 24 24" fill="none" xmlns="http://www.w3.org/2000/svg">
<path d="M24 12C24 18.6274 18.6274 24 12 24C5.37263 24 0 18.6274 0 12C0 12.0029 12 0.0013125 12 0C18.6274 0 24 5.37262 24 12Z" fill="#338AF3"/>
<path d="M5.73926 12.0011H9.78654L6.26098 7.82723L5.73926 9.39243V12.0011Z" fill="#0052B4"/>
<path d="M12.0001 9.78668L7.82617 5.73935H12.0001L12.0001 9.78668Z" fill="#0052B4"/>
<path d="M11.9683 11.9996H12.0004C12.0004 11.9888 12.0004 11.9783 12.0004 11.9674C11.9897 11.9782 11.979 11.9889 11.9683 11.9996Z" fill="#F0F0F0"/>
<path d="M12.0005 6.26117C12.0005 4.14968 12.0005 2.76612 12.0005 0.00030899H11.9985C5.37199 0.00143399 0.000488281 5.37354 0.000488281 12.0003H6.26139V8.47479L9.78691 12.0003H11.9685C11.9792 11.9896 11.9898 11.9789 12.0006 11.9682C12.0006 11.1597 12.0006 10.4384 12.0006 9.78678L8.47493 6.26117H12.0005Z" fill="#F0F0F0"/>
<path d="M6.07124 1.56538C4.19441 2.63409 2.63413 4.19437 1.56543 6.0712V12.0002H4.69588V4.69593V4.69584H12.0002C12.0002 3.70851 12.0002 2.76792 12.0002 1.56538H6.07124Z" fill="#D80027"/>
<path d="M12.0004 10.5241L7.73686 6.26065H6.26123V6.26074L12.0003 11.9997H12.0004C12.0004 11.9997 12.0004 10.9822 12.0004 10.5241Z" fill="#D80027"/>
<path d="M13.0972 19.8252L13.3562 20.6223H14.1944L13.5163 21.115L13.7753 21.9121L13.0972 21.4195L12.4191 21.9121L12.6781 21.115L12 20.6223H12.8381L13.0972 19.8252Z" fill="#FFDA44"/>
<path d="M19.7725 14.6093L20.0315 15.4064H20.8696L20.1916 15.8992L20.4507 16.6963L19.7725 16.2037L19.0944 16.6963L19.3535 15.8992L18.6753 15.4064H19.5135L19.7725 14.6093Z" fill="#FFDA44"/>
<path d="M21.4448 6.78254L21.7038 7.5797H22.542L21.864 8.07236L22.123 8.86946L21.4448 8.37686L20.7668 8.86946L21.0258 8.07236L20.3477 7.5797H21.1858L21.4448 6.78254Z" fill="#FFDA44"/>
<path d="M21.8594 12.5214L22.1184 13.3186H22.9566L22.2785 13.8113L22.5376 14.6084L21.8594 14.1158L21.1814 14.6084L21.4404 13.8113L20.7622 13.3186H21.6004L21.8594 12.5214Z" fill="#FFDA44"/>
<path d="M14.299 17.9513L15.0459 18.3319L15.6386 17.7393L15.5075 18.567L16.2543 18.9475L15.4264 19.0787L15.2953 19.9066L14.9148 19.1597L14.0869 19.2909L14.6796 18.6983L14.299 17.9513Z" fill="#FFDA44"/>
<path d="M14.299 14.8214L15.0459 15.2019L15.6386 14.6093L15.5075 15.4371L16.2543 15.8176L15.4264 15.9487L15.2953 16.7766L14.9148 16.0298L14.0869 16.1609L14.6796 15.5683L14.299 14.8214Z" fill="#FFDA44"/>
<path d="M16.9079 16.8271L17.6548 17.2077L18.2475 16.615L18.1164 17.4428L18.8632 17.8233L18.0353 17.9545L17.9041 18.7824L17.5237 18.0355L16.6958 18.1667L17.2884 17.5741L16.9079 16.8271Z" fill="#FFDA44"/>
<path d="M16.9079 10.1248L17.6548 10.5053L18.2475 9.91269L18.1164 10.7405L18.8632 11.121L18.0353 11.2521L17.9041 12.08L17.5237 11.3332L16.6958 11.4643L17.2884 10.8717L16.9079 10.1248Z" fill="#FFDA44"/>
<path d="M19.4362 10.0444L20.1831 10.425L20.7758 9.83232L20.6447 10.6601L21.3915 11.0406L20.5636 11.1718L20.4325 11.9996L20.052 11.2528L19.2241 11.384L19.8168 10.7913L19.4362 10.0444Z" fill="#FFDA44"/>
</svg>
