<svg width="24" height="24" viewBox="0 0 24 24" fill="none" xmlns="http://www.w3.org/2000/svg">
<g clip-path="url(#clip0_917_56055)">
<path d="M12 24C18.6274 24 24 18.6274 24 12C24 5.37258 18.6274 0 12 0C5.37258 0 0 5.37258 0 12C0 18.6274 5.37258 24 12 24Z" fill="#F0F0F0"/>
<path d="M11.9995 8.8687H23.5861C23.2852 7.75242 22.8279 6.7005 22.2382 5.73825H11.9995V8.8687Z" fill="#338AF3"/>
<path d="M4.53009 21.3898H19.4698C20.5649 20.5176 21.5041 19.4581 22.2386 18.2594H1.76123C2.49581 19.4581 3.435 20.5176 4.53009 21.3898Z" fill="#338AF3"/>
<path d="M12 -0.000854492C12 1.04263 12 2.60783 12 2.60783H19.4699C17.42 0.975271 14.8242 -0.000854492 12 -0.000854492Z" fill="#338AF3"/>
<path d="M11.9995 8.8687H23.5861C23.2852 7.75242 22.8279 6.7005 22.2382 5.73825H11.9995V8.8687Z" fill="#338AF3"/>
<path d="M0 12.0001C0 13.0833 0.144375 14.1324 0.413391 15.1306H23.5867C23.8556 14.1324 24 13.0833 24 12.0001H0Z" fill="#338AF3"/>
<path d="M10.435 7.0232L8.96941 7.71259L9.74983 9.13197L8.15842 8.82756L7.95677 10.4351L6.84836 9.25276L5.73986 10.4351L5.53825 8.82756L3.94684 9.13187L4.72722 7.71255L3.26172 7.0232L4.72727 6.3339L3.94684 4.91453L5.5382 5.21894L5.73991 3.61136L6.84836 4.79373L7.95681 3.61136L8.15842 5.21894L9.74988 4.91453L8.96945 6.33395L10.435 7.0232Z" fill="#FFDA44"/>
</g>
<defs>
<clipPath id="clip0_917_56055">
<rect width="24" height="24" fill="white"/>
</clipPath>
</defs>
</svg>
