<svg width="24" height="24" viewBox="0 0 24 24" fill="none" xmlns="http://www.w3.org/2000/svg">
<g clip-path="url(#clip0_917_56065)">
<path d="M0.566625 8.34788C0.199031 9.4995 -4.68667e-05 10.7264 8.27601e-09 11.9999C-4.68667e-05 13.2735 0.199078 14.5005 0.566672 15.6521L12 16.1739L23.4333 15.6522C23.8009 14.5005 24.0001 13.2735 24.0001 12C24 10.7264 23.8009 9.4995 23.4333 8.34783L12 7.82611L0.566625 8.34788Z" fill="#F0F0F0"/>
<path d="M23.4332 8.34783L11.9999 7.82611L0.5665 8.34783C0.457563 8.68927 0.363766 9.03741 0.285156 9.39131H23.7144C23.6359 9.03736 23.5421 8.68917 23.4332 8.34783Z" fill="#D80027"/>
<path d="M0.285156 14.609C0.363672 14.9629 0.457469 15.311 0.566406 15.6524L0.567531 15.6525L11.9997 16.1742L23.433 15.6525C23.542 15.3111 23.6358 14.9629 23.7143 14.609H0.285156Z" fill="#D80027"/>
<path d="M12.0002 24.0007C17.3541 24.0007 21.8883 20.4943 23.4335 15.6529H0.566895C2.11213 20.4943 6.64644 24.0007 12.0002 24.0007Z" fill="#6DA544"/>
<path d="M12.0002 -0.000823974C6.64644 -0.000777099 2.11222 3.50561 0.566895 8.347L23.4335 8.34705C21.8884 3.50557 17.3541 -0.000870849 12.0002 -0.000823974Z" fill="#338AF3"/>
<path d="M5.48327 4.95627C5.48327 3.83235 6.27316 2.89344 7.32798 2.6631C7.16589 2.62766 6.99766 2.60849 6.82488 2.60849C5.52822 2.60849 4.47705 3.65962 4.47705 4.95632C4.47705 6.25302 5.52813 7.30415 6.82488 7.30415C6.99766 7.30415 7.16584 7.28493 7.32798 7.24954C6.2732 7.0191 5.48327 6.0802 5.48327 4.95627Z" fill="#F0F0F0"/>
<path d="M8.71531 6.02243L8.87421 6.51157H9.38853L8.97246 6.81392L9.13137 7.30306L8.71531 7.00076L8.29915 7.30306L8.4581 6.81392L8.04199 6.51157H8.55631L8.71531 6.02243Z" fill="#F0F0F0"/>
<path d="M10.3573 6.02243L10.5163 6.51157H11.0306L10.6145 6.81392L10.7734 7.30306L10.3573 7.00076L9.94119 7.30306L10.1001 6.81392L9.68408 6.51157H10.1983L10.3573 6.02243Z" fill="#F0F0F0"/>
<path d="M11.9985 6.02243L12.1574 6.51157H12.6718L12.2557 6.81392L12.4146 7.30306L11.9985 7.00076L11.5824 7.30306L11.7414 6.81392L11.3252 6.51157H11.8396L11.9985 6.02243Z" fill="#F0F0F0"/>
<path d="M13.6406 6.02243L13.7995 6.51157H14.3138L13.8978 6.81392L14.0567 7.30306L13.6406 7.00076L13.2244 7.30306L13.3834 6.81392L12.9673 6.51157H13.4816L13.6406 6.02243Z" fill="#F0F0F0"/>
<path d="M15.2821 6.02243L15.4411 6.51157H15.9554L15.5393 6.81392L15.6983 7.30306L15.2821 7.00076L14.866 7.30306L15.0249 6.81392L14.6089 6.51157H15.1232L15.2821 6.02243Z" fill="#F0F0F0"/>
<path d="M10.3573 4.31516L10.5163 4.80425H11.0306L10.6145 5.10664L10.7734 5.59573L10.3573 5.29344L9.94119 5.59573L10.1001 5.10664L9.68408 4.80425H10.1983L10.3573 4.31516Z" fill="#F0F0F0"/>
<path d="M11.9985 4.31516L12.1574 4.80425H12.6718L12.2557 5.10664L12.4146 5.59573L11.9985 5.29344L11.5824 5.59573L11.7414 5.10664L11.3252 4.80425H11.8396L11.9985 4.31516Z" fill="#F0F0F0"/>
<path d="M13.6406 4.31516L13.7995 4.80425H14.3138L13.8978 5.10664L14.0567 5.59573L13.6406 5.29344L13.2244 5.59573L13.3834 5.10664L12.9673 4.80425H13.4816L13.6406 4.31516Z" fill="#F0F0F0"/>
<path d="M15.2821 4.31516L15.4411 4.80425H15.9554L15.5393 5.10664L15.6983 5.59573L15.2821 5.29344L14.866 5.59573L15.0249 5.10664L14.6089 4.80425H15.1232L15.2821 4.31516Z" fill="#F0F0F0"/>
<path d="M11.9985 2.60806L12.1574 3.09725H12.6718L12.2557 3.39955L12.4146 3.88873L11.9985 3.58644L11.5824 3.88873L11.7414 3.39955L11.3252 3.09725H11.8396L11.9985 2.60806Z" fill="#F0F0F0"/>
<path d="M13.6406 2.60806L13.7995 3.09725H14.3138L13.8978 3.39955L14.0567 3.88873L13.6406 3.58644L13.2244 3.88873L13.3834 3.39955L12.9673 3.09725H13.4816L13.6406 2.60806Z" fill="#F0F0F0"/>
<path d="M15.2821 2.60806L15.4411 3.09725H15.9554L15.5393 3.39955L15.6983 3.88873L15.2821 3.58644L14.866 3.88873L15.0249 3.39955L14.6089 3.09725H15.1232L15.2821 2.60806Z" fill="#F0F0F0"/>
</g>
<defs>
<clipPath id="clip0_917_56065">
<rect width="24" height="24" fill="white"/>
</clipPath>
</defs>
</svg>
