<svg width="24" height="24" viewBox="0 0 24 24" fill="none" xmlns="http://www.w3.org/2000/svg">
<g clip-path="url(#clip0_917_55830)">
<path d="M17.739 1.45935C16.0342 0.529165 14.0788 0.000274658 11.9999 0.000274658C9.921 0.000274658 7.96566 0.529165 6.26077 1.45935L5.21729 12.0003L6.26077 22.5412C7.96566 23.4714 9.921 24.0003 11.9999 24.0003C14.0788 24.0003 16.0342 23.4714 17.739 22.5412L18.7825 12.0003L17.739 1.45935Z" fill="#FFDA44"/>
<path d="M6.26135 22.5408V1.45905C2.53122 3.49436 0.000488281 7.4515 0.000488281 12C0.000488281 16.5485 2.53122 20.5057 6.26135 22.5408Z" fill="#338AF3"/>
<path d="M24.0001 12.0002C24.0001 7.45165 21.4694 3.49451 17.7393 1.4592V22.541C21.4694 20.5058 24.0001 16.5487 24.0001 12.0002Z" fill="#6DA544"/>
<path d="M9.3917 15.1298L7.30469 11.9993L9.39166 8.86887L11.4787 11.9993L9.3917 15.1298Z" fill="#6DA544"/>
<path d="M14.6094 15.1298L12.5225 11.9993L14.6094 8.86887L16.6964 11.9993L14.6094 15.1298Z" fill="#6DA544"/>
<path d="M12.0005 19.3037L9.91357 16.1733L12.0005 13.0429L14.0875 16.1733L12.0005 19.3037Z" fill="#6DA544"/>
</g>
<defs>
<clipPath id="clip0_917_55830">
<rect width="24" height="24" fill="white"/>
</clipPath>
</defs>
</svg>
