<svg width="24" height="24" viewBox="0 0 24 24" fill="none" xmlns="http://www.w3.org/2000/svg">
<g clip-path="url(#clip0_917_54431)">
<path d="M22.8088 17.2167C23.5717 15.639 23.9995 13.8692 23.9995 11.9993C23.9995 10.1294 23.5717 8.35954 22.8088 6.78192L11.9995 5.73843L1.19023 6.78192C0.42734 8.35954 -0.000488281 10.1294 -0.000488281 11.9993C-0.000488281 13.8692 0.42734 15.639 1.19023 17.2167L11.9995 18.2602L22.8088 17.2167Z" fill="#0052B4"/>
<path d="M11.9997 24.0004C16.7572 24.0004 20.868 21.2317 22.809 17.2177H1.19043C3.13143 21.2317 7.24218 24.0004 11.9997 24.0004Z" fill="#D80027"/>
<path d="M20.7819 14.356L20.1481 14.8513L20.4232 15.607L19.7563 15.1573L19.1224 15.6525L19.344 14.8793L18.6772 14.4295L19.4811 14.4014L19.7029 13.6282L19.9781 14.384L20.7819 14.356Z" fill="#F0F0F0"/>
<path d="M19.159 11.5444L18.7329 12.2266L19.25 12.8426L18.4694 12.6482L18.0432 13.3302L17.987 12.5279L17.2065 12.3332L17.9524 12.0318L17.8964 11.2294L18.4133 11.8457L19.159 11.5444Z" fill="#F0F0F0"/>
<path d="M16.6724 9.45834L16.5052 10.2451L17.2018 10.6473L16.4019 10.7317L16.2346 11.5182L15.9074 10.7835L15.1074 10.8675L15.7053 10.3292L15.3781 9.59452L16.0747 9.99661L16.6724 9.45834Z" fill="#F0F0F0"/>
<path d="M13.6224 8.34799L13.7344 9.14454L14.5265 9.28413L13.8036 9.63691L13.9156 10.4334L13.3568 9.85479L12.6337 10.2074L13.0114 9.49709L12.4526 8.91855L13.2448 9.0582L13.6224 8.34799Z" fill="#F0F0F0"/>
<path d="M10.3767 8.34799L10.7544 9.05819L11.5464 8.91846L10.9878 9.49722L11.3653 10.2075L10.6424 9.85479L10.0835 10.4333L10.1956 9.63691L9.47266 9.28432L10.2648 9.14454L10.3767 8.34799Z" fill="#F0F0F0"/>
<path d="M7.32614 9.45834L7.92399 9.99661L8.62041 9.59452L8.29336 10.3295L8.89106 10.8676L8.09114 10.7835L7.76386 11.5182L7.59684 10.7315L6.79688 10.6475L7.49344 10.2452L7.32614 9.45834Z" fill="#F0F0F0"/>
<path d="M4.83973 11.5444L5.58565 11.8457L6.10249 11.2296L6.04657 12.0322L6.79225 12.3335L6.01183 12.528L5.95563 13.3303L5.52954 12.6483L4.74902 12.8428L5.26605 12.2266L4.83973 11.5444Z" fill="#F0F0F0"/>
<path d="M3.2168 14.3561L4.0208 14.3842L4.29577 13.6284L4.51772 14.4017L5.32148 14.4298L4.65464 14.8796L4.87627 15.6527L4.24252 15.1576L3.57562 15.6072L3.85073 14.8514L3.2168 14.3561Z" fill="#F0F0F0"/>
<path d="M22.809 6.7822C20.868 2.76824 16.7572 -0.000427246 11.9997 -0.000427246C7.24218 -0.000427246 3.13143 2.76824 1.19043 6.7822H22.809Z" fill="#FFDA44"/>
</g>
<defs>
<clipPath id="clip0_917_54431">
<rect width="24" height="24" fill="white"/>
</clipPath>
</defs>
</svg>
