<svg width="24" height="24" viewBox="0 0 24 24" fill="none" xmlns="http://www.w3.org/2000/svg">
<g clip-path="url(#clip0_917_54405)">
<path d="M24.0005 12.0003C24.0005 11.4699 23.9656 10.9475 23.8989 10.4351H10.4351C7.98354 7.98368 3.515 3.51542 3.51519 3.51505C-1.17108 8.20132 -1.17108 15.7993 3.51519 20.4856L10.4353 13.5656H23.8989C23.9656 13.0532 24.0005 12.5308 24.0005 12.0003Z" fill="black"/>
<path d="M23.9968 12.2726C23.9963 12.2958 23.9958 12.319 23.9951 12.3422C23.9957 12.3189 23.9962 12.2958 23.9968 12.2726Z" fill="#F0F0F0"/>
<path d="M23.9853 12.6003C23.9843 12.6233 23.9827 12.6461 23.9814 12.669C23.9827 12.6462 23.9842 12.6233 23.9853 12.6003Z" fill="#F0F0F0"/>
<path d="M23.9684 12.8633C23.966 12.897 23.9637 12.9307 23.9609 12.9644C23.9637 12.9307 23.966 12.897 23.9684 12.8633Z" fill="#F0F0F0"/>
<path d="M23.9287 10.6922C23.9331 10.7324 23.9375 10.7725 23.9415 10.8128C23.9375 10.7725 23.9331 10.7324 23.9287 10.6922Z" fill="#F0F0F0"/>
<path d="M23.981 11.3299C23.9822 11.3528 23.9838 11.3756 23.9849 11.3986C23.9837 11.3756 23.9822 11.3527 23.981 11.3299Z" fill="#F0F0F0"/>
<path d="M23.9946 11.6568C23.9953 11.68 23.9958 11.7033 23.9963 11.7264C23.9958 11.7032 23.9952 11.68 23.9946 11.6568Z" fill="#F0F0F0"/>
<path d="M23.9614 11.0356C23.9641 11.0692 23.9665 11.103 23.9689 11.1367C23.9664 11.103 23.9641 11.0692 23.9614 11.0356Z" fill="#F0F0F0"/>
<path d="M23.8984 10.4344C23.9038 10.4755 23.9086 10.5168 23.9135 10.558C23.2013 4.61044 18.1395 -0.000366211 12 -0.000366211C8.68626 -0.000366211 5.68622 1.34283 3.51465 3.5145L10.4345 10.4344H23.8984V10.4344Z" fill="#D80027"/>
<path d="M23.8984 13.5652H10.4345L3.51465 20.4851C5.68622 22.6568 8.68626 24 12 24C18.1395 24 23.2014 19.3892 23.9135 13.4416C23.9086 13.4828 23.9037 13.5241 23.8984 13.5652Z" fill="#6DA544"/>
<path d="M23.941 13.1878C23.9371 13.228 23.9326 13.2682 23.9282 13.3084C23.9326 13.2682 23.9371 13.2281 23.941 13.1878Z" fill="#F0F0F0"/>
<path d="M23.9688 11.137C23.9733 11.2012 23.9774 11.2655 23.981 11.33C23.9774 11.2655 23.9733 11.2012 23.9688 11.137Z" fill="black"/>
<path d="M23.9131 10.5584C23.9185 10.6029 23.9236 10.6475 23.9284 10.6922C23.9235 10.6475 23.9184 10.603 23.9131 10.5584Z" fill="black"/>
<path d="M23.9414 10.8123C23.9487 10.8869 23.9553 10.9616 23.9613 11.0366C23.9554 10.9616 23.9488 10.8868 23.9414 10.8123Z" fill="black"/>
<path d="M24.0005 12C24.0005 12.0913 23.9991 12.1823 23.9971 12.2731C23.9991 12.1822 24.0005 12.0913 24.0005 12Z" fill="black"/>
<path d="M23.981 12.6689C23.9774 12.7334 23.9733 12.7977 23.9688 12.8619C23.9733 12.7977 23.9773 12.7334 23.981 12.6689Z" fill="black"/>
<path d="M23.9613 12.964C23.9553 13.0389 23.9487 13.1137 23.9414 13.1882C23.9488 13.1137 23.9554 13.0389 23.9613 12.964Z" fill="black"/>
<path d="M23.9284 13.3081C23.9236 13.3528 23.9185 13.3974 23.9131 13.4419C23.9184 13.3974 23.9235 13.3528 23.9284 13.3081Z" fill="black"/>
<path d="M23.9971 11.7274C23.9991 11.8183 24.0005 11.9093 24.0005 12.0006C24.0005 11.9093 23.9991 11.8183 23.9971 11.7274Z" fill="black"/>
<path d="M23.9854 11.3982C23.9896 11.4841 23.9928 11.5704 23.9952 11.6568C23.9928 11.5704 23.9896 11.4841 23.9854 11.3982Z" fill="black"/>
<path d="M23.9952 12.3419C23.9928 12.4283 23.9896 12.5146 23.9854 12.6006C23.9897 12.5146 23.9928 12.4283 23.9952 12.3419Z" fill="black"/>
<path d="M23.9888 11.4733H9.99401L2.80542 4.2858C2.57306 4.53086 2.3212 4.87305 2.16543 5.11675L9.04006 11.995L2.15967 18.8755C2.29589 19.1179 2.59265 19.4766 2.80101 19.7099L9.99415 12.5168H23.9904C23.9979 12.3437 24.0002 12.1699 24.0002 11.9951C24.0002 11.7608 23.9937 11.5881 23.9888 11.4733Z" fill="#FFDA44"/>
<path d="M2.91515 14.5574V13.5523C3.91818 13.5523 4.73413 12.7362 4.73413 11.7333C4.73413 11.0236 4.15677 10.4463 3.44718 10.4463C2.96376 10.4463 2.57043 10.8396 2.57043 11.3231C2.57043 11.6323 2.82191 11.8838 3.1311 11.8838C3.30585 11.8838 3.44802 11.7415 3.44802 11.5668H4.45311C4.45311 12.2958 3.86005 12.8889 3.13115 12.8889C2.26776 12.8889 1.56543 12.1865 1.56543 11.3232C1.56543 10.2855 2.40965 9.44138 3.44722 9.44138C4.71106 9.44138 5.73931 10.4696 5.73931 11.7334C5.73927 13.2905 4.47238 14.5574 2.91515 14.5574Z" fill="#FFDA44"/>
</g>
<defs>
<clipPath id="clip0_917_54405">
<rect width="24" height="24" fill="white"/>
</clipPath>
</defs>
</svg>
