<svg width="24" height="24" viewBox="0 0 24 24" fill="none" xmlns="http://www.w3.org/2000/svg">
<g clip-path="url(#clip0_917_54472)">
<path d="M12 24C18.6274 24 24 18.6274 24 12C24 5.37258 18.6274 0 12 0C5.37258 0 0 5.37258 0 12C0 18.6274 5.37258 24 12 24Z" fill="#496E2D"/>
<path d="M16.6952 11.9992H11.9995V23.9992C13.4022 23.9992 14.7483 23.7578 15.9995 23.3155L16.6952 11.9992Z" fill="#D80027"/>
<path d="M20.0003 20.9427C22.4551 18.7454 24.0004 15.553 24.0004 11.9992H19.3047L20.0003 20.9427Z" fill="#FF9811"/>
<path d="M16 11.9992V23.3155C17.4905 22.7886 18.8458 21.9758 20 20.9427V11.9992H16Z" fill="black"/>
<path d="M22.174 7.82666H19.0436C19.0436 7.25038 18.5764 6.78317 18.0001 6.78317C17.4238 6.78317 16.9566 7.25038 16.9566 7.82666H13.8262C13.8262 8.40299 14.3282 8.87014 14.9044 8.87014H14.8697C14.8697 9.44647 15.3368 9.91363 15.9131 9.91363C15.9131 10.49 16.3803 10.9571 16.9566 10.9571H19.0436C19.6199 10.9571 20.0871 10.49 20.0871 9.91363C20.6634 9.91363 21.1306 9.44647 21.1306 8.87014H21.0958C21.6721 8.87009 22.174 8.40294 22.174 7.82666Z" fill="#FF9811"/>
</g>
<defs>
<clipPath id="clip0_917_54472">
<rect width="24" height="24" fill="white"/>
</clipPath>
</defs>
</svg>
