<svg width="24" height="24" viewBox="0 0 24 24" fill="none" xmlns="http://www.w3.org/2000/svg">
<g clip-path="url(#clip0_917_54478)">
<path d="M12 24C18.6274 24 24 18.6274 24 12C24 5.37258 18.6274 0 12 0C5.37258 0 0 5.37258 0 12C0 18.6274 5.37258 24 12 24Z" fill="#F0F0F0"/>
<path d="M22.8522 6.87252C22.2426 5.58467 21.4105 4.42297 20.4055 3.43649L12.0008 2.60919L3.5961 3.43654C3.56929 3.46283 3.54313 3.48974 3.5166 3.51632L6.87285 6.87256L12.0008 7.02917L22.8522 6.87252Z" fill="#FFDA44"/>
<path d="M3.51611 20.4854C3.56027 20.5295 3.60433 20.5737 3.64914 20.6172L12.0004 21.3924L20.3516 20.6172C21.367 19.6329 22.2093 18.4711 22.8275 17.1812L7.30474 16.6967C5.96913 18.0324 4.42863 19.5728 3.51611 20.4854Z" fill="#FFDA44"/>
<path d="M23.8807 10.3082L9.91309 9.91315L12.0001 12.0001C11.3819 12.6183 10.4591 13.541 9.91309 14.0871L23.8734 13.7442C23.9564 13.1748 24.0001 12.5926 24.0001 12.0001C24.0001 11.4257 23.9588 10.8611 23.8807 10.3082Z" fill="black"/>
<path d="M11.9999 0.000671387C8.72672 0.000671387 5.76018 1.31177 3.59521 3.4367H20.4046C18.2396 1.31177 15.2731 0.000671387 11.9999 0.000671387Z" fill="#6DA544"/>
<path d="M10.3076 10.3086H23.8802C23.709 9.09548 23.3567 7.94076 22.851 6.87253H6.87158L10.3076 10.3086Z" fill="#D80027"/>
<path d="M6.81934 17.1815H22.8266C23.3382 16.114 23.6961 14.9592 23.8729 13.7455H10.2554C8.92473 15.0761 7.79701 16.2038 6.81934 17.1815Z" fill="#D80027"/>
<path d="M12.0001 24.0005C15.2465 24.0005 18.1911 22.7109 20.3513 20.6166H3.64893C5.80911 22.7109 8.7538 24.0005 12.0001 24.0005Z" fill="#6DA544"/>
<path d="M4.28504 2.80991C4.01827 3.03406 3.76088 3.26905 3.51465 3.51519L12 12.0005L3.51465 20.4858C3.76084 20.732 4.01827 20.9669 4.28504 21.1911L13.4756 12.0005L4.28504 2.80991Z" fill="black"/>
<path d="M4.82467 8.86911L5.60163 11.2605H8.11624L6.08195 12.7385L6.85895 15.13L4.82467 13.652L2.79034 15.13L3.56744 12.7385L1.5332 11.2605H4.04767L4.82467 8.86911Z" fill="#D80027"/>
<path d="M6.96233 12.1947L4.93743 11.4773C4.93743 11.4773 4.7878 10.0737 4.77875 10.0262C4.71004 9.66415 4.39189 9.39035 4.00986 9.39035C3.57768 9.39035 3.22724 9.74074 3.22724 10.173C3.22724 10.2446 3.23769 10.3137 3.25574 10.3797L2.68799 10.9512C2.68799 10.9512 3.36233 10.9512 3.69749 10.9512C3.69749 11.999 2.91561 11.999 2.91561 13.0425L3.34935 14.086H5.95804L6.39285 13.0425H6.39266C6.43621 12.9424 6.46264 12.8391 6.47357 12.736C6.84838 12.5844 6.96233 12.1947 6.96233 12.1947Z" fill="#FFDA44"/>
</g>
<defs>
<clipPath id="clip0_917_54478">
<rect width="24" height="24" fill="white"/>
</clipPath>
</defs>
</svg>
