<?xml version="1.0" standalone="no"?>
<!DOCTYPE svg PUBLIC "-//W3C//DTD SVG 20010904//EN"
 "http://www.w3.org/TR/2001/REC-SVG-20010904/DTD/svg10.dtd">
<svg version="1.0" xmlns="http://www.w3.org/2000/svg"
 width="300.000000pt" height="300.000000pt" viewBox="0 0 300.000000 300.000000"
 preserveAspectRatio="xMidYMid meet">
<metadata>
Created by potrace 1.14, written by Peter Selinger 2001-2017
</metadata>
<g transform="translate(0.000000,300.000000) scale(0.100000,-0.100000)"
fill="#000000" stroke="none">
<path d="M1434 2972 c-17 -15 -42 -36 -55 -47 -13 -11 -67 -56 -119 -101 -52
-44 -106 -89 -119 -100 -13 -10 -28 -24 -35 -29 -16 -15 -704 -595 -816 -688
-52 -44 -102 -86 -110 -93 -13 -12 -15 -76 -15 -435 l-1 -421 146 -115 c80
-63 157 -124 172 -136 216 -175 1012 -802 1018 -802 6 0 241 180 370 285 10 8
45 36 77 61 32 25 135 106 228 179 287 226 357 281 436 344 42 34 110 87 151
118 l74 58 -1 425 0 425 -90 73 c-50 40 -193 156 -320 257 -126 102 -235 189
-241 195 -6 5 -26 21 -44 35 -18 14 -38 30 -44 35 -18 17 -610 491 -621 497
-6 3 -24 -6 -41 -20z"/>
</g>
</svg>
