<svg width="196" height="52" viewBox="0 0 196 52" fill="none" xmlns="http://www.w3.org/2000/svg">
<path fill-rule="evenodd" clip-rule="evenodd" d="M0.14917 19.6851L21.3401 1.81543L43.5523 19.6851V19.8128L21.8507 36.9166L0.14917 19.8128V19.6851Z" fill="#141416"/>
<path fill-rule="evenodd" clip-rule="evenodd" d="M21.966 36.9132H22.0944C22.0944 36.9132 22.1359 40.1212 22.0944 41.6579C22.0528 43.1945 21.966 41.6579 21.966 41.6579L0.14917 24.4746V19.73L21.966 36.9132Z" fill="#40C4FF"/>
<path fill-rule="evenodd" clip-rule="evenodd" d="M21.966 41.5294H22.0944V46.1458L21.966 46.2741L0.14917 29.0908V24.3462L21.966 41.5294Z" fill="#3DC4FF"/>
<path fill-rule="evenodd" clip-rule="evenodd" d="M21.966 41.5294H22.0944V46.1458L21.966 46.2741L0.14917 29.0908V24.3462L21.966 41.5294Z" fill="white" fill-opacity="0.25"/>
<path fill-rule="evenodd" clip-rule="evenodd" d="M21.966 46.1461L22.0944 46.0179V50.5061L21.966 50.6343L0.14917 33.4511V28.9629L21.966 46.1461Z" fill="#3DC4FF"/>
<path fill-rule="evenodd" clip-rule="evenodd" d="M21.966 46.1461L22.0944 46.0179V50.5061L21.966 50.6343L0.14917 33.4511V28.9629L21.966 46.1461Z" fill="white" fill-opacity="0.5"/>
<path fill-rule="evenodd" clip-rule="evenodd" d="M21.8053 36.9132V41.6579L43.5523 24.4746L43.5523 19.73L21.8053 36.9132Z" fill="#E040FB"/>
<path fill-rule="evenodd" clip-rule="evenodd" d="M21.8053 41.5294V46.2741L43.5523 29.0908V24.3462L21.8053 41.5294Z" fill="#E040FB"/>
<path fill-rule="evenodd" clip-rule="evenodd" d="M21.8053 41.5294V46.2741L43.5523 29.0908V24.3462L21.8053 41.5294Z" fill="white" fill-opacity="0.25"/>
<path fill-rule="evenodd" clip-rule="evenodd" d="M21.8053 46.1461V50.6343L43.5523 33.5793L43.5523 28.9629L21.8053 46.1461Z" fill="#E040FB"/>
<path fill-rule="evenodd" clip-rule="evenodd" d="M21.8053 46.1461V50.6343L43.5523 33.5793L43.5523 28.9629L21.8053 46.1461Z" fill="white" fill-opacity="0.5"/>
<path d="M14.7082 13.2051C14.7082 13.2051 24.9611 13.5244 27.6869 15.8115C30.4126 18.0987 30.799 22.1258 28.5498 24.8062C26.3006 27.4867 22.2676 27.8055 19.5419 25.5184C16.8161 23.2312 14.7082 13.2051 14.7082 13.2051Z" fill="white"/>
<path d="M55.5522 13.9453L62.383 32.8288H65.3896L72.2204 13.9453H68.8446L63.8863 28.7145L58.9544 13.9453H55.5522Z" fill="black"/>
<path d="M77.8099 33.1453C79.9462 33.1453 81.5286 32.0376 82.399 29.9014V32.8288H84.9572V19.1673H82.1088V21.6464C81.2649 19.8003 79.7616 18.8508 77.8099 18.8508C74.144 18.8508 71.9022 21.7255 71.9022 25.9981C71.9022 30.2442 74.144 33.1453 77.8099 33.1453ZM82.1352 25.9981C82.1352 28.5827 80.7902 30.5343 78.4429 30.5343C76.122 30.5343 74.7506 28.5827 74.7506 25.9981C74.7506 23.3871 76.122 21.4618 78.4429 21.4618C80.7902 21.4618 82.1352 23.3871 82.1352 25.9981Z" fill="black"/>
<path d="M96.2261 18.8508C94.0899 18.8508 92.5075 19.9585 91.6635 22.0948V19.1673H89.1053V37.9453H91.9272V30.3497C92.7712 32.1959 94.2745 33.1453 96.2261 33.1453C99.8921 33.1453 102.134 30.2706 102.134 25.9981C102.134 21.7519 99.8921 18.8508 96.2261 18.8508ZM91.9009 25.9981C91.9009 23.4134 93.2723 21.4618 95.5932 21.4618C97.9141 21.4618 99.2855 23.4134 99.2855 25.9981C99.2855 28.609 97.9141 30.5343 95.5932 30.5343C93.2723 30.5343 91.9009 28.609 91.9009 25.9981Z" fill="black"/>
<path d="M110.845 33.1453C114.774 33.1453 117.464 30.2442 117.464 25.9981C117.464 21.7519 114.774 18.8508 110.845 18.8508C106.941 18.8508 104.251 21.7519 104.251 25.9981C104.251 30.2442 106.941 33.1453 110.845 33.1453ZM107.152 25.9981C107.152 23.4398 108.497 21.5409 110.845 21.5409C113.218 21.5409 114.563 23.4398 114.563 25.9981C114.563 28.5563 113.218 30.4552 110.845 30.4552C108.497 30.4552 107.152 28.5563 107.152 25.9981Z" fill="black"/>
<path d="M120.604 32.8288H123.426V24.0728C123.426 22.7541 124.349 21.9629 125.562 21.9629H126.644L127.25 19.1937C126.881 19.0354 126.486 18.9563 126.037 18.9563C124.719 18.9563 123.743 19.6156 123.162 20.5915V19.1673H120.604V32.8288Z" fill="black"/>
<path d="M143.543 32.8288C148.818 32.8288 152.22 29.0047 152.22 23.3871C152.22 17.7695 148.818 13.9453 143.543 13.9453H136.66V32.8288H143.543ZM143.359 30.0332H139.746V16.7409H143.359C146.893 16.7409 148.976 19.642 148.976 23.3871C148.976 27.1321 146.893 30.0332 143.359 30.0332Z" fill="black"/>
<path d="M160.681 33.1453C164.611 33.1453 167.301 30.2442 167.301 25.9981C167.301 21.7519 164.611 18.8508 160.681 18.8508C156.778 18.8508 154.088 21.7519 154.088 25.9981C154.088 30.2442 156.778 33.1453 160.681 33.1453ZM156.989 25.9981C156.989 23.4398 158.334 21.5409 160.681 21.5409C163.055 21.5409 164.4 23.4398 164.4 25.9981C164.4 28.5563 163.055 30.4552 160.681 30.4552C158.334 30.4552 156.989 28.5563 156.989 25.9981Z" fill="black"/>
<path d="M169.413 25.9981C169.413 30.2178 172.103 33.1453 176.006 33.1453C178.854 33.1453 181.544 31.7211 182.125 28.1607H179.25C178.775 29.7167 177.483 30.4552 176.006 30.4552C173.659 30.4552 172.314 28.5563 172.314 25.9981C172.314 23.4398 173.659 21.5409 176.006 21.5409C177.536 21.5409 178.749 22.3058 179.197 23.8354H182.072C181.518 20.486 179.118 18.8508 176.006 18.8508C172.103 18.8508 169.413 21.7519 169.413 25.9981Z" fill="black"/>
<path d="M189.767 33.1453C193.275 33.1453 195.464 31.6156 195.464 28.8464C195.464 26.1299 193.855 25.2332 190.11 24.3893C187.921 23.9145 187.341 23.5189 187.341 22.6486C187.341 21.7519 188.343 21.1717 189.767 21.1717C191.218 21.1717 192.167 21.8047 192.325 22.9651H195.042C194.884 20.3014 192.747 18.8508 189.767 18.8508C186.602 18.8508 184.44 20.4596 184.44 22.8332C184.44 25.1805 185.864 26.1827 189.24 26.8948C191.772 27.4486 192.589 28.0025 192.589 29.0574C192.589 30.1651 191.429 30.8244 189.767 30.8244C188.079 30.8244 186.84 29.9805 186.787 28.9519H184.071C184.176 31.6948 186.629 33.1453 189.767 33.1453Z" fill="black"/>
</svg>
