<svg width="130" height="51" viewBox="0 0 130 51" fill="none" xmlns="http://www.w3.org/2000/svg">
<path fill-rule="evenodd" clip-rule="evenodd" d="M0 18.5518L21.1909 0.317383L43.4031 18.5518V18.682L21.7016 36.1349L0 18.682V18.5518Z" fill="#141416"/>
<path fill-rule="evenodd" clip-rule="evenodd" d="M21.8169 36.1316H21.9452C21.9452 36.1316 21.9868 39.405 21.9452 40.973C21.9036 42.5411 21.8169 40.973 21.8169 40.973L0 23.4391V18.5977L21.8169 36.1316Z" fill="#40C4FF"/>
<path fill-rule="evenodd" clip-rule="evenodd" d="M21.8169 40.842H21.9452V45.5526L21.8169 45.6835L0 28.1496V23.3081L21.8169 40.842Z" fill="#3DC4FF"/>
<path fill-rule="evenodd" clip-rule="evenodd" d="M21.8169 40.842H21.9452V45.5526L21.8169 45.6835L0 28.1496V23.3081L21.8169 40.842Z" fill="white" fill-opacity="0.25"/>
<path fill-rule="evenodd" clip-rule="evenodd" d="M21.8169 45.553L21.9452 45.4221V50.0019L21.8169 50.1327L0 32.5988V28.019L21.8169 45.553Z" fill="#3DC4FF"/>
<path fill-rule="evenodd" clip-rule="evenodd" d="M21.8169 45.553L21.9452 45.4221V50.0019L21.8169 50.1327L0 32.5988V28.019L21.8169 45.553Z" fill="white" fill-opacity="0.5"/>
<path fill-rule="evenodd" clip-rule="evenodd" d="M21.6561 36.1316V40.973L43.4031 23.4391L43.4031 18.5977L21.6561 36.1316Z" fill="#E040FB"/>
<path fill-rule="evenodd" clip-rule="evenodd" d="M21.6561 40.842V45.6835L43.4031 28.1496V23.3081L21.6561 40.842Z" fill="#E040FB"/>
<path fill-rule="evenodd" clip-rule="evenodd" d="M21.6561 40.842V45.6835L43.4031 28.1496V23.3081L21.6561 40.842Z" fill="white" fill-opacity="0.25"/>
<path fill-rule="evenodd" clip-rule="evenodd" d="M21.6561 45.553V50.1327L43.4031 32.7297L43.4031 28.019L21.6561 45.553Z" fill="#E040FB"/>
<path fill-rule="evenodd" clip-rule="evenodd" d="M21.6561 45.553V50.1327L43.4031 32.7297L43.4031 28.019L21.6561 45.553Z" fill="white" fill-opacity="0.5"/>
<path d="M14.559 11.9396C14.559 11.9396 24.812 12.2654 27.5377 14.5992C30.2635 16.9331 30.6498 21.0423 28.4006 23.7775C26.1514 26.5127 22.1185 26.838 19.3927 24.5042C16.667 22.1703 14.559 11.9396 14.559 11.9396Z" fill="white"/>
<path d="M55.4031 12.6914L62.429 32.5107H65.5214L72.5473 12.6914H69.0751L63.9752 28.1925L58.9025 12.6914H55.4031Z" fill="#141416"/>
<path d="M78.2965 32.8429C80.4938 32.8429 82.1214 31.6803 83.0166 29.4381V32.5107H85.6479V18.1722H82.7182V20.7741C81.8502 18.8365 80.3039 17.84 78.2965 17.84C74.5259 17.84 72.2201 20.8572 72.2201 25.3414C72.2201 29.798 74.5259 32.8429 78.2965 32.8429ZM82.7453 25.3414C82.7453 28.0541 81.3619 30.1025 78.9476 30.1025C76.5604 30.1025 75.1498 28.0541 75.1498 25.3414C75.1498 22.601 76.5604 20.5804 78.9476 20.5804C81.3619 20.5804 82.7453 22.601 82.7453 25.3414Z" fill="#141416"/>
<path d="M97.2388 17.84C95.0415 17.84 93.4139 19.0026 92.5458 21.2447V18.1722H89.9145V37.8807H92.8171V29.9087C93.6851 31.8464 95.2314 32.8429 97.2388 32.8429C101.009 32.8429 103.315 29.8257 103.315 25.3414C103.315 20.8849 101.009 17.84 97.2388 17.84ZM92.7899 25.3414C92.7899 22.6287 94.2006 20.5804 96.5877 20.5804C98.9749 20.5804 100.385 22.6287 100.385 25.3414C100.385 28.0818 98.9749 30.1025 96.5877 30.1025C94.2006 30.1025 92.7899 28.0818 92.7899 25.3414Z" fill="#141416"/>
<path d="M112.275 32.8429C116.317 32.8429 119.084 29.798 119.084 25.3414C119.084 20.8849 116.317 17.84 112.275 17.84C108.26 17.84 105.493 20.8849 105.493 25.3414C105.493 29.798 108.26 32.8429 112.275 32.8429ZM108.477 25.3414C108.477 22.6564 109.86 20.6634 112.275 20.6634C114.716 20.6634 116.1 22.6564 116.1 25.3414C116.1 28.0264 114.716 30.0194 112.275 30.0194C109.86 30.0194 108.477 28.0264 108.477 25.3414Z" fill="#141416"/>
<path d="M122.313 32.5107H125.216V23.3207C125.216 21.9367 126.165 21.1063 127.413 21.1063H128.525L129.149 18.1998C128.769 18.0338 128.362 17.9507 127.901 17.9507C126.545 17.9507 125.541 18.6427 124.945 19.6669V18.1722H122.313V32.5107Z" fill="#141416"/>
</svg>
