<svg width="45" height="51" viewBox="0 0 45 51" fill="none" xmlns="http://www.w3.org/2000/svg">
<path fill-rule="evenodd" clip-rule="evenodd" d="M0.873016 18.8687L22.064 0.634277L44.2761 18.8687V18.9989L22.5746 36.4518L0.873016 18.9989V18.8687Z" fill="white"/>
<path fill-rule="evenodd" clip-rule="evenodd" d="M22.6899 36.4485H22.8182C22.8182 36.4485 22.8598 39.7219 22.8182 41.2899C22.7766 42.8579 22.6899 41.2899 22.6899 41.2899L0.873016 23.756V18.9146L22.6899 36.4485Z" fill="#40C4FF"/>
<path fill-rule="evenodd" clip-rule="evenodd" d="M22.6899 41.1589H22.8182V45.8695L22.6899 46.0004L0.873016 28.4665V23.625L22.6899 41.1589Z" fill="#3DC4FF"/>
<path fill-rule="evenodd" clip-rule="evenodd" d="M22.6899 41.1589H22.8182V45.8695L22.6899 46.0004L0.873016 28.4665V23.625L22.6899 41.1589Z" fill="white" fill-opacity="0.25"/>
<path fill-rule="evenodd" clip-rule="evenodd" d="M22.6899 45.8699L22.8182 45.739V50.3188L22.6899 50.4496L0.873016 32.9157V28.3359L22.6899 45.8699Z" fill="#3DC4FF"/>
<path fill-rule="evenodd" clip-rule="evenodd" d="M22.6899 45.8699L22.8182 45.739V50.3188L22.6899 50.4496L0.873016 32.9157V28.3359L22.6899 45.8699Z" fill="white" fill-opacity="0.5"/>
<path fill-rule="evenodd" clip-rule="evenodd" d="M22.5291 36.4485V41.2899L44.2761 23.756L44.2761 18.9146L22.5291 36.4485Z" fill="#E040FB"/>
<path fill-rule="evenodd" clip-rule="evenodd" d="M22.5291 41.1589V46.0004L44.2761 28.4665V23.625L22.5291 41.1589Z" fill="#E040FB"/>
<path fill-rule="evenodd" clip-rule="evenodd" d="M22.5291 41.1589V46.0004L44.2761 28.4665V23.625L22.5291 41.1589Z" fill="white" fill-opacity="0.25"/>
<path fill-rule="evenodd" clip-rule="evenodd" d="M22.5291 45.8699V50.4496L44.2761 33.0465L44.2761 28.3359L22.5291 45.8699Z" fill="#E040FB"/>
<path fill-rule="evenodd" clip-rule="evenodd" d="M22.5291 45.8699V50.4496L44.2761 33.0465L44.2761 28.3359L22.5291 45.8699Z" fill="white" fill-opacity="0.5"/>
<path d="M15.432 12.2565C15.432 12.2565 25.685 12.5823 28.4107 14.9161C31.1365 17.25 31.5228 21.3592 29.2736 24.0944C27.0245 26.8296 22.9915 27.1549 20.2657 24.8211C17.54 22.4872 15.432 12.2565 15.432 12.2565Z" fill="#1C1C1F"/>
</svg>
