<svg width="45" height="51" viewBox="0 0 45 51" fill="none" xmlns="http://www.w3.org/2000/svg">
<path fill-rule="evenodd" clip-rule="evenodd" d="M0.873016 19.1856L22.064 0.951172L44.2761 19.1856V19.3158L22.5746 36.7687L0.873016 19.3158V19.1856Z" fill="#141416"/>
<path fill-rule="evenodd" clip-rule="evenodd" d="M22.6899 36.7654H22.8182C22.8182 36.7654 22.8598 40.0388 22.8182 41.6068C22.7766 43.1748 22.6899 41.6068 22.6899 41.6068L0.873016 24.0729V19.2314L22.6899 36.7654Z" fill="#40C4FF"/>
<path fill-rule="evenodd" clip-rule="evenodd" d="M22.6899 41.4758H22.8182V46.1864L22.6899 46.3173L0.873016 28.7834V23.9419L22.6899 41.4758Z" fill="#3DC4FF"/>
<path fill-rule="evenodd" clip-rule="evenodd" d="M22.6899 41.4758H22.8182V46.1864L22.6899 46.3173L0.873016 28.7834V23.9419L22.6899 41.4758Z" fill="white" fill-opacity="0.25"/>
<path fill-rule="evenodd" clip-rule="evenodd" d="M22.6899 46.1868L22.8182 46.0559V50.6357L22.6899 50.7665L0.873016 33.2326V28.6528L22.6899 46.1868Z" fill="#3DC4FF"/>
<path fill-rule="evenodd" clip-rule="evenodd" d="M22.6899 46.1868L22.8182 46.0559V50.6357L22.6899 50.7665L0.873016 33.2326V28.6528L22.6899 46.1868Z" fill="white" fill-opacity="0.5"/>
<path fill-rule="evenodd" clip-rule="evenodd" d="M22.5291 36.7654V41.6068L44.2761 24.0729L44.2761 19.2314L22.5291 36.7654Z" fill="#E040FB"/>
<path fill-rule="evenodd" clip-rule="evenodd" d="M22.5291 41.4758V46.3173L44.2761 28.7834V23.9419L22.5291 41.4758Z" fill="#E040FB"/>
<path fill-rule="evenodd" clip-rule="evenodd" d="M22.5291 41.4758V46.3173L44.2761 28.7834V23.9419L22.5291 41.4758Z" fill="white" fill-opacity="0.25"/>
<path fill-rule="evenodd" clip-rule="evenodd" d="M22.5291 46.1868V50.7665L44.2761 33.3634L44.2761 28.6528L22.5291 46.1868Z" fill="#E040FB"/>
<path fill-rule="evenodd" clip-rule="evenodd" d="M22.5291 46.1868V50.7665L44.2761 33.3634L44.2761 28.6528L22.5291 46.1868Z" fill="white" fill-opacity="0.5"/>
<path d="M15.432 12.5734C15.432 12.5734 25.685 12.8992 28.4107 15.233C31.1365 17.5669 31.5228 21.6761 29.2736 24.4113C27.0245 27.1465 22.9915 27.4718 20.2657 25.138C17.54 22.8041 15.432 12.5734 15.432 12.5734Z" fill="white"/>
</svg>
