<svg width="196" height="50" viewBox="0 0 196 50" fill="none" xmlns="http://www.w3.org/2000/svg">
<path fill-rule="evenodd" clip-rule="evenodd" d="M0.14917 18.2344L21.3401 0L43.5523 18.2344V18.3646L21.8507 35.8175L0.14917 18.3646V18.2344Z" fill="white"/>
<path fill-rule="evenodd" clip-rule="evenodd" d="M21.966 35.8142H22.0944C22.0944 35.8142 22.1359 39.0876 22.0944 40.6557C22.0528 42.2237 21.966 40.6557 21.966 40.6557L0.14917 23.1217V18.2803L21.966 35.8142Z" fill="#40C4FF"/>
<path fill-rule="evenodd" clip-rule="evenodd" d="M21.966 40.5246H22.0944V45.2353L21.966 45.3661L0.14917 27.8322V22.9907L21.966 40.5246Z" fill="#3DC4FF"/>
<path fill-rule="evenodd" clip-rule="evenodd" d="M21.966 40.5246H22.0944V45.2353L21.966 45.3661L0.14917 27.8322V22.9907L21.966 40.5246Z" fill="white" fill-opacity="0.25"/>
<path fill-rule="evenodd" clip-rule="evenodd" d="M21.966 45.2356L22.0944 45.1047V49.6845L21.966 49.8153L0.14917 32.2814V27.7017L21.966 45.2356Z" fill="#3DC4FF"/>
<path fill-rule="evenodd" clip-rule="evenodd" d="M21.966 45.2356L22.0944 45.1047V49.6845L21.966 49.8153L0.14917 32.2814V27.7017L21.966 45.2356Z" fill="white" fill-opacity="0.5"/>
<path fill-rule="evenodd" clip-rule="evenodd" d="M21.8053 35.8142V40.6557L43.5523 23.1217L43.5523 18.2803L21.8053 35.8142Z" fill="#E040FB"/>
<path fill-rule="evenodd" clip-rule="evenodd" d="M21.8053 40.5246V45.3661L43.5523 27.8322V22.9907L21.8053 40.5246Z" fill="#E040FB"/>
<path fill-rule="evenodd" clip-rule="evenodd" d="M21.8053 40.5246V45.3661L43.5523 27.8322V22.9907L21.8053 40.5246Z" fill="white" fill-opacity="0.25"/>
<path fill-rule="evenodd" clip-rule="evenodd" d="M21.8053 45.2356V49.8153L43.5523 32.4123L43.5523 27.7017L21.8053 45.2356Z" fill="#E040FB"/>
<path fill-rule="evenodd" clip-rule="evenodd" d="M21.8053 45.2356V49.8153L43.5523 32.4123L43.5523 27.7017L21.8053 45.2356Z" fill="white" fill-opacity="0.5"/>
<path d="M14.7082 11.6222C14.7082 11.6222 24.9611 11.948 27.6869 14.2818C30.4126 16.6157 30.799 20.725 28.5498 23.4601C26.3006 26.1953 22.2676 26.5206 19.5419 24.1868C16.8161 21.8529 14.7082 11.6222 14.7082 11.6222Z" fill="#1C1C1F"/>
<path d="M55.5522 12.7676L62.383 31.6511H65.3896L72.2204 12.7676H68.8446L63.8863 27.5368L58.9544 12.7676H55.5522Z" fill="white"/>
<path d="M77.8099 31.9676C79.9462 31.9676 81.5286 30.8599 82.399 28.7236V31.6511H84.9572V17.9896H82.1088V20.4687C81.2649 18.6225 79.7616 17.6731 77.8099 17.6731C74.144 17.6731 71.9022 20.5478 71.9022 24.8203C71.9022 29.0665 74.144 31.9676 77.8099 31.9676ZM82.1352 24.8203C82.1352 27.4049 80.7902 29.3566 78.4429 29.3566C76.122 29.3566 74.7506 27.4049 74.7506 24.8203C74.7506 22.2093 76.122 20.2841 78.4429 20.2841C80.7902 20.2841 82.1352 22.2093 82.1352 24.8203Z" fill="white"/>
<path d="M96.2261 17.6731C94.0899 17.6731 92.5075 18.7808 91.6635 20.917V17.9896H89.1053V36.7676H91.9272V29.172C92.7712 31.0181 94.2745 31.9676 96.2261 31.9676C99.8921 31.9676 102.134 29.0929 102.134 24.8203C102.134 20.5742 99.8921 17.6731 96.2261 17.6731ZM91.9009 24.8203C91.9009 22.2357 93.2723 20.2841 95.5932 20.2841C97.9141 20.2841 99.2855 22.2357 99.2855 24.8203C99.2855 27.4313 97.9141 29.3566 95.5932 29.3566C93.2723 29.3566 91.9009 27.4313 91.9009 24.8203Z" fill="white"/>
<path d="M110.845 31.9676C114.774 31.9676 117.464 29.0665 117.464 24.8203C117.464 20.5742 114.774 17.6731 110.845 17.6731C106.941 17.6731 104.251 20.5742 104.251 24.8203C104.251 29.0665 106.941 31.9676 110.845 31.9676ZM107.152 24.8203C107.152 22.2621 108.497 20.3632 110.845 20.3632C113.218 20.3632 114.563 22.2621 114.563 24.8203C114.563 27.3786 113.218 29.2775 110.845 29.2775C108.497 29.2775 107.152 27.3786 107.152 24.8203Z" fill="white"/>
<path d="M120.604 31.6511H123.426V22.8951C123.426 21.5764 124.349 20.7852 125.562 20.7852H126.644L127.25 18.0159C126.881 17.8577 126.486 17.7786 126.037 17.7786C124.719 17.7786 123.743 18.4379 123.162 19.4137V17.9896H120.604V31.6511Z" fill="white"/>
<path d="M143.543 31.6511C148.818 31.6511 152.22 27.8269 152.22 22.2093C152.22 16.5918 148.818 12.7676 143.543 12.7676H136.66V31.6511H143.543ZM143.359 28.8555H139.746V15.5632H143.359C146.893 15.5632 148.976 18.4643 148.976 22.2093C148.976 25.9544 146.893 28.8555 143.359 28.8555Z" fill="white"/>
<path d="M160.681 31.9676C164.611 31.9676 167.301 29.0665 167.301 24.8203C167.301 20.5742 164.611 17.6731 160.681 17.6731C156.778 17.6731 154.088 20.5742 154.088 24.8203C154.088 29.0665 156.778 31.9676 160.681 31.9676ZM156.989 24.8203C156.989 22.2621 158.334 20.3632 160.681 20.3632C163.055 20.3632 164.4 22.2621 164.4 24.8203C164.4 27.3786 163.055 29.2775 160.681 29.2775C158.334 29.2775 156.989 27.3786 156.989 24.8203Z" fill="white"/>
<path d="M169.413 24.8203C169.413 29.0401 172.103 31.9676 176.006 31.9676C178.854 31.9676 181.544 30.5434 182.125 26.983H179.25C178.775 28.539 177.483 29.2775 176.006 29.2775C173.659 29.2775 172.314 27.3786 172.314 24.8203C172.314 22.2621 173.659 20.3632 176.006 20.3632C177.536 20.3632 178.749 21.128 179.197 22.6577H182.072C181.518 19.3082 179.118 17.6731 176.006 17.6731C172.103 17.6731 169.413 20.5742 169.413 24.8203Z" fill="white"/>
<path d="M189.767 31.9676C193.275 31.9676 195.464 30.4379 195.464 27.6687C195.464 24.9522 193.855 24.0555 190.11 23.2115C187.921 22.7368 187.341 22.3412 187.341 21.4709C187.341 20.5742 188.343 19.994 189.767 19.994C191.218 19.994 192.167 20.6269 192.325 21.7874H195.042C194.884 19.1236 192.747 17.6731 189.767 17.6731C186.602 17.6731 184.44 19.2819 184.44 21.6555C184.44 24.0027 185.864 25.0049 189.24 25.717C191.772 26.2709 192.589 26.8247 192.589 27.8797C192.589 28.9874 191.429 29.6467 189.767 29.6467C188.079 29.6467 186.84 28.8027 186.787 27.7742H184.071C184.176 30.517 186.629 31.9676 189.767 31.9676Z" fill="white"/>
</svg>
