<svg width="204" height="36" viewBox="0 0 204 36" fill="none" xmlns="http://www.w3.org/2000/svg">
<path d="M14.61 17.4795C14.2286 17.4071 13.8735 17.234 13.5814 16.9782C13.2893 16.7225 13.0708 16.3933 12.9486 16.0248C12.8264 15.6562 12.8049 15.2617 12.8863 14.8821C12.9678 14.5025 13.1491 14.1515 13.4117 13.8655L21.3624 5.0237C21.5548 4.80903 21.7879 4.63468 22.0482 4.51077C22.3085 4.38685 22.5908 4.31583 22.8788 4.30183C23.1667 4.28782 23.4546 4.33111 23.7257 4.42918C23.9968 4.52725 24.2457 4.67816 24.4581 4.87315C24.6704 5.06814 24.8419 5.30333 24.9627 5.56511C25.0835 5.82688 25.1511 6.11002 25.1616 6.39811C25.1722 6.68621 25.1254 6.97353 25.0241 7.24342C24.9227 7.51331 24.7689 7.76041 24.5713 7.97038L16.6212 16.8122C16.3706 17.0855 16.0543 17.2903 15.7023 17.4071C15.3503 17.5239 14.9744 17.5488 14.61 17.4795Z" fill="#C1C2D6"/>
<path d="M24.612 26.5074C24.2288 26.4491 23.8681 26.2896 23.5671 26.0455C23.2661 25.8013 23.0356 25.4813 22.8995 25.1184C22.7634 24.7554 22.7266 24.3628 22.7928 23.9809C22.859 23.599 23.0258 23.2417 23.2762 22.9458L34.5992 9.56992C34.7836 9.35023 35.0096 9.16912 35.2642 9.03699C35.5188 8.90486 35.797 8.82432 36.0828 8.79997C36.3686 8.77563 36.6564 8.80797 36.9297 8.89514C37.2029 8.9823 37.4563 9.12258 37.6752 9.30792C37.8942 9.49325 38.0743 9.72 38.2054 9.97515C38.3365 10.2303 38.4159 10.5088 38.439 10.7947C38.4622 11.0806 38.4286 11.3683 38.3403 11.6412C38.252 11.9141 38.1107 12.1669 37.9245 12.385L26.6009 25.7609C26.3607 26.0448 26.0518 26.2625 25.7037 26.3932C25.3555 26.5239 24.9797 26.5632 24.612 26.5074Z" fill="#C1C2D6"/>
<path d="M2.40214 34.2143C1.94306 34.1449 1.50816 33.9634 1.13595 33.6859C0.763737 33.4084 0.465689 33.0433 0.268201 32.6231C0.0707138 32.2029 -0.0201215 31.7405 0.00372915 31.2769C0.0275798 30.8132 0.16538 30.3625 0.404939 29.9648L5.65331 21.2584C1.62261 11.6284 12.4515 3.32086 12.9263 2.96339C13.3881 2.62544 13.9644 2.48279 14.5305 2.56629C15.0967 2.64978 15.6072 2.9527 15.9519 3.40958C16.2965 3.86646 16.4475 4.4406 16.3722 5.00792C16.297 5.57523 16.0015 6.09014 15.5497 6.44137C15.4604 6.50983 6.56648 13.3661 9.89653 20.0696C10.1138 20.5015 10.218 20.9815 10.1995 21.4646C10.181 21.9478 10.0403 22.4183 9.79057 22.8324L5.97923 29.1552L10.9061 28.0679C11.6243 27.9076 12.3768 28.0359 13.0013 28.4251C16.7757 30.7673 21.9476 32.5984 24.385 31.0845C28.8416 28.3165 29.4911 26.6711 29.5262 26.6166C29.8412 26.1346 30.3343 25.7969 30.8975 25.6773C31.4608 25.5578 32.0485 25.6661 32.5322 25.9787C33.0158 26.2912 33.356 26.7826 33.4784 27.3452C33.6009 27.9079 33.4955 28.4962 33.1854 28.9814C33.0205 29.2365 31.9841 31.4941 26.6834 34.7855C21.6157 37.9325 14.1451 34.1667 11.2466 32.4552L3.43199 34.1789C3.09379 34.2538 2.74468 34.2658 2.40214 34.2143Z" fill="#C1C2D6"/>
<path d="M19.838 22.1645C19.4075 22.1001 19.0039 21.9159 18.6733 21.6329C18.4425 21.4364 18.253 21.1962 18.1156 20.926C17.9782 20.6559 17.8956 20.3612 17.8728 20.059C17.8499 19.7568 17.8871 19.4531 17.9822 19.1654C18.0774 18.8776 18.2286 18.6116 18.4271 18.3826L23.8779 12.1163C24.2811 11.6528 24.8509 11.3671 25.4635 11.3214C26.0761 11.2756 26.682 11.4735 27.1496 11.8719C27.3803 12.0684 27.5699 12.3087 27.7072 12.5788C27.8446 12.8489 27.9271 13.1436 27.95 13.4458C27.9729 13.748 27.9357 14.0517 27.8406 14.3394C27.7455 14.6272 27.5943 14.8932 27.3958 15.1222L21.9447 21.3885C21.6875 21.6851 21.3595 21.9117 20.9911 22.0474C20.6228 22.1831 20.2261 22.2233 19.838 22.1645Z" fill="#C1C2D6"/>
<path d="M29.1741 11.5168C28.7685 11.4424 28.3904 11.2606 28.0791 10.9902C27.7678 10.7199 27.5348 10.3709 27.4044 9.97976C27.274 9.58862 27.2509 9.16966 27.3377 8.76658C27.4244 8.3635 27.6177 7.99109 27.8975 7.68821L30.0301 5.23146C30.4492 4.78229 31.0286 4.51661 31.6424 4.49215C32.2562 4.46768 32.8549 4.6864 33.3084 5.10079C33.5321 5.30526 33.713 5.55201 33.8408 5.8268C33.9686 6.10159 34.0407 6.39898 34.0529 6.70178C34.0652 7.00459 34.0173 7.30682 33.9121 7.59103C33.8069 7.87523 33.6464 8.13577 33.4399 8.35762L31.307 10.8144C31.0396 11.1019 30.7038 11.317 30.3309 11.4398C29.9579 11.5626 29.56 11.5891 29.1741 11.5168Z" fill="#C1C2D6"/>
<path d="M35.5461 4.8255C36.831 4.8255 37.8725 3.79086 37.8725 2.51458C37.8725 1.2383 36.831 0.203674 35.5461 0.203674C34.2613 0.203674 33.2197 1.2383 33.2197 2.51458C33.2197 3.79086 34.2613 4.8255 35.5461 4.8255Z" fill="#C1C2D6"/>
<path d="M35.2518 25.3296C36.4582 25.3296 37.4362 24.3516 37.4362 23.1452C37.4362 21.9388 36.4582 20.9608 35.2518 20.9608C34.0454 20.9608 33.0674 21.9388 33.0674 23.1452C33.0674 24.3516 34.0454 25.3296 35.2518 25.3296Z" fill="#C1C2D6"/>
<path d="M28.7754 2.34377C28.8198 1.13817 27.8785 0.124823 26.6729 0.0804054C25.4673 0.0359874 24.4539 0.977316 24.4095 2.18292C24.3651 3.38852 25.3064 4.40185 26.512 4.44627C27.7176 4.49069 28.731 3.54937 28.7754 2.34377Z" fill="#C1C2D6"/>
<path d="M44.25 9.65826H51.1381C54.5955 9.65826 55.8507 11.7212 55.8507 14.12C55.8507 15.6582 55.1959 17.3905 53.5627 17.6917C54.956 17.9447 56.118 19.3323 56.118 21.4572C56.118 24.5634 54.7152 26.3642 51.2006 26.3642H44.25V9.65826ZM50.95 16.2767C52.0965 16.2767 52.7061 15.5772 52.7061 14.3834C52.7061 12.8356 51.7602 12.4767 50.95 12.4767H47.4556V16.2767H50.95ZM51.075 23.5458C52.045 23.5458 52.9228 23.0856 52.9228 21.311C52.9228 20.0868 52.4275 18.9695 51.075 18.9695H47.4556V23.5458H51.075Z" fill="#C1C2D6"/>
<path d="M57.8164 9.65826H65.1254C67.733 9.65826 69.6728 10.8786 69.6728 14.867C69.6728 19.0025 67.9405 19.4936 67.0127 19.7856L70.1761 26.3636H66.5803L63.8187 20.0419L61.0116 19.7225V26.3636H57.8164V9.65826ZM64.8111 17.2122C65.9234 17.2122 66.454 16.8848 66.454 14.867C66.454 12.9696 65.8153 12.4993 64.8111 12.4993H61.0226V17.2122H64.8111Z" fill="#C1C2D6"/>
<path d="M77.896 9.54425C81.8443 9.54425 84.5954 10.2973 84.5954 18.1256C84.5954 25.4971 82.0041 26.4558 77.896 26.4558C73.7879 26.4558 71.1758 25.7254 71.1758 18.1256C71.1755 10.2973 74.0617 9.54425 77.896 9.54425ZM77.896 23.5115C80.5775 23.5115 81.4002 22.6287 81.4002 18.1259C81.4002 12.9213 80.4349 12.4885 77.896 12.4885C75.4256 12.4885 74.371 12.8079 74.371 18.1259C74.371 22.6853 75.0428 23.5112 77.896 23.5112V23.5115Z" fill="#C1C2D6"/>
<path d="M86.7437 9.65826H89.8133V16.6416H91.1574L95.3902 9.65826H99.1138L94.0017 18.0248L99.1132 26.363H95.3897L91.1569 19.4591H89.8347V26.363H86.7422L86.7437 9.65826Z" fill="#C1C2D6"/>
<path d="M100.327 13.127C100.327 10.228 102.381 9.6276 103.956 9.65826C103.956 9.65826 109.837 9.82226 111.306 10.0232V12.6648H104.709C103.522 12.6648 103.522 13.3267 103.522 13.9429V16.549L110.268 16.7898V19.4168L103.522 19.632V22.2385C103.533 23.4478 104.275 23.4252 104.937 23.4252H111.307V26.0445C110.014 26.2204 104.185 26.4314 104.185 26.4314C102.696 26.4978 100.328 26.16 100.328 23.0788L100.327 13.127Z" fill="#C1C2D6"/>
<path d="M113.329 9.65826H116.57L123.2 20.4535V9.65826H126.395V26.3642H123.2L116.549 15.6945V26.3642H113.329V9.65826Z" fill="#C1C2D6"/>
<path d="M130.517 9.58472H133.728V16.7746H139.485V9.58472H142.696V26.3748H139.485V19.7344H133.728V26.3748H130.517V9.58472Z" fill="#C1C2D6"/>
<path d="M150.158 9.58472H153.811L159.264 26.3748H155.845L154.652 22.6543H149.153L147.942 26.3748H144.492L150.158 9.58472ZM153.892 19.8088L152.005 13.8166L149.987 19.8088H153.892Z" fill="#C1C2D6"/>
<path d="M160.979 9.58472H164.237L170.899 20.4339V9.58472H174.11V26.3748H170.899L164.214 15.6516V26.3748H160.979V9.58472Z" fill="#C1C2D6"/>
<path d="M176.532 9.58472H183.667C188.5 9.58472 189.492 13.8887 189.492 18.0485C189.492 22.9915 187.766 26.3748 183.667 26.3748H176.532V9.58472ZM183.414 23.5109C185.496 23.5109 186.28 21.3938 186.28 18.0253C186.28 13.533 185.205 12.4171 183.414 12.4171H179.744V23.5106L183.414 23.5109Z" fill="#C1C2D6"/>
<path d="M191.462 13.7821C191.462 10.4562 193.434 9.4847 196.003 9.4469C198.417 9.3966 201.169 9.71894 202.494 10.1112V12.6356C201.026 12.5058 197.719 12.4061 196.886 12.4061C195.482 12.3763 194.673 12.4728 194.673 14.0348V14.8548C194.673 16.1853 195.181 16.4716 196.482 16.4716H199.134C202.424 16.4716 203.103 19.0659 203.103 20.9217V22.0396C203.103 25.8519 200.728 26.5582 198.457 26.5582C195.592 26.5582 193.715 26.3826 191.978 25.8712V23.3469C192.896 23.4386 195.693 23.5993 197.826 23.5993C198.792 23.5993 199.892 23.4398 199.892 22.153V21.2494C199.892 20.2952 199.603 19.6829 198.377 19.6829H195.796C191.748 19.6829 191.461 16.6928 191.461 15.2331L191.462 13.7821Z" fill="#C1C2D6"/>
</svg>
