<svg width="123" height="36" viewBox="0 0 123 36" fill="none" xmlns="http://www.w3.org/2000/svg">
<g clip-path="url(#clip0_707_55252)">
<path fill-rule="evenodd" clip-rule="evenodd" d="M109.42 0.356531C107.617 1.17544 106.842 3.59767 107.806 5.39987C108.128 6.00029 109.143 6.78847 109.752 6.91025L110.291 7.01808V9.06818C110.291 11.0979 110.192 11.3978 109.713 10.8208C108.918 9.86315 106.031 9.11173 103.975 9.32776C101.403 9.59828 99.5915 10.3833 97.8775 11.9702C95.1122 14.5304 93.8874 17.8207 93.8923 22.6771C93.897 27.4033 95.0409 30.7819 97.4537 33.1953C99.3971 35.1392 101.494 36.0043 104.251 36C107.17 35.9955 108.975 35.1183 110.842 32.7975L111.221 32.3262L111.227 33.0512C111.235 33.9931 111.786 34.7498 112.743 35.1324C113.812 35.5604 119.034 35.5692 120.05 35.1449C121.497 34.5403 122.347 33.2175 122.347 31.5721C122.347 30.3268 121.849 29.297 120.78 28.3312L119.905 27.5411V15.3361C119.905 3.34166 119.898 3.11714 119.511 2.31746C119.04 1.34473 118.077 0.506211 117.092 0.210997C116.678 0.0869537 115.067 -0.00240149 113.285 4.92013e-05C110.677 0.00363098 110.076 0.0590541 109.42 0.356531ZM11.586 9.42278C10.0957 9.62788 7.72913 10.4262 6.41895 11.1658C5.08483 11.9189 2.5067 14.497 1.75359 15.8312C0.186086 18.608 -0.394916 22.4921 0.273369 25.7282C1.06871 29.579 3.40045 32.6586 6.81012 34.3618C9.14375 35.5274 10.381 35.8386 13.1112 35.9464C19.724 36.2079 24.7873 32.8791 26.7424 26.985C27.1596 25.7278 27.2225 25.2084 27.2265 22.9947C27.2319 20.0066 26.9682 18.7801 25.8081 16.3967C24.3117 13.3228 21.0104 10.7068 17.5012 9.81451C15.8242 9.38809 13.1329 9.20994 11.586 9.42278ZM46.1956 9.52495C44.7218 9.93403 43.314 10.8402 42.0358 12.2022C41.4277 12.8504 40.8848 13.3805 40.8293 13.3805C40.7739 13.3805 40.7287 13.0538 40.7287 12.6543C40.7287 11.7408 40.0924 10.7573 39.2168 10.3175C38.6624 10.0388 38.0156 9.98776 35.0383 9.98757C31.291 9.98719 30.7838 10.0771 29.9188 10.8947C28.0103 12.699 28.377 15.7456 30.6431 16.9123C30.9542 17.0723 31.2711 17.2976 31.3472 17.4128C31.4234 17.5278 31.4843 20.0397 31.4826 22.9947L31.4796 28.3674L30.6482 28.8717C29.1959 29.7528 28.6339 31.6476 29.3307 33.3152C29.7049 34.2106 30.1015 34.6387 30.9655 35.0797C31.5968 35.402 32.1254 35.4367 36.3913 35.4367C39.9346 35.4367 41.2705 35.373 41.7274 35.182C42.5067 34.8565 43.451 33.7823 43.7474 32.8844C44.2609 31.3282 43.4689 29.3748 42.0257 28.6387L41.2495 28.2426L41.3423 24.7232C41.4463 20.7834 41.6773 19.7585 42.6451 18.9443C43.2619 18.4251 44.0499 18.3326 44.5759 18.7171C45.1311 19.1232 45.2362 20.3519 45.2447 26.5369C45.2525 32.0551 45.2773 32.4832 45.6302 33.1749C46.1064 34.1082 46.6531 34.634 47.6095 35.0781C48.248 35.3747 48.8459 35.429 51.5089 35.4326C53.2839 35.4348 54.8854 35.3494 55.1849 35.2361C56.3946 34.7792 57.4959 33.1709 57.5005 31.8549C57.5018 31.492 57.2991 30.7578 57.0503 30.2233C56.7042 29.4798 56.3899 29.1296 55.7128 28.7327L54.8277 28.2141L54.918 24.7091C55.0153 20.9342 55.177 20.0822 55.9629 19.2027C56.6561 18.4268 57.8183 18.2547 58.3559 18.8481C58.7126 19.2421 58.7365 19.6054 58.8261 25.9832C58.9188 32.592 58.9275 32.7147 59.3549 33.4022C59.9274 34.3228 60.754 35.0012 61.6152 35.2572C62.0471 35.3858 63.5784 35.4416 65.6279 35.4037C68.9282 35.3426 68.9452 35.3402 69.6357 34.8131C71.3953 33.4695 71.5708 30.8954 70.0097 29.3252C69.7168 29.0308 69.2532 28.7109 68.9795 28.6145L68.4818 28.4392L68.3879 22.3709C68.2869 15.8404 68.1662 14.8807 67.2097 12.9931C65.4054 9.4322 61.1388 8.2898 57.1317 10.2947C55.8756 10.923 53.7394 12.8996 53.7339 13.4383C53.7326 13.562 53.5153 13.2815 53.2506 12.8149C51.695 10.0716 48.9081 8.77202 46.1956 9.52495ZM88.2401 10.0085C87.001 10.503 85.6512 12.1789 85.0053 14.0248L84.7469 14.7634L84.646 13.2285C84.532 11.4946 84.2042 10.8645 83.1311 10.3175C82.5763 10.0345 81.9233 9.98775 78.5259 9.98813C74.8844 9.98851 74.5169 10.0192 73.9416 10.3699C72.9647 10.9656 72.5236 12.1664 72.6267 13.9486C72.7338 15.8 73.2175 16.6749 74.2941 16.9649C74.7 17.0742 75.1183 17.3248 75.2237 17.5218C75.3406 17.7401 75.4154 19.9385 75.4154 23.1504V28.4207L74.897 28.5501C73.5664 28.8822 72.4118 30.4369 72.4033 31.9081C72.3984 32.7564 72.8229 33.8466 73.3979 34.4623C74.2869 35.4145 74.4468 35.4367 80.4265 35.4367C85.6457 35.4367 86.062 35.412 86.617 35.0689C87.3908 34.5908 87.989 33.5056 88.1505 32.2872C88.3683 30.6469 87.3167 29.0366 85.6895 28.518C85.1656 28.351 85.1196 28.2635 85.0659 27.3311C84.992 26.0504 85.3315 22.1798 85.5997 21.2459C85.8352 20.426 86.7346 19.3272 87.4902 18.9366C87.7759 18.7888 88.6329 18.5757 89.3945 18.463C91.3977 18.1669 91.9702 17.9444 92.874 17.1114C95.0481 15.1073 94.4871 11.5526 91.7766 10.1584C91.0077 9.76286 89.062 9.68048 88.2401 10.0085ZM15.2386 18.0471C17.1781 18.9362 18.1693 22.3266 17.2759 25.016C16.8795 26.2098 15.6337 27.4356 14.6244 27.6248C12.8407 27.9594 11.2104 27.2508 10.3638 25.7727C9.95248 25.0544 9.90648 24.756 9.90648 22.8062C9.90648 20.3221 10.1898 19.5291 11.448 18.492C12.5824 17.557 13.8455 17.4086 15.2386 18.0471ZM108.495 18.1472C110.79 19.4465 111.214 24.7549 109.186 26.7829C107.281 28.6877 104.594 27.7796 103.773 24.9534C103.284 23.2703 103.459 20.9292 104.173 19.6129C105.122 17.8645 106.92 17.2548 108.495 18.1472Z" fill="#C1C2D6"/>
</g>
<defs>
<clipPath id="clip0_707_55252">
<rect width="122.347" height="36" fill="white"/>
</clipPath>
</defs>
</svg>
