<svg width="180" height="36" viewBox="0 0 180 36" fill="none" xmlns="http://www.w3.org/2000/svg">
<g clip-path="url(#clip0_707_55253)">
<path d="M3.84704 29.9027V35.6964H3.0882V29.9027H0.982422V29.1855H5.97938V29.9027H3.84704Z" fill="#C1C2D6"/>
<path d="M12.2935 33.6248C12.1531 33.6248 12.0051 33.6437 11.8572 33.6437H10.127V35.6964H9.36816V29.1855H11.842C13.4849 29.1855 14.4182 29.9823 14.4182 31.3748C14.4535 31.8406 14.3276 32.3044 14.0617 32.6884C13.7957 33.0725 13.4059 33.3535 12.9575 33.4844L14.4752 35.6964H13.6594L12.2935 33.6248ZM11.8572 32.9266C13.0372 32.9266 13.7049 32.4068 13.7049 31.39C13.7049 30.3731 13.0372 29.9027 11.8572 29.9027H10.127V32.938L11.8572 32.9266Z" fill="#C1C2D6"/>
<path d="M18.9973 34.0497L18.2726 35.6964H17.4834L20.4011 29.1855H21.16L24.0701 35.6964H23.2771L22.5524 34.0497H18.9973ZM20.7654 30.0354L19.3122 33.3364H22.2337L20.7654 30.0354Z" fill="#C1C2D6"/>
<path d="M32.0839 35.6964L28.1758 30.4718V35.6964H27.417V29.1855H28.1758L32.1104 34.4215V29.1855H32.8465V35.6964H32.0839Z" fill="#C1C2D6"/>
<path d="M41.1515 29.7625L40.8328 30.4606C40.2989 30.1111 39.6762 29.9215 39.0382 29.9142C38.2035 29.9142 37.6533 30.2291 37.6533 30.7793C37.6533 32.4525 41.3185 31.5761 41.3071 33.9399C41.3071 35.0288 40.351 35.7269 38.9547 35.7269C38.0283 35.7171 37.1391 35.3612 36.4619 34.7291L36.8034 34.0613C37.3844 34.6294 38.1577 34.9585 38.9699 34.9833C39.907 34.9833 40.4876 34.6039 40.4876 33.9778C40.4876 32.2666 36.83 33.1772 36.83 30.8438C36.83 29.8194 37.733 29.1592 39.0837 29.1592C39.8162 29.1605 40.5332 29.3697 41.1515 29.7625Z" fill="#C1C2D6"/>
<path d="M45.9102 29.9027V32.1792H48.9456V32.8963H45.9102V35.685H45.1514V29.1855H49.2908V29.9027H45.9102Z" fill="#C1C2D6"/>
<path d="M58.9242 32.4411C58.9529 33.1219 58.7774 33.7957 58.4201 34.3759C58.0628 34.9561 57.5401 35.4161 56.9192 35.6968C56.2983 35.9775 55.6076 36.0661 54.936 35.951C54.2644 35.836 53.6425 35.5227 53.1504 35.0514C52.6584 34.5801 52.3185 33.9723 52.1746 33.3063C52.0308 32.6402 52.0894 31.9464 52.3431 31.314C52.5968 30.6816 53.0339 30.1395 53.5981 29.7575C54.1624 29.3755 54.828 29.1711 55.5094 29.1705C55.9488 29.1594 56.386 29.2354 56.7959 29.394C57.2058 29.5527 57.5802 29.7909 57.8976 30.0949C58.2151 30.3989 58.4692 30.7627 58.6454 31.1654C58.8215 31.5681 58.9163 32.0016 58.9242 32.4411ZM52.8535 32.4411C52.8353 32.9699 52.9755 33.4921 53.2561 33.9406C53.5367 34.3892 53.9449 34.7438 54.4283 34.9588C54.9118 35.1739 55.4484 35.2396 55.9695 35.1477C56.4905 35.0557 56.9722 34.8102 57.3528 34.4426C57.7334 34.0751 57.9956 33.6022 58.1057 33.0847C58.2157 32.5672 58.1687 32.0286 57.9707 31.5379C57.7726 31.0473 57.4325 30.627 56.994 30.3309C56.5555 30.0349 56.0385 29.8765 55.5094 29.8762C54.8192 29.8691 54.1541 30.1344 53.6583 30.6145C53.1624 31.0947 52.876 31.751 52.861 32.4411H52.8535Z" fill="#C1C2D6"/>
<path d="M65.5146 33.6248C65.3781 33.6248 65.2301 33.6437 65.0783 33.6437H63.3633V35.6964H62.6045V29.1855H65.0783C66.706 29.1855 67.647 29.9861 67.647 31.3748C67.6822 31.8406 67.5563 32.3044 67.2904 32.6884C67.0245 33.0725 66.6346 33.3535 66.1862 33.4844L67.7039 35.6964H66.8578L65.5146 33.6248ZM65.0783 32.9266C66.2621 32.9266 66.9299 32.4068 66.9299 31.39C66.9299 30.3731 66.2621 29.9027 65.0783 29.9027H63.3633V32.938L65.0783 32.9266Z" fill="#C1C2D6"/>
<path d="M77.5497 35.6964V30.3314L75.1784 35.0096H74.7306L72.3669 30.3314V35.6964H71.6611V29.1855H72.5831L74.9621 33.8752L77.3259 29.1855H78.2403V35.6964H77.5497Z" fill="#C1C2D6"/>
<path d="M89.7251 35.6964H88.9891V33.492L86.4697 29.1855H87.2286L89.3419 32.5814L91.4401 29.1855H92.199L89.7251 33.4654V35.6964Z" fill="#C1C2D6"/>
<path d="M101.396 32.4411C101.425 33.1219 101.249 33.7957 100.892 34.3759C100.534 34.9561 100.012 35.4161 99.3909 35.6968C98.77 35.9775 98.0793 36.0661 97.4077 35.951C96.7361 35.836 96.1142 35.5227 95.6221 35.0514C95.13 34.5801 94.7902 33.9723 94.6463 33.3063C94.5025 32.6402 94.5611 31.9464 94.8148 31.314C95.0685 30.6816 95.5055 30.1395 96.0698 29.7575C96.634 29.3755 97.2997 29.1711 97.9811 29.1705C98.4205 29.1594 98.8577 29.2354 99.2676 29.394C99.6775 29.5527 100.052 29.7909 100.369 30.0949C100.687 30.3989 100.941 30.7627 101.117 31.1654C101.293 31.5681 101.388 32.0016 101.396 32.4411ZM95.3251 32.4411C95.307 32.9699 95.4472 33.4921 95.7278 33.9406C96.0084 34.3892 96.4166 34.7438 96.9 34.9588C97.3834 35.1739 97.9201 35.2396 98.4411 35.1477C98.9622 35.0557 99.4439 34.8102 99.8245 34.4426C100.205 34.0751 100.467 33.6022 100.577 33.0847C100.687 32.5672 100.64 32.0286 100.442 31.5379C100.244 31.0473 99.9042 30.627 99.4657 30.3309C99.0271 30.0349 98.5102 29.8765 97.9811 29.8762C97.2909 29.8691 96.6257 30.1344 96.1299 30.6145C95.6341 31.0947 95.3477 31.751 95.3327 32.4411H95.3251Z" fill="#C1C2D6"/>
<path d="M110.412 33.0177C110.412 34.7137 109.387 35.7343 107.684 35.7343C105.98 35.7343 104.94 34.7137 104.94 33.0177V29.1855H105.699V33.0177C105.699 34.2849 106.458 35.0172 107.699 35.0172C108.94 35.0172 109.653 34.2849 109.653 33.0177V29.1855H110.412V33.0177Z" fill="#C1C2D6"/>
<path d="M117.457 33.6248C117.316 33.6248 117.168 33.6437 117.02 33.6437H115.29V35.6964H114.531V29.1855H117.005C118.633 29.1855 119.57 29.9861 119.57 31.3748C119.605 31.8406 119.479 32.3044 119.213 32.6884C118.947 33.0725 118.558 33.3535 118.109 33.4844L119.627 35.6964H118.781L117.457 33.6248ZM117.02 32.9266C118.2 32.9266 118.868 32.4068 118.868 31.39C118.868 30.3731 118.2 29.9027 117.02 29.9027H115.29V32.938L117.02 32.9266Z" fill="#C1C2D6"/>
<path d="M129.211 29.9027V32.1792H132.246V32.8963H129.211V35.685H128.452V29.1855H132.607V29.9027H129.211Z" fill="#C1C2D6"/>
<path d="M141.349 33.0177C141.349 34.7137 140.325 35.7343 138.625 35.7343C136.925 35.7343 135.878 34.7137 135.878 33.0177V29.1855H136.637V33.0177C136.637 34.2849 137.396 35.0172 138.636 35.0172C139.877 35.0172 140.617 34.2849 140.617 33.0177V29.1855H141.376L141.349 33.0177Z" fill="#C1C2D6"/>
<path d="M147.476 29.9027V35.6964H146.718V29.9027H144.597V29.1855H149.605V29.9027H147.476Z" fill="#C1C2D6"/>
<path d="M158.328 33.0177C158.328 34.7137 157.307 35.7343 155.604 35.7343C153.9 35.7343 152.86 34.7137 152.86 33.0177V29.1855H153.619V33.0177C153.619 34.2849 154.378 35.0172 155.619 35.0172C156.859 35.0172 157.599 34.2849 157.599 33.0177V29.1855H158.358L158.328 33.0177Z" fill="#C1C2D6"/>
<path d="M165.389 33.6248C165.249 33.6248 165.101 33.6437 164.953 33.6437H163.219V35.6964H162.46V29.1855H164.938C166.561 29.1855 167.502 29.9861 167.502 31.3748C167.538 31.8406 167.412 32.3044 167.146 32.6884C166.88 33.0725 166.49 33.3535 166.042 33.4844L167.559 35.6964H166.713L165.389 33.6248ZM164.953 32.9266C166.133 32.9266 166.801 32.4068 166.801 31.39C166.801 30.3731 166.133 29.9027 164.953 29.9027H163.219V32.938L164.953 32.9266Z" fill="#C1C2D6"/>
<path d="M172.257 29.9027V32.0426H175.543V32.7597H172.257V34.9907H176.051V35.6964H171.498V29.1855H175.918V29.9027H172.257Z" fill="#C1C2D6"/>
<path d="M11.9365 6.20424V23.3844H6.45014V6.20424H0V1.76123H18.4474V6.20424H11.9365Z" fill="#C1C2D6"/>
<path d="M35.2251 17.3098H30.9073V23.3805H25.4209V1.7915H35.0733C40.7646 1.7915 44.0466 4.50815 44.0466 9.31919C44.0466 12.6201 42.6617 15.0105 40.131 16.2588L44.684 23.3843H38.435L35.2251 17.3098ZM35.0733 12.9882C37.4485 12.9882 38.8334 11.7854 38.8334 9.50511C38.8334 7.2248 37.4485 6.09033 35.0733 6.09033H30.8997V12.9882H35.0733Z" fill="#C1C2D6"/>
<path d="M57.292 19.4042L55.7174 23.3843H50.083L59.3788 1.7915H65.0246L74.1306 23.3843H68.261L66.7206 19.4042H57.292ZM62.0423 7.26274L58.8855 15.2419H65.1156L62.0423 7.26274Z" fill="#C1C2D6"/>
<path d="M95.8378 23.3843L85.9046 10.1046V23.3843H80.7559V1.7915H85.5973L95.5608 15.1167V1.7915H100.683V23.3843H95.8378Z" fill="#C1C2D6"/>
<path d="M126.438 3.95048L124.37 8.23793C122.093 6.91375 119.221 5.98797 117.461 5.98797C116.042 5.98797 115.086 6.51157 115.086 7.55877C115.086 11.2923 126.499 9.16371 126.499 16.9684C126.499 21.2862 122.674 23.5703 117.863 23.5703C114.282 23.5469 110.811 22.3306 107.998 20.1138L110.127 15.8908C112.346 17.8335 115.678 19.1273 117.931 19.1273C119.658 19.1273 120.739 18.4785 120.739 17.2302C120.739 13.4056 109.326 15.6897 109.326 8.03683C109.326 4.06052 112.741 1.52979 117.931 1.52979C120.936 1.53252 123.882 2.37063 126.438 3.95048Z" fill="#C1C2D6"/>
<path d="M139.626 6.1093V10.3967H149.931V14.7183H139.626V19.0665H151.388V23.3843H134.117V1.7915H151.009V6.1093H139.626Z" fill="#C1C2D6"/>
<path d="M166.145 7.13374C167.22 7.13374 168.271 7.45271 169.166 8.05031C170.06 8.64792 170.757 9.4973 171.168 10.491C171.58 11.4847 171.687 12.5781 171.477 13.6329C171.267 14.6877 170.749 15.6565 169.988 16.4168C169.227 17.177 168.258 17.6945 167.203 17.9039C166.148 18.1133 165.055 18.005 164.061 17.5929C163.068 17.1808 162.219 16.4834 161.622 15.5887C161.025 14.6941 160.707 13.6425 160.707 12.567C160.709 11.126 161.283 9.7446 162.302 8.72599C163.322 7.70737 164.704 7.13474 166.145 7.13374ZM166.145 1.7915C164.012 1.7915 161.928 2.4238 160.156 3.60841C158.383 4.79303 157.001 6.47675 156.185 8.44663C155.37 10.4165 155.156 12.5841 155.573 14.6752C155.989 16.7662 157.016 18.6869 158.524 20.1943C160.032 21.7017 161.953 22.728 164.044 23.1435C166.135 23.559 168.303 23.345 170.272 22.5285C172.242 21.7121 173.925 20.3299 175.109 18.5567C176.293 16.7836 176.925 14.6991 176.924 12.567C176.924 11.1516 176.645 9.75013 176.103 8.44254C175.562 7.13494 174.767 5.94689 173.766 4.94624C172.765 3.94559 171.577 3.15195 170.269 2.61065C168.962 2.06936 167.56 1.79101 166.145 1.7915Z" fill="#C1C2D6"/>
<path d="M153.862 12.567C153.866 9.31092 155.161 6.18933 157.464 3.88691C159.766 1.58449 162.888 0.289227 166.144 0.285211C166.337 0.285211 166.523 0.285211 166.721 0.285211C165.106 -0.0896643 163.428 -0.0950616 161.812 0.269422C160.195 0.633906 158.682 1.35885 157.384 2.39015C156.087 3.42144 155.04 4.73244 154.32 6.22527C153.6 7.71809 153.227 9.35419 153.229 11.0114C153.228 12.5956 153.572 14.161 154.238 15.5986C153.986 14.6079 153.86 13.5893 153.862 12.567Z" fill="#C1C2D6"/>
<path d="M178.217 10.3169C178.252 10.499 178.283 10.6811 178.308 10.8633V10.8822C178.331 11.0568 178.354 11.2351 178.369 11.4134V11.5538C178.369 11.6942 178.391 11.8346 178.399 11.9788C178.407 12.1229 178.399 12.3582 178.399 12.5669C178.396 15.8243 177.101 18.9474 174.797 21.2508C172.494 23.5541 169.371 24.8495 166.113 24.8525C165.878 24.8525 165.647 24.8525 165.415 24.8525H165.26C165.074 24.8525 164.88 24.8221 164.702 24.7993H164.573C164.372 24.7728 164.175 24.7424 163.977 24.7083H163.905C163.681 24.6666 163.461 24.621 163.241 24.5679C165.256 25.5493 167.523 25.892 169.738 25.5499C171.953 25.2079 174.011 24.1975 175.636 22.654C177.262 21.1104 178.377 19.1074 178.832 16.9128C179.288 14.7182 179.063 12.4368 178.187 10.3738L178.217 10.3169Z" fill="#C1C2D6"/>
</g>
<defs>
<clipPath id="clip0_707_55253">
<rect width="179.063" height="36" fill="white"/>
</clipPath>
</defs>
</svg>
