<svg width="24" height="24" viewBox="0 0 24 24" fill="none" xmlns="http://www.w3.org/2000/svg"><path opacity=".4" fill-rule="evenodd" clip-rule="evenodd" d="M6.29289 6.29289c.39053-.39052 1.02369-.39052 1.41422 0L17.7071 16.2929c.3905.3905.3905 1.0237 0 1.4142-.3905.3905-1.0237.3905-1.4142 0L6.29289 7.70711c-.39052-.39053-.39052-1.02369 0-1.41422z" fill="#000"/><path fill-rule="evenodd" clip-rule="evenodd" d="M17 6c.5523 0 1 .44772 1 1v10c0 .5523-.4477 1-1 1H7c-.55228 0-1-.4477-1-1s.44772-1 1-1h9V7c0-.55228.4477-1 1-1z" fill="#000"/></svg>