<svg width="24" height="24" viewBox="0 0 24 24" fill="none" xmlns="http://www.w3.org/2000/svg"><path opacity=".4" fill-rule="evenodd" clip-rule="evenodd" d="M12 4c.5523 0 1 .44772 1 1v14c0 .5523-.4477 1-1 1s-1-.4477-1-1V5c0-.55228.4477-1 1-1z" fill="#000"/><path fill-rule="evenodd" clip-rule="evenodd" d="M4.29289 11.2929c.39053-.3905 1.02369-.3905 1.41422 0L12 17.5858l6.2929-6.2929c.3905-.3905 1.0237-.3905 1.4142 0 .3905.3905.3905 1.0237 0 1.4142l-7 7c-.3905.3905-1.0237.3905-1.4142 0l-7.00001-7c-.39052-.3905-.39052-1.0237 0-1.4142z" fill="#000"/></svg>