<svg width="24" height="24" viewBox="0 0 24 24" fill="none" xmlns="http://www.w3.org/2000/svg"><path fill-rule="evenodd" clip-rule="evenodd" d="M7.30009 2.05523C9.54474.994474 12.0822.724234 14.4999 1.28845c2.4177.56423 4.5735 1.92972 6.1167 3.87446C22.1599 7.10765 22.9999 9.51726 23 11.9999V13c0 1.0609-.4214 2.0783-1.1716 2.8284C21.0783 16.5786 20.0609 17 19 17c-1.0609 0-2.0783-.4214-2.8284-1.1716-.1588-.1588-.3029-.3295-.4313-.5101C14.8244 16.3499 13.4881 17 12 17c-2.76141 0-4.99999-2.2386-4.99999-5 0-2.76143 2.23858-5.00001 4.99999-5.00001 1.1256 0 2.1644.37195 3 .99964.0002-.55212.4478-.99964 1-.99964.5523 0 1 .44772 1 1V13c0 .5304.2107 1.0391.5858 1.4142S18.4696 15 19 15c.5304 0 1.0392-.2107 1.4142-.5858C20.7893 14.0391 21 13.5304 21 13v-.9999c0-.0001 0 0 0 0-.0001-2.0313-.6874-4.00283-1.95-5.59397-1.2627-1.59115-3.0265-2.70837-5.0046-3.17001-1.9781-.46163-4.05425-.24053-5.89078.62736-1.83652.8679-3.32545 2.33153-4.22468 4.15292-.89922 1.8214-1.15586 3.8934-.72818 5.8792.42768 1.9857 1.51453 3.7684 3.08382 5.0581 1.56929 1.2897 3.52872 2.0107 5.55972 2.0456 2.0309.0349 4.014-.6182 5.6267-1.8532.4385-.3358 1.0662-.2526 1.402.1859.3357.4385.2525 1.0661-.186 1.4019-1.9711 1.5095-4.3948 2.3078-6.8771 2.2651-2.48231-.0427-4.87718-.9238-6.7952-2.5002-1.91802-1.5763-3.24638-3.7551-3.76911-6.1821-.522717-2.4271-.20905-4.95953.89-7.18568 1.09906-2.22614 2.91886-4.01503 5.1635-5.07579zM15 12c0-1.6569-1.3431-3.00001-3-3.00001-1.6568 0-2.99999 1.34311-2.99999 3.00001 0 1.6568 1.34319 3 2.99999 3 1.6569 0 3-1.3432 3-3z" fill="#000"/></svg>