<svg width="24" height="24" viewBox="0 0 24 24" fill="none" xmlns="http://www.w3.org/2000/svg"><path opacity=".4" fill-rule="evenodd" clip-rule="evenodd" d="M12 3c-4.97056 0-9 4.02944-9 9 0 4.9706 4.02944 9 9 9 4.9706 0 9-4.0294 9-9 0-4.97056-4.0294-9-9-9zM1 12C1 5.92487 5.92487 1 12 1c6.0751 0 11 4.92487 11 11 0 6.0751-4.9249 11-11 11-6.07513 0-11-4.9249-11-11z" fill="#000"/><path fill-rule="evenodd" clip-rule="evenodd" d="M17.2071 8.29289c.3905.39053.3905 1.02369 0 1.41422l-6 5.99999c-.3905.3905-1.0237.3905-1.41421 0l-3-3c-.39052-.3905-.39052-1.0237 0-1.4142.39053-.3905 1.02369-.3905 1.41422 0L10.5 13.5858l5.2929-5.29291c.3905-.39052 1.0237-.39052 1.4142 0z" fill="#000"/></svg>