<svg width="24" height="24" viewBox="0 0 24 24" fill="none" xmlns="http://www.w3.org/2000/svg"><path opacity=".4" fill-rule="evenodd" clip-rule="evenodd" d="M12 3c-4.97056 0-9 4.02944-9 9 0 4.9706 4.02944 9 9 9 4.9706 0 9-4.0294 9-9 0-4.97056-4.0294-9-9-9zM1 12C1 5.92487 5.92487 1 12 1c6.0751 0 11 4.92487 11 11 0 6.0751-4.9249 11-11 11-6.07513 0-11-4.9249-11-11z" fill="#000"/><path fill-rule="evenodd" clip-rule="evenodd" d="M12 5c.5523 0 1 .44772 1 1v5.382l3.4472 1.7236c.494.247.6942.8476.4472 1.3416-.247.494-.8476.6942-1.3416.4472l-4-2C11.214 12.725 11 12.3788 11 12V6c0-.55228.4477-1 1-1z" fill="#000"/></svg>