<svg width="24" height="24" viewBox="0 0 24 24" fill="none" xmlns="http://www.w3.org/2000/svg"><path opacity=".4" fill-rule="evenodd" clip-rule="evenodd" d="M6.75871 2H17.2413c.805-.00001 1.4693-.00002 2.0105.0442.5621.04592 1.0788.14449 1.5642.39178.7526.38349 1.3645.99541 1.748 1.74806.2473.48534.3459 1.00204.3918 1.56414C23 6.28937 23 6.95372 23 7.75868v8.48262c0 .805 0 1.4693-.0442 2.0105-.0459.5621-.1445 1.0788-.3918 1.5642-.3835.7526-.9954 1.3645-1.748 1.748-.4854.2473-1.0021.3459-1.5642.3918C18.7106 22 18.0463 22 17.2413 22H6.75877c-.805 0-1.46939 0-2.0106-.0442-.56209-.0459-1.0788-.1445-1.56413-.3918-.75265-.3835-1.36457-.9954-1.74807-1.748-.24729-.4854-.34585-1.0021-.39178-1.5642C.999977 17.7106.999988 17.0463 1 16.2413V9.00066c0-.00022 0 .00022 0 0V7.7587c-.000012-.80497-.000023-1.46933.04419-2.01053.04593-.56209.14449-1.0788.39179-1.56413.38349-.75265.99541-1.36457 1.74806-1.74807.48533-.24729 1.00204-.34585 1.56414-.39178.54119-.04421 1.20555-.0442 2.01053-.04419zM3 10v6.2c0 .8566.00078 1.4389.03755 1.889.03582.4384.10075.6626.18044.819.19174.3763.4977.6823.87403.874.1564.0797.3806.1446.81902.1804C5.36113 19.9992 5.94342 20 6.8 20h10.4c.8566 0 1.4389-.0008 1.889-.0376.4384-.0358.6626-.1007.819-.1804.3763-.1917.6823-.4977.874-.874.0797-.1564.1446-.3806.1805-.819.0367-.4501.0375-1.0324.0375-1.889V10H3zm18-2H3v-.2c0-.85658.00078-1.43887.03755-1.88896.03582-.43842.10075-.66262.18044-.81902a1.999964 1.999964 0 01.87403-.87403c.1564-.07969.3806-.14462.81902-.18044C5.36113 4.00078 5.94342 4 6.8 4h10.4c.8566 0 1.4389.00078 1.889.03755.4384.03582.6626.10075.819.18044.3763.19175.6823.49771.874.87403.0797.1564.1446.3806.1805.81902C20.9992 6.36113 21 6.94342 21 7.8V8z" fill="#000"/><path fill-rule="evenodd" clip-rule="evenodd" d="M10.7071 11.7929c.3905.3905.3905 1.0237 0 1.4142L8.91421 15l1.79289 1.7929c.3905.3905.3905 1.0237 0 1.4142-.3905.3905-1.02368.3905-1.41421 0l-2.5-2.5c-.39052-.3905-.39052-1.0237 0-1.4142l2.5-2.5c.39053-.3905 1.02371-.3905 1.41421 0zm2.5858 0c.3905-.3905 1.0237-.3905 1.4142 0l2.5 2.5c.3905.3905.3905 1.0237 0 1.4142l-2.5 2.5c-.3905.3905-1.0237.3905-1.4142 0-.3905-.3905-.3905-1.0237 0-1.4142L15.0858 15l-1.7929-1.7929c-.3905-.3905-.3905-1.0237 0-1.4142z" fill="#000"/></svg>