<svg width="24" height="24" viewBox="0 0 24 24" fill="none" xmlns="http://www.w3.org/2000/svg"><path opacity=".4" fill-rule="evenodd" clip-rule="evenodd" d="M12 1c.5523 0 1 .44772 1 1v20c0 .5523-.4477 1-1 1s-1-.4477-1-1V2c0-.55228.4477-1 1-1z" fill="#000"/><path fill-rule="evenodd" clip-rule="evenodd" d="M5 8c0-2.76142 2.23858-5 5-5h4c2.7614 0 5 2.23858 5 5 0 .55228-.4477 1-1 1s-1-.44772-1-1c0-1.65685-1.3431-3-3-3h-4C8.34315 5 7 6.34315 7 8s1.34315 3 3 3h4c2.7614 0 5 2.2386 5 5s-2.2386 5-5 5h-4c-2.76142 0-5-2.2386-5-5 0-.5523.44772-1 1-1s1 .4477 1 1c0 1.6569 1.34315 3 3 3h4c1.6569 0 3-1.3431 3-3s-1.3431-3-3-3h-4c-2.76142 0-5-2.2386-5-5z" fill="#000"/></svg>