<?xml version="1.0" encoding="UTF-8"?>
<svg width="747px" height="194px" viewBox="0 0 747 194" version="1.1" xmlns="http://www.w3.org/2000/svg" xmlns:xlink="http://www.w3.org/1999/xlink">
    <title>APIDocsDarkH</title>
    <defs>
        <polygon id="path-1" points="86.9767442 86.7634855 87.4883721 86.7634855 87.4883721 105.136929 86.9767442 105.647303 0 37.2572614 0 18.373444"></polygon>
        <polygon id="path-2" points="86.9767442 105.136929 87.4883721 104.626556 87.4883721 122.489627 86.9767442 123 0 54.6099585 0 36.746888"></polygon>
        <polygon id="path-3" points="87 86.7634855 87 105.647303 0 37.2572614 0 18.373444"></polygon>
        <polygon id="path-4" points="87 105.136929 87 123 0 55.120332 7.72715225e-14 36.746888"></polygon>
    </defs>
    <g id="APIDocsDarkH" stroke="none" stroke-width="1" fill="none" fill-rule="evenodd">
        <g id="blue-left-/-pink-right-/-black-top">
            <g id="left" transform="translate(0, 71)">
                <path d="M86.9767442,68.3900415 L87.4883721,68.3900415 C87.5988401,76.9019594 87.5988401,83.1965653 87.4883721,87.2738589 C87.3779041,91.3511526 87.2073615,91.3511526 86.9767442,87.2738589 L0,18.8838174 L0,0 L86.9767442,68.3900415 Z" id="Path" fill="#40C4FF"></path>
                <g id="Path">
                    <use fill="#3DC4FF" xlink:href="#path-1"></use>
                    <use fill-opacity="0.25" fill="#FFFFFF" xlink:href="#path-1"></use>
                </g>
                <g id="Path">
                    <use fill="#3DC4FF" xlink:href="#path-2"></use>
                    <use fill-opacity="0.5" fill="#FFFFFF" xlink:href="#path-2"></use>
                </g>
            </g>
            <g id="right" transform="translate(129.5, 132.5) scale(-1, 1) translate(-129.5, -132.5)translate(86, 71)">
                <polygon id="Path" fill="#E040FB" points="87 68.3900415 87 87.2738589 3.86357613e-14 18.8838174 0 0"></polygon>
                <g id="Path">
                    <use fill="#E040FB" xlink:href="#path-3"></use>
                    <use fill-opacity="0.25" fill="#FFFFFF" xlink:href="#path-3"></use>
                </g>
                <g id="Path">
                    <use fill="#E040FB" xlink:href="#path-4"></use>
                    <use fill-opacity="0.5" fill="#FFFFFF" xlink:href="#path-4"></use>
                </g>
            </g>
            <path d="M84.4647059,0 L173,71.2727273 L173,71.7818182 L86.5,140 L0,71.7818182 L0,71.2727273 L84.4647059,0 Z M54.6709887,46.6397499 C54.6709887,46.6397499 62.8482178,86.023788 73.5225738,94.9870251 C84.1969319,103.95026 100.025386,102.659257 108.876417,92.1034896 C117.727446,81.5477202 116.249347,65.7244409 105.57499,56.7612051 C94.9006329,47.7979692 54.6709887,46.6397499 54.6709887,46.6397499 Z" id="Combined-Shape" fill="#FFFFFF"></path>
        </g>
        <text id="API-Docs" font-family="Roboto-Bold, Roboto" font-size="128" font-weight="bold" fill="#FFFFFF">
            <tspan x="221.09375" y="141">API</tspan>
            <tspan x="427.09375" y="141" font-family="Roboto-Regular, Roboto" font-weight="normal"> </tspan>
            <tspan x="458.78125" y="141">Docs</tspan>
        </text>
    </g>
</svg>