<?xml version="1.0" encoding="UTF-8"?>
<svg width="1280px" height="640px" viewBox="0 0 1280 640" version="1.1" xmlns="http://www.w3.org/2000/svg" xmlns:xlink="http://www.w3.org/1999/xlink">
    <title>AsyncKitDarkV</title>
    <defs>
        <linearGradient x1="100%" y1="37.5%" x2="0%" y2="62.5%" id="linearGradient-1">
            <stop stop-color="#E040FB" offset="0%"></stop>
            <stop stop-color="#3DC3FF" offset="100%"></stop>
        </linearGradient>
        <rect id="path-2" x="0" y="0" width="1280" height="640"></rect>
        <polygon id="path-3" points="149.791653 149.673412 150.67278 149.673412 150.67278 181.368958 149.791653 182.24939 0 64.2715241 0 31.6955461"></polygon>
        <polygon id="path-4" points="149.791653 181.368958 150.67278 180.488526 150.67278 211.303641 149.791653 212.184073 0 94.2062065 0 63.3910922"></polygon>
        <polygon id="path-5" points="149.311927 149.673412 149.311927 182.24939 0 64.2715241 0 31.6955461"></polygon>
        <polygon id="path-6" points="149.311927 181.368958 149.311927 212.184073 0 95.0866383 1.32615631e-13 63.3910922"></polygon>
        <linearGradient x1="479.136454%" y1="269.563134%" x2="-524.097998%" y2="-21.6099522%" id="linearGradient-7">
            <stop stop-color="#E040FB" offset="0%"></stop>
            <stop stop-color="#3DC3FF" offset="100%"></stop>
        </linearGradient>
        <path d="M636.200206,172.193621 L654.196235,174.1987 L654.746221,174.237024 C656.235714,174.574212 657.618974,175.545609 658.484273,176.862077 C659.332887,178.189147 659.546241,179.701838 659.058845,180.935814 L642.53854,221.095323 C641.975402,222.51991 640.308005,223.107458 638.612538,222.478745 C636.917072,221.850032 635.70081,220.193165 635.748765,218.577538 L636.435968,194.186762 L618.419523,192.138532 L617.869536,192.100209 C616.38484,191.759322 615.007787,190.788898 614.145958,189.476164 C613.299592,188.148719 613.086389,186.637103 613.571386,185.402427 L630.07265,145.311138 C630.667631,143.918804 632.326336,143.358883 634.006717,143.983134 C635.687097,144.607385 636.904179,146.235644 636.893353,147.844988 L636.200206,172.193621 Z M629.18298,116.017577 C625.515787,115.751286 622.949899,118.542239 623.451909,122.251343 C623.953918,125.960448 627.333724,129.183142 631.000917,129.449432 C659.1876,131.51926 685.157534,156.276476 689.046368,184.784335 C689.548377,188.493439 692.928183,191.716133 696.595376,191.982423 C700.262569,192.248714 702.828457,189.457761 702.326447,185.748657 C697.42635,149.825252 664.701916,118.627522 629.18298,116.017577 Z M636.631269,238.003607 C636.879165,239.854996 637.847718,241.684913 639.323857,243.090795 C640.799995,244.496677 642.6628,245.363361 644.502473,245.500185 C648.330394,245.776877 651.009679,242.878378 650.488344,239.024586 C649.967006,235.170794 646.44226,231.819539 642.613609,231.537446 C638.78496,231.255366 636.100732,234.149158 636.6167,238.002554 L636.631269,238.003607 Z M577.949476,183.438547 C580.758382,183.641571 583.057891,182.118617 583.773203,179.581674 C584.488515,177.044732 583.478336,173.994834 581.214837,171.85754 C578.951338,169.720245 575.881598,168.917707 573.44045,169.82504 C570.999302,170.732373 569.668915,173.170365 570.070989,175.999458 C570.61713,179.839968 574.136393,183.162943 577.949476,183.438547 Z M610.18517,236.182642 C613.762642,238.354106 617.851476,237.523985 619.319238,234.328231 C620.787,231.132477 619.07823,226.780495 615.502005,224.606314 C611.925781,222.432133 607.835494,223.258553 606.364691,226.452458 C604.909614,229.653747 606.615736,233.998982 610.18517,236.182642 Z M605.905121,137.306546 C608.944161,135.607602 609.486313,131.424927 607.117076,127.956372 C604.74784,124.487817 600.361287,123.042301 597.311142,124.724988 C595.833854,125.535069 594.873789,126.98406 594.645041,128.748836 C594.416293,130.513612 594.937887,132.447408 596.093506,134.118988 C598.476987,137.579579 602.866081,139.005491 605.905121,137.306546 Z M581.907392,206.87499 C582.651289,209.70427 584.968471,212.155663 587.777869,213.085486 C590.587267,214.015308 593.335256,213.240328 594.739777,211.122107 C596.144298,209.003886 595.928572,205.959846 594.193247,203.410166 C591.822508,199.938093 587.433276,198.491653 584.381988,200.176936 C582.139476,201.396087 581.163494,204.04571 581.907392,206.87499 Z M697.817471,215.659546 C697.815668,212.225736 695.211465,208.788633 691.729275,207.624169 C688.247085,206.459705 684.965194,207.928465 684.056758,211.057887 C683.148322,214.187308 684.894644,218.008342 688.13937,219.990831 C689.273416,220.696715 690.516761,221.117329 691.738389,221.20835 C695.218114,221.460569 697.819271,219.093357 697.817471,215.659546 Z M577.33267,144.698414 C575.871502,147.896976 577.584889,152.246804 581.160567,154.416414 C584.736246,156.586025 588.821542,155.754658 590.287576,152.559048 C590.992868,151.021676 590.985124,149.13184 590.266052,147.306309 C589.54698,145.480779 588.175644,143.869504 586.454469,142.827823 C582.876802,140.662565 578.793837,141.499851 577.33267,144.698414 Z M665.565315,238.49431 C667.097432,240.747511 669.574669,242.246993 672.059244,242.425111 C673.252853,242.49277 674.377893,242.244209 675.322329,241.70418 C677.561694,240.47395 678.537013,237.833452 677.793485,235.013975 C677.049957,232.194497 674.734012,229.751303 671.925596,228.823676 C669.11718,227.896049 666.369378,228.666674 664.963514,230.776202 C663.557651,232.88573 663.770595,235.918713 665.503048,238.460845 L665.565315,238.49431 Z" id="path-8"></path>
    </defs>
    <g id="AsyncKitDarkV" stroke="none" stroke-width="1" fill="none" fill-rule="evenodd">
        <rect fill="#000000" x="0" y="0" width="1280" height="640"></rect>
        <g id="Rectangle">
            <use fill="#000000" xlink:href="#path-2"></use>
            <use fill-opacity="0.15" fill="url(#linearGradient-1)" xlink:href="#path-2"></use>
        </g>
        <g id="blue-left-/-pink-right-/-black-top" transform="translate(491, 61)">
            <polygon id="Path-2" fill="#FFFFFF" points="0 122.690909 145.494118 0 298 122.690909 298 123.567273 149 241 0 123.567273"></polygon>
            <g id="left" transform="translate(0, 123)">
                <path d="M149.791653,117.977866 L150.67278,117.977866 C150.863028,132.661552 150.863028,143.520212 150.67278,150.553844 C150.482532,157.587476 150.188823,157.587476 149.791653,150.553844 L0,32.5759779 L0,0 L149.791653,117.977866 Z" id="Path" fill="#40C4FF"></path>
                <g id="Path">
                    <use fill="#3DC4FF" xlink:href="#path-3"></use>
                    <use fill-opacity="0.25" fill="#FFFFFF" xlink:href="#path-3"></use>
                </g>
                <g id="Path">
                    <use fill="#3DC4FF" xlink:href="#path-4"></use>
                    <use fill-opacity="0.5" fill="#FFFFFF" xlink:href="#path-4"></use>
                </g>
            </g>
            <g id="right" transform="translate(223, 229.5) scale(-1, 1) translate(-223, -229.5)translate(148, 123)">
                <polygon id="Path" fill="#E040FB" points="149.311927 117.977866 149.311927 150.553844 6.63078155e-14 32.5759779 0 0"></polygon>
                <g id="Path">
                    <use fill="#E040FB" xlink:href="#path-5"></use>
                    <use fill-opacity="0.25" fill="#FFFFFF" xlink:href="#path-5"></use>
                </g>
                <g id="Path">
                    <use fill="#E040FB" xlink:href="#path-6"></use>
                    <use fill-opacity="0.5" fill="#FFFFFF" xlink:href="#path-6"></use>
                </g>
            </g>
        </g>
        <text id="AsyncKit" font-family="Roboto-Black, Roboto" font-size="128" font-weight="800" fill="#FFFFFF">
            <tspan x="385.0625" y="548">Async</tspan>
            <tspan x="742.8125" y="548" font-family="Roboto-Regular, Roboto" font-weight="normal">Kit</tspan>
        </text>
        <g id="Shape" fill-rule="nonzero" transform="translate(636.1946, 180.7592) rotate(-43) translate(-636.1946, -180.7592)">
            <use fill="#000000" xlink:href="#path-8"></use>
            <use fill-opacity="0.15" fill="url(#linearGradient-7)" xlink:href="#path-8"></use>
        </g>
    </g>
</svg>
