<?xml version="1.0" encoding="UTF-8"?>
<svg width="539px" height="128px" viewBox="0 0 539 128" version="1.1" xmlns="http://www.w3.org/2000/svg" xmlns:xlink="http://www.w3.org/1999/xlink">
    <title>AsyncKitLightH</title>
    <defs>
        <polygon id="path-1" points="57.3255814 57.1369295 57.6627907 57.1369295 57.6627907 69.2365145 57.3255814 69.5726141 0 24.5352697 0 12.0995851"></polygon>
        <polygon id="path-2" points="57.3255814 69.2365145 57.6627907 68.9004149 57.6627907 80.6639004 57.3255814 81 0 35.9626556 0 24.1991701"></polygon>
        <polygon id="path-3" points="57 57.1369295 57 69.5726141 0 24.5352697 0 12.0995851"></polygon>
        <polygon id="path-4" points="57 69.2365145 57 81 0 36.2987552 5.06261699e-14 24.1991701"></polygon>
    </defs>
    <g id="AsyncKitLightH" stroke="none" stroke-width="1" fill="none" fill-rule="evenodd">
        <g id="blue-left-/-pink-right-/-black-top">
            <polygon id="Path-2" fill="#333333" points="0 46.8363636 55.6588235 0 114 46.8363636 114 47.1709091 57 92 0 47.1709091"></polygon>
            <g id="left" transform="translate(0, 47)">
                <path d="M57.3255814,45.0373444 L57.6627907,45.0373444 C57.7355991,50.6427538 57.7355991,54.787982 57.6627907,57.473029 C57.5899823,60.1580761 57.4775792,60.1580761 57.3255814,57.473029 L0,12.4356846 L0,0 L57.3255814,45.0373444 Z" id="Path" fill="#40C4FF"></path>
                <g id="Path">
                    <use fill="#3DC4FF" xlink:href="#path-1"></use>
                    <use fill-opacity="0.25" fill="#FFFFFF" xlink:href="#path-1"></use>
                </g>
                <g id="Path">
                    <use fill="#3DC4FF" xlink:href="#path-2"></use>
                    <use fill-opacity="0.5" fill="#FFFFFF" xlink:href="#path-2"></use>
                </g>
            </g>
            <g id="right" transform="translate(85.5, 87.5) scale(-1, 1) translate(-85.5, -87.5)translate(57, 47)">
                <polygon id="Path" fill="#E040FB" points="57 45.0373444 57 57.473029 2.5313085e-14 12.4356846 0 0"></polygon>
                <g id="Path">
                    <use fill="#E040FB" xlink:href="#path-3"></use>
                    <use fill-opacity="0.25" fill="#FFFFFF" xlink:href="#path-3"></use>
                </g>
                <g id="Path">
                    <use fill="#E040FB" xlink:href="#path-4"></use>
                    <use fill-opacity="0.5" fill="#FFFFFF" xlink:href="#path-4"></use>
                </g>
            </g>
        </g>
        <text id="AsyncKit" font-family="Roboto-Black, Roboto" font-size="100" font-weight="800" fill="#262626">
            <tspan x="135" y="104">Async</tspan>
            <tspan x="414.492188" y="104" font-family="Roboto-Regular, Roboto" font-weight="normal">Kit</tspan>
        </text>
        <path d="M56.1025787,42.4574245 L63.5357209,43.2949891 L63.7628893,43.3109976 C64.3781146,43.4518486 64.949461,43.8576218 65.3068671,44.4075388 C65.6573815,44.9618845 65.7455062,45.593768 65.5441905,46.1092264 L58.7205862,62.8847176 C58.4879857,63.4797983 57.7992783,63.7252295 57.0989769,63.4626025 C56.3986754,63.1999755 55.8963063,62.5078668 55.9161139,61.8329845 L56.1999589,51.6444326 L48.7583835,50.788843 L48.5312151,50.7728345 C47.9179711,50.6304387 47.3491882,50.2250717 46.9932154,49.6767146 C46.6436296,49.1222119 46.5555675,48.4907775 46.755892,47.975027 L53.5716318,31.2280327 C53.8173846,30.6464248 54.5025019,30.4125337 55.1965722,30.6732969 C55.8906425,30.93406 56.3933501,31.6142185 56.3888787,32.2864762 L56.1025787,42.4574245 Z M53.323542,19.0074007 C51.7916768,18.8952785 50.7198502,20.0704163 50.9295504,21.6321445 C51.1392505,23.1938727 52.5510683,24.5507965 54.0829336,24.6629187 C65.8571177,25.5344251 76.705318,35.9585162 78.3297674,47.9618251 C78.5394676,49.5235533 79.9512854,50.8804772 81.4831506,50.9925993 C83.0150159,51.1047215 84.0868425,49.9295837 83.8771423,48.3678555 C81.8302662,33.2422113 68.160566,20.1063251 53.323542,19.0074007 Z M56.8249043,70.0682849 C56.9311457,70.8617372 57.3462399,71.6459873 57.9788706,72.2485082 C58.6115013,72.851029 59.4098462,73.2224649 60.1982777,73.2811038 C61.8388151,73.399686 62.9870802,72.1574722 62.7636509,70.5058472 C62.5402201,68.854222 61.0296151,67.4179699 59.3887645,67.2970727 C57.7479147,67.1761815 56.5975312,68.416378 56.8186608,70.0678336 L56.8249043,70.0682849 Z M32.4069184,47.3652573 C33.6107353,47.4522676 34.5962389,46.7995729 34.9028012,45.7123119 C35.2093635,44.6250509 34.7764299,43.3179516 33.8063589,42.4019684 C32.8362879,41.4859852 31.5206848,41.1420401 30.4744786,41.5308972 C29.4282724,41.9197543 28.8581064,42.9646078 29.0304238,44.1770762 C29.2644843,45.8230093 30.7727397,47.2471412 32.4069184,47.3652573 Z M45.7831469,68.9744341 C47.3163494,69.9050613 49.0687066,69.5492953 49.6977476,68.1796864 C50.3267886,66.8100775 49.5944582,64.9449423 48.0617907,64.0131504 C46.5291231,63.0813586 44.7761431,63.4355385 44.1457988,64.8043551 C43.5221945,66.176336 44.2533895,68.0385796 45.7831469,68.9744341 Z M43.7821866,27.6155522 C45.0846323,26.8874331 45.3169832,25.0948583 44.3015962,23.6083348 C43.2862092,22.1218113 41.406258,21.5023042 40.099053,22.2234556 C39.4659294,22.5706332 39.0544728,23.1916295 38.9564381,23.9479621 C38.8584034,24.7042947 39.0819435,25.5330646 39.5772089,26.2494556 C40.5987007,27.7325663 42.479741,28.3436712 43.7821866,27.6155522 Z M33.7897305,57.1171622 C34.1085435,58.3297107 35.1016215,59.3803078 36.3056493,59.7788033 C37.5096771,60.1772987 38.6873867,59.8451642 39.2893242,58.9373552 C39.8912617,58.0295463 39.798808,56.7249574 39.055097,55.6322376 C38.0390663,54.1442062 36.1579667,53.5243033 34.8502717,54.2465674 C33.8891953,54.769061 33.4709175,55.9046137 33.7897305,57.1171622 Z M82.2328821,60.3185543 C82.2321092,58.8469213 81.1160224,57.3738772 79.6236553,56.8748212 C78.1312881,56.3757652 76.7247634,57.0052338 76.3354335,58.3464145 C75.9461036,59.6875952 76.6945274,61.3251812 78.0851244,62.1748194 C78.5711441,62.4773411 79.104006,62.657604 79.6275612,62.6966132 C81.1188718,62.8047069 82.2336535,61.7901874 82.2328821,60.3185543 Z M31.655431,31.2847386 C31.0292163,32.6555511 31.763525,34.519763 33.2959586,35.4495961 C34.8283922,36.3794291 36.5792336,36.023129 37.2075337,34.6535819 C37.5098018,33.9947082 37.5064831,33.1847783 37.1983093,32.4024082 C36.8901356,31.6200381 36.3024202,30.9294916 35.5647737,30.4830568 C34.0314879,29.5550892 32.2816458,29.9139262 31.655431,31.2847386 Z M68.7028145,69.7914445 C69.3594358,70.757102 70.421109,71.399737 71.4859266,71.4760734 C71.9974733,71.50507 72.4796336,71.3985438 72.8843919,71.1671027 C73.8441197,70.6398614 74.2621134,69.5082196 73.9434586,68.2998721 C73.6248038,67.0915246 72.632256,66.0444414 71.4286491,65.6468869 C70.2250422,65.2493324 69.0474127,65.5796003 68.4448998,66.4836837 C67.8423869,67.3877671 67.9336485,68.6876172 68.6761285,69.7771023 L68.7028145,69.7914445 Z" id="Shape" fill="#FFFFFF" fill-rule="nonzero" transform="translate(56.4517, 46.1445) rotate(-43) translate(-56.4517, -46.1445)"></path>
    </g>
</svg>