<?xml version="1.0" encoding="UTF-8"?>
<svg width="623px" height="128px" viewBox="0 0 623 128" version="1.1" xmlns="http://www.w3.org/2000/svg" xmlns:xlink="http://www.w3.org/1999/xlink">
    <title>ConsoleKitLightH</title>
    <defs>
        <polygon id="path-1" points="57.3255814 57.1369295 57.6627907 57.1369295 57.6627907 69.2365145 57.3255814 69.5726141 0 24.5352697 0 12.0995851"></polygon>
        <polygon id="path-2" points="57.3255814 69.2365145 57.6627907 68.9004149 57.6627907 80.6639004 57.3255814 81 0 35.9626556 0 24.1991701"></polygon>
        <polygon id="path-3" points="57 57.1369295 57 69.5726141 0 24.5352697 0 12.0995851"></polygon>
        <polygon id="path-4" points="57 69.2365145 57 81 0 36.2987552 5.06261699e-14 24.1991701"></polygon>
    </defs>
    <g id="ConsoleKitLightH" stroke="none" stroke-width="1" fill="none" fill-rule="evenodd">
        <g id="blue-left-/-pink-right-/-black-top">
            <polygon id="Path-2" fill="#333333" points="0 46.8363636 55.6588235 0 114 46.8363636 114 47.1709091 57 92 0 47.1709091"></polygon>
            <g id="left" transform="translate(0, 47)">
                <path d="M57.3255814,45.0373444 L57.6627907,45.0373444 C57.7355991,50.6427538 57.7355991,54.787982 57.6627907,57.473029 C57.5899823,60.1580761 57.4775792,60.1580761 57.3255814,57.473029 L0,12.4356846 L0,0 L57.3255814,45.0373444 Z" id="Path" fill="#40C4FF"></path>
                <g id="Path">
                    <use fill="#3DC4FF" xlink:href="#path-1"></use>
                    <use fill-opacity="0.25" fill="#FFFFFF" xlink:href="#path-1"></use>
                </g>
                <g id="Path">
                    <use fill="#3DC4FF" xlink:href="#path-2"></use>
                    <use fill-opacity="0.5" fill="#FFFFFF" xlink:href="#path-2"></use>
                </g>
            </g>
            <g id="right" transform="translate(85.5, 87.5) scale(-1, 1) translate(-85.5, -87.5)translate(57, 47)">
                <polygon id="Path" fill="#E040FB" points="57 45.0373444 57 57.473029 2.5313085e-14 12.4356846 0 0"></polygon>
                <g id="Path">
                    <use fill="#E040FB" xlink:href="#path-3"></use>
                    <use fill-opacity="0.25" fill="#FFFFFF" xlink:href="#path-3"></use>
                </g>
                <g id="Path">
                    <use fill="#E040FB" xlink:href="#path-4"></use>
                    <use fill-opacity="0.5" fill="#FFFFFF" xlink:href="#path-4"></use>
                </g>
            </g>
        </g>
        <text id="ConsoleKit" font-family="Roboto-Black, Roboto" font-size="100" font-weight="800" fill="#262626">
            <tspan x="135" y="104">Console</tspan>
            <tspan x="502.480469" y="104" font-family="Roboto-Regular, Roboto" font-weight="normal">Kit</tspan>
        </text>
        <path d="M37.8097446,28.0069448 C34.8854279,27.8584965 32.7474582,30.1077582 33.0240838,33.0417231 L35.115768,54.5463459 C35.4099887,57.4812568 38.0102943,59.9852745 40.9363279,60.1513736 L75.1902554,61.9930552 C78.1145721,62.1415035 80.2525418,59.8922418 79.9759162,56.9582769 L77.884232,35.4536541 C77.5900113,32.5187432 74.9897057,30.0147255 72.0636721,29.8486264 L37.8097446,28.0069448 Z M54.2583555,45.4119717 L46.0235162,51.7311059 C45.7422601,51.930602 45.3932171,52.0298206 45.0226632,52.0157977 C44.4924065,51.9913068 43.9664804,51.7193543 43.6015249,51.2807531 C43.2893657,50.9065734 43.1229317,50.4445376 43.1393747,49.997782 C43.1558176,49.5510263 43.3537686,49.1567454 43.6890406,48.9029512 L50.2938651,43.8485488 L42.6242247,38.0320324 C42.1034265,37.6359876 41.7939252,37.0215525 41.8123069,36.4201786 C41.8306887,35.8188048 42.1741608,35.3218554 42.7133408,35.1165263 C43.2525207,34.9111973 43.9054942,35.028683 44.4262924,35.4247278 L53.9921515,42.694242 C54.4504602,43.037818 54.7510068,43.554671 54.8033753,44.0893118 C54.8557438,44.6239526 54.6538219,45.1139787 54.2583555,45.4119717 Z M67.4723188,53.8674368 L57.6898943,53.372431 C56.8071028,53.3277604 56.0104575,52.5077797 55.9105373,51.5409528 C55.810617,50.5741259 56.4452596,49.8265705 57.3280511,49.8712411 L67.1104756,50.3662468 C67.9932671,50.4109174 68.7899124,51.2308982 68.8898326,52.1977251 C68.9897529,53.164552 68.3551103,53.9121074 67.4723188,53.8674368 Z" id="Shape" fill="#FFFFFF" fill-rule="nonzero" transform="translate(56.5, 45) rotate(-43) translate(-56.5, -45)"></path>
    </g>
</svg>