<?xml version="1.0" encoding="UTF-8"?>
<svg width="818px" height="128px" viewBox="0 0 818 128" version="1.1" xmlns="http://www.w3.org/2000/svg" xmlns:xlink="http://www.w3.org/1999/xlink">
    <title>FluentPostgresLightH</title>
    <defs>
        <polygon id="path-1" points="57.3255814 57.1369295 57.6627907 57.1369295 57.6627907 69.2365145 57.3255814 69.5726141 0 24.5352697 0 12.0995851"></polygon>
        <polygon id="path-2" points="57.3255814 69.2365145 57.6627907 68.9004149 57.6627907 80.6639004 57.3255814 81 0 35.9626556 0 24.1991701"></polygon>
        <polygon id="path-3" points="57 57.1369295 57 69.5726141 0 24.5352697 0 12.0995851"></polygon>
        <polygon id="path-4" points="57 69.2365145 57 81 0 36.2987552 5.06261699e-14 24.1991701"></polygon>
    </defs>
    <g id="FluentPostgresLightH" stroke="none" stroke-width="1" fill="none" fill-rule="evenodd">
        <g id="blue-left-/-pink-right-/-black-top">
            <polygon id="Path-2" fill="#333333" points="0 46.8363636 55.6588235 0 114 46.8363636 114 47.1709091 57 92 0 47.1709091"></polygon>
            <g id="left" transform="translate(0, 47)">
                <path d="M57.3255814,45.0373444 L57.6627907,45.0373444 C57.7355991,50.6427538 57.7355991,54.787982 57.6627907,57.473029 C57.5899823,60.1580761 57.4775792,60.1580761 57.3255814,57.473029 L0,12.4356846 L0,0 L57.3255814,45.0373444 Z" id="Path" fill="#40C4FF"></path>
                <g id="Path">
                    <use fill="#3DC4FF" xlink:href="#path-1"></use>
                    <use fill-opacity="0.25" fill="#FFFFFF" xlink:href="#path-1"></use>
                </g>
                <g id="Path">
                    <use fill="#3DC4FF" xlink:href="#path-2"></use>
                    <use fill-opacity="0.5" fill="#FFFFFF" xlink:href="#path-2"></use>
                </g>
            </g>
            <g id="right" transform="translate(85.5, 87.5) scale(-1, 1) translate(-85.5, -87.5)translate(57, 47)">
                <polygon id="Path" fill="#E040FB" points="57 45.0373444 57 57.473029 2.5313085e-14 12.4356846 0 0"></polygon>
                <g id="Path">
                    <use fill="#E040FB" xlink:href="#path-3"></use>
                    <use fill-opacity="0.25" fill="#FFFFFF" xlink:href="#path-3"></use>
                </g>
                <g id="Path">
                    <use fill="#E040FB" xlink:href="#path-4"></use>
                    <use fill-opacity="0.5" fill="#FFFFFF" xlink:href="#path-4"></use>
                </g>
            </g>
        </g>
        <text id="FluentPostgres" font-family="Roboto-Black, Roboto" font-size="100" font-weight="800" fill="#262626">
            <tspan x="135" y="104">Fluent</tspan>
            <tspan x="418.740234" y="104" font-family="Roboto-Regular, Roboto" font-weight="normal">Postgres</tspan>
        </text>
        <path d="M77.269209,53.8204044 L65.5138696,46.7090188 L75.3944573,41.399447 C77.2539215,40.4006574 77.5609915,37.8700042 76.0792256,35.7472015 C74.5985319,33.624488 71.8893324,32.7146827 70.0304042,33.713517 L60.1498969,39.0236218 L58.2745287,26.6020868 C57.921665,24.2648874 55.7304477,22.2108926 53.378868,22.0150559 C51.0278243,21.8192638 49.4083781,23.5559112 49.7612419,25.8931106 L51.6365297,38.3141126 L39.8806542,31.2026824 C37.6677901,29.864228 35.1689669,30.3408417 34.299689,32.2678524 C33.4297947,34.1942855 34.5180204,36.8411372 36.7308844,38.1795916 L48.4867599,45.2910218 L38.6061722,50.6005936 C36.7467884,51.5999162 36.4397184,54.1305694 37.9208678,56.2527945 C38.9144125,57.676541 40.4596766,58.554676 41.930553,58.6771688 C42.6531264,58.7373438 43.3571304,58.6149262 43.9691532,58.2864344 L53.8507325,52.9764188 L55.7261007,65.3979538 C56.079045,67.7356862 58.2707178,69.7891927 60.6212255,69.9849401 C62.9722692,70.1807321 64.5917958,68.4446177 64.2388515,66.1068854 L62.3634833,53.6853504 L74.1193588,60.7967806 C74.8480367,61.2374506 75.6073241,61.481203 76.3293615,61.5413334 C77.8002379,61.6638262 79.1168576,61.0240255 79.7003239,59.7316106 C80.5702988,57.8057105 79.4816175,55.1593471 77.269209,53.8204044 Z" id="Shape" fill="#FFFFFF" fill-rule="nonzero" transform="translate(57, 46) rotate(-43) translate(-57, -46)"></path>
    </g>
</svg>