<?xml version="1.0" encoding="UTF-8"?>
<svg width="461px" height="128px" viewBox="0 0 461 128" version="1.1" xmlns="http://www.w3.org/2000/svg" xmlns:xlink="http://www.w3.org/1999/xlink">
    <title>JWTKitLightH2</title>
    <defs>
        <polygon id="path-1" points="57.3255814 57.1369295 57.6627907 57.1369295 57.6627907 69.2365145 57.3255814 69.5726141 0 24.5352697 0 12.0995851"></polygon>
        <polygon id="path-2" points="57.3255814 69.2365145 57.6627907 68.9004149 57.6627907 80.6639004 57.3255814 81 0 35.9626556 0 24.1991701"></polygon>
        <polygon id="path-3" points="57 57.1369295 57 69.5726141 0 24.5352697 0 12.0995851"></polygon>
        <polygon id="path-4" points="57 69.2365145 57 81 0 36.2987552 5.06261699e-14 24.1991701"></polygon>
    </defs>
    <g id="JWTKitLightH2" stroke="none" stroke-width="1" fill="none" fill-rule="evenodd">
        <g id="blue-left-/-pink-right-/-black-top">
            <polygon id="Path-2" fill="#333333" points="0 46.8363636 55.6588235 0 114 46.8363636 114 47.1709091 57 92 0 47.1709091"></polygon>
            <g id="left" transform="translate(0, 47)">
                <path d="M57.3255814,45.0373444 L57.6627907,45.0373444 C57.7355991,50.6427538 57.7355991,54.787982 57.6627907,57.473029 C57.5899823,60.1580761 57.4775792,60.1580761 57.3255814,57.473029 L0,12.4356846 L0,0 L57.3255814,45.0373444 Z" id="Path" fill="#40C4FF"></path>
                <g id="Path">
                    <use fill="#3DC4FF" xlink:href="#path-1"></use>
                    <use fill-opacity="0.25" fill="#FFFFFF" xlink:href="#path-1"></use>
                </g>
                <g id="Path">
                    <use fill="#3DC4FF" xlink:href="#path-2"></use>
                    <use fill-opacity="0.5" fill="#FFFFFF" xlink:href="#path-2"></use>
                </g>
            </g>
            <g id="right" transform="translate(85.5, 87.5) scale(-1, 1) translate(-85.5, -87.5)translate(57, 47)">
                <polygon id="Path" fill="#E040FB" points="57 45.0373444 57 57.473029 2.5313085e-14 12.4356846 0 0"></polygon>
                <g id="Path">
                    <use fill="#E040FB" xlink:href="#path-3"></use>
                    <use fill-opacity="0.25" fill="#FFFFFF" xlink:href="#path-3"></use>
                </g>
                <g id="Path">
                    <use fill="#E040FB" xlink:href="#path-4"></use>
                    <use fill-opacity="0.5" fill="#FFFFFF" xlink:href="#path-4"></use>
                </g>
            </g>
        </g>
        <text id="JWTKit" font-family="Roboto-Black, Roboto" font-size="100" font-weight="800" fill="#262626">
            <tspan x="134" y="101">JWT</tspan>
            <tspan x="340.152344" y="101" font-family="Roboto-Regular, Roboto" font-weight="normal">Kit</tspan>
        </text>
        <g id="Group" transform="translate(100, 3)"></g>
        <path d="M58.6627537,31.5362708 C58.8774543,33.0552419 59.7952592,33.4803086 60.7214002,32.476283 L67.1108258,25.5495329 C67.9530115,24.6365228 69.5471707,24.7518539 70.6725193,25.8060053 L74.4304381,29.3261727 C75.5541678,30.3788077 75.7857127,31.9746147 74.9439923,32.8871203 L68.5545667,39.8138704 C67.6323081,40.8136871 68.1096448,41.7088894 69.6350103,41.8143482 L80.1584722,42.5419063 C81.5455624,42.6378052 82.8284079,43.8458284 83.0254996,45.24022 L83.6836553,49.8965638 C83.8804635,51.2889496 82.9166839,52.3436346 81.5303601,52.2477887 L71.0068983,51.5202306 C69.4879272,51.4152139 69.2451782,52.2561545 70.4762298,53.4093214 L78.9692267,61.3649939 C80.0886827,62.4136255 80.308741,64.0066973 79.4621223,64.9245133 L76.6349762,67.9894106 C75.7895753,68.9059064 74.1950403,68.8016492 73.0762028,67.753597 L64.5832058,59.7979245 C63.3573148,58.6495917 62.5366793,58.9436589 62.7522837,60.4690245 L64.2397332,70.9924863 C64.4357929,72.3795765 63.4641569,73.424497 62.0697653,73.3280933 L57.4134215,73.0061687 C56.0210357,72.9099037 54.7298022,71.7077769 54.5338508,70.321453 L53.0464012,59.7979912 C52.8317007,58.2790201 51.9138957,57.8539534 50.9877548,58.857979 L44.5983292,65.7847291 C43.7561435,66.6977392 42.1619842,66.5824081 41.0366357,65.5282567 L37.2787169,62.0080893 C36.1549871,60.9554543 35.9234423,59.3596473 36.7651627,58.4471417 L43.1545883,51.5203917 C44.0768468,50.5205749 43.5995102,49.6253726 42.0741446,49.5199138 L31.5506828,48.7923558 C30.1635926,48.6964568 28.8807471,47.4884337 28.6836553,46.094042 L28.0254996,41.4376982 C27.8286914,40.0453124 28.792471,38.9906274 30.1787948,39.0864733 L40.7022567,39.8140314 C42.2212277,39.9190481 42.4639768,39.0781075 41.2329252,37.9249406 L32.7399282,29.9692681 C31.6204722,28.9206365 31.4004139,27.3275647 32.2470327,26.4097488 L35.0741787,23.3448514 C35.9195797,22.4283557 37.5141147,22.5326128 38.6329522,23.580665 L47.1259491,31.5363375 C48.3518401,32.6846704 49.1724757,32.3906031 48.9568713,30.8652375 L47.4694217,20.3417757 C47.273362,18.9546855 48.2449981,17.909765 49.6393897,18.0061687 L54.2957335,18.3280933 C55.6881193,18.4243583 56.9793528,19.6264852 57.1753041,21.012809 L58.6627537,31.5362708 Z" id="Shape" fill="#FFFFFF" fill-rule="nonzero" transform="translate(55.8546, 45.6671) rotate(-43) translate(-55.8546, -45.6671)"></path>
    </g>
</svg>