<?xml version="1.0" encoding="UTF-8"?>
<svg width="341px" height="128px" viewBox="0 0 341 128" version="1.1" xmlns="http://www.w3.org/2000/svg" xmlns:xlink="http://www.w3.org/1999/xlink">
    <title>JWTLightH</title>
    <defs>
        <polygon id="path-1" points="57.3255814 57.1369295 57.6627907 57.1369295 57.6627907 69.2365145 57.3255814 69.5726141 0 24.5352697 0 12.0995851"></polygon>
        <polygon id="path-2" points="57.3255814 69.2365145 57.6627907 68.9004149 57.6627907 80.6639004 57.3255814 81 0 35.9626556 0 24.1991701"></polygon>
        <polygon id="path-3" points="57 57.1369295 57 69.5726141 0 24.5352697 0 12.0995851"></polygon>
        <polygon id="path-4" points="57 69.2365145 57 81 0 36.2987552 5.06261699e-14 24.1991701"></polygon>
    </defs>
    <g id="JWTLightH" stroke="none" stroke-width="1" fill="none" fill-rule="evenodd">
        <g id="blue-left-/-pink-right-/-black-top">
            <polygon id="Path-2" fill="#333333" points="0 46.8363636 55.6588235 0 114 46.8363636 114 47.1709091 57 92 0 47.1709091"></polygon>
            <g id="left" transform="translate(0, 47)">
                <path d="M57.3255814,45.0373444 L57.6627907,45.0373444 C57.7355991,50.6427538 57.7355991,54.787982 57.6627907,57.473029 C57.5899823,60.1580761 57.4775792,60.1580761 57.3255814,57.473029 L0,12.4356846 L0,0 L57.3255814,45.0373444 Z" id="Path" fill="#40C4FF"></path>
                <g id="Path">
                    <use fill="#3DC4FF" xlink:href="#path-1"></use>
                    <use fill-opacity="0.25" fill="#FFFFFF" xlink:href="#path-1"></use>
                </g>
                <g id="Path">
                    <use fill="#3DC4FF" xlink:href="#path-2"></use>
                    <use fill-opacity="0.5" fill="#FFFFFF" xlink:href="#path-2"></use>
                </g>
            </g>
            <g id="right" transform="translate(85.5, 87.5) scale(-1, 1) translate(-85.5, -87.5)translate(57, 47)">
                <polygon id="Path" fill="#E040FB" points="57 45.0373444 57 57.473029 2.5313085e-14 12.4356846 0 0"></polygon>
                <g id="Path">
                    <use fill="#E040FB" xlink:href="#path-3"></use>
                    <use fill-opacity="0.25" fill="#FFFFFF" xlink:href="#path-3"></use>
                </g>
                <g id="Path">
                    <use fill="#E040FB" xlink:href="#path-4"></use>
                    <use fill-opacity="0.5" fill="#FFFFFF" xlink:href="#path-4"></use>
                </g>
            </g>
        </g>
        <path d="M47.201791,52.159071 L34.9409935,56.2492131 L31.8572192,49.1436445 L43.7275048,45.1837752 L31,41.1939294 L32.554775,34.1198013 L45.8984732,38.254679 L50.2304372,43.3859127 L44.9279784,45.1824804 L50.613882,46.941919 L47.5078626,51.9090417 L53.3219329,50.0374484 L54,56.3257348 L47.0744852,67.1198013 L40.448528,62.7625635 L47.201791,52.159071 Z M80.5850429,48.8878913 L79.0534922,55.99346 L66.0405656,51.8913152 L75.0030831,62.5068103 L69.3677238,66.8640482 L60.2544411,56.0699817 L59.5850429,49.7816953 L65.7326507,51.6646114 L61.599424,46.6861658 L66.8380449,44.9267273 L61.2208814,43.1301596 L64.4050065,37.9989259 L76.6977807,33.8640482 L79.7387829,40.9381763 L68.0234465,44.9280221 L80.5850429,48.8878913 Z M57.7731624,33.016129 L54.9193794,38 L51.0907245,33.016129 L49.7731624,20 L56.4556003,20 L57.7731624,33.016129 Z M54.4170377,56.6475424 L57.2939324,51.677033 L61.1429266,56.6475424 L62.4170377,69.677033 L55.6911489,69.677033 L54.4170377,56.6475424 Z M50.8933892,33.3665453 L51.5880541,39.6245163 L45.0158039,37.7027772 L35.5880541,26.9607482 L41.4135171,22.6245163 L50.8933892,33.3665453 Z M65.3877478,37.6444454 L59.2201986,39.5661845 L58.5196888,33.3082135 L65.6516297,22.5661845 L72.5196888,26.9024164 L65.3877478,37.6444454 Z" id="Combined-Shape" fill="#FFFFFF" fill-rule="nonzero" transform="translate(55.7925, 44.8385) rotate(-43) translate(-55.7925, -44.8385)"></path>
        <text id="JWT" font-family="Roboto-Black, Roboto" font-size="100" font-weight="800" fill="#262626">
            <tspan x="134" y="101">JWT</tspan>
        </text>
        <g id="Group" transform="translate(100, 3)"></g>
    </g>
</svg>