<?xml version="1.0" encoding="UTF-8"?>
<svg width="453px" height="128px" viewBox="0 0 453 128" version="1.1" xmlns="http://www.w3.org/2000/svg" xmlns:xlink="http://www.w3.org/1999/xlink">
    <title>LeafKitLIghtH</title>
    <defs>
        <polygon id="path-1" points="57.3255814 57.1369295 57.6627907 57.1369295 57.6627907 69.2365145 57.3255814 69.5726141 0 24.5352697 0 12.0995851"></polygon>
        <polygon id="path-2" points="57.3255814 69.2365145 57.6627907 68.9004149 57.6627907 80.6639004 57.3255814 81 0 35.9626556 0 24.1991701"></polygon>
        <polygon id="path-3" points="57 57.1369295 57 69.5726141 0 24.5352697 0 12.0995851"></polygon>
        <polygon id="path-4" points="57 69.2365145 57 81 0 36.2987552 5.06261699e-14 24.1991701"></polygon>
    </defs>
    <g id="LeafKitLIghtH" stroke="none" stroke-width="1" fill="none" fill-rule="evenodd">
        <g id="blue-left-/-pink-right-/-black-top">
            <polygon id="Path-2" fill="#333333" points="0 46.8363636 55.6588235 0 114 46.8363636 114 47.1709091 57 92 0 47.1709091"></polygon>
            <g id="left" transform="translate(0, 47)">
                <path d="M57.3255814,45.0373444 L57.6627907,45.0373444 C57.7355991,50.6427538 57.7355991,54.787982 57.6627907,57.473029 C57.5899823,60.1580761 57.4775792,60.1580761 57.3255814,57.473029 L0,12.4356846 L0,0 L57.3255814,45.0373444 Z" id="Path" fill="#40C4FF"></path>
                <g id="Path">
                    <use fill="#3DC4FF" xlink:href="#path-1"></use>
                    <use fill-opacity="0.25" fill="#FFFFFF" xlink:href="#path-1"></use>
                </g>
                <g id="Path">
                    <use fill="#3DC4FF" xlink:href="#path-2"></use>
                    <use fill-opacity="0.5" fill="#FFFFFF" xlink:href="#path-2"></use>
                </g>
            </g>
            <g id="right" transform="translate(85.5, 87.5) scale(-1, 1) translate(-85.5, -87.5)translate(57, 47)">
                <polygon id="Path" fill="#E040FB" points="57 45.0373444 57 57.473029 2.5313085e-14 12.4356846 0 0"></polygon>
                <g id="Path">
                    <use fill="#E040FB" xlink:href="#path-3"></use>
                    <use fill-opacity="0.25" fill="#FFFFFF" xlink:href="#path-3"></use>
                </g>
                <g id="Path">
                    <use fill="#E040FB" xlink:href="#path-4"></use>
                    <use fill-opacity="0.5" fill="#FFFFFF" xlink:href="#path-4"></use>
                </g>
            </g>
        </g>
        <text id="LeafKit" font-family="Roboto-Black, Roboto" font-size="100" font-weight="800" fill="#262626">
            <tspan x="135" y="99">Leaf</tspan>
            <tspan x="332.949219" y="99" font-family="Roboto-Regular, Roboto" font-weight="normal">Kit</tspan>
        </text>
        <g id="Group" transform="translate(100, 3)"></g>
        <path d="M33.2365386,34.9017603 C29.4736316,63.3802219 71.7165861,74.2389798 81,48.3177342 C63.3232938,54.8942608 54.2651576,21.1831515 37.2366822,30.4023641 C36.5677248,26.9425612 36.2769261,23.4537132 36.3696355,20 L34.6988179,20.3298137 C34.068487,31.9752651 38.3925817,42.1908703 53.1647299,52.1974546 C44.8460719,50.7235027 38.9140145,43.2086487 33.2365386,34.9017603 Z" id="Path" fill="#FFFFFF" fill-rule="nonzero" transform="translate(57, 41.5) rotate(-43) translate(-57, -41.5)"></path>
    </g>
</svg>