<?xml version="1.0" encoding="UTF-8"?>
<svg width="1280px" height="640px" viewBox="0 0 1280 640" version="1.1" xmlns="http://www.w3.org/2000/svg" xmlns:xlink="http://www.w3.org/1999/xlink">
    <title>MySQLNIODarkV</title>
    <defs>
        <linearGradient x1="100%" y1="37.5%" x2="0%" y2="62.5%" id="linearGradient-1">
            <stop stop-color="#E040FB" offset="0%"></stop>
            <stop stop-color="#3DC3FF" offset="100%"></stop>
        </linearGradient>
        <rect id="path-2" x="0" y="0" width="1280" height="640"></rect>
        <polygon id="path-3" points="149.791653 149.673412 150.67278 149.673412 150.67278 181.368958 149.791653 182.24939 0 64.2715241 0 31.6955461"></polygon>
        <polygon id="path-4" points="149.791653 181.368958 150.67278 180.488526 150.67278 211.303641 149.791653 212.184073 0 94.2062065 0 63.3910922"></polygon>
        <polygon id="path-5" points="149.311927 149.673412 149.311927 182.24939 0 64.2715241 0 31.6955461"></polygon>
        <polygon id="path-6" points="149.311927 181.368958 149.311927 212.184073 0 95.0866383 1.32615631e-13 63.3910922"></polygon>
        <linearGradient x1="-364.333055%" y1="189.699238%" x2="590.828496%" y2="0.325342959%" id="linearGradient-7">
            <stop stop-color="#E040FB" offset="0%"></stop>
            <stop stop-color="#3DC3FF" offset="100%"></stop>
        </linearGradient>
        <path d="M696.779512,219.222482 L697.332876,218.907787 L698.537781,218.907787 L699.085195,219.109778 C702.848666,221.050644 707.764979,223.064696 712,224 L698.567532,200.478337 L698.499105,200.203162 C693.426601,181.388759 678.162974,156.996194 655.497358,144.913349 L653.951806,144.089286 L654.502195,142.444087 C656.618961,136.129684 661.977073,132.957845 665.179742,131.062354 C665.233294,131.030152 665.28982,130.996487 665.346347,130.962822 C664.623403,130.754977 663.637166,130.501756 662.295406,130.194379 C658.820518,129.401054 655.37538,129 652.05222,129 C639.973412,129 631.913931,134.199063 628.186161,137.297717 L627.614946,137.773419 L626.866715,137.786593 C624.410789,137.830504 621.922138,138.035422 619.466213,138.396956 C579.147984,144.341042 578.277774,173.274005 578.274799,173.565281 L578.261411,174.465457 L577.583094,175.069965 C569.528076,182.253806 569.016363,184.742096 569,185.204625 C569.178505,185.304157 569.776495,185.555913 571.329484,185.555913 C578.268849,185.555913 591.906597,180.708138 592.041963,180.659836 C600.916615,177.61534 609.932582,175.845726 618.927724,175.348068 C617.434236,173.698478 616.043388,172.088407 614.826582,170.639344 L618.070903,167.9637 C620.202544,170.504684 622.416001,173.332553 624.566981,175.108021 L624.580369,175.108021 L625.205135,175.784251 C625.724285,176.311183 626.21666,176.822014 626.698623,177.293326 C626.845889,177.438232 626.994643,177.593384 627.141909,177.736827 C627.372477,177.960773 627.595608,178.178864 627.818739,178.389637 C629.145623,179.646956 630.41598,180.781323 631.589648,181.759075 C631.756252,181.896663 631.930294,182.044496 632.086485,182.171838 C632.126649,182.202576 632.16235,182.230386 632.201026,182.261124 C636.108788,185.372951 637.73913,185.598361 638.118452,185.598361 C638.160103,185.591042 638.213654,185.599824 638.250843,185.586651 C638.253818,185.586651 638.262743,185.583724 638.262743,185.583724 C638.255305,185.583724 639.202867,184.544496 638.119939,179.03952 L638.057463,178.71897 C637.611201,176.536593 636.865945,173.685304 635.650626,169.951405 L639.658054,168.689696 C640.669579,171.801522 641.443099,174.51815 641.972663,176.876171 C670.255222,182.211358 688.025351,198.260831 688.779532,198.953162 L689.170755,199.311768 L689.340334,199.812354 C692.236571,208.372073 688.432936,217.739754 685.805944,222.713407 C689.081503,222.297717 693.713696,221.419496 696.779512,219.222482 Z M589.989491,168.123067 C587.782654,168.123067 585.989491,166.332022 585.989491,164.123932 C585.989491,161.914112 587.780923,160.123067 589.989491,160.123067 C592.198059,160.123067 593.989491,161.914112 593.989491,164.123932 C593.989491,166.332022 592.198059,168.123067 589.989491,168.123067 Z" id="path-8"></path>
    </defs>
    <g id="MySQLNIODarkV" stroke="none" stroke-width="1" fill="none" fill-rule="evenodd">
        <rect fill="#000000" x="0" y="0" width="1280" height="640"></rect>
        <g id="Rectangle">
            <use fill="#000000" xlink:href="#path-2"></use>
            <use fill-opacity="0.15" fill="url(#linearGradient-1)" xlink:href="#path-2"></use>
        </g>
        <g id="blue-left-/-pink-right-/-black-top" transform="translate(491, 61)">
            <polygon id="Path-2" fill="#FFFFFF" points="0 122.690909 145.494118 0 298 122.690909 298 123.567273 149 241 0 123.567273"></polygon>
            <g id="left" transform="translate(0, 123)">
                <path d="M149.791653,117.977866 L150.67278,117.977866 C150.863028,132.661552 150.863028,143.520212 150.67278,150.553844 C150.482532,157.587476 150.188823,157.587476 149.791653,150.553844 L0,32.5759779 L0,0 L149.791653,117.977866 Z" id="Path" fill="#40C4FF"></path>
                <g id="Path">
                    <use fill="#3DC4FF" xlink:href="#path-3"></use>
                    <use fill-opacity="0.25" fill="#FFFFFF" xlink:href="#path-3"></use>
                </g>
                <g id="Path">
                    <use fill="#3DC4FF" xlink:href="#path-4"></use>
                    <use fill-opacity="0.5" fill="#FFFFFF" xlink:href="#path-4"></use>
                </g>
            </g>
            <g id="right" transform="translate(223, 229.5) scale(-1, 1) translate(-223, -229.5)translate(148, 123)">
                <polygon id="Path" fill="#E040FB" points="149.311927 117.977866 149.311927 150.553844 6.63078155e-14 32.5759779 0 0"></polygon>
                <g id="Path">
                    <use fill="#E040FB" xlink:href="#path-5"></use>
                    <use fill-opacity="0.25" fill="#FFFFFF" xlink:href="#path-5"></use>
                </g>
                <g id="Path">
                    <use fill="#E040FB" xlink:href="#path-6"></use>
                    <use fill-opacity="0.5" fill="#FFFFFF" xlink:href="#path-6"></use>
                </g>
            </g>
        </g>
        <text id="MySQLNIO" font-family="Roboto-Black, Roboto" font-size="128" font-weight="800" fill="#FFFFFF">
            <tspan x="325.28125" y="548">MySQL</tspan>
            <tspan x="741.65625" y="548" font-family="Roboto-Regular, Roboto" font-weight="normal">NIO</tspan>
        </text>
        <g id="Shape" fill-rule="nonzero" transform="translate(640.5, 176.5) scale(-1, 1) rotate(43) translate(-640.5, -176.5)">
            <use fill="#000000" xlink:href="#path-8"></use>
            <use fill-opacity="0.15" fill="url(#linearGradient-7)" xlink:href="#path-8"></use>
        </g>
    </g>
</svg>