<?xml version="1.0" encoding="UTF-8"?>
<svg width="628px" height="128px" viewBox="0 0 628 128" version="1.1" xmlns="http://www.w3.org/2000/svg" xmlns:xlink="http://www.w3.org/1999/xlink">
    <title>MySQLNIOLightH</title>
    <defs>
        <polygon id="path-1" points="57.3255814 57.1369295 57.6627907 57.1369295 57.6627907 69.2365145 57.3255814 69.5726141 0 24.5352697 0 12.0995851"></polygon>
        <polygon id="path-2" points="57.3255814 69.2365145 57.6627907 68.9004149 57.6627907 80.6639004 57.3255814 81 0 35.9626556 0 24.1991701"></polygon>
        <polygon id="path-3" points="57 57.1369295 57 69.5726141 0 24.5352697 0 12.0995851"></polygon>
        <polygon id="path-4" points="57 69.2365145 57 81 0 36.2987552 5.06261699e-14 24.1991701"></polygon>
    </defs>
    <g id="MySQLNIOLightH" stroke="none" stroke-width="1" fill="none" fill-rule="evenodd">
        <g id="blue-left-/-pink-right-/-black-top">
            <polygon id="Path-2" fill="#333333" points="0 46.8363636 55.6588235 0 114 46.8363636 114 47.1709091 57 92 0 47.1709091"></polygon>
            <g id="left" transform="translate(0, 47)">
                <path d="M57.3255814,45.0373444 L57.6627907,45.0373444 C57.7355991,50.6427538 57.7355991,54.787982 57.6627907,57.473029 C57.5899823,60.1580761 57.4775792,60.1580761 57.3255814,57.473029 L0,12.4356846 L0,0 L57.3255814,45.0373444 Z" id="Path" fill="#40C4FF"></path>
                <g id="Path">
                    <use fill="#3DC4FF" xlink:href="#path-1"></use>
                    <use fill-opacity="0.25" fill="#FFFFFF" xlink:href="#path-1"></use>
                </g>
                <g id="Path">
                    <use fill="#3DC4FF" xlink:href="#path-2"></use>
                    <use fill-opacity="0.5" fill="#FFFFFF" xlink:href="#path-2"></use>
                </g>
            </g>
            <g id="right" transform="translate(85.5, 87.5) scale(-1, 1) translate(-85.5, -87.5)translate(57, 47)">
                <polygon id="Path" fill="#E040FB" points="57 45.0373444 57 57.473029 2.5313085e-14 12.4356846 0 0"></polygon>
                <g id="Path">
                    <use fill="#E040FB" xlink:href="#path-3"></use>
                    <use fill-opacity="0.25" fill="#FFFFFF" xlink:href="#path-3"></use>
                </g>
                <g id="Path">
                    <use fill="#E040FB" xlink:href="#path-4"></use>
                    <use fill-opacity="0.5" fill="#FFFFFF" xlink:href="#path-4"></use>
                </g>
            </g>
        </g>
        <path d="M78.2524029,60.1895723 L78.4613656,60.0703192 L78.916365,60.0703192 L79.1230808,60.1468631 C80.5442517,60.8823493 82.4007615,61.6455688 84,62 L78.9275996,53.0865278 L78.9017601,52.9822507 C76.9862689,45.8525823 71.2223817,36.6090842 62.6633379,32.0303217 L62.0797029,31.7180451 L62.2875421,31.0946013 C63.0868805,28.7017749 65.1102234,27.4998151 66.319623,26.7815235 C66.3398452,26.7693208 66.3611909,26.7565635 66.3825365,26.7438062 C66.1095369,26.6650438 65.7371115,26.5690867 65.2304332,26.4526069 C63.9182374,26.1519783 62.6172762,26 61.3623767,26 C56.8011484,26 53.7577082,27.9701713 52.3500187,29.1443979 L52.1343153,29.3246641 L51.8517663,29.3296561 C50.924354,29.3462961 49.9845837,29.4239492 49.0571714,29.5609516 C33.8321059,31.8134476 33.5034952,42.7775176 33.5023717,42.887896 L33.4973162,43.2290152 L33.2411684,43.458092 C30.1994133,46.1803895 30.006179,47.1233206 30,47.2985948 C30.0674073,47.3363121 30.2932218,47.4317145 30.8796655,47.4317145 C33.5001248,47.4317145 38.6500437,45.5946629 38.7011609,45.5763589 C42.0524279,44.422655 45.457059,43.7520646 48.853826,43.5634784 C48.2898515,42.9383705 47.7646361,42.3282386 47.3051429,41.7791199 L48.5302709,40.7651917 C49.3352266,41.7280907 50.1710773,42.7997042 50.9833354,43.4725133 L50.988391,43.4725133 L51.2243166,43.7287686 C51.4203595,43.9284482 51.6062913,44.1220264 51.7882911,44.3006286 C51.8439021,44.3555405 51.9000749,44.414335 51.9556859,44.4686922 C52.0427537,44.553556 52.1270129,44.6362012 52.211272,44.716073 C52.712333,45.1925305 53.1920484,45.6223962 53.6352515,45.9929126 C53.698165,46.0450512 53.7638872,46.1010724 53.8228686,46.1493282 C53.8380352,46.1609762 53.8515167,46.1715149 53.8661216,46.1831628 C55.3417801,47.3623814 55.9574335,47.4477998 56.1006741,47.4477998 C56.1164024,47.4450265 56.1366246,47.4483545 56.1506678,47.4433625 C56.1517913,47.4433625 56.1551617,47.4422532 56.1551617,47.4422532 C56.152353,47.4422532 56.5101735,47.0484408 56.1012358,44.9623444 L56.0776432,44.8408727 C55.909125,44.0138666 55.6276994,42.9333785 55.1687679,41.5184272 L56.6820622,41.0403057 C57.0640369,42.2195242 57.3561353,43.2489831 57.5561103,44.142549 C68.2362377,46.1643042 74.9466359,52.2462098 75.2314318,52.5085665 L75.3791661,52.6444595 L75.4432031,52.8341551 C76.5368868,56.077838 75.1005492,59.6276963 74.1085383,61.5124492 C75.3454625,61.3549242 77.0946823,61.022125 78.2524029,60.1895723 Z M38.0678132,40.5936467 C37.2402494,40.5936467 36.5678132,39.9220049 36.5678132,39.0939712 C36.5678132,38.2652885 37.2396003,37.5936467 38.0678132,37.5936467 C38.8960261,37.5936467 39.5678132,38.2652885 39.5678132,39.0939712 C39.5678132,39.9220049 38.8960261,40.5936467 38.0678132,40.5936467 Z" id="Shape" fill="#FFFFFF" fill-rule="nonzero" transform="translate(57, 44) scale(-1, 1) rotate(43) translate(-57, -44)"></path>
        <text id="MySQLNIO" font-family="Roboto-Black, Roboto" font-size="100" font-weight="800" fill="#262626">
            <tspan x="135" y="99">MySQL</tspan>
            <tspan x="460.292969" y="99" font-family="Roboto-Regular, Roboto" font-weight="normal">NIO</tspan>
        </text>
    </g>
</svg>