<?xml version="1.0" encoding="UTF-8"?>
<svg width="671px" height="128px" viewBox="0 0 671 128" version="1.1" xmlns="http://www.w3.org/2000/svg" xmlns:xlink="http://www.w3.org/1999/xlink">
    <title>OpenCryptoLightH</title>
    <defs>
        <polygon id="path-1" points="57.3255814 57.1369295 57.6627907 57.1369295 57.6627907 69.2365145 57.3255814 69.5726141 0 24.5352697 0 12.0995851"></polygon>
        <polygon id="path-2" points="57.3255814 69.2365145 57.6627907 68.9004149 57.6627907 80.6639004 57.3255814 81 0 35.9626556 0 24.1991701"></polygon>
        <polygon id="path-3" points="57 57.1369295 57 69.5726141 0 24.5352697 0 12.0995851"></polygon>
        <polygon id="path-4" points="57 69.2365145 57 81 0 36.2987552 5.06261699e-14 24.1991701"></polygon>
    </defs>
    <g id="OpenCryptoLightH" stroke="none" stroke-width="1" fill="none" fill-rule="evenodd">
        <g id="blue-left-/-pink-right-/-black-top">
            <polygon id="Path-2" fill="#333333" points="0 46.8363636 55.6588235 0 114 46.8363636 114 47.1709091 57 92 0 47.1709091"></polygon>
            <g id="left" transform="translate(0, 47)">
                <path d="M57.3255814,45.0373444 L57.6627907,45.0373444 C57.7355991,50.6427538 57.7355991,54.787982 57.6627907,57.473029 C57.5899823,60.1580761 57.4775792,60.1580761 57.3255814,57.473029 L0,12.4356846 L0,0 L57.3255814,45.0373444 Z" id="Path" fill="#40C4FF"></path>
                <g id="Path">
                    <use fill="#3DC4FF" xlink:href="#path-1"></use>
                    <use fill-opacity="0.25" fill="#FFFFFF" xlink:href="#path-1"></use>
                </g>
                <g id="Path">
                    <use fill="#3DC4FF" xlink:href="#path-2"></use>
                    <use fill-opacity="0.5" fill="#FFFFFF" xlink:href="#path-2"></use>
                </g>
            </g>
            <g id="right" transform="translate(85.5, 87.5) scale(-1, 1) translate(-85.5, -87.5)translate(57, 47)">
                <polygon id="Path" fill="#E040FB" points="57 45.0373444 57 57.473029 2.5313085e-14 12.4356846 0 0"></polygon>
                <g id="Path">
                    <use fill="#E040FB" xlink:href="#path-3"></use>
                    <use fill-opacity="0.25" fill="#FFFFFF" xlink:href="#path-3"></use>
                </g>
                <g id="Path">
                    <use fill="#E040FB" xlink:href="#path-4"></use>
                    <use fill-opacity="0.5" fill="#FFFFFF" xlink:href="#path-4"></use>
                </g>
            </g>
        </g>
        <text id="OpenCrypto" font-family="Roboto-Regular, Roboto" font-size="100" font-weight="normal" fill="#262626">
            <tspan x="135" y="98">Open</tspan>
            <tspan x="368.007812" y="98" font-family="Roboto-Black, Roboto" font-weight="800">Crypto</tspan>
        </text>
        <path d="M41.1508848,33.01824 C45.9161001,33.2722663 50.3787478,36.1405405 52.9679854,40.1447 L78.3858116,41.4996857 L85,47.1676149 L78.0105239,53.291525 L73.9994839,49.5341525 L70.8389991,52.9092219 L66.827959,49.1518494 L63.6674743,52.5269188 L54.3855789,52.0321151 C52.7243254,55.8096874 48.8930449,58.2358249 44.1278296,57.9817985 C37.1965927,57.6123048 30.9112441,51.7244405 30.0891888,44.8309889 C29.2671335,37.9375373 34.2196479,32.6487463 41.1508848,33.01824 Z M37.5594551,41.6237538 C35.3658429,41.5200461 33.7979452,43.0006814 34.0574843,44.9308414 C34.3170233,46.8610015 36.305718,48.5097823 38.4993302,48.61349 C40.6929424,48.7171977 42.2608401,47.2365624 42.001301,45.3064024 C41.741762,43.3762423 39.7530672,41.7274615 37.5594551,41.6237538 Z" id="Shape" fill="#FFFFFF" fill-rule="nonzero" transform="translate(57.5, 45.5) rotate(-43) translate(-57.5, -45.5)"></path>
    </g>
</svg>