<?xml version="1.0" encoding="UTF-8"?>
<svg width="663px" height="128px" viewBox="0 0 663 128" version="1.1" xmlns="http://www.w3.org/2000/svg" xmlns:xlink="http://www.w3.org/1999/xlink">
    <title>PostgresKitLightH</title>
    <defs>
        <polygon id="path-1" points="57.3255814 57.1369295 57.6627907 57.1369295 57.6627907 69.2365145 57.3255814 69.5726141 0 24.5352697 0 12.0995851"></polygon>
        <polygon id="path-2" points="57.3255814 69.2365145 57.6627907 68.9004149 57.6627907 80.6639004 57.3255814 81 0 35.9626556 0 24.1991701"></polygon>
        <polygon id="path-3" points="57 57.1369295 57 69.5726141 0 24.5352697 0 12.0995851"></polygon>
        <polygon id="path-4" points="57 69.2365145 57 81 0 36.2987552 5.06261699e-14 24.1991701"></polygon>
    </defs>
    <g id="PostgresKitLightH" stroke="none" stroke-width="1" fill="none" fill-rule="evenodd">
        <g id="blue-left-/-pink-right-/-black-top">
            <polygon id="Path-2" fill="#333333" points="0 46.8363636 55.6588235 0 114 46.8363636 114 47.1709091 57 92 0 47.1709091"></polygon>
            <g id="left" transform="translate(0, 47)">
                <path d="M57.3255814,45.0373444 L57.6627907,45.0373444 C57.7355991,50.6427538 57.7355991,54.787982 57.6627907,57.473029 C57.5899823,60.1580761 57.4775792,60.1580761 57.3255814,57.473029 L0,12.4356846 L0,0 L57.3255814,45.0373444 Z" id="Path" fill="#40C4FF"></path>
                <g id="Path">
                    <use fill="#3DC4FF" xlink:href="#path-1"></use>
                    <use fill-opacity="0.25" fill="#FFFFFF" xlink:href="#path-1"></use>
                </g>
                <g id="Path">
                    <use fill="#3DC4FF" xlink:href="#path-2"></use>
                    <use fill-opacity="0.5" fill="#FFFFFF" xlink:href="#path-2"></use>
                </g>
            </g>
            <g id="right" transform="translate(85.5, 87.5) scale(-1, 1) translate(-85.5, -87.5)translate(57, 47)">
                <polygon id="Path" fill="#E040FB" points="57 45.0373444 57 57.473029 2.5313085e-14 12.4356846 0 0"></polygon>
                <g id="Path">
                    <use fill="#E040FB" xlink:href="#path-3"></use>
                    <use fill-opacity="0.25" fill="#FFFFFF" xlink:href="#path-3"></use>
                </g>
                <g id="Path">
                    <use fill="#E040FB" xlink:href="#path-4"></use>
                    <use fill-opacity="0.5" fill="#FFFFFF" xlink:href="#path-4"></use>
                </g>
            </g>
        </g>
        <text id="PostgresKit" font-family="Roboto-Black, Roboto" font-size="100" font-weight="800" fill="#262626">
            <tspan x="135" y="104">Postgres</tspan>
            <tspan x="542.861328" y="104" font-family="Roboto-Regular, Roboto" font-weight="normal">Kit</tspan>
        </text>
        <path d="M72.8630101,20.1241378 C71.1869017,20.6959594 70.4026732,21.6019783 70.5103245,22.8421943 C70.6150638,24.0613004 71.0789658,25.5082013 71.9020306,27.1828971 C73.3799765,30.5393344 72.8589322,32.7400956 70.3388978,33.785181 C64.3022331,31.8697518 60.7087203,31.6474046 59.5583593,33.1181394 C52.8644272,31.6495765 50.5275428,33.1793063 52.5477061,37.7073287 C52.7692142,38.3933971 52.5173922,38.5605324 51.7922401,38.2087346 C43.0172309,35.2959946 36.7720438,35.7009345 33.056679,39.4235543 C31.3443372,41.2655056 30.3406777,43.1865827 30.0457004,45.1867856 L29.3071347,48.5697271 C29.1242,49.3895145 28.6884884,50.2928762 28,51.2798123 C28.5775436,50.8681339 29.1760683,50.0720735 29.7955741,48.8916313 C30.2925822,47.7428608 30.5163337,46.9890405 30.4668284,46.6301704 C31.8777967,49.5010776 33.0277054,52.548796 33.9165547,55.7733257 C34.9948794,59.4517138 35.1716809,62.4194408 34.4469591,64.6765065 C34.2648361,66.2685738 35.126951,67.1533959 37.0333038,67.3309727 C38.2328839,67.5965457 39.3766334,67.5340347 40.4645524,67.1434396 C41.5495592,66.7317344 41.2430521,65.7360548 39.545031,64.1564007 C40.5090193,61.3346257 41.0928638,58.6694376 41.2965644,56.1608366 C41.7156167,60.5781149 42.2269237,63.1350558 42.8304853,63.8316592 C44.3401289,64.352297 45.8775325,64.6143339 47.4426961,64.6177699 C49.1702193,64.5719403 48.9867111,63.4715831 46.8921715,61.3166981 C46.8324019,58.8907923 46.494148,56.2854649 45.8774098,53.5007158 C49.0205785,52.527724 51.5671321,52.5179146 53.5170706,53.4712874 C54.7333604,57.5366878 55.4286768,61.12098 55.6030198,64.2241639 C55.048582,65.7230142 55.0259543,67.0151329 55.5351364,68.1005201 C56.6092114,68.8358007 57.5030009,69.3371199 58.2165048,69.6044777 C60.8595626,70.6774383 61.1927551,69.5673783 59.2160822,66.2742978 C58.8039056,66.1986748 58.7135837,65.7738376 58.9451165,64.9997864 C62.6817268,66.6426637 64.4772301,66.9363522 64.3316265,65.880852 C63.582366,64.5878943 63.5850151,63.5341455 64.3395741,62.7196056 C65.3721636,61.9279204 65.432696,60.6806588 64.5211713,58.9778207 C63.4772194,58.3076281 62.7732867,56.4235837 62.409373,53.3256873 C62.1047033,50.503979 62.4435047,48.1317072 63.4257773,46.2088721 C64.7027411,43.6632718 67.1130716,41.8995673 70.6567686,40.9177586 C71.4928656,40.6942988 72.386798,40.5068991 73.338566,40.3555596 C79.8424017,39.6796924 83.0625727,37.732111 82.9990792,34.5128154 L77.8844666,37.4421187 C79.3157702,36.0153486 79.9104758,34.8850444 79.6685831,34.0512059 C78.0817465,35.4234496 76.7929668,36.3506051 75.802244,36.8326725 C75.2996025,37.0209312 75.1061649,36.9215477 75.2219313,36.534522 C76.919187,32.4373031 76.6836428,29.1203821 74.515299,26.583759 C73.2684092,24.7490001 72.6158913,23.3909476 72.5577452,22.5096016 C72.6124535,21.22012 74.0892048,20.9658408 76.9879992,21.7467641 C76.2318167,21.0167443 76.1419961,20.5189012 76.7185372,20.2532347 C76.484283,20.0878841 76.2776934,20.1230786 76.0987685,20.3588181 C74.7776932,19.9789048 73.699107,19.900678 72.8630101,20.1241378 Z M58.2799184,55.6214579 C59.5498781,58.1216275 59.5880271,59.4549608 58.3943653,59.6214579 C58.4885642,58.8723687 58.4504152,57.5390353 58.2799184,55.6214579 Z" id="Shape" fill="#FFFFFF" fill-rule="nonzero" transform="translate(55.5, 45) rotate(-43) translate(-55.5, -45)"></path>
    </g>
</svg>