<?xml version="1.0" encoding="UTF-8"?>
<svg width="1280px" height="640px" viewBox="0 0 1280 640" version="1.1" xmlns="http://www.w3.org/2000/svg" xmlns:xlink="http://www.w3.org/1999/xlink">
    <title>PostgresKitDarkV</title>
    <defs>
        <linearGradient x1="100%" y1="37.5%" x2="0%" y2="62.5%" id="linearGradient-1">
            <stop stop-color="#E040FB" offset="0%"></stop>
            <stop stop-color="#3DC3FF" offset="100%"></stop>
        </linearGradient>
        <rect id="path-2" x="0" y="0" width="1280" height="640"></rect>
        <polygon id="path-3" points="149.791653 149.673412 150.67278 149.673412 150.67278 181.368958 149.791653 182.24939 0 64.2715241 0 31.6955461"></polygon>
        <polygon id="path-4" points="149.791653 181.368958 150.67278 180.488526 150.67278 211.303641 149.791653 212.184073 0 94.2062065 0 63.3910922"></polygon>
        <polygon id="path-5" points="149.311927 149.673412 149.311927 182.24939 0 64.2715241 0 31.6955461"></polygon>
        <polygon id="path-6" points="149.311927 181.368958 149.311927 212.184073 0 95.0866383 1.32615631e-13 63.3910922"></polygon>
        <linearGradient x1="1140.1577%" y1="561.324234%" x2="-1324.34151%" y2="-111.831726%" id="linearGradient-7">
            <stop stop-color="#E040FB" offset="0%"></stop>
            <stop stop-color="#3DC3FF" offset="100%"></stop>
        </linearGradient>
        <path d="M681.855533,122.295448 C677.863348,123.656383 675.995458,125.812708 676.251864,128.764422 C676.501334,131.665895 677.606264,135.109519 679.566655,139.095295 C683.086853,147.083616 681.84582,152.321428 675.843557,154.808731 C661.465319,150.250009 652.906225,149.720823 650.166274,153.221172 C634.222545,149.725992 628.656511,153.366749 633.468173,164.143442 C633.995765,165.776285 633.395971,166.174067 631.66879,165.336788 C610.768314,158.404467 595.893414,159.368224 587.04409,168.228059 C582.965603,172.611903 580.575069,177.184067 579.872486,181.94455 L578.113357,189.995951 C577.67764,191.947045 576.639854,194.097045 575,196.445953 C576.375604,195.466159 577.801181,193.571535 579.276731,190.762083 C580.460514,188.028009 580.993449,186.233916 580.875537,185.379806 C584.236207,192.212565 586.97508,199.466134 589.092158,207.140515 C591.660531,215.895079 592.08164,222.958269 590.355484,228.330086 C589.921701,232.119206 591.975102,234.225082 596.515687,234.647715 C599.372869,235.279779 602.097072,235.131003 604.688297,234.201386 C607.272587,233.221528 606.542542,230.85181 602.498165,227.092234 C604.79421,220.376409 606.184821,214.033262 606.669999,208.062791 C607.668105,218.575913 608.885946,224.661433 610.32352,226.319349 C613.919216,227.558467 617.581032,228.182115 621.308967,228.190292 C625.423613,228.081218 624.98653,225.462368 619.997718,220.333741 C619.855357,214.560086 619.049698,208.359406 617.58074,201.731704 C625.067196,199.415983 631.132624,199.392637 635.777023,201.661664 C638.674004,211.337317 640.330121,219.867932 640.745374,227.25351 C639.424805,230.820774 639.370909,233.896016 640.583689,236.479238 C643.14194,238.229206 645.270784,239.422345 646.97022,240.058657 C653.265504,242.612303 654.059108,239.97036 649.351032,232.132829 C648.369302,231.952846 648.154172,230.941734 648.705641,229.099492 C657.605567,233.00954 661.88213,233.708518 661.535329,231.196428 C659.750726,228.119188 659.757036,225.611266 661.554258,223.672661 C664.013699,221.788451 664.157876,218.819968 661.98679,214.767213 C659.500286,213.172155 657.823646,208.688129 656.95687,201.315136 C656.231202,194.59947 657.038166,188.953463 659.37776,184.377116 C662.419256,178.318587 668.160225,174.12097 676.600667,171.784265 C678.592098,171.252431 680.721283,170.80642 682.988221,170.446232 C698.479175,168.837668 706.149037,164.202424 705.997807,156.540501 L693.815729,163.512243 C697.224835,160.11653 698.641315,157.426406 698.065171,155.44187 C694.285614,158.70781 691.215975,160.91444 688.856254,162.061761 C687.659053,162.509816 687.19832,162.273283 687.474055,161.352162 C691.516609,151.600781 690.955586,143.706509 685.790985,137.669346 C682.82112,133.30262 681.266941,130.070455 681.128448,127.972852 C681.258753,124.903886 684.776106,124.298701 691.680507,126.157299 C689.879418,124.419851 689.665482,123.234985 691.038698,122.602699 C690.480747,122.209164 689.988688,122.292927 689.562521,122.853987 C686.41596,121.949793 683.846964,121.763614 681.855533,122.295448 Z M647.304933,207.505969 C649.844853,213.131351 649.921151,216.131351 647.533827,216.505969 C647.722225,214.820519 647.645927,211.820519 647.304933,207.505969 Z" id="path-8"></path>
    </defs>
    <g id="PostgresKitDarkV" stroke="none" stroke-width="1" fill="none" fill-rule="evenodd">
        <rect fill="#000000" x="0" y="0" width="1280" height="640"></rect>
        <g id="Rectangle">
            <use fill="#000000" xlink:href="#path-2"></use>
            <use fill-opacity="0.15" fill="url(#linearGradient-1)" xlink:href="#path-2"></use>
        </g>
        <g id="blue-left-/-pink-right-/-black-top" transform="translate(491, 61)">
            <polygon id="Path-2" fill="#FFFFFF" points="0 122.690909 145.494118 0 298 122.690909 298 123.567273 149 241 0 123.567273"></polygon>
            <g id="left" transform="translate(0, 123)">
                <path d="M149.791653,117.977866 L150.67278,117.977866 C150.863028,132.661552 150.863028,143.520212 150.67278,150.553844 C150.482532,157.587476 150.188823,157.587476 149.791653,150.553844 L0,32.5759779 L0,0 L149.791653,117.977866 Z" id="Path" fill="#40C4FF"></path>
                <g id="Path">
                    <use fill="#3DC4FF" xlink:href="#path-3"></use>
                    <use fill-opacity="0.25" fill="#FFFFFF" xlink:href="#path-3"></use>
                </g>
                <g id="Path">
                    <use fill="#3DC4FF" xlink:href="#path-4"></use>
                    <use fill-opacity="0.5" fill="#FFFFFF" xlink:href="#path-4"></use>
                </g>
            </g>
            <g id="right" transform="translate(223, 229.5) scale(-1, 1) translate(-223, -229.5)translate(148, 123)">
                <polygon id="Path" fill="#E040FB" points="149.311927 117.977866 149.311927 150.553844 6.63078155e-14 32.5759779 0 0"></polygon>
                <g id="Path">
                    <use fill="#E040FB" xlink:href="#path-5"></use>
                    <use fill-opacity="0.25" fill="#FFFFFF" xlink:href="#path-5"></use>
                </g>
                <g id="Path">
                    <use fill="#E040FB" xlink:href="#path-6"></use>
                    <use fill-opacity="0.5" fill="#FFFFFF" xlink:href="#path-6"></use>
                </g>
            </g>
        </g>
        <text id="PostgresKit" font-family="Roboto-Black, Roboto" font-size="128" font-weight="800" fill="#FFFFFF">
            <tspan x="302.90625" y="548">Postgres</tspan>
            <tspan x="824.96875" y="548" font-family="Roboto-Regular, Roboto" font-weight="normal">Kit</tspan>
        </text>
        <g id="Shape" fill-rule="nonzero" transform="translate(640.5, 181.5) rotate(-43) translate(-640.5, -181.5)">
            <use fill="#000000" xlink:href="#path-8"></use>
            <use fill-opacity="0.15" fill="url(#linearGradient-7)" xlink:href="#path-8"></use>
        </g>
    </g>
</svg>