<?xml version="1.0" encoding="UTF-8"?>
<svg width="1280px" height="640px" viewBox="0 0 1280 640" version="1.1" xmlns="http://www.w3.org/2000/svg" xmlns:xlink="http://www.w3.org/1999/xlink">
    <title>QueuesRedisDarkV</title>
    <defs>
        <linearGradient x1="100%" y1="37.5%" x2="0%" y2="62.5%" id="linearGradient-1">
            <stop stop-color="#E040FB" offset="0%"></stop>
            <stop stop-color="#3DC3FF" offset="100%"></stop>
        </linearGradient>
        <rect id="path-2" x="1" y="0" width="1280" height="640"></rect>
        <polygon id="path-3" points="149.791653 149.673412 150.67278 149.673412 150.67278 181.368958 149.791653 182.24939 0 64.2715241 0 31.6955461"></polygon>
        <polygon id="path-4" points="149.791653 181.368958 150.67278 180.488526 150.67278 211.303641 149.791653 212.184073 0 94.2062065 0 63.3910922"></polygon>
        <polygon id="path-5" points="149.311927 149.673412 149.311927 182.24939 0 64.2715241 0 31.6955461"></polygon>
        <polygon id="path-6" points="149.311927 181.368958 149.311927 212.184073 0 95.0866383 1.32615631e-13 63.3910922"></polygon>
        <linearGradient x1="423.404924%" y1="-31.7871485%" x2="-316.640798%" y2="251.294836%" id="linearGradient-7">
            <stop stop-color="#E040FB" offset="0%"></stop>
            <stop stop-color="#3DC3FF" offset="100%"></stop>
        </linearGradient>
        <path d="M611.321988,145.873795 L622.137334,136.954472 L631.060662,145.139071 C636.358889,149.998677 645.155954,147.601185 647.431516,141.838651 C648.71951,138.833504 647.990809,135.54856 645.481123,133.246641 L636.557794,125.062042 L643.467598,119.363586 C647.37314,116.142719 653.165943,116.222817 656.791045,119.54781 L718.417782,176.072698 C722.042885,179.397691 721.827162,184.432968 717.921621,187.653835 L643.716334,248.850299 C640.111219,251.823406 634.318416,251.743309 630.693314,248.418315 L595,215.679919 C598.754536,215.983746 602.83107,215.536287 606.650322,214.329531 L635.929994,241.185247 C637.603118,242.719859 640.220666,242.504139 641.722797,241.265345 L709.619132,185.271818 C711.121263,184.033024 711.507978,181.771154 709.834854,180.236542 L666.612482,140.59239 C664.939358,139.057777 662.32181,139.273497 660.819679,140.512292 L633.180463,163.306117 C631.293202,160.005153 629.105514,156.951948 626.03812,154.138492 C621.85531,150.301961 616.749648,147.712235 611.321988,145.873795 Z M593.831959,156.208854 L600.693115,156 L598.404119,176.501532 L613,189.59002 L607.599238,194 L591,179.115053 L593.831959,156.208854 Z M567.533117,155.327869 C582.504642,143.264005 606.623971,144.546965 621.008967,157.620014 C635.681663,170.954525 635.729129,191.634286 620.757604,203.698151 C605.78608,215.762015 581.666751,214.479055 566.994055,201.144545 C561.815456,196.438247 558.392354,190.810679 557.006588,185.021308 L548,184.386127 L562.384406,172.795356 L576.481703,185.606944 L564.562959,185.345198 C565.966302,189.640547 568.538023,193.487717 572.278122,196.88671 C584.073819,207.60661 603.543074,208.690254 615.579006,198.991853 C627.614937,189.293452 627.520597,172.597749 615.7249,161.877849 C604.216902,151.41941 584.747648,150.335766 572.711716,160.034167 C569.482564,162.636177 567.116511,166.02257 565.625277,169.197331 L560.158979,164.229572 C561.943772,160.818265 564.303965,157.929879 567.533117,155.327869 Z M654,161.930035 L661.270591,156 L668,162.069965 L660.729409,168 L654,161.930035 Z M638,174.930035 L645.270591,169 L652,175.069965 L644.729409,181 L638,174.930035 Z M621,210.930035 L628.270591,205 L635,211.069965 L627.729409,217 L621,210.930035 Z M668,174.930035 L675.270591,169 L682,175.069965 L674.729409,181 L668,174.930035 Z M652,184.930035 L659.270591,179 L666,185.069965 L658.729409,191 L652,184.930035 Z M637,197.930035 L644.270591,192 L651,198.069965 L643.729409,204 L637,197.930035 Z M635,222.930035 L642.270591,217 L649,223.069965 L641.729409,229 L635,222.930035 Z M682,184.930035 L689.270591,179 L696,185.069965 L688.729409,191 L682,184.930035 Z M665,196.930035 L672.270591,191 L679,197.069965 L671.729409,203 L665,196.930035 Z M649,210.930035 L656.270591,205 L663,211.069965 L655.729409,217 L649,210.930035 Z M627.998956,124.019618 L640.910736,135.407159 C644.676672,138.728525 637.766979,144.301748 634.001044,140.980382 L621.089264,129.592841 C617.323328,126.271475 624.233021,120.698252 627.998956,124.019618 Z" id="path-8"></path>
    </defs>
    <g id="QueuesRedisDarkV" stroke="none" stroke-width="1" fill="none" fill-rule="evenodd">
        <rect fill="#000000" x="0" y="0" width="1280" height="640"></rect>
        <g id="Rectangle">
            <use fill="#000000" xlink:href="#path-2"></use>
            <use fill-opacity="0.15" fill="url(#linearGradient-1)" xlink:href="#path-2"></use>
        </g>
        <g id="blue-left-/-pink-right-/-black-top" transform="translate(491, 61)">
            <polygon id="Path-2" fill="#FFFFFF" points="0 122.690909 145.494118 0 298 122.690909 298 123.567273 149 241 0 123.567273"></polygon>
            <g id="left" transform="translate(0, 123)">
                <path d="M149.791653,117.977866 L150.67278,117.977866 C150.863028,132.661552 150.863028,143.520212 150.67278,150.553844 C150.482532,157.587476 150.188823,157.587476 149.791653,150.553844 L0,32.5759779 L0,0 L149.791653,117.977866 Z" id="Path" fill="#40C4FF"></path>
                <g id="Path">
                    <use fill="#3DC4FF" xlink:href="#path-3"></use>
                    <use fill-opacity="0.25" fill="#FFFFFF" xlink:href="#path-3"></use>
                </g>
                <g id="Path">
                    <use fill="#3DC4FF" xlink:href="#path-4"></use>
                    <use fill-opacity="0.5" fill="#FFFFFF" xlink:href="#path-4"></use>
                </g>
            </g>
            <g id="right" transform="translate(223, 229.5) scale(-1, 1) translate(-223, -229.5)translate(148, 123)">
                <polygon id="Path" fill="#E040FB" points="149.311927 117.977866 149.311927 150.553844 6.63078155e-14 32.5759779 0 0"></polygon>
                <g id="Path">
                    <use fill="#E040FB" xlink:href="#path-5"></use>
                    <use fill-opacity="0.25" fill="#FFFFFF" xlink:href="#path-5"></use>
                </g>
                <g id="Path">
                    <use fill="#E040FB" xlink:href="#path-6"></use>
                    <use fill-opacity="0.5" fill="#FFFFFF" xlink:href="#path-6"></use>
                </g>
            </g>
        </g>
        <text id="QueuesRedis" font-family="Roboto-Black, Roboto" font-size="128" font-weight="800" fill="#FFFFFF">
            <tspan x="263.71875" y="548">Queues</tspan>
            <tspan x="701.40625" y="548" font-family="Roboto-Regular, Roboto" font-weight="normal">Redis</tspan>
        </text>
        <g id="Shape">
            <use fill="#000000" xlink:href="#path-8"></use>
            <use fill-opacity="0.15" fill="url(#linearGradient-7)" xlink:href="#path-8"></use>
        </g>
    </g>
</svg>