<?xml version="1.0" encoding="UTF-8"?>
<svg width="477px" height="128px" viewBox="0 0 477 128" version="1.1" xmlns="http://www.w3.org/2000/svg" xmlns:xlink="http://www.w3.org/1999/xlink">
    <title>QueuesLightH</title>
    <defs>
        <polygon id="path-1" points="57.3255814 57.1369295 57.6627907 57.1369295 57.6627907 69.2365145 57.3255814 69.5726141 0 24.5352697 0 12.0995851"></polygon>
        <polygon id="path-2" points="57.3255814 69.2365145 57.6627907 68.9004149 57.6627907 80.6639004 57.3255814 81 0 35.9626556 0 24.1991701"></polygon>
        <polygon id="path-3" points="57 57.1369295 57 69.5726141 0 24.5352697 0 12.0995851"></polygon>
        <polygon id="path-4" points="57 69.2365145 57 81 0 36.2987552 5.06261699e-14 24.1991701"></polygon>
    </defs>
    <g id="QueuesLightH" stroke="none" stroke-width="1" fill="none" fill-rule="evenodd">
        <g id="blue-left-/-pink-right-/-black-top">
            <polygon id="Path-2" fill="#333333" points="0 46.8363636 55.6588235 0 114 46.8363636 114 47.1709091 57 92 0 47.1709091"></polygon>
            <g id="left" transform="translate(0, 47)">
                <path d="M57.3255814,45.0373444 L57.6627907,45.0373444 C57.7355991,50.6427538 57.7355991,54.787982 57.6627907,57.473029 C57.5899823,60.1580761 57.4775792,60.1580761 57.3255814,57.473029 L0,12.4356846 L0,0 L57.3255814,45.0373444 Z" id="Path" fill="#40C4FF"></path>
                <g id="Path">
                    <use fill="#3DC4FF" xlink:href="#path-1"></use>
                    <use fill-opacity="0.25" fill="#FFFFFF" xlink:href="#path-1"></use>
                </g>
                <g id="Path">
                    <use fill="#3DC4FF" xlink:href="#path-2"></use>
                    <use fill-opacity="0.5" fill="#FFFFFF" xlink:href="#path-2"></use>
                </g>
            </g>
            <g id="right" transform="translate(85.5, 87.5) scale(-1, 1) translate(-85.5, -87.5)translate(57, 47)">
                <polygon id="Path" fill="#E040FB" points="57 45.0373444 57 57.473029 2.5313085e-14 12.4356846 0 0"></polygon>
                <g id="Path">
                    <use fill="#E040FB" xlink:href="#path-3"></use>
                    <use fill-opacity="0.25" fill="#FFFFFF" xlink:href="#path-3"></use>
                </g>
                <g id="Path">
                    <use fill="#E040FB" xlink:href="#path-4"></use>
                    <use fill-opacity="0.5" fill="#FFFFFF" xlink:href="#path-4"></use>
                </g>
            </g>
        </g>
        <path d="M45.4210392,30.8642059 L49.7459369,27.3201518 L53.3142448,30.5722666 C55.4329276,32.5032099 58.9507447,31.5505768 59.8607085,29.2608588 C60.3757583,28.0667769 60.0843616,26.7615184 59.080775,25.8468611 L55.5124671,22.5947462 L58.2755961,20.3304894 C59.8373647,19.0506921 62.1538214,19.0825185 63.6034465,20.4036902 L88.247073,42.8636086 C89.6966981,44.1847803 89.6104338,46.1855257 88.0486652,47.465323 L58.3750619,71.7814722 C56.9334294,72.9628236 54.6169727,72.9309972 53.1673476,71.6098255 L38.894116,58.6013659 C40.3954996,58.7220904 42.0256457,58.5442943 43.5529086,58.0647952 L55.2614189,68.7357971 C55.9304767,69.3455687 56.9771954,69.2598533 57.5778756,68.7676236 L84.728622,46.5188393 C85.3293022,46.0266095 85.4839439,45.1278654 84.8148862,44.5180939 L67.5308948,28.7656624 C66.861837,28.1558909 65.8151183,28.2416063 65.2144381,28.733836 L54.1619219,37.7908632 C53.4072338,36.4792395 52.5324097,35.2660617 51.3058038,34.1481472 C49.6331595,32.6237183 47.5914806,31.5947019 45.4210392,30.8642059 Z M38.5417903,35.0900574 L41.2442542,35.0069572 L40.3426672,43.1642454 L46.0916758,48.3719813 L43.9644298,50.1266538 L37.4263416,44.2041306 L38.5417903,35.0900574 Z M28.0600726,34.3473227 C33.9923024,29.5227663 43.5492049,30.0358452 49.2490322,35.2639927 C55.0628561,40.5967032 55.0816635,48.866912 49.1494337,53.6914684 C43.2172038,58.5160248 33.6603013,58.0029459 27.8464775,52.6702354 C25.7945396,50.7881023 24.4381895,48.5375364 23.8891019,46.2222628 L20.3203837,45.9682428 L26.0199771,41.3328847 L31.6058079,46.4564692 L26.8831941,46.3517923 C27.4392467,48.0695796 28.4582505,49.6081324 29.9402056,50.9674508 C34.614064,55.2545317 42.3284483,55.6879003 47.0974958,51.8093353 C51.8665434,47.9307704 51.8291624,41.2538583 47.155304,36.9667773 C42.5954422,32.7842593 34.8810579,32.3508908 30.1120104,36.2294558 C28.8325098,37.2700463 27.8949989,38.6243258 27.304121,39.8939699 L25.1381866,37.9072738 C25.8453828,36.5430306 26.780572,35.3879132 28.0600726,34.3473227 Z M62.4924255,37.0949886 L65.4283981,34.6819407 L68.1458337,37.1519293 L65.2098611,39.5649772 L62.4924255,37.0949886 Z M56.4924255,42.2440817 L59.4283981,39.8310338 L62.1458337,42.3010224 L59.2098611,44.7140703 L56.4924255,42.2440817 Z M49.4924255,56.4180237 L52.4283981,54.0049758 L55.1458337,56.4749643 L52.2098611,58.8880123 L49.4924255,56.4180237 Z M67.4924255,41.9707444 L70.4283981,39.5576964 L73.1458337,42.027685 L70.2098611,44.4407329 L67.4924255,41.9707444 Z M61.4924255,46.1198375 L64.4283981,43.7067895 L67.1458337,46.1767781 L64.2098611,48.589826 L61.4924255,46.1198375 Z M55.4924255,51.2689306 L58.4283981,48.8558827 L61.1458337,51.3258712 L58.2098611,53.7389192 L55.4924255,51.2689306 Z M54.4924255,61.2937794 L57.4283981,58.8807315 L60.1458337,61.3507201 L57.2098611,63.763768 L54.4924255,61.2937794 Z M73.4924255,45.8216512 L76.4283981,43.4086033 L79.1458337,45.8785919 L76.2098611,48.2916398 L73.4924255,45.8216512 Z M66.4924255,50.9955932 L69.4283981,48.5825453 L72.1458337,51.0525339 L69.2098611,53.4655818 L66.4924255,50.9955932 Z M60.4924255,56.1446863 L63.4283981,53.7316384 L66.1458337,56.201627 L63.2098611,58.6146749 L60.4924255,56.1446863 Z M52.1328286,21.9859288 L57.2368051,26.5994427 C58.7254649,27.9450509 55.9940904,30.2029697 54.5054306,28.8573615 L49.4014541,24.2438476 C47.9127943,22.8982394 50.6441688,20.6403206 52.1328286,21.9859288 Z" id="Shape" fill="#FFFFFF"></path>
        <text id="Queues" font-family="Roboto-Black, Roboto" font-size="100" font-weight="800" fill="#262626">
            <tspan x="135" y="99">Queues</tspan>
        </text>
        <g id="Group" transform="translate(100, 3)"></g>
    </g>
</svg>