<?xml version="1.0" encoding="UTF-8"?>
<svg width="724px" height="128px" viewBox="0 0 724 128" version="1.1" xmlns="http://www.w3.org/2000/svg" xmlns:xlink="http://www.w3.org/1999/xlink">
    <title>QueuesRedisLightH</title>
    <defs>
        <polygon id="path-1" points="57.3255814 57.1369295 57.6627907 57.1369295 57.6627907 69.2365145 57.3255814 69.5726141 0 24.5352697 0 12.0995851"></polygon>
        <polygon id="path-2" points="57.3255814 69.2365145 57.6627907 68.9004149 57.6627907 80.6639004 57.3255814 81 0 35.9626556 0 24.1991701"></polygon>
        <polygon id="path-3" points="57 57.1369295 57 69.5726141 0 24.5352697 0 12.0995851"></polygon>
        <polygon id="path-4" points="57 69.2365145 57 81 0 36.2987552 5.06261699e-14 24.1991701"></polygon>
    </defs>
    <g id="QueuesRedisLightH" stroke="none" stroke-width="1" fill="none" fill-rule="evenodd">
        <g id="blue-left-/-pink-right-/-black-top">
            <polygon id="Path-2" fill="#333333" points="0 46.8363636 55.6588235 0 114 46.8363636 114 47.1709091 57 92 0 47.1709091"></polygon>
            <g id="left" transform="translate(0, 47)">
                <path d="M57.3255814,45.0373444 L57.6627907,45.0373444 C57.7355991,50.6427538 57.7355991,54.787982 57.6627907,57.473029 C57.5899823,60.1580761 57.4775792,60.1580761 57.3255814,57.473029 L0,12.4356846 L0,0 L57.3255814,45.0373444 Z" id="Path" fill="#40C4FF"></path>
                <g id="Path">
                    <use fill="#3DC4FF" xlink:href="#path-1"></use>
                    <use fill-opacity="0.25" fill="#FFFFFF" xlink:href="#path-1"></use>
                </g>
                <g id="Path">
                    <use fill="#3DC4FF" xlink:href="#path-2"></use>
                    <use fill-opacity="0.5" fill="#FFFFFF" xlink:href="#path-2"></use>
                </g>
            </g>
            <g id="right" transform="translate(85.5, 87.5) scale(-1, 1) translate(-85.5, -87.5)translate(57, 47)">
                <polygon id="Path" fill="#E040FB" points="57 45.0373444 57 57.473029 2.5313085e-14 12.4356846 0 0"></polygon>
                <g id="Path">
                    <use fill="#E040FB" xlink:href="#path-3"></use>
                    <use fill-opacity="0.25" fill="#FFFFFF" xlink:href="#path-3"></use>
                </g>
                <g id="Path">
                    <use fill="#E040FB" xlink:href="#path-4"></use>
                    <use fill-opacity="0.5" fill="#FFFFFF" xlink:href="#path-4"></use>
                </g>
            </g>
        </g>
        <path d="M45.1154773,31.4202324 L49.4429287,27.8924406 L53.0133437,31.1296327 C55.1332776,33.0517156 58.653172,32.1034538 59.563673,29.8242425 C60.079027,28.6356397 59.7874582,27.3363706 58.783279,26.4259103 L55.212864,23.1887181 L57.9776247,20.9348511 C59.5403155,19.6609263 61.85814,19.6926067 63.3086211,21.007716 L87.9667994,43.3645745 C89.4172805,44.6796838 89.3309653,46.6712485 87.7682745,47.9451734 L58.0771492,72.1497451 C56.6346654,73.3256757 54.3168409,73.2939953 52.8663598,71.978886 L38.5846999,59.0301173 C40.0869701,59.1502877 41.7180788,58.9733075 43.2462435,58.4960086 L54.9616676,69.1180454 C55.6311204,69.725019 56.6784572,69.6396969 57.2794922,69.1497258 L84.4462708,47.0030327 C85.0473057,46.5130616 85.2020388,45.6184415 84.532586,45.0114679 L67.2383885,29.3313183 C66.5689357,28.7243448 65.5215989,28.8096669 64.920564,29.2996379 L53.8615213,38.315106 C53.1063876,37.0095007 52.2310469,35.8018898 51.0037168,34.6891049 C49.3300847,33.1716711 47.2872003,32.1473764 45.1154773,31.4202324 Z M38.2321662,35.6266931 L40.9362259,35.5439742 L40.0341065,43.6638317 L45.7865098,48.8476713 L43.6580077,50.5942923 L37.1160588,44.6989453 L38.2321662,35.6266931 Z M27.7442591,34.8873665 C33.6799919,30.0849481 43.2425376,30.5956728 48.9457307,35.7998303 C54.7629875,41.108071 54.7818061,49.340331 48.8460733,54.1427494 C42.9103405,58.9451677 33.3477947,58.4344431 27.5305379,53.1262024 C25.4773884,51.2527057 24.1202373,49.0124668 23.5708255,46.7078171 L20,46.4549626 L25.702959,41.8408744 L31.2920881,46.9409488 L26.5666856,46.8367522 C27.1230666,48.5466572 28.1426722,50.0781502 29.6255024,51.4312312 C34.3021207,55.6986404 42.0210602,56.1300203 46.7929238,52.2692527 C51.5647874,48.408485 51.5273844,41.7622107 46.8507661,37.4948015 C42.2882117,33.3314754 34.5692722,32.9000955 29.7974086,36.7608632 C28.5171525,37.7966789 27.579088,39.1447441 26.9878612,40.4085623 L24.8206478,38.4309824 C25.5282615,37.0729991 26.464003,35.9231822 27.7442591,34.8873665 Z M62.196944,37.6224244 L65.1346503,35.2204491 L67.8536906,37.6791038 L64.9159842,40.0810792 L62.196944,37.6224244 Z M56.1934011,42.7478903 L59.1311074,40.345915 L61.8501476,42.8045697 L58.9124413,45.2065451 L56.1934011,42.7478903 Z M49.1892676,56.8567935 L52.1269739,54.4548181 L54.8460142,56.9134729 L51.9083078,59.3154483 L49.1892676,56.8567935 Z M67.1998965,42.4758072 L70.1376028,40.0738318 L72.856643,42.5324866 L69.9189367,44.934462 L67.1998965,42.4758072 Z M61.1963535,46.6058617 L64.1340598,44.2038864 L66.8531001,46.6625411 L63.9153937,49.0645165 L61.1963535,46.6058617 Z M55.1928106,51.7313276 L58.1305169,49.3293522 L60.8495571,51.788007 L57.9118508,54.1899824 L55.1928106,51.7313276 Z M54.1922201,61.7101763 L57.1299264,59.3082009 L59.8489666,61.7668557 L56.9112603,64.168831 L54.1922201,61.7101763 Z M73.2034394,46.3090438 L76.1411457,43.9070684 L78.860186,46.3657231 L75.9224796,48.7676985 L73.2034394,46.3090438 Z M66.199306,51.4592445 L69.1370123,49.0572691 L71.8560525,51.5159239 L68.9183462,53.9178992 L66.199306,51.4592445 Z M60.195763,56.5847104 L63.1334693,54.182735 L65.8525096,56.6413898 L62.9148033,59.0433651 L60.195763,56.5847104 Z M51.8312299,22.5826943 L56.9382202,27.1750386 C58.427759,28.5144723 55.6947717,30.7620304 54.2052329,29.4225966 L49.0982426,24.8302524 C47.6087037,23.4908187 50.3416911,21.2432606 51.8312299,22.5826943 Z" id="Shape" fill="#FFFFFF"></path>
        <text id="QueuesRedis" font-family="Roboto-Black, Roboto" font-size="100" font-weight="800" fill="#262626">
            <tspan x="135" y="99">Queues</tspan>
            <tspan x="476.943359" y="99" font-family="Roboto-Regular, Roboto" font-weight="normal">Redis</tspan>
        </text>
        <g id="Group" transform="translate(100, 3)"></g>
    </g>
</svg>