<?xml version="1.0" encoding="UTF-8"?>
<svg width="390px" height="128px" viewBox="0 0 390 128" version="1.1" xmlns="http://www.w3.org/2000/svg" xmlns:xlink="http://www.w3.org/1999/xlink">
    <title>RedisLightH</title>
    <defs>
        <polygon id="path-1" points="57.3255814 57.1369295 57.6627907 57.1369295 57.6627907 69.2365145 57.3255814 69.5726141 0 24.5352697 0 12.0995851"></polygon>
        <polygon id="path-2" points="57.3255814 69.2365145 57.6627907 68.9004149 57.6627907 80.6639004 57.3255814 81 0 35.9626556 0 24.1991701"></polygon>
        <polygon id="path-3" points="57 57.1369295 57 69.5726141 0 24.5352697 0 12.0995851"></polygon>
        <polygon id="path-4" points="57 69.2365145 57 81 0 36.2987552 5.06261699e-14 24.1991701"></polygon>
    </defs>
    <g id="RedisLightH" stroke="none" stroke-width="1" fill="none" fill-rule="evenodd">
        <g id="blue-left-/-pink-right-/-black-top">
            <polygon id="Path-2" fill="#333333" points="0 46.8363636 55.6588235 0 114 46.8363636 114 47.1709091 57 92 0 47.1709091"></polygon>
            <g id="left" transform="translate(0, 47)">
                <path d="M57.3255814,45.0373444 L57.6627907,45.0373444 C57.7355991,50.6427538 57.7355991,54.787982 57.6627907,57.473029 C57.5899823,60.1580761 57.4775792,60.1580761 57.3255814,57.473029 L0,12.4356846 L0,0 L57.3255814,45.0373444 Z" id="Path" fill="#40C4FF"></path>
                <g id="Path">
                    <use fill="#3DC4FF" xlink:href="#path-1"></use>
                    <use fill-opacity="0.25" fill="#FFFFFF" xlink:href="#path-1"></use>
                </g>
                <g id="Path">
                    <use fill="#3DC4FF" xlink:href="#path-2"></use>
                    <use fill-opacity="0.5" fill="#FFFFFF" xlink:href="#path-2"></use>
                </g>
            </g>
            <g id="right" transform="translate(85.5, 87.5) scale(-1, 1) translate(-85.5, -87.5)translate(57, 47)">
                <polygon id="Path" fill="#E040FB" points="57 45.0373444 57 57.473029 2.5313085e-14 12.4356846 0 0"></polygon>
                <g id="Path">
                    <use fill="#E040FB" xlink:href="#path-3"></use>
                    <use fill-opacity="0.25" fill="#FFFFFF" xlink:href="#path-3"></use>
                </g>
                <g id="Path">
                    <use fill="#E040FB" xlink:href="#path-4"></use>
                    <use fill-opacity="0.5" fill="#FFFFFF" xlink:href="#path-4"></use>
                </g>
            </g>
        </g>
        <text id="Redis" font-family="Roboto-Black, Roboto" font-size="100" font-weight="800" fill="#262626">
            <tspan x="135" y="98">Redis</tspan>
        </text>
        <g id="Group" transform="translate(100, 3)"></g>
        <path d="M44.0852366,67.826086 C38.6290787,67.4546212 33.516475,62.9110485 32.6659168,57.6777324 C31.8153586,52.4444163 35.5489348,48.5031071 41.0050927,48.8745719 C46.4612506,49.2460367 51.5738543,53.7896093 52.4244125,59.0229254 C53.2749707,64.2562415 49.5413945,68.1975507 44.0852366,67.826086 Z M39.5912913,36.6412079 L32.7827026,39.9630158 L32.9117288,31.928153 L26,25.748234 L34.1039696,25.1412079 L36.640875,18 L41.5203775,25.6597 L50,27.4261098 L44.9117288,32.7670909 L47.6155184,41 L39.5912913,36.6412079 Z M70.960828,49.7255387 L84.0786199,69.7255387 L64.0786199,68.3545792 L70.960828,49.7255387 Z M56.9627825,22.8625948 L75.1306076,24.1218467 L77.9627825,41.8625948 L59.7949573,40.6033429 L56.9627825,22.8625948 Z" id="Combined-Shape" fill="#FFFFFF" transform="translate(55.0393, 43.8628) rotate(-43) translate(-55.0393, -43.8628)"></path>
    </g>
</svg>