<?xml version="1.0" encoding="UTF-8"?>
<svg width="1280px" height="640px" viewBox="0 0 1280 640" version="1.1" xmlns="http://www.w3.org/2000/svg" xmlns:xlink="http://www.w3.org/1999/xlink">
    <title>RoutingKitDarkV</title>
    <defs>
        <linearGradient x1="100%" y1="37.5%" x2="0%" y2="62.5%" id="linearGradient-1">
            <stop stop-color="#E040FB" offset="0%"></stop>
            <stop stop-color="#3DC3FF" offset="100%"></stop>
        </linearGradient>
        <rect id="path-2" x="1" y="0" width="1280" height="640"></rect>
        <polygon id="path-3" points="149.791653 149.673412 150.67278 149.673412 150.67278 181.368958 149.791653 182.24939 0 64.2715241 0 31.6955461"></polygon>
        <polygon id="path-4" points="149.791653 181.368958 150.67278 180.488526 150.67278 211.303641 149.791653 212.184073 0 94.2062065 0 63.3910922"></polygon>
        <polygon id="path-5" points="149.311927 149.673412 149.311927 182.24939 0 64.2715241 0 31.6955461"></polygon>
        <polygon id="path-6" points="149.311927 181.368958 149.311927 212.184073 0 95.0866383 1.32615631e-13 63.3910922"></polygon>
        <linearGradient x1="447.749227%" y1="239.103063%" x2="-482.108204%" y2="-10.6800368%" id="linearGradient-7">
            <stop stop-color="#E040FB" offset="0%"></stop>
            <stop stop-color="#3DC3FF" offset="100%"></stop>
        </linearGradient>
        <path d="M590.759974,147.922254 C579.821332,146.993762 569.718128,137.993147 568.193836,127.818817 C566.669544,117.644487 574.301383,110.149254 585.240026,111.077746 C596.178668,112.006238 606.281872,121.006853 607.806164,131.181183 C609.330456,141.355513 601.698617,148.850746 590.759974,147.922254 Z M695.72942,236.236553 C684.790778,235.308062 674.687574,226.307446 673.163282,216.133116 C671.63899,205.958786 679.270829,198.463554 690.209471,199.392045 C701.148114,200.320537 711.251318,209.321152 712.775609,219.495482 C714.299901,229.669812 706.668062,237.165045 695.72942,236.236553 Z M638.015505,195.035944 L664.777577,216.102148 C665.83487,216.907776 666.570635,218.046351 666.739617,219.138348 C666.908599,220.230346 666.699727,221.291292 665.867743,221.941662 L645.406127,240.384899 C644.734907,240.868795 643.846597,241.155165 642.901959,241.077536 C641.768393,240.984382 640.5785,240.527228 639.68197,239.555127 C638.106004,237.80845 637.739875,235.442455 639.214914,234.12619 L652.972556,221.780383 L611.97526,218.411293 C592.704642,216.827666 580.587417,203.613301 578.672284,191.237328 C577.630227,184.503342 579.506574,178.548242 583.875364,174.235447 C588.754608,169.605231 596.267113,167.527318 605.713494,168.303606 L654.267894,172.293726 C660.502506,172.806076 665.321915,171.405275 668.243829,168.590745 C670.655287,166.093637 671.792361,162.593377 671.17276,158.589385 C669.989883,150.945401 662.487904,142.243069 648.885115,141.125214 L619.979188,138.749774 C617.712056,138.563464 615.758234,136.785736 615.420269,134.601741 C615.082305,132.417745 616.52918,130.919481 618.796311,131.10579 L647.702238,133.481231 C665.839291,134.971703 677.333405,147.775491 679.135884,159.423467 C680.853871,170.525443 673.993842,181.641233 655.290007,180.104183 L606.924534,176.129589 C599.556357,175.524085 593.820474,177.029256 590.255504,180.509682 C587.144662,183.308686 585.931315,187.521419 586.635408,192.071409 C587.902776,200.261392 596.084193,209.7383 610.820548,210.949309 L651.25106,214.271821 L633.843861,200.622735 C631.918203,199.027007 631.363147,196.645486 632.432167,195.11617 C633.690114,193.602379 636.11801,193.622214 638.015505,195.035944 Z" id="path-8"></path>
    </defs>
    <g id="RoutingKitDarkV" stroke="none" stroke-width="1" fill="none" fill-rule="evenodd">
        <rect fill="#000000" x="0" y="0" width="1280" height="640"></rect>
        <g id="Rectangle">
            <use fill="#000000" xlink:href="#path-2"></use>
            <use fill-opacity="0.15" fill="url(#linearGradient-1)" xlink:href="#path-2"></use>
        </g>
        <g id="blue-left-/-pink-right-/-black-top" transform="translate(491, 61)">
            <polygon id="Path-2" fill="#FFFFFF" points="0 122.690909 145.494118 0 298 122.690909 298 123.567273 149 241 0 123.567273"></polygon>
            <g id="left" transform="translate(0, 123)">
                <path d="M149.791653,117.977866 L150.67278,117.977866 C150.863028,132.661552 150.863028,143.520212 150.67278,150.553844 C150.482532,157.587476 150.188823,157.587476 149.791653,150.553844 L0,32.5759779 L0,0 L149.791653,117.977866 Z" id="Path" fill="#40C4FF"></path>
                <g id="Path">
                    <use fill="#3DC4FF" xlink:href="#path-3"></use>
                    <use fill-opacity="0.25" fill="#FFFFFF" xlink:href="#path-3"></use>
                </g>
                <g id="Path">
                    <use fill="#3DC4FF" xlink:href="#path-4"></use>
                    <use fill-opacity="0.5" fill="#FFFFFF" xlink:href="#path-4"></use>
                </g>
            </g>
            <g id="right" transform="translate(223, 229.5) scale(-1, 1) translate(-223, -229.5)translate(148, 123)">
                <polygon id="Path" fill="#E040FB" points="149.311927 117.977866 149.311927 150.553844 6.63078155e-14 32.5759779 0 0"></polygon>
                <g id="Path">
                    <use fill="#E040FB" xlink:href="#path-5"></use>
                    <use fill-opacity="0.25" fill="#FFFFFF" xlink:href="#path-5"></use>
                </g>
                <g id="Path">
                    <use fill="#E040FB" xlink:href="#path-6"></use>
                    <use fill-opacity="0.5" fill="#FFFFFF" xlink:href="#path-6"></use>
                </g>
            </g>
        </g>
        <text id="RoutingKit" font-family="Roboto-Black, Roboto" font-size="128" font-weight="800" fill="#FFFFFF">
            <tspan x="337.6875" y="548">Routing</tspan>
            <tspan x="790.1875" y="548" font-family="Roboto-Regular, Roboto" font-weight="normal">Kit</tspan>
        </text>
        <g id="Combined-Shape" fill-rule="nonzero" transform="translate(640.4847, 176.0451) rotate(-43) translate(-640.4847, -176.0451)">
            <use fill="#000000" xlink:href="#path-8"></use>
            <use fill-opacity="0.15" fill="url(#linearGradient-7)" xlink:href="#path-8"></use>
        </g>
    </g>
</svg>