<?xml version="1.0" encoding="UTF-8"?>
<svg width="609px" height="128px" viewBox="0 0 609 128" version="1.1" xmlns="http://www.w3.org/2000/svg" xmlns:xlink="http://www.w3.org/1999/xlink">
    <title>RoutingKitLightH</title>
    <defs>
        <polygon id="path-1" points="57.3255814 57.1369295 57.6627907 57.1369295 57.6627907 69.2365145 57.3255814 69.5726141 0 24.5352697 0 12.0995851"></polygon>
        <polygon id="path-2" points="57.3255814 69.2365145 57.6627907 68.9004149 57.6627907 80.6639004 57.3255814 81 0 35.9626556 0 24.1991701"></polygon>
        <polygon id="path-3" points="57 57.1369295 57 69.5726141 0 24.5352697 0 12.0995851"></polygon>
        <polygon id="path-4" points="57 69.2365145 57 81 0 36.2987552 5.06261699e-14 24.1991701"></polygon>
    </defs>
    <g id="RoutingKitLightH" stroke="none" stroke-width="1" fill="none" fill-rule="evenodd">
        <g id="blue-left-/-pink-right-/-black-top">
            <polygon id="Path-2" fill="#333333" points="0 46.8363636 55.6588235 0 114 46.8363636 114 47.1709091 57 92 0 47.1709091"></polygon>
            <g id="left" transform="translate(0, 47)">
                <path d="M57.3255814,45.0373444 L57.6627907,45.0373444 C57.7355991,50.6427538 57.7355991,54.787982 57.6627907,57.473029 C57.5899823,60.1580761 57.4775792,60.1580761 57.3255814,57.473029 L0,12.4356846 L0,0 L57.3255814,45.0373444 Z" id="Path" fill="#40C4FF"></path>
                <g id="Path">
                    <use fill="#3DC4FF" xlink:href="#path-1"></use>
                    <use fill-opacity="0.25" fill="#FFFFFF" xlink:href="#path-1"></use>
                </g>
                <g id="Path">
                    <use fill="#3DC4FF" xlink:href="#path-2"></use>
                    <use fill-opacity="0.5" fill="#FFFFFF" xlink:href="#path-2"></use>
                </g>
            </g>
            <g id="right" transform="translate(85.5, 87.5) scale(-1, 1) translate(-85.5, -87.5)translate(57, 47)">
                <polygon id="Path" fill="#E040FB" points="57 45.0373444 57 57.473029 2.5313085e-14 12.4356846 0 0"></polygon>
                <g id="Path">
                    <use fill="#E040FB" xlink:href="#path-3"></use>
                    <use fill-opacity="0.25" fill="#FFFFFF" xlink:href="#path-3"></use>
                </g>
                <g id="Path">
                    <use fill="#E040FB" xlink:href="#path-4"></use>
                    <use fill-opacity="0.5" fill="#FFFFFF" xlink:href="#path-4"></use>
                </g>
            </g>
        </g>
        <text id="RoutingKit" font-family="Roboto-Black, Roboto" font-size="100" font-weight="800" fill="#262626">
            <tspan x="135" y="104">Routing</tspan>
            <tspan x="488.515625" y="104" font-family="Roboto-Regular, Roboto" font-weight="normal">Kit</tspan>
        </text>
        <path d="M37.1039897,32.9684814 C32.7285328,32.5920658 28.6872511,28.9431677 28.0775345,24.8184393 C27.4678178,20.6937109 30.5205534,17.655103 34.8960103,18.0315186 C39.2714672,18.4079342 43.3127489,22.0568323 43.9224655,26.1815607 C44.5321822,30.3062891 41.4794466,33.344897 37.1039897,32.9684814 Z M79.3744384,68.2843301 C74.9989815,67.9079145 70.9576998,64.2590164 70.3479831,60.134288 C69.7382664,56.0095596 72.7910021,52.9709517 77.166459,53.3473673 C81.5419159,53.7237829 85.5831975,57.372681 86.1929142,61.4974094 C86.8026309,65.6221378 83.7498953,68.6607457 79.3744384,68.2843301 Z M56.0653438,51.8557126 L66.9291552,60.2821946 C67.3583534,60.6044454 67.6570303,61.0598754 67.7256271,61.4966745 C67.7942239,61.9334736 67.7094339,62.357852 67.3716981,62.6179999 L59.0654974,69.9952947 C58.7930222,70.1888531 58.4324208,70.3034012 58.0489539,70.2723497 C57.5887935,70.2350879 57.1057676,70.0522264 56.74183,69.663386 C56.1020811,68.9647152 55.9534547,68.0183173 56.5522328,67.4918112 L62.137018,62.5534882 L45.4945517,61.2058525 C37.6718255,60.5724016 32.752952,55.2866558 31.9755217,50.3362663 C31.5525082,47.642672 32.314194,45.2606318 34.0876628,43.535514 C36.0683463,41.6834274 39.1179768,40.8522625 42.9526465,41.1627776 L62.6628485,42.7588254 C65.1937305,42.9637654 67.1501242,42.4034452 68.3362477,41.2776332 C69.3151566,40.2787901 69.7767412,38.8786859 69.5252196,37.2770893 C69.0450421,34.2194958 65.9996842,30.7385628 60.4777599,30.291421 L48.7436707,29.3412446 C47.82335,29.266721 47.0302142,28.5556297 46.8930207,27.6820315 C46.7558271,26.8084334 47.3431724,26.2091275 48.2634932,26.2836511 L59.9975823,27.2338275 C67.3601481,27.8300165 72.0260758,32.9515318 72.7577749,37.6107219 C73.4551756,42.0515124 70.6704114,46.4978285 63.0777655,45.8830085 L43.4442568,44.293171 C40.4532145,44.0509692 38.1247867,44.6530378 36.6776208,46.0452079 C35.4148039,47.1648095 34.9222571,48.8499027 35.208077,50.6698989 C35.722553,53.9458919 39.0437222,57.7366552 45.0258069,58.2210589 L61.4381931,59.5500637 L54.3719046,54.0904293 C53.5902016,53.4521379 53.3648819,52.4995296 53.7988404,51.8878031 C54.3094924,51.2822869 55.2950737,51.290221 56.0653438,51.8557126 Z" id="Combined-Shape" fill="#FFFFFF" fill-rule="nonzero" transform="translate(57.1352, 44.1387) rotate(-43) translate(-57.1352, -44.1387)"></path>
    </g>
</svg>