<?xml version="1.0" encoding="UTF-8"?>
<svg width="1280px" height="640px" viewBox="0 0 1280 640" version="1.1" xmlns="http://www.w3.org/2000/svg" xmlns:xlink="http://www.w3.org/1999/xlink">
    <title>SQLiteKitDarkV</title>
    <defs>
        <linearGradient x1="100%" y1="37.5%" x2="0%" y2="62.5%" id="linearGradient-1">
            <stop stop-color="#E040FB" offset="0%"></stop>
            <stop stop-color="#3DC3FF" offset="100%"></stop>
        </linearGradient>
        <rect id="path-2" x="0" y="0" width="1280" height="640"></rect>
        <polygon id="path-3" points="149.791653 149.673412 150.67278 149.673412 150.67278 181.368958 149.791653 182.24939 0 64.2715241 0 31.6955461"></polygon>
        <polygon id="path-4" points="149.791653 181.368958 150.67278 180.488526 150.67278 211.303641 149.791653 212.184073 0 94.2062065 0 63.3910922"></polygon>
        <polygon id="path-5" points="149.311927 149.673412 149.311927 182.24939 0 64.2715241 0 31.6955461"></polygon>
        <polygon id="path-6" points="149.311927 181.368958 149.311927 212.184073 0 95.0866383 1.32615631e-13 63.3910922"></polygon>
        <linearGradient x1="387.551706%" y1="272.823231%" x2="-398.901219%" y2="-25.9699928%" id="linearGradient-7">
            <stop stop-color="#E040FB" offset="0%"></stop>
            <stop stop-color="#3DC3FF" offset="100%"></stop>
        </linearGradient>
        <path d="M696,234.240196 C694.674075,234.511592 693.371246,234.955233 691.873806,235.217492 C671.813413,239.279297 651.75302,243.341101 630.970215,245.825294 C623.608337,246.801239 616.177169,247.26045 608.459006,246.849302 C606.400828,246.739663 604.296459,246.285534 602.192089,245.831406 C599.721593,245.186759 599.170696,243.618286 599.170696,243.618286 C599.170696,243.618286 599.170696,243.618286 599.147599,243.446041 C599.124503,243.273796 599.124503,243.273796 599.101406,243.101552 C598.411111,222.714093 601.461204,203.55197 607.347918,185.225012 C612.129832,170.08847 618.593956,156.067624 627.815574,143.561784 C633.293796,136.157972 639.573559,129.651929 647.433309,124.76918 C647.433309,124.76918 647.581727,124.606072 647.581727,124.606072 C647.730145,124.442965 647.855467,124.107612 647.660856,123.926231 C644.804555,125.484217 641.925157,126.869958 639.263466,128.609326 C624.526864,138.085154 614.025514,151.20688 606.248721,166.867941 C600.262787,179.375132 596.691317,193.379055 594.709672,207.809698 C593.980837,209.994057 593.133103,208.751799 592.846106,207.881439 C588.798632,199.286135 586.443208,190.609952 586.122865,181.871165 C584.561329,151.176444 597.945083,130.341614 622.80748,117.642876 C628.074828,115.016227 633.754494,112.924586 639.526547,111.521923 C649.230182,108.960582 660.8008,108.892894 666.952234,109.049568 C668.495867,109.131798 669.538212,110.555437 668.842313,111.715466 C666.253329,116.536961 664.974006,126.045605 664.802492,126.036468 C664.063817,129.417402 663.932071,133.514725 663.582619,137.258421 C663.457297,137.593773 663.549682,138.282752 663.42436,138.618104 C662.656165,145.588763 644.324176,151.110753 644.324176,151.110753 L662.194647,151.036632 C661.594551,155.451033 660.628328,159.674916 659.741235,163.218958 C659.764331,163.391203 659.764331,163.391203 659.615913,163.554311 C659.639009,163.726555 659.513687,164.061908 659.365269,164.225016 C655.223221,179.053615 649.276648,186.774506 648.682974,187.426938 C643.570878,195.021268 637.096503,201.345929 629.477558,206.754549 C623.880437,210.731743 617.699483,214.164795 611.884654,217.788363 C611.416303,218.105443 611.09637,218.259414 610.971048,218.594766 C610.845726,218.930119 610.697307,219.093227 610.571985,219.428579 L601.489357,241.860645 L615.368795,241.231892 C642.820996,241.497177 669.352757,237.438075 696,234.240196 Z" id="path-8"></path>
    </defs>
    <g id="SQLiteKitDarkV" stroke="none" stroke-width="1" fill="none" fill-rule="evenodd">
        <rect fill="#000000" x="0" y="0" width="1280" height="640"></rect>
        <g id="Rectangle">
            <use fill="#000000" xlink:href="#path-2"></use>
            <use fill-opacity="0.15" fill="url(#linearGradient-1)" xlink:href="#path-2"></use>
        </g>
        <g id="blue-left-/-pink-right-/-black-top" transform="translate(491, 61)">
            <polygon id="Path-2" fill="#FFFFFF" points="0 122.690909 145.494118 0 298 122.690909 298 123.567273 149 241 0 123.567273"></polygon>
            <g id="left" transform="translate(0, 123)">
                <path d="M149.791653,117.977866 L150.67278,117.977866 C150.863028,132.661552 150.863028,143.520212 150.67278,150.553844 C150.482532,157.587476 150.188823,157.587476 149.791653,150.553844 L0,32.5759779 L0,0 L149.791653,117.977866 Z" id="Path" fill="#40C4FF"></path>
                <g id="Path">
                    <use fill="#3DC4FF" xlink:href="#path-3"></use>
                    <use fill-opacity="0.25" fill="#FFFFFF" xlink:href="#path-3"></use>
                </g>
                <g id="Path">
                    <use fill="#3DC4FF" xlink:href="#path-4"></use>
                    <use fill-opacity="0.5" fill="#FFFFFF" xlink:href="#path-4"></use>
                </g>
            </g>
            <g id="right" transform="translate(223, 229.5) scale(-1, 1) translate(-223, -229.5)translate(148, 123)">
                <polygon id="Path" fill="#E040FB" points="149.311927 117.977866 149.311927 150.553844 6.63078155e-14 32.5759779 0 0"></polygon>
                <g id="Path">
                    <use fill="#E040FB" xlink:href="#path-5"></use>
                    <use fill-opacity="0.25" fill="#FFFFFF" xlink:href="#path-5"></use>
                </g>
                <g id="Path">
                    <use fill="#E040FB" xlink:href="#path-6"></use>
                    <use fill-opacity="0.5" fill="#FFFFFF" xlink:href="#path-6"></use>
                </g>
            </g>
        </g>
        <text id="SQLiteKit" font-family="Roboto-Black, Roboto" font-size="128" font-weight="800" fill="#FFFFFF">
            <tspan x="370.59375" y="548">SQLite</tspan>
            <tspan x="757.28125" y="548" font-family="Roboto-Regular, Roboto" font-weight="normal">Kit</tspan>
        </text>
        <g id="Shape" fill-rule="nonzero" transform="translate(641, 178) rotate(-43) translate(-641, -178)">
            <use fill="#000000" xlink:href="#path-8"></use>
            <use fill-opacity="0.15" fill="url(#linearGradient-7)" xlink:href="#path-8"></use>
        </g>
    </g>
</svg>