<?xml version="1.0" encoding="UTF-8"?>
<svg width="557px" height="128px" viewBox="0 0 557 128" version="1.1" xmlns="http://www.w3.org/2000/svg" xmlns:xlink="http://www.w3.org/1999/xlink">
    <title>SQLiteKitLIghtH</title>
    <defs>
        <polygon id="path-1" points="57.3255814 57.1369295 57.6627907 57.1369295 57.6627907 69.2365145 57.3255814 69.5726141 0 24.5352697 0 12.0995851"></polygon>
        <polygon id="path-2" points="57.3255814 69.2365145 57.6627907 68.9004149 57.6627907 80.6639004 57.3255814 81 0 35.9626556 0 24.1991701"></polygon>
        <polygon id="path-3" points="57 57.1369295 57 69.5726141 0 24.5352697 0 12.0995851"></polygon>
        <polygon id="path-4" points="57 69.2365145 57 81 0 36.2987552 5.06261699e-14 24.1991701"></polygon>
    </defs>
    <g id="SQLiteKitLIghtH" stroke="none" stroke-width="1" fill="none" fill-rule="evenodd">
        <g id="blue-left-/-pink-right-/-black-top">
            <polygon id="Path-2" fill="#333333" points="0 46.8363636 55.6588235 0 114 46.8363636 114 47.1709091 57 92 0 47.1709091"></polygon>
            <g id="left" transform="translate(0, 47)">
                <path d="M57.3255814,45.0373444 L57.6627907,45.0373444 C57.7355991,50.6427538 57.7355991,54.787982 57.6627907,57.473029 C57.5899823,60.1580761 57.4775792,60.1580761 57.3255814,57.473029 L0,12.4356846 L0,0 L57.3255814,45.0373444 Z" id="Path" fill="#40C4FF"></path>
                <g id="Path">
                    <use fill="#3DC4FF" xlink:href="#path-1"></use>
                    <use fill-opacity="0.25" fill="#FFFFFF" xlink:href="#path-1"></use>
                </g>
                <g id="Path">
                    <use fill="#3DC4FF" xlink:href="#path-2"></use>
                    <use fill-opacity="0.5" fill="#FFFFFF" xlink:href="#path-2"></use>
                </g>
            </g>
            <g id="right" transform="translate(85.5, 87.5) scale(-1, 1) translate(-85.5, -87.5)translate(57, 47)">
                <polygon id="Path" fill="#E040FB" points="57 45.0373444 57 57.473029 2.5313085e-14 12.4356846 0 0"></polygon>
                <g id="Path">
                    <use fill="#E040FB" xlink:href="#path-3"></use>
                    <use fill-opacity="0.25" fill="#FFFFFF" xlink:href="#path-3"></use>
                </g>
                <g id="Path">
                    <use fill="#E040FB" xlink:href="#path-4"></use>
                    <use fill-opacity="0.5" fill="#FFFFFF" xlink:href="#path-4"></use>
                </g>
            </g>
        </g>
        <text id="SQLiteKit" font-family="Roboto-Black, Roboto" font-size="100" font-weight="800" fill="#262626">
            <tspan x="135" y="104">SQLite</tspan>
            <tspan x="437.099609" y="104" font-family="Roboto-Regular, Roboto" font-weight="normal">Kit</tspan>
        </text>
        <path d="M79,66.9145709 C78.4696299,67.022736 77.9484984,67.1995493 77.3495224,67.304073 C69.3253651,68.922908 61.3012079,70.5417431 52.9880859,71.5318203 C50.0433347,71.9207837 47.0708678,72.1038027 43.9836022,71.9399393 C43.1603314,71.8962424 42.3185834,71.7152492 41.4768355,71.5342559 C40.4886372,71.2773317 40.2682783,70.6522152 40.2682783,70.6522152 C40.2682783,70.6522152 40.2682783,70.6522152 40.2590397,70.5835671 C40.2498012,70.5149189 40.2498012,70.5149189 40.2405626,70.4462707 C39.9644444,62.3208342 41.1844815,54.6837563 43.5391673,47.3795337 C45.4519327,41.3468538 48.0375826,35.7588357 51.7262295,30.7746241 C53.9175184,27.8238295 56.4294238,25.2308414 59.5733234,23.2848183 C59.5733234,23.2848183 59.6326908,23.2198115 59.6326908,23.2198115 C59.6920581,23.1548047 59.7421869,23.0211498 59.6643424,22.9488602 C58.5218218,23.5697966 57.3700626,24.1220849 56.3053865,24.8153109 C50.4107455,28.5919094 46.2102056,33.8215824 43.0994882,40.0633097 C40.7051149,45.0480598 39.2765268,50.6293337 38.4838689,56.3806766 C38.1923348,57.2512545 37.8532413,56.7561516 37.7384426,56.4092693 C36.1194526,52.9836046 35.1772831,49.5257057 35.0491459,46.0428556 C34.4245316,33.8094525 39.7780334,25.5057155 49.7229919,20.4446244 C51.8299311,19.3977718 54.1017978,18.5641466 56.4106187,18.0051141 C60.2920728,16.9842899 64.9203199,16.9573129 67.3808938,17.0197554 C67.9983469,17.0525281 68.4152849,17.6199206 68.1369254,18.0822508 C67.1013316,20.0038613 66.5896026,23.7935382 66.5209967,23.7898968 C66.2255266,25.1373706 66.1728285,26.7703612 66.0330474,28.2624142 C65.9829186,28.3960691 66.0198729,28.6706618 65.9697441,28.8043168 C65.6624662,31.5824781 58.3296706,33.7832712 58.3296706,33.7832712 L65.4778589,33.75373 C65.2378202,35.5130928 64.8513312,37.1965247 64.4964938,38.6090052 C64.5057324,38.6776533 64.5057324,38.6776533 64.446365,38.7426601 C64.4556036,38.8113083 64.4054748,38.9449633 64.3461075,39.00997 C62.6892886,44.9199192 60.3106591,47.9970859 60.0731897,48.257113 C58.0283511,51.2838386 55.4386013,53.8045371 52.3910233,55.9601462 C50.1521749,57.54526 47.6797931,58.9135051 45.3538617,60.3576811 C45.1665211,60.4840532 45.0385478,60.5454186 44.9884191,60.6790736 C44.9382903,60.8127285 44.878923,60.8777353 44.8287942,61.0113902 L41.1957426,69.9517064 L46.7475181,69.7011164 C57.7283984,69.8068458 68.3411028,68.1890879 79,66.9145709 Z" id="Shape" fill="#FFFFFF" fill-rule="nonzero" transform="translate(57, 44.5) rotate(-43) translate(-57, -44.5)"></path>
    </g>
</svg>