<?xml version="1.0" encoding="UTF-8"?>
<svg width="882px" height="176px" viewBox="0 0 882 176" version="1.1" xmlns="http://www.w3.org/2000/svg" xmlns:xlink="http://www.w3.org/1999/xlink">
    <title>Vapor Logo Github README</title>
    <defs>
        <polygon id="path-1" points="51.3953488 50.7883817 51.6976744 50.7883817 51.6976744 61.5435685 51.3953488 61.8423237 0 21.8091286 0 10.7551867"></polygon>
        <polygon id="path-2" points="51.3953488 61.5435685 51.6976744 61.2448133 51.6976744 71.7012448 51.3953488 72 0 31.966805 0 21.5103734"></polygon>
        <polygon id="path-3" points="52 50.7883817 52 61.8423237 0 21.8091286 0 10.7551867"></polygon>
        <polygon id="path-4" points="52 61.5435685 52 72 0 32.2655602 4.61852778e-14 21.5103734"></polygon>
        <linearGradient x1="16.1347987%" y1="95.0445274%" x2="63.2018008%" y2="-14.5629848%" id="linearGradient-5">
            <stop stop-color="#FBC044" offset="0%"></stop>
            <stop stop-color="#FFEE56" offset="100%"></stop>
        </linearGradient>
        <linearGradient x1="88.839414%" y1="-16.097106%" x2="20.3446773%" y2="115.127373%" id="linearGradient-6">
            <stop stop-color="#FFFFFF" stop-opacity="0.5" offset="0%"></stop>
            <stop stop-color="#000000" stop-opacity="0" offset="100%"></stop>
        </linearGradient>
        <path d="M45.9085714,0 C49.2662857,0 52,2.714 52,6.077 L52,59 L45.6114286,53.395 L42.016,50.091 L38.2125714,46.5805 L39.7874286,52.038 L6.09142857,52.038 C2.73371429,52.038 0,49.324 0,45.961 L0,6.077 C0,2.714 2.73371429,0 6.09142857,0 Z M21.4537143,13.7467548 L21.3804526,13.7467485 C20.813869,13.7530525 17.0472605,13.9083824 13.104,16.8445 C13.104,16.8445 13.029046,16.9793745 12.8989787,17.2354444 L12.80432,17.4239625 C12.633673,17.7675838 12.4004283,18.2570763 12.1318022,18.8736762 L11.9665985,19.2587388 C10.6989936,22.2588537 8.82514286,27.7568971 8.82514286,34.043 C8.82514286,34.043 11.3211429,38.3205 17.888,38.527 C17.888,38.527 18.9874286,37.1995 19.8788571,36.0785 C16.1051429,34.9575 14.6788571,32.5975 14.6788571,32.5975 C14.6788571,32.5975 14.976,32.804 15.5108571,33.099 C15.5405714,33.1285 15.5702857,33.158 15.6297143,33.1875 L15.8971429,33.335 C16.64,33.748 17.3828571,34.0725 18.0662857,34.338 C19.2845714,34.81 20.7405714,35.282 22.4342857,35.6065 C24.6628571,36.0195 27.2777143,36.167 30.1302857,35.636 C31.5268571,35.4 32.9531429,34.987 34.4388571,34.3675 C35.4788571,33.984 36.6377143,33.4235 37.856,32.627 C37.856,32.627 36.3702857,35.046 32.4777143,36.1375 C32.516472,36.1862391 32.5555668,36.2352571 32.5948961,36.2844375 L32.8328644,36.5805383 C33.6299995,37.5678318 34.4388571,38.527 34.4388571,38.527 C41.0057143,38.3205 43.5314286,34.043 43.5314286,34.043 C43.5314286,24.544 39.2525714,16.8445 39.2525714,16.8445 C35.3093109,13.9083824 31.5427025,13.7530525 30.9761188,13.7467485 L30.9028571,13.7467548 L30.4868571,14.219 C35.5382857,15.753 37.8857143,17.9655 37.8857143,17.9655 C34.7954286,16.284 31.7645714,15.458 28.9417143,15.1335 C26.8022857,14.8975 24.752,14.9565 22.9394286,15.1925 C22.7611429,15.1925 22.6125714,15.222 22.4342857,15.2515 C21.3942857,15.34 18.8685714,15.7235 15.6891429,17.11 C14.5897143,17.6115 13.936,17.9655 13.936,17.9655 C13.936,17.9655 16.4022857,15.635 21.7508571,14.101 L21.4537143,13.7467548 Z M21.0474517,25 C22.7504394,25 24.1247803,26.3513514 24.0949033,28 C24.0949033,29.6486486 22.7504394,31 21.0474517,31 C19.3743409,31 18,29.6486486 18,28 C18,26.3513514 19.344464,25 21.0474517,25 Z M31.9525483,25 C33.655536,25 35,26.3513514 35,28 C35,29.6486486 33.655536,31 31.9525483,31 C30.2794376,31 28.9050967,29.6486486 28.9050967,28 C28.9050967,26.3513514 30.2495606,25 31.9525483,25 Z" id="path-7"></path>
    </defs>
    <g id="Vapor-Logo-Github-README" stroke="none" stroke-width="1" fill="none" fill-rule="evenodd">
        <rect fill="#FFFFFF" x="0" y="0" width="882" height="176"></rect>
        <g id="Group" transform="translate(244, 31)">
            <g id="blue-left-/-pink-right-/-black-top">
                <polygon id="Path-2" fill="#333333" points="0 42.2545455 50.2882353 0 103 42.2545455 103 42.5563636 51.5 83 0 42.5563636"></polygon>
                <g id="left" transform="translate(0, 43)">
                    <path d="M51.3953488,40.033195 L51.6976744,40.033195 C51.762951,45.0157811 51.762951,48.7004284 51.6976744,51.0871369 C51.6323979,53.4738454 51.5316227,53.4738454 51.3953488,51.0871369 L0,11.0539419 L0,0 L51.3953488,40.033195 Z" id="Path" fill="#40C4FF"></path>
                    <g id="Path">
                        <use fill="#3DC4FF" xlink:href="#path-1"></use>
                        <use fill-opacity="0.25" fill="#FFFFFF" xlink:href="#path-1"></use>
                    </g>
                    <g id="Path">
                        <use fill="#3DC4FF" xlink:href="#path-2"></use>
                        <use fill-opacity="0.5" fill="#FFFFFF" xlink:href="#path-2"></use>
                    </g>
                </g>
                <g id="right" transform="translate(77, 79) scale(-1, 1) translate(-77, -79)translate(51, 43)">
                    <polygon id="Path" fill="#E040FB" points="52 40.033195 52 51.0871369 2.30926389e-14 11.0539419 0 0"></polygon>
                    <g id="Path">
                        <use fill="#E040FB" xlink:href="#path-3"></use>
                        <use fill-opacity="0.25" fill="#FFFFFF" xlink:href="#path-3"></use>
                    </g>
                    <g id="Path">
                        <use fill="#E040FB" xlink:href="#path-4"></use>
                        <use fill-opacity="0.5" fill="#FFFFFF" xlink:href="#path-4"></use>
                    </g>
                </g>
                <path d="M48.6282527,62.1276717 C48.6282527,62.1276717 63.4981974,43.3382433 63.5131084,35.0545404 C63.5279692,26.7708375 56.9083102,20.0674942 48.727661,20.0821801 C40.547012,20.0969142 33.9032182,26.8241071 33.888321,35.10781 C33.8734464,43.3915129 48.6282527,62.1276717 48.6282527,62.1276717 Z" id="Shape" fill="#FFFFFF" fill-rule="nonzero" transform="translate(48.7007, 41.1049) scale(-1, 1) rotate(-130) translate(-48.7007, -41.1049)"></path>
            </g>
            <text id="VAPOR" font-family="Roboto-Black, Roboto" font-size="80" font-weight="800" fill="#000000">
                <tspan x="127.082031" y="85">VAPOR</tspan>
            </text>
        </g>
        <polygon id="Path" fill="url(#linearGradient-5)" fill-rule="nonzero" points="795.5 101.434111 777.268341 111 780.75039 90.7388889 766 76.3904444 786.38417 73.4341111 795.5 55 804.61583 73.4341111 825 76.3904444 810.24961 90.7388889 813.731659 111"></polygon>
        <path id="Line" d="M809.990227,6.06256966 L817.808091,12.397473 L814.147,14.059 L814.260126,14.3359843 C817.842742,23.1836318 819.63677,31.0540576 819.63677,37.9501926 C819.63677,46.8548454 817.83028,55.1241209 814.217116,62.7526024 L814.003088,63.2044788 L813.099335,62.776424 L813.313363,62.3245476 C816.86224,54.8317967 818.63677,46.7088173 818.63677,37.9501926 C818.63677,31.133793 816.838681,23.3074842 813.236916,14.4742765 L809.613023,16.117803 L809.990227,6.06256966 Z" fill="#979797" fill-rule="nonzero"></path>
        <text id="Star-this-repo." font-family="Roboto-ThinItalic, Roboto" font-size="14" font-style="italic" font-weight="300" fill="#000000">
            <tspan x="754.480957" y="136">Star this repo.</tspan>
        </text>
        <text id="Click-to-join-chat." font-family="Roboto-ThinItalic, Roboto" font-size="14" font-style="italic" font-weight="300" fill="#000000">
            <tspan x="40.0634766" y="139">Click to join chat.</tspan>
        </text>
        <g id="Discord-Logo-Black" transform="translate(64, 59)" fill-rule="nonzero">
            <g id="Combined-Shape">
                <use fill="#7289DA" xlink:href="#path-7"></use>
                <use fill-opacity="0.25" fill="url(#linearGradient-6)" xlink:href="#path-7"></use>
            </g>
        </g>
    </g>
</svg>