<?xml version="1.0" encoding="UTF-8"?>
<svg width="340px" height="381px" viewBox="0 0 340 381" version="1.1" xmlns="http://www.w3.org/2000/svg" xmlns:xlink="http://www.w3.org/1999/xlink">
    <title>Vapor 4 Logo Dark Solid Colours</title>
    <g id="Vapor-4-Logo-Dark-Solid-Colours" stroke="none" stroke-width="1" fill="none" fill-rule="evenodd">
        <g id="blue-left-/-pink-right-/-black-top">
            <polygon id="Path-2" fill="#FFFFFF" points="0 140 166 2.84217094e-14 340 140 340 141 170 275 0 141"></polygon>
            <g id="left" transform="translate(0, 140)">
                <path d="M170,134 L171,134 C171.215915,150.677823 171.215915,163.011156 171,171 C170.784085,178.988844 170.450752,178.988844 170,171 L0,37 L0,0 L170,134 Z" id="Path" fill="#40C4FF"></path>
                <polygon id="Path" fill="#3DC4FF" points="170 170 171 170 171 206 170 207 0 73 0 36"></polygon>
                <polygon id="Path" fill="#3DC4FF" points="170 206 171 205 171 240 170 241 0 107 0 72"></polygon>
            </g>
            <g id="right" transform="translate(255, 260.5) scale(-1, 1) translate(-255, -260.5)translate(170, 140)" fill="#E040FB">
                <polygon id="Path" points="170 134 170 171 7.54951657e-14 37 0 0"></polygon>
                <polygon id="Path" points="170 170 170 207 0 73 0 36"></polygon>
                <polygon id="Path" points="170 206 170 241 0 108 1.50990331e-13 72"></polygon>
            </g>
            <path d="M160.657777,205.709917 C160.657777,205.709917 209.736682,143.681233 209.736682,116.295739 C209.736682,88.9102456 187.798635,66.7099166 160.736682,66.7099166 C133.674729,66.7099166 111.736682,88.9102456 111.736682,116.295739 C111.736682,143.681233 160.657777,205.709917 160.657777,205.709917 Z" id="Shape" fill="#000000" fill-rule="nonzero" transform="translate(160.7367, 136.2099) scale(-1, 1) rotate(-130) translate(-160.7367, -136.2099)"></path>
        </g>
    </g>
</svg>