<?xml version="1.0" encoding="UTF-8"?>
<svg width="924px" height="741px" viewBox="0 0 924 741" version="1.1" xmlns="http://www.w3.org/2000/svg" xmlns:xlink="http://www.w3.org/1999/xlink">
    <title>Vapor 4 Logo Light Text Diagonal Right</title>
    <defs>
        <polygon id="path-1" points="170 170 171 170 171 206 170 207 0 73 0 36"></polygon>
        <polygon id="path-2" points="170 206 171 205 171 240 170 241 0 107 0 72"></polygon>
        <polygon id="path-3" points="170 170 170 207 0 73 0 36"></polygon>
        <polygon id="path-4" points="170 206 170 241 0 108 1.50990331e-13 72"></polygon>
    </defs>
    <g id="Vapor-4-Logo-Light-Text-Diagonal-Right" stroke="none" stroke-width="1" fill="none" fill-rule="evenodd">
        <g id="blue-left-/-pink-right-/-black-top" transform="translate(292, 180)">
            <polygon id="Path-2" fill="#333333" points="0 140 166 2.84217094e-14 340 140 340 141 170 275 0 141"></polygon>
            <g id="left" transform="translate(0, 140)">
                <path d="M170,134 L171,134 C171.215915,150.677823 171.215915,163.011156 171,171 C170.784085,178.988844 170.450752,178.988844 170,171 L0,37 L0,0 L170,134 Z" id="Path" fill="#40C4FF"></path>
                <g id="Path">
                    <use fill="#3DC4FF" xlink:href="#path-1"></use>
                    <use fill-opacity="0.25" fill="#FFFFFF" xlink:href="#path-1"></use>
                </g>
                <g id="Path">
                    <use fill="#3DC4FF" xlink:href="#path-2"></use>
                    <use fill-opacity="0.5" fill="#FFFFFF" xlink:href="#path-2"></use>
                </g>
            </g>
            <g id="right" transform="translate(255, 260.5) scale(-1, 1) translate(-255, -260.5)translate(170, 140)">
                <polygon id="Path" fill="#E040FB" points="170 134 170 171 7.54951657e-14 37 0 0"></polygon>
                <g id="Path">
                    <use fill="#E040FB" xlink:href="#path-3"></use>
                    <use fill-opacity="0.25" fill="#FFFFFF" xlink:href="#path-3"></use>
                </g>
                <g id="Path">
                    <use fill="#E040FB" xlink:href="#path-4"></use>
                    <use fill-opacity="0.5" fill="#FFFFFF" xlink:href="#path-4"></use>
                </g>
            </g>
            <path d="M160.657777,205.709917 C160.657777,205.709917 209.736682,143.681233 209.736682,116.295739 C209.736682,88.9102456 187.798635,66.7099166 160.736682,66.7099166 C133.674729,66.7099166 111.736682,88.9102456 111.736682,116.295739 C111.736682,143.681233 160.657777,205.709917 160.657777,205.709917 Z" id="Shape" fill="#FFFFFF" fill-rule="nonzero" transform="translate(160.7367, 136.2099) scale(-1, 1) rotate(-130) translate(-160.7367, -136.2099)"></path>
        </g>
        <path d="M490.13321,526.052777 L499.089093,494.01981 L511.194975,494.01981 L496.062622,538.01981 L484.203799,538.01981 L469.194975,494.01981 L481.20821,494.01981 L490.13321,526.052777 Z M539.921937,530.676468 L525.169441,530.676468 L522.593121,538.896248 L511.091695,538.896248 L527.469726,494.896248 L537.590982,494.896248 L554.091695,538.896248 L542.528927,538.896248 L539.921937,530.676468 Z M527.684617,522.397976 L537.684617,522.397976 L532.668642,506.397976 L527.684617,522.397976 Z M567.866767,523.437649 L567.866767,538.36622 L556.840589,538.36622 L556.840589,494.36622 L575.091898,494.36622 C578.589298,494.36622 581.683508,494.985719 584.374621,496.224737 C587.065734,497.463754 589.149482,499.226557 590.625929,501.513198 C592.102377,503.79984 592.840589,506.393678 592.840589,509.294792 C592.840589,513.586022 591.243746,517.015933 588.050013,519.584627 C584.85628,522.153321 580.474125,523.437649 574.903416,523.437649 L567.866767,523.437649 Z M567.416122,515.445315 L574.750973,515.445315 C576.919549,515.445315 578.572532,514.91913 579.709971,513.866744 C580.84741,512.814358 581.416122,511.328658 581.416122,509.409601 C581.416122,507.304829 580.831465,505.623099 579.662135,504.364363 C578.492805,503.105627 576.898288,502.46595 574.878536,502.445315 L567.416122,502.445315 L567.416122,515.445315 Z M635.960163,517.535798 C635.960163,521.90213 635.154049,525.766173 633.541796,529.128044 C631.929543,532.489914 629.638749,535.077901 626.669347,536.892081 C623.699944,538.706261 620.317325,539.613338 616.521388,539.613338 C612.72545,539.613338 609.358137,538.73701 606.419347,536.984327 C603.480557,535.231645 601.189763,532.725654 599.546898,529.466279 C597.904032,526.206904 597.041796,522.465854 596.960163,518.243017 L596.960163,515.721627 C596.960163,511.334795 597.761175,507.465627 599.363224,504.114006 C600.965273,500.762385 603.261169,498.174399 606.250979,496.349969 C609.24079,494.525539 612.643817,493.613338 616.460163,493.613338 C620.235692,493.613338 623.603005,494.51529 626.562204,496.31922 C629.521402,498.123151 631.8224,500.690638 633.465265,504.02176 C635.10813,507.352882 635.939755,511.170803 635.960163,515.475637 L635.960163,517.535798 Z M625.274823,515.26014 C625.274823,510.829987 624.5412,507.466593 623.07393,505.169855 C621.606661,502.873117 619.50698,501.724765 616.774823,501.724765 C611.431939,501.724765 608.608753,505.766963 608.30518,513.851481 L608.274823,517.128144 C608.274823,521.49705 608.993268,524.855341 610.43018,527.203118 C611.867092,529.550894 614.00219,530.724765 616.835538,530.724765 C619.527218,530.724765 621.601602,529.571309 623.058752,527.264364 C624.515902,524.957418 625.254585,521.639957 625.274823,517.311882 L625.274823,515.26014 Z M658.704962,522.402517 L652.878726,522.402517 L652.878726,537.935484 L642.115524,537.935484 L642.115524,493.935484 L659.686222,493.935484 C664.980968,493.935484 669.12062,495.093897 672.105302,497.410759 C675.089985,499.72762 676.582304,503.001397 676.582304,507.232187 C676.582304,510.294474 675.95369,512.83291 674.696444,514.847572 C673.439197,516.862234 671.471585,518.494086 668.793548,519.743176 L678.115524,537.482187 L678.115524,537.935484 L666.585711,537.935484 L658.704962,522.402517 Z M652.487823,514.588492 L659.310518,514.588492 C661.359386,514.588492 662.901135,514.063497 663.935813,513.013492 C664.970492,511.963487 665.487823,510.498501 665.487823,508.618492 C665.487823,506.738483 664.965369,505.263497 663.920447,504.193492 C662.875525,503.123487 661.338897,502.588492 659.310518,502.588492 L652.487823,502.588492 L652.487823,514.588492 Z" id="VAPOR" fill="#262626" transform="translate(573.6552, 516.6133) rotate(-39) translate(-573.6552, -516.6133)"></path>
    </g>
</svg>