<?xml version="1.0" encoding="UTF-8"?>
<svg width="500px" height="500px" viewBox="0 0 500 500" version="1.1" xmlns="http://www.w3.org/2000/svg" xmlns:xlink="http://www.w3.org/1999/xlink">
    <title>Vapor 4 Logo Light Large Margin</title>
    <defs>
        <polygon id="path-1" points="170 170 171 170 171 205 170 206 0 72 0 36"></polygon>
        <polygon id="path-2" points="170 205 171 205 171 240 170 241 0 107 0 71"></polygon>
        <polygon id="path-3" points="170 170 170 206 0 72 0 36"></polygon>
        <polygon id="path-4" points="170 205 170 241 0 108 7.54951657e-14 71"></polygon>
        <polygon id="path-5" points="170 170 171 170 171 206 170 207 0 73 0 36"></polygon>
        <polygon id="path-6" points="170 206 171 205 171 240 170 241 0 107 0 72"></polygon>
        <polygon id="path-7" points="170 170 170 207 0 73 0 36"></polygon>
        <polygon id="path-8" points="170 206 170 241 0 108 1.50990331e-13 72"></polygon>
    </defs>
    <g id="Vapor-4-Logo-Light-Large-Margin" stroke="none" stroke-width="1" fill="none" fill-rule="evenodd">
        <g id="blue-left-/-pink-right-/-blue-top" transform="translate(80, 59)">
            <polygon id="Path-2" fill="#3CB7F0" points="0 140 166 2.84217094e-14 340 140 340 141 170 275 0 141"></polygon>
            <g id="left" transform="translate(0, 140)">
                <path d="M170,134 L171,134 C171.215915,150.677823 171.215915,163.011156 171,171 C170.784085,178.988844 170.450752,178.988844 170,171 L0,37 L0,0 L170,134 Z" id="Path" fill="#40C4FF"></path>
                <g id="Path">
                    <use fill="#3DC4FF" xlink:href="#path-1"></use>
                    <use fill-opacity="0.25" fill="#FFFFFF" xlink:href="#path-1"></use>
                </g>
                <g id="Path">
                    <use fill="#3DC4FF" xlink:href="#path-2"></use>
                    <use fill-opacity="0.5" fill="#FFFFFF" xlink:href="#path-2"></use>
                </g>
            </g>
            <g id="right" transform="translate(255, 260.5) scale(-1, 1) translate(-255, -260.5)translate(170, 140)">
                <polygon id="Path" fill="#E040FB" points="170 134 170 171 7.54951657e-14 37 0 0"></polygon>
                <g id="Path">
                    <use fill="#E040FB" xlink:href="#path-3"></use>
                    <use fill-opacity="0.25" fill="#FFFFFF" xlink:href="#path-3"></use>
                </g>
                <g id="Path">
                    <use fill="#E040FB" xlink:href="#path-4"></use>
                    <use fill-opacity="0.5" fill="#FFFFFF" xlink:href="#path-4"></use>
                </g>
            </g>
            <path d="M160.657777,205.709917 C160.657777,205.709917 209.736682,143.681233 209.736682,116.295739 C209.736682,88.9102456 187.798635,66.7099166 160.736682,66.7099166 C133.674729,66.7099166 111.736682,88.9102456 111.736682,116.295739 C111.736682,143.681233 160.657777,205.709917 160.657777,205.709917 Z" id="Shape" fill="#FFFFFF" fill-rule="nonzero" transform="translate(160.7367, 136.2099) scale(-1, 1) rotate(-130) translate(-160.7367, -136.2099)"></path>
        </g>
        <g id="blue-left-/-pink-right-/-black-top" transform="translate(80, 59)">
            <polygon id="Path-2" fill="#333333" points="0 140 166 2.84217094e-14 340 140 340 141 170 275 0 141"></polygon>
            <g id="left" transform="translate(0, 140)">
                <path d="M170,134 L171,134 C171.215915,150.677823 171.215915,163.011156 171,171 C170.784085,178.988844 170.450752,178.988844 170,171 L0,37 L0,0 L170,134 Z" id="Path" fill="#40C4FF"></path>
                <g id="Path">
                    <use fill="#3DC4FF" xlink:href="#path-5"></use>
                    <use fill-opacity="0.25" fill="#FFFFFF" xlink:href="#path-5"></use>
                </g>
                <g id="Path">
                    <use fill="#3DC4FF" xlink:href="#path-6"></use>
                    <use fill-opacity="0.5" fill="#FFFFFF" xlink:href="#path-6"></use>
                </g>
            </g>
            <g id="right" transform="translate(255, 260.5) scale(-1, 1) translate(-255, -260.5)translate(170, 140)">
                <polygon id="Path" fill="#E040FB" points="170 134 170 171 7.54951657e-14 37 0 0"></polygon>
                <g id="Path">
                    <use fill="#E040FB" xlink:href="#path-7"></use>
                    <use fill-opacity="0.25" fill="#FFFFFF" xlink:href="#path-7"></use>
                </g>
                <g id="Path">
                    <use fill="#E040FB" xlink:href="#path-8"></use>
                    <use fill-opacity="0.5" fill="#FFFFFF" xlink:href="#path-8"></use>
                </g>
            </g>
            <path d="M160.657777,205.709917 C160.657777,205.709917 209.736682,143.681233 209.736682,116.295739 C209.736682,88.9102456 187.798635,66.7099166 160.736682,66.7099166 C133.674729,66.7099166 111.736682,88.9102456 111.736682,116.295739 C111.736682,143.681233 160.657777,205.709917 160.657777,205.709917 Z" id="Shape" fill="#FFFFFF" fill-rule="nonzero" transform="translate(160.7367, 136.2099) scale(-1, 1) rotate(-130) translate(-160.7367, -136.2099)"></path>
        </g>
    </g>
</svg>