<?xml version="1.0" encoding="UTF-8"?>
<svg width="924px" height="741px" viewBox="0 0 924 741" version="1.1" xmlns="http://www.w3.org/2000/svg" xmlns:xlink="http://www.w3.org/1999/xlink">
    <title>Vapor 4 Logo Text Diagonal Left</title>
    <defs>
        <polygon id="path-1" points="170 170 171 170 171 206 170 207 0 73 0 36"></polygon>
        <polygon id="path-2" points="170 206 171 205 171 240 170 241 0 107 0 72"></polygon>
        <polygon id="path-3" points="170 170 170 207 0 73 0 36"></polygon>
        <polygon id="path-4" points="170 206 170 241 0 108 1.50990331e-13 72"></polygon>
    </defs>
    <g id="Vapor-4-Logo-Text-Diagonal-Left" stroke="none" stroke-width="1" fill="none" fill-rule="evenodd">
        <g id="blue-left-/-pink-right-/-black-top" transform="translate(292, 180)">
            <polygon id="Path-2" fill="#333333" points="0 140 166 2.84217094e-14 340 140 340 141 170 275 0 141"></polygon>
            <g id="left" transform="translate(0, 140)">
                <path d="M170,134 L171,134 C171.215915,150.677823 171.215915,163.011156 171,171 C170.784085,178.988844 170.450752,178.988844 170,171 L0,37 L0,0 L170,134 Z" id="Path" fill="#40C4FF"></path>
                <g id="Path">
                    <use fill="#3DC4FF" xlink:href="#path-1"></use>
                    <use fill-opacity="0.25" fill="#FFFFFF" xlink:href="#path-1"></use>
                </g>
                <g id="Path">
                    <use fill="#3DC4FF" xlink:href="#path-2"></use>
                    <use fill-opacity="0.5" fill="#FFFFFF" xlink:href="#path-2"></use>
                </g>
            </g>
            <g id="right" transform="translate(255, 260.5) scale(-1, 1) translate(-255, -260.5)translate(170, 140)">
                <polygon id="Path" fill="#E040FB" points="170 134 170 171 7.54951657e-14 37 0 0"></polygon>
                <g id="Path">
                    <use fill="#E040FB" xlink:href="#path-3"></use>
                    <use fill-opacity="0.25" fill="#FFFFFF" xlink:href="#path-3"></use>
                </g>
                <g id="Path">
                    <use fill="#E040FB" xlink:href="#path-4"></use>
                    <use fill-opacity="0.5" fill="#FFFFFF" xlink:href="#path-4"></use>
                </g>
            </g>
            <path d="M160.657777,205.709917 C160.657777,205.709917 209.736682,143.681233 209.736682,116.295739 C209.736682,88.9102456 187.798635,66.7099166 160.736682,66.7099166 C133.674729,66.7099166 111.736682,88.9102456 111.736682,116.295739 C111.736682,143.681233 160.657777,205.709917 160.657777,205.709917 Z" id="Shape" fill="#FFFFFF" fill-rule="nonzero" transform="translate(160.7367, 136.2099) scale(-1, 1) rotate(-130) translate(-160.7367, -136.2099)"></path>
        </g>
        <path d="M274.283289,528.204232 L283.239171,496.171265 L295.345053,496.171265 L280.2127,540.171265 L268.353877,540.171265 L253.345053,496.171265 L265.358289,496.171265 L274.283289,528.204232 Z M324.072016,532.827923 L309.319519,532.827923 L306.7432,541.047703 L295.241773,541.047703 L311.619805,497.047703 L321.74106,497.047703 L338.241773,541.047703 L326.679006,541.047703 L324.072016,532.827923 Z M311.834695,524.54943 L321.834695,524.54943 L316.818721,508.54943 L311.834695,524.54943 Z M352.016846,525.589103 L352.016846,540.517675 L340.990668,540.517675 L340.990668,496.517675 L359.241976,496.517675 C362.739376,496.517675 365.833586,497.137174 368.524699,498.376191 C371.215812,499.615208 373.299561,501.378011 374.776008,503.664653 C376.252455,505.951294 376.990668,508.545133 376.990668,511.446246 C376.990668,515.737476 375.393825,519.167387 372.200092,521.736081 C369.006358,524.304775 364.624203,525.589103 359.053495,525.589103 L352.016846,525.589103 Z M351.5662,517.59677 L358.901052,517.59677 C361.069628,517.59677 362.72261,517.070585 363.86005,516.018198 C364.997489,514.965812 365.5662,513.480113 365.5662,511.561056 C365.5662,509.456283 364.981544,507.774554 363.812214,506.515817 C362.642883,505.257081 361.048366,504.617405 359.028614,504.59677 L351.5662,504.59677 L351.5662,517.59677 Z M420.110241,519.687252 C420.110241,524.053584 419.304127,527.917628 417.691874,531.279498 C416.079621,534.641369 413.788828,537.229355 410.819425,539.043536 C407.850023,540.857716 404.467403,541.764792 400.671466,541.764792 C396.875529,541.764792 393.508215,540.888464 390.569425,539.135782 C387.630635,537.383099 385.339842,534.877108 383.696976,531.617733 C382.054111,528.358359 381.191875,524.617309 381.110241,520.394471 L381.110241,517.873081 C381.110241,513.48625 381.911254,509.617082 383.513303,506.265461 C385.115352,502.91384 387.411247,500.325853 390.401058,498.501423 C393.390869,496.676993 396.793896,495.764792 400.610241,495.764792 C404.385771,495.764792 407.753084,496.666744 410.712282,498.470675 C413.671481,500.274605 415.972478,502.842093 417.615343,506.173215 C419.258209,509.504337 420.089833,513.322257 420.110241,517.627092 L420.110241,519.687252 Z M409.424902,517.411594 C409.424902,512.981442 408.691278,509.618047 407.224009,507.321309 C405.75674,505.024571 403.657058,503.876219 400.924902,503.876219 C395.582018,503.876219 392.758832,507.918418 392.455259,516.002935 L392.424902,519.279598 C392.424902,523.648504 393.143347,527.006795 394.580259,529.354572 C396.017171,531.702349 398.152268,532.876219 400.985616,532.876219 C403.677296,532.876219 405.75168,531.722764 407.20883,529.415818 C408.66598,527.108872 409.404663,523.791412 409.424902,519.463336 L409.424902,517.411594 Z M442.85504,524.553971 L437.028805,524.553971 L437.028805,540.086938 L426.265602,540.086938 L426.265602,496.086938 L443.836301,496.086938 C449.131046,496.086938 453.270698,497.245352 456.255381,499.562213 C459.240063,501.879075 460.732382,505.152851 460.732382,509.383642 C460.732382,512.445928 460.103769,514.984364 458.846522,516.999026 C457.589276,519.013688 455.621663,520.64554 452.943626,521.894631 L462.265602,539.633642 L462.265602,540.086938 L450.73579,540.086938 L442.85504,524.553971 Z M436.637901,516.739946 L443.460596,516.739946 C445.509464,516.739946 447.051214,516.214952 448.085892,515.164946 C449.12057,514.114941 449.637901,512.649956 449.637901,510.769946 C449.637901,508.889937 449.115448,507.414952 448.070525,506.344946 C447.025603,505.274941 445.488975,504.739946 443.460596,504.739946 L436.637901,504.739946 L436.637901,516.739946 Z" id="VAPOR" fill="#262626" transform="translate(357.8053, 518.7648) rotate(38) translate(-357.8053, -518.7648)"></path>
    </g>
</svg>